<svg width="90" height="117" viewBox="0 0 90 117" fill="none" xmlns="http://www.w3.org/2000/svg">
<path d="M30 56.3532C30 88.9583 30 92.3119 30 117C30 93.3853 0 91.6418 0 59.0367C0 26.4316 30 22.5413 30 0C30 31.1284 30 23.7481 30 56.3532Z" fill="#1A1A1A"/>
<path d="M60 56.3532C60 88.9583 60 92.3119 60 117C60 93.3853 90 91.6418 90 59.0367C90 26.4316 60 22.5413 60 0C60 31.1284 60 23.7481 60 56.3532Z" fill="#1A1A1A"/>
<circle cx="45" cy="58" r="34" fill="#683BF2"/>
<path d="M55 58.5L35 40L45.6446 58.5L35 77L55 58.5Z" fill="white"/>
</svg>
