<svg width="70" height="70" viewBox="0 0 70 70" fill="none" xmlns="http://www.w3.org/2000/svg">
<path d="M68.8619 49.7088L67.5405 49.0507L37.7621 63.8817C36.053 64.7441 33.947 64.7441 32.2379 63.8817L2.45947 49.0507L1.13812 49.7088C0.440588 50.056 0 50.7661 0 51.543C0 52.3198 0.440588 53.0299 1.13812 53.3772L34.0793 69.7834C34.6588 70.0722 35.3412 70.0722 35.9207 69.7834L68.8619 53.3772C69.5594 53.0299 70 52.3198 70 51.543C70 50.7661 69.5594 50.056 68.8619 49.7088Z" fill="#231747"/>
<path d="M68.8619 40.1385L67.5405 39.4804L37.7621 54.3114C36.053 55.1738 33.947 55.1738 32.2379 54.3114L2.45947 39.4804L1.13812 40.1385C0.440588 40.4857 0 41.1958 0 41.9727C0 42.7495 0.440588 43.4596 1.13812 43.8069L34.0793 60.2131C34.6588 60.5019 35.3412 60.5019 35.9207 60.2131L68.8619 43.8069C69.5594 43.4596 70 42.7495 70 41.9727C70 41.1958 69.5594 40.4857 68.8619 40.1385Z" fill="#231747"/>
<path d="M1.13812 34.2366L34.0793 50.6428C34.6588 50.9316 35.3412 50.9316 35.9207 50.6428L68.8619 34.2366C69.5594 33.8893 70 33.1792 70 32.4023C70 31.6255 69.5594 30.9154 68.8619 30.5681L57.2627 24.7912C57.1267 25.268 56.9315 25.7358 56.6719 26.184L52.5541 33.2883C51.4544 35.1858 49.4039 36.3649 47.2032 36.3649C47.2031 36.3649 47.2032 36.3649 47.2031 36.3649C46.5143 36.3649 45.8313 36.2491 45.1836 36.0257C44.6364 38.8642 42.1245 41.0156 39.1176 41.0156H30.8824C27.8755 41.0156 25.3636 38.8642 24.8165 36.0257C24.1688 36.2492 23.4858 36.3649 22.7969 36.3649C20.5961 36.3649 18.5456 35.1859 17.4458 33.288L13.3283 26.1844C13.0708 25.7403 12.8724 25.2733 12.7342 24.7929L1.13812 30.5681C0.440588 30.9154 0 31.6255 0 32.4023C0 33.1792 0.440588 33.8893 1.13812 34.2366Z" fill="#231747"/>
<path d="M16.8943 24.1335L21.0119 31.2376C21.5804 32.2185 22.8396 32.5546 23.8244 31.9882L25.5198 31.0131C26.5478 31.7896 27.6521 32.4294 28.8235 32.9272V34.8633C28.8235 35.9959 29.7453 36.9141 30.8823 36.9141H39.1176C40.2547 36.9141 41.1765 35.9959 41.1765 34.8633V32.9272C42.3479 32.4294 43.4522 31.7896 44.4802 31.0131L46.1756 31.9882C47.1602 32.5545 48.4194 32.2185 48.9879 31.2376L53.1056 24.1335C53.6741 23.1526 53.3367 21.8984 52.352 21.3321L50.6638 20.3611C50.744 19.7225 50.7843 19.0859 50.7843 18.457C50.7843 17.8281 50.744 17.1916 50.6639 16.5529L52.3522 15.582C53.3368 15.0157 53.6742 13.7614 53.1057 12.7806L48.9881 5.67643C48.4195 4.69561 47.1604 4.35941 46.1757 4.92584L44.4802 5.90078C43.4524 5.12449 42.3479 4.48451 41.1765 3.98672V2.05078C41.1765 0.918203 40.2547 0 39.1176 0H30.8823C29.7453 0 28.8235 0.918203 28.8235 2.05078V3.98672C27.6521 4.48451 26.5476 5.12449 25.5198 5.90078L23.8244 4.9257C22.8398 4.35941 21.5806 4.69547 21.0121 5.67629L16.8944 12.7805C16.3259 13.7613 16.6633 15.0155 17.648 15.5818L19.3362 16.5528C19.256 17.1916 19.2157 17.8281 19.2157 18.457C19.2157 19.0859 19.256 19.7225 19.3361 20.3611L17.6478 21.3321C16.6632 21.8984 16.3258 23.1526 16.8943 24.1335ZM35 12.3047C38.4057 12.3047 41.1765 15.0646 41.1765 18.457C41.1765 21.8494 38.4057 24.6094 35 24.6094C31.5943 24.6094 28.8235 21.8494 28.8235 18.457C28.8235 15.0646 31.5943 12.3047 35 12.3047Z" fill="#683BF2"/>
</svg>
