<svg width="34" height="34" viewBox="0 0 34 34" fill="none" xmlns="http://www.w3.org/2000/svg">
<path d="M16.2302 13.4805C20.805 11.5855 24.9 8.84937 28.4014 5.34793L30.3484 3.40097V5.94122H32.3407V0H26.3994V1.99225H28.9397L26.9927 3.93921C23.6772 7.25464 19.7997 9.84557 15.4678 11.6399C11.1359 13.4341 6.56207 14.344 1.87331 14.344H1.66034V16.3362H1.87331C6.82505 16.3362 11.6554 15.3755 16.2302 13.4805Z" fill="#683BF2"/>
<path d="M32.3407 32.0077V11.8063H24.3713V32.0077H20.9852V17.5833H13.0158V32.0077H9.62974V23.3612H1.66034V32.0077H0V34H34.0011V32.0077H32.3407ZM26.3636 13.7986H30.3485V32.0077H26.3636V13.7986ZM15.0081 19.5756H18.993V32.0077H15.0081V19.5756ZM3.65259 25.3534H7.63749V32.0077H3.65259V25.3534Z" fill="#683BF2"/>
</svg>
