<svg width="43" height="40" viewBox="0 0 43 40" fill="none" xmlns="http://www.w3.org/2000/svg">
<path d="M11.308 25.4482C11.7027 25.2205 11.8378 24.7151 11.6102 24.3204C11.3822 23.926 10.8771 23.7905 10.4824 24.0182C10.0876 24.2462 9.95216 24.7516 10.1802 25.146C10.4079 25.5407 10.9132 25.6762 11.308 25.4482Z" fill="#683BF2"/>
<path d="M7.92458 31.1465L12.0823 38.3484C12.9795 39.9041 14.9978 40.4801 16.5938 39.5575C18.1731 38.6448 18.7159 36.6269 17.8023 35.0463L15.3254 30.7557L17.4704 29.5172C17.8651 29.2889 18.0006 28.7842 17.7726 28.3894L16.699 26.5299C16.827 26.505 17.6687 26.3399 32.5127 23.428C34.3477 23.3284 35.4471 21.3214 34.5203 19.717L31.7764 14.9645L33.5299 12.3087C33.7021 12.0475 33.7124 11.7117 33.556 11.4408L31.9047 8.58086C31.7483 8.30996 31.4513 8.15129 31.1401 8.16967L27.9637 8.36027L24.9177 3.08409C24.4765 2.31975 23.686 1.85696 22.8037 1.84599C22.793 1.84567 22.7827 1.84567 22.7721 1.84567C21.9194 1.84567 21.1453 2.27009 20.6867 2.98766L9.90153 16.727L2.88995 20.7751C0.132214 22.3667 -0.823046 25.9045 0.774643 28.6697C2.2343 31.1981 5.31164 32.1927 7.92458 31.1465ZM16.3726 35.8722C16.8286 36.661 16.5587 37.6705 15.7676 38.1275C14.9739 38.5864 13.9632 38.3045 13.5123 37.5231L9.38423 30.3722L12.2442 28.721C17.0218 36.9971 16.2958 35.7396 16.3726 35.8722ZM14.4998 29.3253L13.6742 27.8954L15.1042 27.0697L15.9298 28.4997L14.4998 29.3253ZM30.7299 9.84831L31.8709 11.8246L30.8534 13.3655L28.8867 9.95893L30.7299 9.84831ZM22.0677 3.89293C22.2893 3.53044 22.6408 3.49303 22.7833 3.4969C22.9243 3.49851 23.2755 3.54237 23.4874 3.90938L33.0903 20.5426C33.4031 21.0841 33.0229 21.7649 32.3956 21.7803C32.283 21.7829 32.2311 21.8032 31.9428 21.8571L21.7849 4.26285C21.998 3.98872 22.0255 3.96227 22.0677 3.89293ZM20.6861 5.66252L30.23 22.1931L15.8263 25.0183L11.4467 17.4327L20.6861 5.66252ZM2.20463 27.8441C1.84213 27.2168 1.65057 26.5047 1.65057 25.7842C1.65057 24.3117 2.44199 22.9404 3.71557 22.2051L10.1505 18.4898L14.2786 25.6398L7.84363 29.3553C5.87216 30.4931 3.34275 29.8152 2.20463 27.8441Z" fill="#683BF2"/>
<path d="M8.75019 25.9716C8.52218 25.5769 8.01714 25.4414 7.62239 25.6694L6.1924 26.495C5.7983 26.7227 5.29229 26.587 5.0646 26.1929C4.83659 25.7981 4.33155 25.6627 3.9368 25.8907C3.54206 26.1187 3.40661 26.6237 3.63462 27.0185C4.31413 28.1956 5.82991 28.6107 7.01802 27.925L8.448 27.0994C8.84275 26.8714 8.9782 26.3667 8.75019 25.9716Z" fill="#683BF2"/>
<path d="M41.0442 3.61171L36.4437 6.17175C36.0454 6.39363 35.9019 6.89642 36.1238 7.29471C36.345 7.69268 36.8475 7.83684 37.2467 7.61464L41.8469 5.05459C42.2455 4.83271 42.3887 4.32993 42.1669 3.93163C41.9453 3.53302 41.4425 3.38982 41.0442 3.61171Z" fill="#683BF2"/>
<path d="M40.5617 12.1626L37.3719 11.308C36.9313 11.1899 36.4785 11.4512 36.3605 11.8917C36.2424 12.3322 36.504 12.7847 36.9445 12.9028L40.1348 13.7574C40.5779 13.8764 41.0284 13.611 41.1458 13.1737C41.2638 12.7331 41.0023 12.2803 40.5617 12.1626Z" fill="#683BF2"/>
<path d="M32.5456 0.61209L31.69 3.80231C31.5719 4.24285 31.8332 4.69532 32.2737 4.81368C32.7139 4.9314 33.1667 4.67081 33.2851 4.22995L34.1404 1.03973C34.2584 0.59919 33.9972 0.146393 33.5566 0.028356C33.1164 -0.0896808 32.6636 0.171548 32.5456 0.61209Z" fill="#683BF2"/>
</svg>
