<svg width="50" height="50" viewBox="0 0 50 50" fill="none" xmlns="http://www.w3.org/2000/svg">
<path d="M23.5283 35.6436C23.2714 35.6436 23.0195 35.748 22.8378 35.9297C22.6563 36.1113 22.5517 36.3623 22.5517 36.6201C22.5517 36.877 22.6562 37.1289 22.8378 37.3104C23.0195 37.4921 23.2714 37.5967 23.5283 37.5967C23.7851 37.5967 24.0371 37.4922 24.2187 37.3104C24.4002 37.1278 24.5048 36.877 24.5048 36.6201C24.5048 36.3622 24.4003 36.1113 24.2187 35.9297C24.0371 35.748 23.7851 35.6436 23.5283 35.6436Z" fill="white"/>
<path d="M42.165 32.7266C41.9071 32.7266 41.6552 32.831 41.4736 33.0127C41.292 33.1943 41.1884 33.4453 41.1884 33.7031C41.1884 33.96 41.292 34.2119 41.4736 34.3935C41.6552 34.5751 41.9071 34.6797 42.165 34.6797C42.4218 34.6797 42.6728 34.5752 42.8554 34.3935C43.037 34.2108 43.1415 33.96 43.1415 33.7031C43.1415 33.4463 43.0371 33.1943 42.8554 33.0127C42.6728 32.831 42.4217 32.7266 42.165 32.7266Z" fill="white"/>
<path d="M13.2753 28.0273C13.0184 28.0273 12.7665 28.1317 12.5849 28.3135C12.4033 28.4951 12.2987 28.7471 12.2987 29.0039C12.2987 29.2607 12.4032 29.5127 12.5849 29.6942C12.7665 29.8759 13.0184 29.9805 13.2753 29.9805C13.5321 29.9805 13.7841 29.876 13.9657 29.6942C14.1473 29.5127 14.2518 29.2607 14.2518 29.0039C14.2518 28.7471 14.1474 28.4951 13.9657 28.3135C13.784 28.1318 13.5321 28.0273 13.2753 28.0273Z" fill="white"/>
<path d="M49.9998 10.5993C49.9998 10.06 49.5625 9.62275 49.0232 9.62275H47.5194C47.3141 8.93691 47.0402 8.27539 46.7006 7.64473L47.7637 6.58154C48.145 6.20019 48.145 5.58184 47.7637 5.20049L44.7994 2.23633C44.418 1.85498 43.7998 1.85498 43.4183 2.23633L42.3552 3.29941C41.7244 2.95977 41.0631 2.68594 40.3772 2.48047V0.976562C40.3772 0.437305 39.9399 0 39.4006 0H35.2085C34.6693 0 34.232 0.437207 34.232 0.976562V2.48408C33.5475 2.68994 32.8874 2.96396 32.2581 3.30352L31.1909 2.23623C30.8094 1.85488 30.1913 1.85488 29.8097 2.23623L26.8455 5.20049C26.613 5.43301 26.5231 5.75342 26.574 6.05459H3.90947C1.75381 6.05469 0 7.8085 0 9.96426V36.9108C0 39.0665 1.75381 40.8203 3.90947 40.8203H19.4265V44.1406H17.0863C15.1459 44.1406 13.5672 45.7193 13.5672 47.6598V49.0234C13.5672 49.5627 14.0045 50 14.5437 50H32.5124C33.0517 50 33.489 49.5627 33.489 49.0234V47.6598C33.489 45.7193 31.9104 44.1406 29.97 44.1406H27.6296V40.8203H43.1378C45.2936 40.8203 47.0474 39.0665 47.0474 36.9108V20.9063L47.7637 20.19C47.9468 20.0069 48.0497 19.7585 48.0497 19.4995C48.0497 19.2405 47.9468 18.9921 47.7637 18.809L46.6964 17.7418C47.036 17.1124 47.31 16.4524 47.5159 15.768H49.0234C49.2824 15.768 49.5309 15.665 49.714 15.4819C49.8971 15.2988 50 15.0504 50 14.7914L49.9998 10.5993ZM31.5359 47.6598V48.0469H15.5203V47.6598C15.5203 46.7962 16.2227 46.0938 17.0863 46.0938H29.97C30.8333 46.0938 31.5359 46.7962 31.5359 47.6598ZM25.6765 44.1406H21.3796V40.8203H25.6765V44.1406ZM45.0942 36.9108C45.0942 37.9896 44.2166 38.8672 43.1378 38.8672H3.90947C2.83076 38.8672 1.95312 37.9896 1.95312 36.9108V34.6794H38.2588C38.7981 34.6794 39.2354 34.2421 39.2354 33.7028C39.2354 33.1636 38.7981 32.7263 38.2588 32.7263H1.95312V29.9805H9.4075C9.94676 29.9805 10.3841 29.5432 10.3841 29.0039C10.3841 28.4646 9.94676 28.0273 9.4075 28.0273H1.95312V9.96426C1.95312 8.88545 2.83076 8.00781 3.90947 8.00781H27.7352C27.4804 8.52803 27.2683 9.06729 27.1019 9.62275H25.586C25.327 9.62275 25.0786 9.72568 24.8955 9.90879C24.7124 10.0919 24.6093 10.3403 24.6093 10.5993L24.6094 14.7913C24.6094 15.3307 25.0467 15.7679 25.586 15.7679H27.1055C27.3106 16.4494 27.5832 17.1067 27.9208 17.7338L26.8457 18.8091C26.4643 19.1904 26.4643 19.8088 26.8457 20.1901L29.8099 23.1543C30.1913 23.5356 30.8095 23.5356 31.1911 23.1543L32.2662 22.0791C32.8933 22.4168 33.5507 22.6895 34.2322 22.8944L34.2321 24.4141C34.2321 24.9533 34.6694 25.3906 35.2086 25.3906L39.4007 25.3905C39.94 25.3905 40.3773 24.9533 40.3773 24.414V22.8979C41.0602 22.6935 41.719 22.421 42.3474 22.0833L43.4184 23.1543C43.6016 23.3374 43.8499 23.4403 44.1089 23.4403C44.3679 23.4403 44.6162 23.3374 44.7994 23.1543L45.0942 22.8595V36.9108ZM48.0468 13.8147H46.7619C46.304 13.8147 45.9075 14.133 45.8084 14.5802C45.5884 15.5736 45.1986 16.5127 44.6498 17.371C44.4026 17.7566 44.4565 18.264 44.7815 18.589L45.6921 19.4996L44.1089 21.0827L43.1955 20.1693C42.8982 19.8722 42.444 19.7983 42.0679 19.9863C42.0376 20.0014 42.0083 20.0181 41.9799 20.0361C41.1217 20.5829 40.1833 20.9708 39.1907 21.1894C38.743 21.2879 38.424 21.6846 38.424 22.1431V23.4375H36.1851V22.1405C36.1851 21.6825 35.8668 21.286 35.4197 21.187C34.4286 20.9676 33.4915 20.5789 32.6345 20.0319C32.4777 19.9317 32.2952 19.8785 32.1091 19.8785C31.8501 19.8785 31.6015 19.9815 31.4183 20.1646L30.5003 21.0827L28.9172 19.4995L29.8352 18.5815C30.1602 18.2565 30.2141 17.7493 29.9669 17.3637C29.4205 16.5071 29.0323 15.5707 28.8129 14.5802C28.7139 14.133 28.3174 13.8147 27.8594 13.8147H26.5624L26.5625 11.5759H27.8568C28.3152 11.5759 28.712 11.2569 28.8106 10.8092C29.0288 9.81768 29.4163 8.88018 29.9623 8.02227C30.2094 7.63672 30.1556 7.12939 29.8306 6.80449L28.9171 5.89102L30.5003 4.30791L31.4109 5.21846C31.7457 5.55322 32.2633 5.59395 32.6426 5.34131C33.4971 4.79717 34.4313 4.41035 35.4197 4.1916C35.8667 4.09258 36.1851 3.69609 36.1851 3.23818L36.1852 1.95312H38.4241V3.23535C38.4241 3.69375 38.7431 4.09053 39.1908 4.18906C40.1861 4.4082 41.1268 4.79756 41.9866 5.34648C42.0154 5.36484 42.045 5.38154 42.0754 5.39678C42.4511 5.58467 42.9058 5.51103 43.203 5.21377L44.1089 4.30781L45.692 5.89102L44.7861 6.79688C44.7406 6.84238 44.6998 6.89219 44.6642 6.9457C44.4486 7.26895 44.4455 7.68887 44.6546 8.01494C45.2029 8.87441 45.592 9.81445 45.8108 10.809C45.9093 11.2567 46.306 11.5757 46.7646 11.5757H48.0469L48.0468 13.8147Z" fill="white"/>
<path d="M37.3046 6.64062C33.966 6.64062 31.2499 9.35674 31.2499 12.6953C31.2499 16.0339 33.966 18.75 37.3046 18.75C40.6432 18.75 43.3593 16.0339 43.3593 12.6953C43.3593 9.35674 40.6432 6.64062 37.3046 6.64062ZM37.3046 16.7969C35.043 16.7969 33.2031 14.9569 33.2031 12.6953C33.2031 10.4337 35.043 8.59375 37.3046 8.59375C39.5662 8.59375 41.4062 10.4337 41.4062 12.6953C41.4062 14.9569 39.5662 16.7969 37.3046 16.7969Z" fill="white"/>
<path d="M15.9834 18.2832C15.7255 18.2832 15.4746 18.3877 15.2929 18.5693C15.1103 18.751 15.0068 19.0029 15.0068 19.2607C15.0068 19.5176 15.1103 19.7695 15.2929 19.9512C15.4746 20.1328 15.7256 20.2363 15.9834 20.2363C16.2402 20.2363 16.4922 20.1328 16.6738 19.9512C16.8553 19.7695 16.9599 19.5176 16.9599 19.2607C16.9599 19.0029 16.8554 18.751 16.6738 18.5693C16.4922 18.3877 16.2402 18.2832 15.9834 18.2832Z" fill="white"/>
<path d="M23.6053 17.5607C23.6724 17.3105 23.6373 17.044 23.5078 16.8197L21.8588 13.9639C21.5892 13.4969 20.992 13.3367 20.5249 13.6064L19.5856 14.1487C19.2771 13.9306 18.9507 13.7418 18.6085 13.5837V12.5C18.6085 11.9606 18.1712 11.5234 17.6319 11.5234H14.3342C13.7949 11.5234 13.3576 11.9606 13.3576 12.5V13.5837C13.0153 13.7419 12.6889 13.9306 12.3804 14.1487L11.4412 13.6064C11.2169 13.477 10.9503 13.442 10.7002 13.5089C10.4499 13.576 10.2367 13.7396 10.1072 13.9639L8.45838 16.8197C8.18866 17.2868 8.34871 17.884 8.8158 18.1537L9.75545 18.6963C9.73865 18.8836 9.73016 19.072 9.73016 19.2602C9.73016 19.4483 9.73865 19.6367 9.75545 19.824L8.8158 20.3666C8.34871 20.6362 8.18866 21.2335 8.45838 21.7006L10.1072 24.5564C10.2367 24.7808 10.45 24.9444 10.7002 25.0114C10.9503 25.0784 11.2169 25.0435 11.4412 24.9139L12.3804 24.3716C12.6889 24.5897 13.0153 24.7785 13.3576 24.9366V26.0203C13.3576 26.5596 13.7949 26.9969 14.3342 26.9969H17.6319C18.1712 26.9969 18.6085 26.5596 18.6085 26.0203V24.9366C18.9507 24.7784 19.2771 24.5897 19.5856 24.3716L20.5249 24.9139C20.9921 25.1835 21.5891 25.0235 21.8588 24.5564L23.5078 21.7006C23.6373 21.4763 23.6724 21.2098 23.6053 20.9596C23.5382 20.7094 23.3747 20.4961 23.1503 20.3666L22.2106 19.8242C22.2275 19.6368 22.236 19.4484 22.236 19.2604C22.236 19.0723 22.2275 18.8839 22.2106 18.6964L23.1503 18.1538C23.3746 18.0242 23.5382 17.8109 23.6053 17.5607ZM20.1926 18.3802C20.2524 18.6683 20.2828 18.9644 20.2828 19.2603C20.2828 19.5562 20.2524 19.8522 20.1926 20.1403C20.107 20.5529 20.2957 20.9739 20.6605 21.1846L21.328 21.5699L20.6556 22.7344L19.9871 22.3484C19.6219 22.1376 19.1624 22.185 18.8478 22.4663C18.4025 22.8645 17.8908 23.1604 17.3268 23.3458C16.926 23.4775 16.6552 23.8517 16.6552 24.2735V25.044H15.3106V24.2735C15.3106 23.8517 15.0398 23.4775 14.639 23.3458C14.0751 23.1604 13.5633 22.8645 13.118 22.4663C12.8036 22.185 12.3441 22.1375 11.9788 22.3484L11.3102 22.7344L10.638 21.5699L11.3053 21.1846C11.6702 20.9739 11.8589 20.5529 11.7732 20.1403C11.7136 19.8525 11.6832 19.5564 11.6832 19.2603C11.6832 18.9641 11.7136 18.6681 11.7732 18.3802C11.8589 17.9676 11.6703 17.5467 11.3053 17.3359L10.638 16.9506L11.3102 15.7862L11.9788 16.1722C12.3439 16.3831 12.8035 16.3356 13.118 16.0543C13.5634 15.6561 14.0751 15.3602 14.639 15.1748C15.0398 15.0431 15.3106 14.6689 15.3106 14.2471V13.4766H16.6552V14.2471C16.6552 14.6689 16.926 15.0431 17.3268 15.1748C17.8908 15.3602 18.4026 15.6562 18.8478 16.0543C19.1622 16.3354 19.6216 16.383 19.9871 16.1722L20.6556 15.7861L21.328 16.9506L20.6605 17.3359C20.2957 17.5467 20.107 17.9677 20.1926 18.3802Z" fill="white"/>
</svg>
