<svg width="53" height="50" viewBox="0 0 53 50" fill="none" xmlns="http://www.w3.org/2000/svg">
<path d="M48.7608 21.3619H45.414V3.68196C45.414 1.65174 43.7628 0 41.7331 0H18.8169C18.2512 0 17.7927 0.458567 17.7927 1.02427C17.7927 1.58998 18.2512 2.04855 18.8169 2.04855H41.733C42.6331 2.04855 43.3654 2.78131 43.3654 3.68196V16.548L37.9219 12.668C37.5571 12.4079 37.0657 12.4153 36.7086 12.6857L30.6852 17.251L21.1117 9.27244C20.7357 8.95911 20.1909 8.95553 19.8109 9.26363L8.17851 18.6939V3.68196C8.17851 2.78387 8.90913 2.05131 9.80721 2.04875C10.3729 2.04711 10.8302 1.58732 10.8286 1.02161C10.827 0.456928 10.3687 0.00020484 9.80434 0.00020484C9.80342 0.00020484 9.8023 0.00020484 9.80137 0.00020484C7.7769 0.00594077 6.12987 1.65758 6.12987 3.68196V23.3233C6.12987 25.353 7.78161 27.0044 9.81182 27.0044H21.6244V29.9556H3.68144C1.65154 29.9555 0 31.607 0 33.637V46.3185C0 48.3485 1.65154 50 3.68144 50H23.1692C25.1992 50 26.8506 48.3485 26.8506 46.3185V42.6935H39.6045C40.1703 42.6935 40.6288 42.2349 40.6288 41.6692C40.6288 41.1035 40.1703 40.6449 39.6045 40.6449H26.851V33.6366C26.851 31.8247 25.4678 30.2366 23.673 29.99V25.0439C23.673 24.1432 24.4053 23.4105 25.3055 23.4105H48.7608C49.6615 23.4105 50.3942 24.1432 50.3942 25.0439V39.0114C50.3942 39.912 49.6615 40.6448 48.7608 40.6448H48.6101C48.0444 40.6448 47.5858 41.1034 47.5858 41.6691C47.5858 42.2348 48.0444 42.6933 48.6101 42.6933H48.7608C50.791 42.6933 52.4428 41.0417 52.4428 39.0114V25.0439C52.4428 23.0137 50.791 21.3619 48.7608 21.3619ZM24.8022 46.3184C24.8022 47.2188 24.0696 47.9514 23.1693 47.9514H3.68144C2.781 47.9514 2.04855 47.2188 2.04855 46.3184V33.637C2.04855 32.7366 2.78111 32.0041 3.68144 32.0041H22.6458C23.0617 32.0041 23.4759 31.977 23.8639 32.1595C24.4301 32.4258 24.8021 33.0116 24.8021 33.6371L24.8022 46.3184ZM25.3055 21.3619C23.3367 21.3619 21.6723 22.987 21.6256 24.9557H9.81192C8.91128 24.9557 8.17851 24.2234 8.17851 23.3232V21.331L20.4471 11.3852L32.4181 21.3618L25.3055 21.3619ZM35.6183 21.3619L32.3008 18.5972L37.3461 14.7733L43.3655 19.0637V21.3619H35.6183Z" fill="white"/>
<path d="M14.0213 1.97019C14.4356 2.14278 14.9318 2.01628 15.2122 1.66537C15.4777 1.33309 15.5084 0.863565 15.2915 0.498104C14.8233 -0.290279 13.5882 -0.0731333 13.4088 0.824028C13.3139 1.29796 13.576 1.78449 14.0213 1.97019Z" fill="white"/>
<path d="M34.0789 38.7567H37.0004C37.4453 38.7567 37.8392 38.4696 37.9754 38.0461L39.014 34.8188L43.5116 35.5352C43.5653 35.5437 43.6192 35.548 43.6728 35.548C43.9147 35.548 44.1509 35.4622 44.3376 35.3029C44.5657 35.1083 44.697 34.8235 44.697 34.5237V31.2085H44.8935C45.4592 31.2085 45.9178 30.7499 45.9178 30.1842C45.9178 29.6185 45.4592 29.1599 44.8935 29.1599H44.697V26.323C44.697 26.0232 44.5657 25.7385 44.3376 25.5438C44.1095 25.3492 43.8079 25.2643 43.5116 25.3114L33.9978 26.8267H31.4052C30.1806 26.8267 29.1843 27.823 29.1843 29.0477V31.799C29.1843 33.0236 30.1806 34.0199 31.4052 34.0199H33.0546V37.7324C33.0546 38.2981 33.5132 38.7567 34.0789 38.7567ZM36.2541 36.7081H35.1032V34.196L36.967 34.4928L36.2541 36.7081ZM42.6485 33.3234L35.1031 32.1216V28.7251L42.6485 27.5233V33.3234ZM31.233 31.799V29.0477C31.233 28.9526 31.3103 28.8753 31.4053 28.8753H33.0547V31.9714H31.4052C31.3103 31.9714 31.233 31.894 31.233 31.799Z" fill="white"/>
<path d="M44.647 40.8178C44.2829 40.5751 43.7942 40.5944 43.4487 40.862C43.1103 41.1243 42.9725 41.5845 43.1062 41.9902C43.4046 42.8952 44.7219 42.9108 45.0421 42.014C45.1973 41.5791 45.0356 41.0722 44.647 40.8178Z" fill="white"/>
<path d="M17.5258 38.8138L11.2769 35.4615C10.6062 35.1017 9.76839 35.6046 9.76839 36.3641V43.5198C9.76839 44.3023 10.6537 44.8036 11.3252 44.3948L17.5741 40.5913C17.8879 40.4003 18.0755 40.0558 18.0654 39.6885C18.0556 39.3212 17.8496 38.9875 17.5258 38.8138ZM11.817 41.6973V38.0758L14.9795 39.7724L11.817 41.6973Z" fill="white"/>
<path d="M34.1697 7.77792C34.1697 5.83907 32.5924 4.2618 30.6535 4.2618C28.7147 4.2618 27.1374 5.83907 27.1374 7.77792C27.1374 9.71667 28.7147 11.294 30.6535 11.294C32.5924 11.294 34.1697 9.71677 34.1697 7.77792ZM29.1859 7.77792C29.1859 6.96875 29.8442 6.31034 30.6535 6.31034C31.4628 6.31034 32.1211 6.96875 32.1211 7.77792C32.1211 8.5871 31.4628 9.2455 30.6535 9.2455C29.8442 9.2455 29.1859 8.5872 29.1859 7.77792Z" fill="white"/>
</svg>
