<svg width="53" height="50" viewBox="0 0 53 50" fill="none" xmlns="http://www.w3.org/2000/svg">
<path d="M9.58626 4.43386C7.67501 4.43386 6.12011 5.98825 6.12011 7.89867C6.12011 9.8091 7.67501 11.3635 9.58626 11.3635C11.499 11.3635 13.0553 9.8091 13.0553 7.89867C13.0553 5.98825 11.499 4.43386 9.58626 4.43386ZM9.58626 9.29712C8.81444 9.29712 8.18658 8.66977 8.18658 7.89867C8.18658 7.12758 8.81444 6.50033 9.58626 6.50033C10.3596 6.50033 10.9889 7.12768 10.9889 7.89878C10.9889 8.66987 10.3596 9.29712 9.58626 9.29712Z" fill="white"/>
<path d="M39.8934 4.43386H30.7307C28.8194 4.43386 27.2645 5.98825 27.2645 7.89867C27.2645 9.8091 28.8194 11.3635 30.7307 11.3635H39.8934C41.8046 11.3635 43.3595 9.8091 43.3595 7.89867C43.3595 5.98825 41.8046 4.43386 39.8934 4.43386ZM39.8934 9.29712H30.7307C29.9589 9.29712 29.331 8.66977 29.331 7.89867C29.331 7.12758 29.959 6.50023 30.7307 6.50023H39.8934C40.6652 6.50023 41.293 7.12758 41.293 7.89867C41.293 8.66977 40.6652 9.29712 39.8934 9.29712Z" fill="white"/>
<path d="M18.5689 4.43386C16.6577 4.43386 15.1028 5.98825 15.1028 7.89867C15.1028 9.8091 16.6577 11.3635 18.5689 11.3635C20.4817 11.3635 22.0379 9.8091 22.0379 7.89867C22.0379 5.98825 20.4817 4.43386 18.5689 4.43386ZM18.5689 9.29712C17.7971 9.29712 17.1693 8.66977 17.1693 7.89867C17.1693 7.12758 17.7972 6.50023 18.5689 6.50023C19.3423 6.50023 19.9716 7.12758 19.9716 7.89867C19.9716 8.66977 19.3423 9.29712 18.5689 9.29712Z" fill="white"/>
<path d="M16.8842 21.562C16.3294 21.4291 15.7717 21.7717 15.6392 22.3268L13.5894 30.9043C13.4568 31.4593 13.7991 32.0168 14.3541 32.1494C14.4349 32.1687 14.5157 32.178 14.5952 32.178C15.0623 32.178 15.4859 31.8589 15.5992 31.3847L17.649 22.8071C17.7816 22.2521 17.4392 21.6947 16.8842 21.562Z" fill="white"/>
<path d="M20.6775 31.1413C20.8744 31.3167 21.1199 31.403 21.3644 31.403C21.6489 31.403 21.9322 31.2862 22.1364 31.057L25.0337 27.8046C25.5118 27.2724 25.5118 26.439 25.0367 25.9102L22.1363 22.6544C21.7566 22.2282 21.1034 22.1907 20.6775 22.5701C20.2513 22.9497 20.2136 23.6029 20.5932 24.0289L23.1113 26.8556L20.5932 29.6824C20.2137 30.1086 20.2514 30.7618 20.6775 31.1413Z" fill="white"/>
<path d="M10.5609 22.5702C10.1347 22.1906 9.48175 22.2286 9.10214 22.6545L6.20515 25.9066C5.72647 26.4389 5.72647 27.2727 6.20187 27.8013L9.10224 31.0571C9.30644 31.2864 9.58964 31.4031 9.87426 31.4031C10.1187 31.4031 10.3643 31.3168 10.5611 31.1414C10.9874 30.7618 11.0251 30.1086 10.6455 29.6826L8.12736 26.8559L10.6455 24.0291C11.0249 23.6029 10.9872 22.9497 10.5609 22.5702Z" fill="white"/>
<path d="M50.1419 33.5586H49.7583C49.5574 32.9078 49.297 32.2795 48.9794 31.6791L49.2532 31.4044C49.6904 30.9699 49.9317 30.3897 49.9326 29.7706C49.9335 29.1502 49.693 28.5676 49.2553 28.13L48.7219 27.5969V5.58897C48.7219 2.50714 46.5472 0 43.8738 0H4.8481C2.17477 0 0 2.50714 0 5.58897V34.467C0 37.5488 2.17477 40.056 4.8481 40.056H10.9101C11.4807 40.056 11.9433 39.5934 11.9433 39.0228C11.9433 38.4522 11.4807 37.9896 10.9101 37.9896H4.8481C3.34033 37.9896 2.06647 36.3764 2.06647 34.4671V15.722H46.6554V26.163C46.5376 26.1449 46.4184 26.133 46.297 26.133C46.2957 26.133 46.2945 26.133 46.2934 26.133C45.6743 26.134 45.0941 26.375 44.663 26.8085L44.3837 27.0866C43.7707 26.7627 43.1323 26.4993 42.474 26.2981V25.9301C42.474 24.6531 41.4348 23.6143 40.1575 23.6143H38.2877C37.012 23.6143 35.9743 24.6531 35.9743 25.9301V26.3233C35.3284 26.5263 34.7047 26.7875 34.1086 27.1047L33.841 26.8379C33.4063 26.4011 32.826 26.1599 32.207 26.159C32.2059 26.159 32.2047 26.159 32.2035 26.159C31.5843 26.159 31.003 26.3993 30.5662 26.8357L29.2452 28.1561C28.8075 28.5936 28.5671 29.1763 28.568 29.7967C28.5689 30.4157 28.8101 30.9959 29.244 31.4271L29.5293 31.7132C29.2196 32.3044 28.9652 32.9211 28.7684 33.5584H28.376C27.1002 33.5584 26.0624 34.5959 26.0624 35.8713V37.7429C26.0624 37.8261 26.067 37.9082 26.0756 37.9892H20.0639C19.4933 37.9892 19.0307 38.4518 19.0307 39.0224C19.0307 39.593 19.4933 40.0555 20.0639 40.0555H28.7723C28.9721 40.6989 29.2304 41.3205 29.5454 41.9156L29.2662 42.1935C28.3674 43.0972 28.3682 44.5643 29.2684 45.4638L30.5901 46.785C31.0247 47.2218 31.605 47.4629 32.2241 47.4639H32.2275C32.8467 47.4639 33.4281 47.2236 33.8648 46.787L34.1416 46.5105C34.742 46.827 35.3663 47.0856 36.0089 47.2843V47.6841C36.0089 48.9612 37.0467 50 38.3225 50H40.1951C41.4708 50 42.5086 48.9612 42.5086 47.6841V47.2867C43.1573 47.0866 43.7841 46.827 44.3838 46.5104L44.6593 46.7849C45.0938 47.2218 45.674 47.4628 46.2931 47.4639H46.2967C46.9158 47.4639 47.4972 47.2236 47.9348 46.7863L49.2529 45.4659C49.6901 45.0314 49.9314 44.4512 49.9323 43.8321C49.9332 43.2117 49.6927 42.6291 49.2549 42.1915L48.9792 41.9159C49.2937 41.3203 49.5517 40.6983 49.7512 40.0557H50.1417C51.419 40.0557 52.4582 39.0182 52.4582 37.7429V35.8713C52.4584 34.5961 51.4192 33.5586 50.1419 33.5586ZM2.06647 13.6556V5.58897C2.06647 3.67967 3.34033 2.06647 4.8481 2.06647H43.8738C45.3816 2.06647 46.6555 3.67967 46.6555 5.58897V13.6557L2.06647 13.6556ZM50.3919 37.7431C50.3919 37.8743 50.2751 37.9894 50.1418 37.9894H48.9603C48.4785 37.9894 48.0607 38.3223 47.9531 38.7918C47.7299 39.7657 47.3466 40.6893 46.8138 41.5371C46.5571 41.9454 46.617 42.4769 46.9582 42.8178L47.7943 43.6534C47.8568 43.7159 47.866 43.7904 47.866 43.8294C47.8659 43.8759 47.8538 43.9434 47.7935 44.0032L46.4734 45.3257C46.4108 45.3882 46.3361 45.3976 46.2968 45.3976C46.2498 45.3976 46.1819 45.3854 46.1214 45.3244L45.2822 44.4888C44.9409 44.1489 44.4104 44.09 44.0029 44.3462C43.1539 44.8803 42.2264 45.2642 41.2462 45.4872C40.776 45.5944 40.4423 46.0124 40.4423 46.4948V47.6845C40.4423 47.8172 40.3269 47.9338 40.1953 47.9338H38.3227C38.191 47.9338 38.0756 47.8173 38.0756 47.6845V46.4918C38.0756 46.0091 37.7411 45.5905 37.2702 45.4841C36.3025 45.2652 35.3767 44.8819 34.5187 44.345C34.3497 44.2392 34.1597 44.1876 33.9709 44.1876C33.704 44.1876 33.4394 44.2907 33.2402 44.4901L32.4042 45.3257C32.3416 45.3882 32.2669 45.3976 32.2276 45.3976C32.2275 45.3976 32.2277 45.3976 32.2276 45.3976C32.1808 45.3976 32.1126 45.3854 32.0533 45.3258L30.7294 44.0025C30.6367 43.9099 30.6377 43.7458 30.7282 43.6548L31.5672 42.8191C31.9101 42.4778 31.97 41.9444 31.7117 41.5353C31.178 40.6903 30.7942 39.7673 30.5708 38.7921C30.4633 38.3226 30.0454 37.9896 29.5636 37.9896H28.3761C28.2422 37.9896 28.129 37.8768 28.129 37.7433V35.8717C28.129 35.7382 28.2422 35.6253 28.3761 35.6253H29.5606C30.0429 35.6253 30.4611 35.2916 30.5682 34.8214C30.7887 33.8525 31.1675 32.9333 31.6943 32.0893C31.9486 31.6818 31.8885 31.1528 31.5493 30.8126L30.704 29.9649C30.6467 29.9079 30.6346 29.8404 30.6345 29.7939C30.6345 29.755 30.6437 29.6804 30.7062 29.618L32.0271 28.2977C32.0897 28.2352 32.1644 28.2258 32.2037 28.2258C32.2505 28.2259 32.3187 28.238 32.3792 28.2989L33.2124 29.1288C33.5547 29.4697 34.0872 29.5281 34.4948 29.2695C35.339 28.7343 36.2637 28.3466 37.243 28.1174C37.7102 28.0081 38.0406 27.5913 38.0406 27.1113V25.9304C38.0406 25.7953 38.1537 25.681 38.2876 25.681H40.1574C40.2929 25.681 40.4075 25.7953 40.4075 25.9304V27.0939C40.4075 27.578 40.7436 27.9972 41.2162 28.1024C42.1993 28.3214 43.1372 28.708 44.0039 29.2518C44.4111 29.5071 44.9411 29.4481 45.2821 29.1086L46.1246 28.2694C46.1818 28.2119 46.2495 28.1999 46.2964 28.1998C46.3357 28.1998 46.4107 28.2092 46.4732 28.2717L47.7942 29.5919C47.8567 29.6543 47.8659 29.7289 47.8659 29.7679C47.8658 29.8144 47.8537 29.8819 47.793 29.9423L46.9568 30.7809C46.6163 31.1224 46.5573 31.6539 46.8146 32.0617C47.3495 32.9097 47.7343 33.8384 47.9585 34.8218C48.0657 35.2919 48.4837 35.6254 48.966 35.6254H50.1418C50.275 35.6254 50.3919 35.7406 50.3919 35.8718V37.7431Z" fill="white"/>
<path d="M39.2605 30.4972C35.7788 30.4972 32.9462 33.3285 32.9462 36.8087C32.9462 40.2872 35.7788 43.1173 39.2605 43.1173C42.7407 43.1173 45.5719 40.2873 45.5719 36.8087C45.5719 33.3286 42.7407 30.4972 39.2605 30.4972ZM39.2605 41.0508C36.9183 41.0508 35.0127 39.1478 35.0127 36.8087C35.0127 34.4679 36.9183 32.5636 39.2605 32.5636C41.6011 32.5636 43.5054 34.4679 43.5054 36.8087C43.5054 39.1478 41.601 41.0508 39.2605 41.0508Z" fill="white"/>
<path d="M15.5176 37.9895H15.4973C14.9268 37.9895 14.4642 38.4521 14.4642 39.0227C14.4642 39.5933 14.9268 40.0559 15.4973 40.0559H15.5176C16.0882 40.0559 16.5508 39.5933 16.5508 39.0227C16.5508 38.4521 16.0882 37.9895 15.5176 37.9895Z" fill="white"/>
</svg>
