<svg width="34" height="35" viewBox="0 0 34 35" fill="none" xmlns="http://www.w3.org/2000/svg">
<path d="M16.9897 6.63086C11.2759 6.63086 6.6273 11.2794 6.6273 16.9933C6.6273 20.6024 8.49516 23.9256 11.5415 25.8092V30.8984H13.1796V31.1899C13.1796 33.2908 14.8888 35 16.9897 35C19.0906 35 20.7998 33.2908 20.7998 31.1899V30.8984H22.4379V25.8092C25.4842 23.9256 27.3521 20.6024 27.3521 16.9933C27.3521 11.2794 22.7035 6.63086 16.9897 6.63086ZM20.3871 26.5933V28.8477H13.5923V26.5933H20.3871ZM18.749 31.1899C18.749 32.16 17.9598 32.9492 16.9897 32.9492C16.0196 32.9492 15.2304 32.16 15.2304 31.1899V30.8984H18.7491L18.749 31.1899ZM20.9261 24.3154L20.5045 24.5426H13.475L13.0534 24.3154C10.3546 22.8611 8.67815 20.0554 8.67815 16.9933C8.67809 12.4102 12.4067 8.68164 16.9897 8.68164C21.5727 8.68164 25.3013 12.4102 25.3013 16.9933C25.3013 20.0554 23.6248 22.8611 20.9261 24.3154Z" fill="#683BF2"/>
<path d="M15.9643 0H18.0151V4.44336H15.9643V0Z" fill="#683BF2"/>
<path d="M25.133 7.39524L28.2744 4.25379L29.7243 5.70369L26.5829 8.84514L25.133 7.39524Z" fill="#683BF2"/>
<path d="M29.536 15.9643H33.9794V18.0151H29.536V15.9643Z" fill="#683BF2"/>
<path d="M25.1306 26.5866L26.5805 25.1367L29.722 28.2781L28.2721 29.728L25.1306 26.5866Z" fill="#683BF2"/>
<path d="M4.24781 28.276L7.38927 25.1345L8.83917 26.5844L5.69772 29.7259L4.24781 28.276Z" fill="#683BF2"/>
<path d="M0 15.9643H4.44336V18.0151H0V15.9643Z" fill="#683BF2"/>
<path d="M4.24998 5.70143L5.69988 4.25153L8.84133 7.39298L7.39143 8.84288L4.24998 5.70143Z" fill="#683BF2"/>
<path d="M15.6985 17.5087L14.2464 16.0567L12.7963 17.5068L15.6985 20.409L21.1831 14.9244L19.733 13.4742L15.6985 17.5087Z" fill="#683BF2"/>
</svg>
