<svg width="26" height="35" viewBox="0 0 26 35" fill="none" xmlns="http://www.w3.org/2000/svg">
<path d="M12.753 13.0403C10.1664 13.0403 8.06142 15.1446 8.06142 17.7312C8.06142 20.3178 10.1664 22.4221 12.753 22.4221C15.3396 22.4221 17.4439 20.3178 17.4439 17.7312C17.4439 15.1446 15.3396 13.0403 12.753 13.0403ZM12.753 20.3373C11.3159 20.3373 10.1463 19.1683 10.1463 17.7312C10.1463 16.294 11.3159 15.1251 12.753 15.1251C14.1895 15.1251 15.3591 16.294 15.3591 17.7312C15.3591 19.1683 14.1895 20.3373 12.753 20.3373Z" fill="#683BF2"/>
<path d="M22.4399 12.355C20.6866 12.355 19.2598 13.7817 19.2598 15.5358V17.6346C19.2598 21.1913 16.3668 24.0844 12.8107 24.0844C9.25395 24.0844 6.36018 21.1913 6.36018 17.6346V15.5358C6.36018 13.7818 4.93345 12.355 3.1794 12.355C1.42604 12.355 0 13.7817 0 15.5358V17.5957C0 21.5444 1.83606 25.2825 4.93901 27.703V33.9576C4.93901 34.533 5.40532 35 5.98143 35H19.5184C20.0938 35 20.5608 34.533 20.5608 33.9576V27.7635C23.7388 25.3159 25.62 21.5082 25.62 17.4685V15.5358C25.62 13.7818 24.194 12.355 22.4399 12.355ZM18.4759 27.2367V32.9151H7.02386V27.1804C7.02386 26.8441 6.86055 26.5279 6.58674 26.3319C3.76732 24.32 2.08485 21.0544 2.08485 17.5957V15.5358C2.08485 14.9312 2.57548 14.4398 3.1794 14.4398C3.784 14.4398 4.27533 14.9312 4.27533 15.5358V17.6346C4.27533 22.3408 8.10381 26.1693 12.8107 26.1693C17.5162 26.1693 21.3447 22.3408 21.3447 17.6346V15.5358C21.3447 14.9312 21.836 14.4398 22.4406 14.4398C23.0445 14.4398 23.5352 14.9312 23.5352 15.5358V17.4685C23.5352 21.0148 21.8089 24.3478 18.9179 26.3847C18.6406 26.58 18.4759 26.8976 18.4759 27.2367Z" fill="#683BF2"/>
<path d="M8.70286 7.82739L8.54233 10.9185C8.50355 11.6795 9.26702 12.2205 9.96836 11.9408L12.81 10.8115L15.6517 11.9408C16.3542 12.2195 17.1165 11.6801 17.0777 10.9185L16.9172 7.82739L18.8352 5.49722C19.3127 4.91916 19.0389 4.03532 18.3126 3.83142L15.3487 2.99818L13.6801 0.467866C13.2694 -0.156199 12.3502 -0.155712 11.9399 0.467866L10.2714 2.99818L7.3074 3.83142C6.57999 4.03567 6.30813 4.9202 6.7848 5.49722L8.70286 7.82739ZM11.7982 4.47085L12.81 2.9357L13.8219 4.47085C13.9602 4.68003 14.1686 4.83292 14.4105 4.90033L16.2104 5.40625L15.0505 6.81491C14.8851 7.01575 14.801 7.2708 14.8142 7.53141L14.9115 9.4036L13.195 8.72116C12.9489 8.62296 12.6712 8.6229 12.425 8.72116L10.7085 9.4036L10.8058 7.53141C10.819 7.2708 10.7349 7.01575 10.5695 6.81491L9.40962 5.40625L11.2095 4.90033C11.4514 4.83292 11.6599 4.67996 11.7982 4.47085Z" fill="#683BF2"/>
<path d="M4.7955 10.1072C5.2026 10.5143 5.8626 10.5143 6.2697 10.1072C6.6768 9.70014 6.6768 9.04007 6.2697 8.63297L2.34956 4.71283C1.94252 4.3058 1.28246 4.3058 0.875359 4.71283C0.468257 5.11986 0.468257 5.77992 0.875359 6.18703L4.7955 10.1072Z" fill="#683BF2"/>
<path d="M21.0696 10.1072L24.9897 6.18703C25.3968 5.77999 25.3968 5.11993 24.9897 4.71283C24.5827 4.3058 23.9226 4.3058 23.5155 4.71283L19.5954 8.63297C19.1883 9.04 19.1883 9.70007 19.5954 10.1072C20.0025 10.5143 20.6625 10.5142 21.0696 10.1072Z" fill="#683BF2"/>
</svg>
