<svg width="35" height="35" viewBox="0 0 35 35" fill="none" xmlns="http://www.w3.org/2000/svg">
<path d="M17.5 6.44314C18.0663 6.44314 18.5254 5.98404 18.5254 5.41775V1.02539C18.5254 0.459102 18.0663 0 17.5 0C16.9337 0 16.4746 0.459102 16.4746 1.02539V5.41775C16.4746 5.98404 16.9337 6.44314 17.5 6.44314Z" fill="#683BF2"/>
<path d="M17.5 28.5569C16.9337 28.5569 16.4746 29.016 16.4746 29.5822V33.9746C16.4746 34.5409 16.9337 35 17.5 35C18.0663 35 18.5254 34.5409 18.5254 33.9746V29.5822C18.5254 29.016 18.0663 28.5569 17.5 28.5569Z" fill="#683BF2"/>
<path d="M33.9746 16.4746H29.5823C29.016 16.4746 28.5569 16.9337 28.5569 17.5C28.5569 18.0663 29.016 18.5254 29.5823 18.5254H33.9746C34.5409 18.5254 35 18.0663 35 17.5C35 16.9337 34.5409 16.4746 33.9746 16.4746Z" fill="#683BF2"/>
<path d="M6.44308 17.5C6.44308 16.9337 5.98397 16.4746 5.41769 16.4746H1.02539C0.459102 16.4746 0 16.9337 0 17.5C0 18.0663 0.459102 18.5254 1.02539 18.5254H5.41769C5.98404 18.5254 6.44308 18.0663 6.44308 17.5Z" fill="#683BF2"/>
<path d="M13.2267 30.5529C9.08462 29.1975 5.80262 25.9154 4.44739 21.7733C4.2713 21.2351 3.69209 20.9416 3.15396 21.1176C2.6157 21.2937 2.32217 21.8728 2.49826 22.4111C4.05597 27.1718 7.82811 30.9442 12.5889 32.502C12.6947 32.5367 12.8023 32.5531 12.908 32.5531C13.3394 32.5531 13.7408 32.2787 13.8823 31.8464C14.0584 31.3082 13.7649 30.729 13.2267 30.5529Z" fill="#683BF2"/>
<path d="M31.846 21.1176C31.3078 20.9416 30.7286 21.2351 30.5525 21.7733C29.1973 25.9154 25.9153 29.1975 21.7733 30.5529C21.235 30.729 20.9415 31.3082 21.1176 31.8464C21.2591 32.2788 21.6606 32.5531 22.092 32.5531C22.1977 32.5531 22.3052 32.5367 22.4111 32.502C27.1718 30.9442 30.944 27.1718 32.5016 22.4111C32.6778 21.8729 32.3842 21.2938 31.846 21.1176Z" fill="#683BF2"/>
<path d="M21.7733 4.44705C25.9154 5.80241 29.1974 9.08455 30.5526 13.2267C30.694 13.659 31.0955 13.9335 31.5269 13.9335C31.6326 13.9335 31.7401 13.917 31.846 13.8824C32.3843 13.7063 32.6778 13.1272 32.5017 12.5889C30.944 7.8281 27.1719 4.05583 22.4112 2.49799C21.873 2.32183 21.2939 2.61536 21.1178 3.15362C20.9416 3.69182 21.2351 4.27096 21.7733 4.44705Z" fill="#683BF2"/>
<path d="M3.15396 13.8824C3.25985 13.917 3.36731 13.9335 3.473 13.9335C3.90441 13.9335 4.30589 13.659 4.44732 13.2267C5.80255 9.08455 9.08455 5.80248 13.2266 4.44705C13.7648 4.27096 14.0584 3.69182 13.8822 3.15362C13.7061 2.61536 13.1268 2.32189 12.5888 2.49799C7.82817 4.05583 4.05597 7.8281 2.49826 12.5889C2.32217 13.1271 2.61577 13.7062 3.15396 13.8824Z" fill="#683BF2"/>
<path d="M21.6797 17.5C21.6797 15.1953 19.8047 13.3203 17.5 13.3203C15.1953 13.3203 13.3203 15.1953 13.3203 17.5C13.3203 19.8047 15.1953 21.6797 17.5 21.6797C19.8047 21.6797 21.6797 19.8047 21.6797 17.5ZM15.3711 17.5C15.3711 16.3261 16.3261 15.3711 17.5 15.3711C18.6739 15.3711 19.6289 16.3261 19.6289 17.5C19.6289 18.6739 18.6739 19.6289 17.5 19.6289C16.3261 19.6289 15.3711 18.6739 15.3711 17.5Z" fill="#683BF2"/>
<path d="M10.8201 19.2857C10.6737 18.7387 10.1116 18.4138 9.5645 18.5603C9.01749 18.7067 8.69265 19.2688 8.83907 19.8159C9.88675 23.7307 13.4483 26.4649 17.5 26.4649C21.5517 26.4649 25.1132 23.7307 26.1609 19.8159C26.3074 19.2688 25.9825 18.7067 25.4355 18.5603C24.8882 18.4138 24.3262 18.7387 24.1799 19.2857C23.3718 22.3052 20.625 24.4141 17.5001 24.4141C14.3752 24.4141 11.6282 22.3052 10.8201 19.2857Z" fill="#683BF2"/>
<path d="M26.1609 15.1841C25.1133 11.2693 21.5518 8.53515 17.5 8.53515C13.4483 8.53515 9.88675 11.2693 8.83907 15.1841C8.69265 15.7312 9.01749 16.2933 9.5645 16.4397C10.1116 16.5862 10.6737 16.2613 10.8201 15.7143C11.6282 12.6948 14.3751 10.586 17.5 10.586C20.6249 10.586 23.3717 12.6949 24.1798 15.7143C24.3024 16.1726 24.7168 16.4749 25.1697 16.4749C25.2574 16.4749 25.3466 16.4635 25.4354 16.4397C25.9825 16.2934 26.3073 15.7312 26.1609 15.1841Z" fill="#683BF2"/>
</svg>
