<svg width="53" height="51" viewBox="0 0 53 51" fill="none" xmlns="http://www.w3.org/2000/svg">
<path d="M10.6057 8.43292H8.93257C8.04327 8.43292 7.31969 9.15337 7.31969 10.0389V18.8445H5.58643C5.15767 18.8445 4.81006 19.1905 4.81006 19.6175C4.81006 20.0446 5.15767 20.3906 5.58643 20.3906H27.3365C27.7653 20.3906 28.1129 20.0446 28.1129 19.6175C28.1129 19.1905 27.7653 18.8445 27.3365 18.8445H25.6032V8.37304C25.6032 7.48748 24.8797 6.76714 23.9903 6.76714H22.3171C21.4278 6.76714 20.7043 7.48748 20.7043 8.37304V18.8445H18.9109V13.1624C18.9109 12.2768 18.1873 11.5565 17.2979 11.5565H15.6248C14.7354 11.5565 14.0119 12.2768 14.0119 13.1624V18.8445H12.2185V10.0389C12.2187 9.15337 11.4951 8.43292 10.6057 8.43292ZM8.87243 10.0389C8.87243 10.0058 8.89945 9.97894 8.93257 9.97894H10.6057C10.6389 9.97894 10.6659 10.0058 10.6659 10.0389V18.8445H8.87243V10.0389ZM22.2571 8.37304C22.2571 8.34006 22.2841 8.31316 22.3172 8.31316H23.9904C24.0236 8.31316 24.0506 8.34006 24.0506 8.37304V18.8445H22.2572L22.2571 8.37304ZM15.5648 13.1624C15.5648 13.1294 15.5918 13.1025 15.625 13.1025H17.2981C17.3313 13.1025 17.3583 13.1294 17.3583 13.1624V18.8445H15.5649L15.5648 13.1624Z" fill="white"/>
<path d="M51.6809 23.3786L50.3516 23.1029C50.1993 22.6506 50.0148 22.208 49.7999 21.7793L50.5447 20.6474C50.9725 19.9971 50.8824 19.1262 50.3303 18.5767L48.3541 16.609C47.8021 16.0593 46.9273 15.9697 46.2746 16.3957L45.1377 17.1373C44.7072 16.9234 44.2626 16.7397 43.8084 16.5881L43.5314 15.2644C43.3722 14.5033 42.69 13.9511 41.9093 13.9511H39.1146C38.3339 13.9511 37.6517 14.5033 37.4925 15.2644L37.2155 16.5881C36.7613 16.7397 36.3167 16.9234 35.8863 17.1373L34.7495 16.3959C34.189 16.0301 33.466 16.0453 32.923 16.4042V2.85498C32.923 1.28083 31.6368 0 30.0557 0H2.44918C1.09871 0 0 1.09396 0 2.43859V4.7267C0 5.15371 0.347605 5.49971 0.776367 5.49971C1.20513 5.49971 1.55273 5.15371 1.55273 4.7267V2.43859C1.55273 1.94644 1.95489 1.54602 2.44918 1.54602H30.0558C30.7806 1.54602 31.3704 2.1332 31.3704 2.85498V17.9029L30.6937 18.5767C30.1417 19.1262 30.0514 19.9971 30.4793 20.6474L31.2241 21.7793C31.0093 22.2079 30.8248 22.6505 30.6725 23.1029L29.3432 23.3786C28.5788 23.5371 28.0241 24.2163 28.0241 24.9938V25.6124H12.6268C12.4051 25.6124 12.1939 25.7068 12.0466 25.8719L6.78131 31.7693V26.3854C6.78131 25.9584 6.4337 25.6124 6.00494 25.6124H2.44918C1.95489 25.6124 1.55273 25.2115 1.55273 24.7188V8.34439C1.55273 7.91737 1.20513 7.57138 0.776367 7.57138C0.347605 7.57138 0 7.91737 0 8.34439V24.7188C0 26.064 1.09871 27.1584 2.44918 27.1584H5.22857V31.9141C5.22857 32.7365 5.90049 33.4055 6.72645 33.4055C7.15614 33.4055 7.56523 33.2216 7.84597 32.9038L12.9754 27.1585H15.0605V36.7098C15.0605 37.1368 15.4081 37.4828 15.8369 37.4828C16.2656 37.4828 16.6132 37.1368 16.6132 36.7098V27.1585H28.0241V27.7764C28.0241 28.5536 28.5787 29.2329 29.3431 29.3916L30.6724 29.6673C30.8247 30.1197 31.0092 30.5623 31.224 30.9909L30.4792 32.1228C30.0514 32.7729 30.1416 33.6438 30.6936 34.1935L32.6697 36.161C33.2217 36.7107 34.0964 36.8005 34.7494 36.3744L35.8863 35.6329C36.3168 35.8468 36.7614 36.0305 37.2155 36.1821L37.4925 37.5058C37.6517 38.2669 38.3339 38.8191 39.1146 38.8191H41.9093C42.69 38.8191 43.3722 38.2669 43.5314 37.5058L43.8084 36.1821C44.2627 36.0305 44.7073 35.8468 45.1377 35.6329L46.2745 36.3744C46.3252 36.4075 46.3776 36.4364 46.4308 36.4633V42.3147C46.4308 42.8068 46.0286 43.2072 45.5343 43.2072H41.9786C41.5498 43.2072 41.2022 43.5532 41.2022 43.9802V49.3651L35.9359 43.4667C35.7886 43.3016 35.5774 43.2072 35.3557 43.2072H17.5096C17.0153 43.2072 16.6131 42.8068 16.6131 42.3147V40.3274C16.6131 39.9004 16.2655 39.5544 15.8368 39.5544C15.408 39.5544 15.0604 39.9004 15.0604 40.3274V42.3145C15.0604 43.6591 16.1591 44.7531 17.5096 44.7531H35.007L40.1367 50.4986C40.4204 50.8173 40.8287 51 41.2571 51C42.083 51 42.755 50.331 42.755 49.5086V44.7532H45.5343C46.8848 44.7532 47.9835 43.6592 47.9835 42.3146V36.4366C48.1172 36.3635 48.2425 36.2721 48.3542 36.1609L50.3304 34.1932C50.8824 33.6436 50.9725 32.7727 50.5447 32.1226L49.7999 30.9907C50.0147 30.5621 50.1993 30.1194 50.3516 29.6671L51.6811 29.3913C52.4453 29.2327 53 28.5534 53 27.7762V24.9937C53 24.2163 52.4453 23.5371 51.6809 23.3786ZM51.4473 27.7763C51.4473 27.8253 51.4124 27.8679 51.3643 27.8778L49.5872 28.2464C49.3044 28.305 49.0777 28.5152 48.9987 28.7919C48.8143 29.438 48.5529 30.0652 48.2217 30.6565C48.0809 30.9078 48.092 31.2161 48.2503 31.4568L49.246 32.97C49.2729 33.0108 49.2672 33.0657 49.2326 33.1002L47.2563 35.0679C47.2217 35.1025 47.1668 35.1081 47.1256 35.0813L45.6059 34.0899C45.3642 33.9323 45.0547 33.9212 44.8023 34.0615C44.2084 34.3912 43.5783 34.6517 42.9296 34.8352C42.6517 34.9139 42.4407 35.1395 42.3818 35.4212L42.0115 37.1906C42.0015 37.2385 41.9586 37.2732 41.9095 37.2732H39.1148C39.0658 37.2732 39.0228 37.2385 39.0129 37.1906L38.6426 35.4212C38.5837 35.1396 38.3726 34.9139 38.0948 34.8352C37.4461 34.6517 36.816 34.3913 36.2221 34.0615C36.1043 33.9961 35.9741 33.9636 35.8439 33.9636C35.6954 33.9636 35.5473 34.0059 35.4185 34.09L33.8988 35.0814C33.8579 35.1082 33.8028 35.1026 33.7679 35.0679L31.7918 33.1004C31.7571 33.0658 31.7513 33.011 31.7783 32.9701L32.774 31.457C32.9324 31.2163 32.9433 30.908 32.8027 30.6568C32.4714 30.0655 32.2099 29.4381 32.0256 28.7919C31.9466 28.5153 31.7199 28.3052 31.4371 28.2465L29.6601 27.878C29.612 27.8679 29.5771 27.8253 29.5771 27.7764V24.9939C29.5771 24.9449 29.6119 24.9023 29.66 24.8924L31.4371 24.5238C31.7199 24.4651 31.9466 24.255 32.0256 23.9784C32.2099 23.3322 32.4714 22.705 32.8027 22.1135C32.9433 21.8623 32.9324 21.554 32.774 21.3133L31.7783 19.8002C31.7513 19.7594 31.757 19.7045 31.7917 19.6699L33.7678 17.7023C33.8026 17.6678 33.8577 17.6621 33.8987 17.6889L35.4184 18.6803C35.66 18.8377 35.9695 18.8489 36.222 18.7087C36.816 18.3789 37.4461 18.1185 38.0947 17.935C38.3725 17.8563 38.5836 17.6307 38.6425 17.349L39.0128 15.5796C39.0228 15.5317 39.0657 15.497 39.1147 15.497H41.9094C41.9585 15.497 42.0015 15.5317 42.0114 15.5796L42.3817 17.349C42.4406 17.6306 42.6516 17.8563 42.9295 17.935C43.5782 18.1185 44.2083 18.379 44.8022 18.7087C45.0546 18.8488 45.3641 18.8377 45.6058 18.6803L47.1257 17.6888C47.1667 17.662 47.2218 17.6677 47.2563 17.7022L49.2326 19.67C49.2672 19.7045 49.2729 19.7593 49.246 19.8002L48.2503 21.3133C48.0919 21.554 48.0809 21.8623 48.2216 22.1135C48.5529 22.7048 48.8143 23.3323 48.9987 23.9783C49.0777 24.255 49.3044 24.4651 49.5872 24.5238L51.3643 24.8924C51.4124 24.9024 51.4472 24.945 51.4472 24.9939L51.4473 27.7763Z" fill="white"/>
<path d="M40.5119 19.3654C39.3736 19.3654 38.243 19.642 37.2422 20.1651C36.8626 20.3637 36.7164 20.8309 36.9157 21.2089C37.115 21.5869 37.5842 21.7323 37.964 21.534C38.7543 21.1209 39.6115 20.9115 40.512 20.9115C43.5434 20.9115 46.0097 23.3671 46.0097 26.3853C46.0097 29.4036 43.5434 31.8592 40.512 31.8592C37.4805 31.8592 35.0143 29.4036 35.0143 26.3853C35.0143 25.4555 35.252 24.5382 35.702 23.7331C35.9105 23.3599 35.7756 22.8892 35.401 22.6818C35.0262 22.4741 34.5535 22.6083 34.3451 22.9814C33.7671 24.016 33.4615 25.1931 33.4615 26.3853C33.4615 30.2562 36.6243 33.4053 40.512 33.4053C44.3996 33.4053 47.5624 30.2561 47.5624 26.3853C47.5623 22.5146 44.3995 19.3654 40.5119 19.3654Z" fill="white"/>
<path d="M39.6669 28.841C39.8655 28.841 40.0643 28.7656 40.2158 28.6147L43.5964 25.2487C43.8996 24.9467 43.8996 24.4573 43.5964 24.1554C43.2932 23.8536 42.8016 23.8536 42.4985 24.1554L39.6669 26.9749L38.5255 25.8384C38.2223 25.5366 37.7307 25.5366 37.4276 25.8384C37.1244 26.1404 37.1244 26.6298 37.4276 26.9317L39.1179 28.6147C39.2695 28.7656 39.4682 28.841 39.6669 28.841Z" fill="white"/>
</svg>
