<svg width="50" height="50" viewBox="0 0 50 50" fill="none" xmlns="http://www.w3.org/2000/svg">
<path d="M49.0234 0H33.5088C33.1138 0 32.7577 0.237988 32.6065 0.602832C32.4555 0.967773 32.5391 1.38779 32.8183 1.66709L36.4726 5.32139L24.1731 17.6208L12.814 6.26162C12.4325 5.88037 11.8144 5.88037 11.4328 6.26162L0.288574 17.4059C-0.0927734 17.7872 -0.0927734 18.4056 0.288574 18.787C0.479297 18.9776 0.729199 19.073 0.979102 19.073C1.229 19.073 1.47891 18.9776 1.66963 18.787L12.1234 8.3333L25.7278 21.9377C25.9186 22.1283 26.1685 22.2237 26.4184 22.2237C26.6683 22.2237 26.9182 22.1283 27.1089 21.9377C27.4902 21.5563 27.4902 20.938 27.1089 20.5565L25.5543 19.002L37.8536 6.70254L43.3066 12.1556L33.3952 22.0671C33.0139 22.4484 33.0139 23.0668 33.3952 23.4482C33.5859 23.6389 33.8358 23.7343 34.0857 23.7343C34.3356 23.7343 34.5855 23.6389 34.7763 23.4482L44.6877 13.5367L48.3328 17.1818C48.5196 17.3687 48.7694 17.4679 49.0235 17.4679C49.1493 17.4679 49.2763 17.4436 49.3971 17.3936C49.7619 17.2424 49.9999 16.8863 49.9999 16.4913V0.976562C50 0.437305 49.5627 0 49.0234 0ZM48.0469 14.1336L35.8664 1.95312H48.0469V14.1336Z" fill="white"/>
<path d="M32.3593 24.4844C32.1777 24.3018 31.9258 24.1982 31.6689 24.1982C31.4121 24.1982 31.1602 24.3018 30.9785 24.4844C30.7959 24.666 30.6924 24.918 30.6924 25.1748C30.6924 25.4316 30.7959 25.6836 30.9785 25.8651C31.1602 26.0468 31.4121 26.1514 31.6689 26.1514C31.9258 26.1514 32.1777 26.0469 32.3593 25.8651C32.5409 25.6836 32.6455 25.4316 32.6455 25.1748C32.6455 24.918 32.541 24.666 32.3593 24.4844Z" fill="white"/>
<path d="M18.7976 25.9136L13.5044 20.6205L15.0805 19.0444C15.4619 18.6631 15.4619 18.0447 15.0806 17.6634C14.6991 17.2821 14.081 17.2821 13.6994 17.6634L0.288184 31.0746C-0.0931641 31.456 -0.0931641 32.0743 0.288184 32.4558C0.478906 32.6464 0.728809 32.7418 0.978711 32.7418C1.22861 32.7418 1.47852 32.6464 1.66924 32.4558L12.1233 22.0017L17.4165 27.2947C17.6072 27.4853 17.8571 27.5808 18.107 27.5808C18.3569 27.5808 18.6068 27.4853 18.7976 27.2947C19.1789 26.9134 19.1789 26.295 18.7976 25.9136Z" fill="white"/>
<path d="M25.0456 35.8303L25 35.8302C24.4607 35.8302 24.0234 36.2675 24.0234 36.8067C24.0234 37.346 24.4607 37.7833 25 37.7833L25.0312 37.7834C25.0336 37.7834 25.0361 37.7834 25.0386 37.7834C25.5744 37.7834 26.0109 37.3509 26.0149 36.8141C26.0189 36.2748 25.585 35.8343 25.0456 35.8303Z" fill="white"/>
<path d="M49.0234 48.0469H47.3105V43.6706C47.3105 43.2222 47.0052 42.8313 46.57 42.723L42.0311 41.5922L40.4039 37.666L42.8135 33.6575C43.0445 33.2731 42.9842 32.7809 42.6671 32.4638L38.8825 28.6792C38.5653 28.3621 38.073 28.3019 37.6888 28.5328L33.6802 30.9424L29.7541 29.3153L28.6232 24.7764C28.5149 24.3412 28.1241 24.0358 27.6757 24.0358H22.3242C21.8758 24.0358 21.485 24.3412 21.3767 24.7764L20.2458 29.3153L16.3197 30.9424L12.3111 28.5328C11.9268 28.3017 11.4346 28.3621 11.1174 28.6792L7.33291 32.4639C7.01582 32.781 6.95547 33.2732 7.18652 33.6576L9.59609 37.666L7.96904 41.5922L3.43008 42.723C2.99492 42.8313 2.68955 43.2222 2.68955 43.6706V48.0469H0.976562C0.437305 48.0469 0 48.4842 0 49.0234C0 49.5627 0.437305 50 0.976562 50H49.0234C49.5627 50 50 49.5627 50 49.0234C50 48.4842 49.5627 48.0469 49.0234 48.0469ZM45.3572 48.0469H35.3768C35.9191 44.7296 34.847 41.3216 32.4357 38.9103C31.3784 37.8529 30.139 37.0487 28.7521 36.5199C28.2482 36.3277 27.684 36.5805 27.4918 37.0845C27.2996 37.5884 27.5524 38.1526 28.0563 38.3448C29.1844 38.7749 30.1933 39.4298 31.0547 40.2913C33.0944 42.3312 33.9574 45.2473 33.3917 48.0468H16.6075C16.0419 45.2472 16.9049 42.3311 18.9447 40.2913C19.8146 39.4214 20.8344 38.7624 21.9755 38.3325C22.4803 38.1425 22.7353 37.5791 22.5452 37.0744C22.3551 36.5697 21.7918 36.3148 21.2871 36.5047C19.8842 37.0331 18.6313 37.8424 17.5636 38.9102C15.1524 41.3214 14.0802 44.7293 14.6226 48.0468H4.64258V44.4338L8.91875 43.3685C9.21924 43.2936 9.46631 43.0808 9.58486 42.7947L11.5889 37.9588C11.7074 37.6727 11.6833 37.3473 11.5236 37.0818L9.25352 33.3054L11.9589 30.6L15.7354 32.8701C16.0009 33.0298 16.3266 33.054 16.6124 32.9354L21.4482 30.9313C21.7343 30.8128 21.9472 30.5657 22.022 30.2652L23.0873 25.9891H26.9125L27.9778 30.2652C28.0526 30.5657 28.2655 30.8128 28.5516 30.9313L33.3874 32.9354C33.6734 33.054 33.999 33.0299 34.2644 32.8701L38.0409 30.6L40.7463 33.3054L38.4762 37.0818C38.3165 37.3474 38.2924 37.6728 38.4109 37.9588L40.4149 42.7947C40.5335 43.0808 40.7806 43.2936 41.0811 43.3685L45.3572 44.4338V48.0469Z" fill="white"/>
</svg>
