<svg width="66" height="65" viewBox="0 0 66 65" fill="none" xmlns="http://www.w3.org/2000/svg">
<path d="M51.2354 54.1667C49.1002 54.1667 47.2686 55.4865 46.5106 57.3529H42.0589V61.1765H46.5106C47.2686 63.0429 49.1002 64.3627 51.2354 64.3627C54.0464 64.3627 56.3334 62.0758 56.3334 59.2647C56.3334 56.4536 54.0464 54.1667 51.2354 54.1667Z" fill="#683BF2"/>
<path d="M60.1569 43.3333C59.3189 43.3333 58.5284 43.5377 57.8302 43.8975L53.0965 39.9528C52.7529 39.6665 52.3198 39.5098 51.8726 39.5098H42.0589V43.3333H51.1804L55.3309 46.7921C55.1555 47.3068 55.0589 47.8578 55.0589 48.4313C55.0589 51.2424 57.3459 53.5294 60.1569 53.5294C62.968 53.5294 65.255 51.2424 65.255 48.4313C65.255 45.6203 62.968 43.3333 60.1569 43.3333Z" fill="#683BF2"/>
<path d="M60.1569 27.4019C58.0218 27.4019 56.1902 28.7218 55.4322 30.5882H42.0589V34.4118H55.4322C56.1902 36.2781 58.0218 37.598 60.1569 37.598C62.968 37.598 65.255 35.311 65.255 32.5C65.255 29.6889 62.968 27.4019 60.1569 27.4019Z" fill="#683BF2"/>
<path d="M53.0965 25.047L57.8302 21.1023C58.5284 21.4622 59.3189 21.6666 60.1569 21.6666C62.968 21.6666 65.255 19.3796 65.255 16.5686C65.255 13.7575 62.968 11.4706 60.1569 11.4706C57.3459 11.4706 55.0589 13.7575 55.0589 16.5686C55.0589 17.1421 55.1555 17.6931 55.3309 18.2079L51.1804 21.6666H42.0589V25.4902H51.8726C52.3198 25.4902 52.7529 25.3334 53.0965 25.047Z" fill="#683BF2"/>
<path d="M51.2354 10.8333C54.0464 10.8333 56.3334 8.54637 56.3334 5.73531C56.3334 2.92425 54.0464 0.637268 51.2354 0.637268C49.1002 0.637268 47.2686 1.95715 46.5106 3.82354H42.0589V7.64707H46.5106C47.2686 9.51346 49.1002 10.8333 51.2354 10.8333Z" fill="#683BF2"/>
<path d="M19.1176 32.5C19.1176 39.879 25.1209 45.8823 32.5 45.8823C34.5513 45.8823 36.4959 45.4178 38.2353 44.5893V20.4106C36.4959 19.5822 34.5513 19.1176 32.5 19.1176C25.1209 19.1176 19.1176 25.1209 19.1176 32.5Z" fill="#231747"/>
<path d="M36.3235 0H28.6765C27.6207 0 26.7647 0.855961 26.7647 1.91176V4.40025C23.1773 5.13105 19.7443 6.55327 16.6864 8.57541L14.9263 6.81544C14.1797 6.06883 12.9693 6.06883 12.2227 6.81544L6.81544 12.2227C6.06883 12.9692 6.06883 14.1797 6.81544 14.9263L8.57541 16.6864C6.55327 19.7443 5.13105 23.1773 4.40025 26.7647H1.91176C0.855961 26.7647 0 27.6207 0 28.6765V36.3235C0 37.3793 0.855961 38.2353 1.91176 38.2353H4.40025C5.13105 41.8227 6.55327 45.2557 8.57541 48.3137L6.81531 50.0738C6.45679 50.4324 6.25542 50.9186 6.25542 51.4256C6.25542 51.9326 6.45679 52.4187 6.81531 52.7772L12.2227 58.1846C12.9693 58.9312 14.1797 58.9312 14.9263 58.1846L16.6864 56.4246C19.7443 58.4467 23.1773 59.8688 26.7647 60.5998V63.0882C26.7647 64.144 27.6207 65 28.6765 65H36.3235C37.3793 65 38.2353 64.144 38.2353 63.0882V48.7217C36.4405 49.3582 34.5103 49.7059 32.5 49.7059C23.0127 49.7059 15.2941 41.9873 15.2941 32.5C15.2941 23.0127 23.0127 15.2941 32.5 15.2941C34.5103 15.2941 36.4405 15.6418 38.2353 16.2783V1.91176C38.2353 0.855961 37.3793 0 36.3235 0Z" fill="#231747"/>
</svg>
