<svg width="48" height="45" viewBox="0 0 48 45" fill="none" xmlns="http://www.w3.org/2000/svg">
<path d="M38.184 12.6941L30.3885 11.5613L26.9022 4.49745C25.5557 1.76887 21.662 1.7697 20.3159 4.49736L16.8296 11.5612L9.03415 12.6941C6.02282 13.1316 4.8208 16.8348 6.9989 18.9581L12.6398 24.4566L11.3082 32.2203C10.7938 35.2195 13.9441 37.5069 16.6367 36.0918L23.6091 32.426L30.5817 36.0918C33.2705 37.5053 36.4244 35.219 35.9102 32.2203L34.5786 24.4565L40.2196 18.958C42.398 16.8339 41.194 13.1315 38.184 12.6941ZM38.022 16.704L31.7886 22.78C31.4177 23.1416 31.2485 23.6625 31.336 24.1731L32.8075 32.7526C32.8814 33.1835 32.4331 33.5088 32.0463 33.3057L24.3414 29.255C23.883 29.014 23.3351 29.014 22.8766 29.255L15.1717 33.3057C14.7848 33.509 14.3367 33.1834 14.4105 32.7526L15.882 24.1731C15.9695 23.6625 15.8003 23.1416 15.4294 22.78L9.196 16.704C8.88291 16.3988 9.05417 15.8721 9.48678 15.8091L18.1011 14.5573C18.6137 14.4828 19.0569 14.161 19.2861 13.6964L23.1386 5.89047C23.332 5.49871 23.886 5.49844 24.0795 5.89056L27.932 13.6964C28.1612 14.161 28.6045 14.4829 29.117 14.5573L37.7313 15.8091C38.1638 15.8721 38.335 16.3989 38.022 16.704Z" fill="white"/>
<path d="M12.4253 3.23964L10.5429 0.648835C10.0318 -0.0542673 9.04762 -0.210307 8.34452 0.300788C7.64132 0.8117 7.48537 1.79599 7.99638 2.49918L9.87873 5.08989C10.39 5.79336 11.3742 5.94876 12.0771 5.43794C12.7803 4.92712 12.9363 3.94283 12.4253 3.23964Z" fill="white"/>
<path d="M6.17868 26.4571C5.91022 25.6305 5.0223 25.1777 4.19544 25.4466L1.08792 26.4563C0.261235 26.725 -0.191115 27.6128 0.0774358 28.4396C0.346448 29.2676 1.23584 29.7184 2.06068 29.45L5.1682 28.4403C5.99497 28.1716 6.44732 27.2837 6.17868 26.4571Z" fill="white"/>
<path d="M38.8735 0.300881C38.1704 -0.210031 37.1861 -0.0542674 36.6751 0.648927L34.7928 3.23964C34.2817 3.94283 34.4377 4.92721 35.1409 5.43803C35.8444 5.94913 36.8286 5.7929 37.3393 5.08998L39.2216 2.49928C39.7326 1.79608 39.5767 0.8117 38.8735 0.300881Z" fill="white"/>
<path d="M46.1299 26.4563L43.0224 25.4466C42.1957 25.1775 41.3078 25.6304 41.0392 26.4571C40.7705 27.2837 41.2229 28.1717 42.0496 28.4403L45.1572 29.45C45.9821 29.7183 46.8714 29.2675 47.1404 28.4396C47.409 27.6129 46.9566 26.725 46.1299 26.4563Z" fill="white"/>
<path d="M23.609 38.6579C22.7398 38.6579 22.0351 39.3625 22.0351 40.2317V43.4261C22.0351 44.2953 22.7398 45 23.609 45C24.4782 45 25.1828 44.2953 25.1828 43.4261V40.2317C25.1829 39.3624 24.4782 38.6579 23.609 38.6579Z" fill="white"/>
</svg>
