<svg width="40" height="40" viewBox="0 0 40 40" fill="none" xmlns="http://www.w3.org/2000/svg">
<path d="M26.276 2.51039H22.427V1.17188C22.427 0.524687 21.9023 0 21.2551 0C20.6079 0 20.0832 0.524687 20.0832 1.17188V2.51039H17.4062V1.17188C17.4062 0.524687 16.8815 0 16.2343 0C15.5872 0 15.0625 0.524687 15.0625 1.17188V2.51039H12.3854V1.17188C12.3854 0.524687 11.8607 0 11.2135 0C10.5663 0 10.0416 0.524687 10.0416 1.17188V2.51039H7.3646V1.17188C7.3646 0.524687 6.83991 0 6.19272 0C5.54554 0 5.02085 0.524687 5.02085 1.17188V2.51039H1.17187C0.524686 2.51039 0 3.03508 0 3.68227V38.8281C0 39.4753 0.524686 40 1.17187 40H26.276C26.9232 40 27.4478 39.4753 27.4478 38.8281V3.68227C27.4478 3.03508 26.9232 2.51039 26.276 2.51039ZM25.1041 37.6562H2.34375V4.85414H5.02085V6.19266C5.02085 6.83984 5.54554 7.36453 6.19272 7.36453C6.83991 7.36453 7.3646 6.83984 7.3646 6.19266V4.85414H10.0417V6.19266C10.0417 6.83984 10.5664 7.36453 11.2136 7.36453C11.8608 7.36453 12.3854 6.83984 12.3854 6.19266V4.85414H15.0625V6.19266C15.0625 6.83984 15.5872 7.36453 16.2343 7.36453C16.8815 7.36453 17.4062 6.83984 17.4062 6.19266V4.85414H20.0833V6.19266C20.0833 6.83984 20.608 7.36453 21.2552 7.36453C21.9024 7.36453 22.4271 6.83984 22.4271 6.19266V4.85414H25.1042L25.1041 37.6562Z" fill="white"/>
<path d="M21.2552 11.2969H6.19272C5.54554 11.2969 5.02085 11.8216 5.02085 12.4688C5.02085 13.1159 5.54554 13.6406 6.19272 13.6406H21.2552C21.9024 13.6406 22.4271 13.1159 22.4271 12.4688C22.4271 11.8216 21.9024 11.2969 21.2552 11.2969Z" fill="white"/>
<path d="M21.2552 16.3177H6.19272C5.54554 16.3177 5.02085 16.8424 5.02085 17.4896C5.02085 18.1368 5.54554 18.6615 6.19272 18.6615H21.2552C21.9024 18.6615 22.4271 18.1368 22.4271 17.4896C22.4271 16.8424 21.9024 16.3177 21.2552 16.3177Z" fill="white"/>
<path d="M21.2552 21.3385H6.19272C5.54554 21.3385 5.02085 21.8632 5.02085 22.5104C5.02085 23.1576 5.54554 23.6823 6.19272 23.6823H21.2552C21.9024 23.6823 22.4271 23.1576 22.4271 22.5104C22.4271 21.8632 21.9024 21.3385 21.2552 21.3385Z" fill="white"/>
<path d="M21.2552 26.3594H6.19272C5.54554 26.3594 5.02085 26.8841 5.02085 27.5312C5.02085 28.1784 5.54554 28.7031 6.19272 28.7031H21.2552C21.9024 28.7031 22.4271 28.1784 22.4271 27.5312C22.4271 26.8841 21.9024 26.3594 21.2552 26.3594Z" fill="white"/>
<path d="M36.3177 2.51039H35.0624C33.029 2.51039 31.3802 4.15555 31.3802 6.19266V33.8073C31.3802 34.027 31.4419 34.2421 31.5583 34.4284L34.6963 39.4492C34.9105 39.7919 35.286 40 35.6901 40C36.0942 40 36.4697 39.7918 36.6838 39.4492L39.8219 34.4284C39.9383 34.2421 40 34.0269 40 33.8073V6.19273C39.9999 4.15906 38.3548 2.51039 36.3177 2.51039ZM37.6562 33.4713L35.69 36.6171L33.7238 33.4713V11.1302H37.6562V33.4713ZM37.6562 8.78648H33.7239V6.19273C33.7239 5.45344 34.3222 4.85422 35.0624 4.85422H36.3177C37.057 4.85422 37.6562 5.4525 37.6562 6.19273V8.78648Z" fill="white"/>
</svg>
