<svg width="40" height="40" viewBox="0 0 40 40" fill="none" xmlns="http://www.w3.org/2000/svg">
<path d="M39.953 2.98607C39.8664 1.39717 38.6027 0.133662 37.0138 0.0469433C33.8077 -0.128212 27.534 0.0421779 21.5349 3.14506C18.4767 4.72693 15.2424 7.40887 12.6612 10.5032C12.6294 10.5414 12.5985 10.5797 12.5669 10.6179L6.70914 11.0704C5.74492 11.1449 4.8861 11.6503 4.35282 12.4569L0.356424 18.5016C-0.0480272 19.1133 -0.112324 19.8788 0.184316 20.5494C0.481033 21.22 1.09072 21.6873 1.81533 21.7996L6.75054 22.564C6.73312 22.6599 6.71562 22.7558 6.6996 22.8517C6.53531 23.8345 6.86093 24.845 7.57077 25.5547L14.4451 32.4292C15.0336 33.0177 15.8289 33.3421 16.6437 33.3421C16.8115 33.3421 16.9803 33.3283 17.1482 33.3003C17.2442 33.2842 17.34 33.2667 17.436 33.2493L18.2003 38.1846C18.3126 38.9092 18.7799 39.519 19.4504 39.8156C19.7294 39.9391 20.0246 40 20.3185 40C20.7313 39.9999 21.1411 39.8798 21.4983 39.6436L27.543 35.6471C28.3496 35.1138 28.8549 34.2549 28.9293 33.2908L29.3818 27.4331C29.42 27.4015 29.4584 27.3706 29.4965 27.3388C32.591 24.7576 35.273 21.5233 36.8548 18.465C39.9578 12.4657 40.1279 6.19192 39.953 2.98607ZM26.2504 33.692L20.4683 37.5149L19.7233 32.7051C22.167 31.9866 24.5845 30.8358 26.8875 29.2942L26.5927 33.1102C26.5744 33.3482 26.4495 33.5603 26.2504 33.692ZM16.1024 30.7719L9.22795 23.8975C9.05256 23.722 8.97147 23.4755 9.01124 23.2381C9.21561 22.016 9.53319 20.8526 9.92631 19.7567L20.241 30.0714C18.9247 30.5428 17.7457 30.8241 16.7618 30.9886C16.5239 31.0282 16.2778 30.9473 16.1024 30.7719ZM6.88968 13.4072L10.7056 13.1124C9.16389 15.4155 8.01311 17.8329 7.2946 20.2766L2.48493 19.5317L6.30789 13.7495C6.4396 13.5503 6.65171 13.4256 6.88968 13.4072ZM27.9955 25.5389C26.1023 27.118 24.2645 28.2602 22.5706 29.0867L10.9128 17.4288C11.9954 15.2176 13.3168 13.3763 14.461 12.0046C16.8496 9.14089 19.8205 6.67051 22.6118 5.22677C28.1176 2.37889 33.9184 2.22553 36.8862 2.38709C37.279 2.4085 37.5914 2.72092 37.6129 3.11381C37.7746 6.08161 37.621 11.8824 34.7731 17.3882C33.3294 20.1794 30.859 23.1502 27.9955 25.5389Z" fill="white"/>
<path d="M27.4001 18.4564C28.9002 18.4562 30.401 17.8851 31.5431 16.743C32.6498 15.6364 33.2592 14.165 33.2592 12.6C33.2592 11.035 32.6497 9.5636 31.5431 8.45696C29.2586 6.17236 25.5414 6.17252 23.257 8.45696C22.1503 9.5636 21.5409 11.035 21.5409 12.6C21.5409 14.165 22.1504 15.6364 23.257 16.743C24.3994 17.8854 25.8994 18.4565 27.4001 18.4564ZM24.9141 10.1141C25.5994 9.42875 26.4997 9.0861 27.3999 9.0861C28.3002 9.0861 29.2004 9.42875 29.8857 10.1141C30.5497 10.7781 30.9154 11.6609 30.9154 12.5999C30.9154 13.5389 30.5497 14.4218 29.8857 15.0858C28.5151 16.4565 26.2847 16.4564 24.914 15.0858C24.2501 14.4218 23.8844 13.539 23.8844 12.6C23.8844 11.661 24.2501 10.7781 24.9141 10.1141Z" fill="white"/>
<path d="M1.19546 32.9637C1.49538 32.9637 1.79531 32.8494 2.02406 32.6205L5.85006 28.7945C6.30771 28.3368 6.30771 27.5949 5.85006 27.1372C5.39248 26.6796 4.65045 26.6796 4.1928 27.1372L0.366874 30.9632C-0.090781 31.4209 -0.090781 32.1628 0.366874 32.6205C0.595623 32.8493 0.895543 32.9637 1.19546 32.9637Z" fill="white"/>
<path d="M9.35637 30.6435C8.89879 30.1859 8.15677 30.1859 7.69911 30.6435L0.343358 37.9994C-0.114297 38.457 -0.114297 39.199 0.343358 39.6566C0.572185 39.8854 0.872028 39.9998 1.17195 39.9998C1.47187 39.9998 1.77179 39.8854 2.00054 39.6565L9.35629 32.3008C9.81403 31.8431 9.81403 31.1012 9.35637 30.6435Z" fill="white"/>
<path d="M11.2054 34.1498L7.37943 37.9758C6.92177 38.4335 6.92177 39.1754 7.37943 39.6331C7.60825 39.8619 7.90817 39.9764 8.20802 39.9764C8.50786 39.9764 8.80786 39.862 9.03661 39.6331L12.8626 35.8071C13.3203 35.3494 13.3203 34.6075 12.8626 34.1498C12.405 33.6922 11.663 33.6922 11.2054 34.1498Z" fill="white"/>
</svg>
