<svg width="33" height="39" viewBox="0 0 33 39" fill="none" xmlns="http://www.w3.org/2000/svg">
<path d="M19.6731 30.9352H13.3269C13.1586 30.9352 12.9972 30.8684 12.8782 30.7497C12.7592 30.6309 12.6923 30.4698 12.6923 30.3018V29.0206C12.695 28.6677 12.5976 28.3213 12.4114 28.0213C12.2253 27.7213 11.9579 27.48 11.6401 27.3252C9.93246 26.5232 8.45036 25.3118 7.32612 23.799C6.20187 22.2862 5.47047 20.5191 5.19721 18.6555C4.92395 16.7919 5.11734 14.8897 5.7601 13.1189C6.40286 11.348 7.475 9.76355 8.88081 8.50692C10.0795 7.42864 11.495 6.61809 13.0328 6.12945C14.5705 5.64081 16.195 5.48532 17.7978 5.67339C20.3316 5.97005 22.6941 7.10136 24.5113 8.88835C26.3286 10.6753 27.497 13.016 27.8317 15.5401C28.1378 17.9312 27.6786 20.3577 26.5198 22.4727C25.361 24.5877 23.5618 26.283 21.3796 27.3163C21.0582 27.4706 20.7871 27.7124 20.5974 28.0139C20.4078 28.3153 20.3073 28.664 20.3077 29.02V30.3018C20.3077 30.4698 20.2408 30.6309 20.1218 30.7497C20.0028 30.8684 19.8414 30.9352 19.6731 30.9352ZM13.9615 29.6685H19.0385V29.02C19.0386 28.4241 19.2074 27.8404 19.5255 27.3362C19.8436 26.8319 20.298 26.4277 20.8363 26.17C22.833 25.2288 24.4681 23.664 25.4939 21.7124C26.5196 19.7608 26.8802 17.5288 26.5211 15.3544C26.1619 13.18 25.1026 11.1816 23.5035 9.66178C21.9044 8.142 19.8526 7.18364 17.6588 6.93182C16.2367 6.76879 14.7961 6.90768 13.4316 7.33937C12.0671 7.77107 10.8094 8.48582 9.74118 9.43673C8.67293 10.3876 7.81821 11.5532 7.23311 12.857C6.64801 14.1608 6.34575 15.5733 6.34615 17.0018C6.3517 18.9252 6.90257 20.8077 7.93506 22.4318C8.96756 24.0558 10.4395 25.3551 12.1808 26.1795C12.7161 26.4369 13.1675 26.8404 13.4826 27.3432C13.7977 27.846 13.9638 28.4275 13.9615 29.0206V29.6685Z" fill="#683BF2"/>
<path d="M20.9423 35.3685H12.0577C11.8894 35.3685 11.728 35.3018 11.609 35.183C11.4899 35.0642 11.4231 34.9031 11.4231 34.7352V30.3018C11.4231 30.1339 11.4899 29.9728 11.609 29.854C11.728 29.7352 11.8894 29.6685 12.0577 29.6685H20.9423C21.1106 29.6685 21.272 29.7352 21.391 29.854C21.5101 29.9728 21.5769 30.1339 21.5769 30.3018V34.7352C21.5769 34.9031 21.5101 35.0642 21.391 35.183C21.272 35.3018 21.1106 35.3685 20.9423 35.3685ZM12.6923 34.1018H20.3077V30.9352H12.6923V34.1018Z" fill="#683BF2"/>
<path d="M16.5 38.5352C15.4904 38.5341 14.5225 38.1335 13.8087 37.4211C13.0948 36.7086 12.6933 35.7427 12.6923 34.7352C12.6923 34.5672 12.7592 34.4061 12.8782 34.2873C12.9972 34.1685 13.1586 34.1018 13.3269 34.1018C13.4952 34.1018 13.6567 34.1685 13.7757 34.2873C13.8947 34.4061 13.9615 34.5672 13.9615 34.7352C13.9615 35.407 14.229 36.0514 14.705 36.5265C15.1811 37.0016 15.8268 37.2685 16.5 37.2685C17.1732 37.2685 17.8189 37.0016 18.295 36.5265C18.771 36.0514 19.0385 35.407 19.0385 34.7352C19.0385 34.5672 19.1053 34.4061 19.2243 34.2873C19.3433 34.1685 19.5048 34.1018 19.6731 34.1018C19.8414 34.1018 20.0028 34.1685 20.1218 34.2873C20.2408 34.4061 20.3077 34.5672 20.3077 34.7352C20.3067 35.7427 19.9052 36.7086 19.1913 37.4211C18.4775 38.1335 17.5096 38.5341 16.5 38.5352Z" fill="#683BF2"/>
<path d="M16.5 3.70182C16.3317 3.70182 16.1703 3.6351 16.0513 3.51632C15.9322 3.39755 15.8654 3.23646 15.8654 3.06849V1.16849C15.8654 1.00052 15.9322 0.839428 16.0513 0.720655C16.1703 0.601882 16.3317 0.535156 16.5 0.535156C16.6683 0.535156 16.8297 0.601882 16.9487 0.720655C17.0678 0.839428 17.1346 1.00052 17.1346 1.16849V3.06849C17.1346 3.23646 17.0678 3.39755 16.9487 3.51632C16.8297 3.6351 16.6683 3.70182 16.5 3.70182Z" fill="#683BF2"/>
<path d="M9.51923 5.56826C9.40773 5.56836 9.29816 5.53915 9.20157 5.48356C9.10498 5.42797 9.02477 5.34796 8.96902 5.25159L8.0171 3.60492C7.97477 3.53287 7.94714 3.45317 7.9358 3.37042C7.92447 3.28766 7.92964 3.20349 7.95103 3.12274C7.97243 3.04199 8.00961 2.96626 8.06045 2.89991C8.11129 2.83356 8.17477 2.7779 8.24725 2.73614C8.31973 2.69438 8.39977 2.66733 8.48277 2.65657C8.56576 2.6458 8.65007 2.65153 8.73084 2.67341C8.81161 2.69529 8.88725 2.73291 8.95339 2.78408C9.01954 2.83525 9.07488 2.89898 9.11625 2.97159L10.0682 4.61826C10.1238 4.71449 10.1532 4.82364 10.1532 4.93476C10.1532 5.04588 10.124 5.15505 10.0683 5.25131C10.0127 5.34757 9.93269 5.42753 9.83631 5.48316C9.73993 5.5388 9.63057 5.56814 9.51923 5.56826Z" fill="#683BF2"/>
<path d="M4.40804 10.6685C4.29664 10.6685 4.1872 10.6392 4.09073 10.5836L2.44073 9.63362C2.29616 9.54904 2.19098 9.41083 2.14815 9.24914C2.10531 9.08745 2.1283 8.91542 2.21209 8.77058C2.29589 8.62575 2.43368 8.51987 2.59541 8.47605C2.75714 8.43223 2.92966 8.45403 3.07535 8.53669L4.72535 9.48669C4.84632 9.5564 4.94087 9.664 4.99433 9.79281C5.04778 9.92161 5.05716 10.0644 5.021 10.1991C4.98484 10.3337 4.90518 10.4527 4.79435 10.5376C4.68352 10.6225 4.54773 10.6685 4.40804 10.6685Z" fill="#683BF2"/>
<path d="M2.53846 17.6352H0.634615C0.466305 17.6352 0.304888 17.5684 0.185875 17.4497C0.0668612 17.3309 0 17.1698 0 17.0018C0 16.8339 0.0668612 16.6728 0.185875 16.554C0.304888 16.4352 0.466305 16.3685 0.634615 16.3685H2.53846C2.70677 16.3685 2.86819 16.4352 2.9872 16.554C3.10622 16.6728 3.17308 16.8339 3.17308 17.0018C3.17308 17.1698 3.10622 17.3309 2.9872 17.4497C2.86819 17.5684 2.70677 17.6352 2.53846 17.6352Z" fill="#683BF2"/>
<path d="M2.76058 25.5518C2.62088 25.5518 2.48509 25.5058 2.37426 25.4209C2.26344 25.3361 2.18377 25.2171 2.14761 25.0824C2.11146 24.9477 2.12083 24.8049 2.17429 24.6761C2.22775 24.5473 2.32229 24.4397 2.44327 24.37L4.09327 23.42C4.16547 23.3778 4.24533 23.3502 4.32825 23.3389C4.41117 23.3276 4.49552 23.3327 4.57643 23.3541C4.65734 23.3754 4.73323 23.4126 4.79971 23.4633C4.86619 23.514 4.92196 23.5774 4.96381 23.6497C5.00566 23.722 5.03276 23.8019 5.04354 23.8848C5.05433 23.9676 5.0486 24.0517 5.02667 24.1323C5.00474 24.2129 4.96705 24.2884 4.91577 24.3544C4.86449 24.4204 4.80064 24.4757 4.72788 24.517L3.07788 25.467C2.98141 25.5225 2.87198 25.5518 2.76058 25.5518Z" fill="#683BF2"/>
<path d="M30.2394 25.5518C30.128 25.5518 30.0186 25.5225 29.9221 25.467L28.2721 24.517C28.1994 24.4757 28.1355 24.4204 28.0842 24.3544C28.0329 24.2884 27.9953 24.2129 27.9733 24.1323C27.9514 24.0517 27.9457 23.9676 27.9565 23.8848C27.9672 23.8019 27.9943 23.722 28.0362 23.6497C28.078 23.5774 28.1338 23.514 28.2003 23.4633C28.2668 23.4126 28.3427 23.3754 28.4236 23.3541C28.5045 23.3327 28.5888 23.3276 28.6717 23.3389C28.7547 23.3502 28.8345 23.3778 28.9067 23.42L30.5567 24.37C30.6777 24.4397 30.7723 24.5473 30.8257 24.6761C30.8792 24.8049 30.8885 24.9477 30.8524 25.0824C30.8162 25.2171 30.7366 25.3361 30.6257 25.4209C30.5149 25.5058 30.3791 25.5518 30.2394 25.5518Z" fill="#683BF2"/>
<path d="M32.3654 17.6352H30.4615C30.2932 17.6352 30.1318 17.5684 30.0128 17.4497C29.8938 17.3309 29.8269 17.1698 29.8269 17.0018C29.8269 16.8339 29.8938 16.6728 30.0128 16.554C30.1318 16.4352 30.2932 16.3685 30.4615 16.3685H32.3654C32.5337 16.3685 32.6951 16.4352 32.8141 16.554C32.9331 16.6728 33 16.8339 33 17.0018C33 17.1698 32.9331 17.3309 32.8141 17.4497C32.6951 17.5684 32.5337 17.6352 32.3654 17.6352Z" fill="#683BF2"/>
<path d="M28.592 10.6685C28.4523 10.6685 28.3165 10.6225 28.2056 10.5376C28.0948 10.4527 28.0152 10.3337 27.979 10.1991C27.9428 10.0644 27.9522 9.92161 28.0057 9.79281C28.0591 9.664 28.1537 9.5564 28.2747 9.48669L29.9247 8.53669C30.0703 8.45403 30.2429 8.43223 30.4046 8.47605C30.5663 8.51987 30.7041 8.62575 30.7879 8.77058C30.8717 8.91542 30.8947 9.08745 30.8518 9.24914C30.809 9.41083 30.7038 9.54904 30.5593 9.63362L28.9093 10.5836C28.8128 10.6392 28.7034 10.6685 28.592 10.6685Z" fill="#683BF2"/>
<path d="M23.4808 5.56826C23.3694 5.56814 23.2601 5.5388 23.1637 5.48316C23.0673 5.42753 22.9873 5.34757 22.9317 5.25131C22.876 5.15505 22.8468 5.04588 22.8468 4.93476C22.8468 4.82364 22.8762 4.71449 22.9318 4.61826L23.8837 2.97159C23.9251 2.89898 23.9805 2.83525 24.0466 2.78408C24.1128 2.73291 24.1884 2.69529 24.2692 2.67341C24.3499 2.65153 24.4342 2.6458 24.5172 2.65657C24.6002 2.66733 24.6803 2.69438 24.7527 2.73614C24.8252 2.7779 24.8887 2.83356 24.9396 2.89991C24.9904 2.96626 25.0276 3.04199 25.049 3.12274C25.0704 3.20349 25.0755 3.28766 25.0642 3.37042C25.0529 3.45317 25.0252 3.53287 24.9829 3.60492L24.031 5.25159C23.9752 5.34796 23.895 5.42797 23.7984 5.48356C23.7018 5.53915 23.5923 5.56836 23.4808 5.56826Z" fill="#683BF2"/>
<path d="M15.2308 23.9685C14.837 23.9681 14.453 23.8462 14.1315 23.6194C13.8099 23.3926 13.5666 23.0721 13.4348 22.7018C13.0929 22.7146 12.752 22.6586 12.4322 22.5371C12.1125 22.4157 11.8205 22.2313 11.5736 21.995C11.3267 21.7586 11.1299 21.4751 10.9951 21.1613C10.8602 20.8476 10.7899 20.5099 10.7885 20.1685C10.7884 20.0822 10.793 19.9959 10.8024 19.9101C10.233 19.6653 9.748 19.2594 9.4072 18.7425C9.0664 18.2257 8.88478 17.6205 8.88478 17.0018C8.88478 16.3831 9.0664 15.7779 9.4072 15.2611C9.748 14.7442 10.233 14.3384 10.8024 14.0936C10.793 14.0077 10.7884 13.9215 10.7885 13.8352C10.7897 13.4937 10.8597 13.1559 10.9945 12.842C11.1293 12.5281 11.326 12.2445 11.573 12.0081C11.8199 11.7717 12.1121 11.5873 12.4319 11.466C12.7518 11.3446 13.0929 11.2888 13.4348 11.3018C13.584 10.8785 13.8785 10.5216 14.2661 10.2943C14.6537 10.0669 15.1095 9.98382 15.5526 10.0597C15.9958 10.1355 16.3977 10.3655 16.6873 10.7087C16.9768 11.052 17.1353 11.4865 17.1346 11.9352V22.0685C17.1346 22.5724 16.934 23.0557 16.577 23.412C16.2199 23.7683 15.7357 23.9685 15.2308 23.9685ZM13.9736 21.3155C14.0621 21.3151 14.1497 21.3332 14.2307 21.3686C14.3118 21.404 14.3845 21.4559 14.4443 21.5211C14.5041 21.5862 14.5495 21.6631 14.5778 21.7468C14.606 21.8305 14.6164 21.9191 14.6082 22.0071C14.6082 22.0159 14.6012 22.0672 14.6 22.0761C14.6133 22.235 14.6862 22.3831 14.8041 22.4908C14.9221 22.5984 15.0764 22.6577 15.2362 22.6567C15.396 22.6558 15.5496 22.5947 15.6663 22.4856C15.7829 22.3766 15.854 22.2276 15.8654 22.0685V11.9352C15.8654 11.7672 15.7985 11.6061 15.6795 11.4873C15.5605 11.3685 15.3991 11.3018 15.2308 11.3018C15.0625 11.3018 14.901 11.3685 14.782 11.4873C14.663 11.6061 14.5962 11.7672 14.5962 11.9352C14.6071 12.0455 14.5911 12.1569 14.5494 12.2597C14.5077 12.3625 14.4417 12.4537 14.3569 12.5254C14.276 12.5957 14.1784 12.6442 14.0735 12.6663C13.9686 12.6885 13.8597 12.6836 13.7572 12.6521C13.6198 12.5992 13.4742 12.5709 13.3269 12.5685C13.1204 12.5668 12.9166 12.6158 12.7336 12.7113C12.5505 12.8067 12.3938 12.9457 12.2773 13.1158C12.1607 13.2859 12.0879 13.4821 12.0652 13.6869C12.0425 13.8918 12.0707 14.0991 12.1472 14.2905C12.1805 14.3766 12.1946 14.4689 12.1885 14.561C12.1823 14.6531 12.1561 14.7427 12.1116 14.8236C12.0671 14.9045 12.0054 14.9747 11.9309 15.0293C11.8563 15.084 11.7708 15.1217 11.6801 15.1398C11.2497 15.227 10.8628 15.4601 10.5849 15.7994C10.3069 16.1387 10.1551 16.5635 10.1551 17.0018C10.1551 17.4401 10.3069 17.8649 10.5849 18.2042C10.8628 18.5436 11.2497 18.7766 11.6801 18.8638C11.7708 18.882 11.8563 18.9197 11.9309 18.9743C12.0054 19.0289 12.0671 19.0992 12.1116 19.1801C12.1561 19.261 12.1823 19.3506 12.1885 19.4427C12.1946 19.5347 12.1805 19.627 12.1472 19.7131C12.0557 19.9391 12.0322 20.1868 12.0796 20.4259C12.1271 20.665 12.2434 20.885 12.4142 21.0592C12.5851 21.2333 12.8032 21.3538 13.0418 21.4061C13.2803 21.4584 13.5289 21.4401 13.7572 21.3535C13.8265 21.3281 13.8998 21.3152 13.9736 21.3155Z" fill="#683BF2"/>
<path d="M17.7692 23.9685C17.2643 23.9685 16.78 23.7683 16.423 23.412C16.066 23.0557 15.8654 22.5724 15.8654 22.0685V11.9352C15.8647 11.4865 16.0232 11.052 16.3127 10.7087C16.6023 10.3655 17.0042 10.1355 17.4474 10.0597C17.8905 9.98382 18.3463 10.0669 18.7339 10.2943C19.1215 10.5216 19.416 10.8785 19.5652 11.3018C19.9071 11.2891 20.248 11.3451 20.5678 11.4665C20.8875 11.588 21.1795 11.7723 21.4264 12.0087C21.6733 12.245 21.8701 12.5285 22.0049 12.8423C22.1398 13.1561 22.2101 13.4937 22.2115 13.8352C22.2116 13.9215 22.207 14.0077 22.1976 14.0936C22.767 14.3384 23.252 14.7442 23.5928 15.2611C23.9336 15.7779 24.1152 16.3831 24.1152 17.0018C24.1152 17.6205 23.9336 18.2257 23.5928 18.7425C23.252 19.2594 22.767 19.6653 22.1976 19.9101C22.207 19.9959 22.2116 20.0822 22.2115 20.1685C22.2099 20.5099 22.1395 20.8474 22.0046 21.1611C21.8696 21.4748 21.6729 21.7582 21.426 21.9946C21.1792 22.2309 20.8872 22.4153 20.5676 22.5368C20.2479 22.6583 19.907 22.7144 19.5652 22.7018C19.4334 23.0721 19.1901 23.3926 18.8685 23.6194C18.547 23.8462 18.163 23.9681 17.7692 23.9685ZM17.7692 11.3018C17.6009 11.3018 17.4395 11.3685 17.3205 11.4873C17.2015 11.6061 17.1346 11.7672 17.1346 11.9352V22.0685C17.1346 22.2365 17.2015 22.3976 17.3205 22.5163C17.4395 22.6351 17.6009 22.7018 17.7692 22.7018C17.9375 22.7018 18.099 22.6351 18.218 22.5163C18.337 22.3976 18.4038 22.2365 18.4038 22.0685C18.3929 21.9581 18.4089 21.8468 18.4506 21.7439C18.4923 21.6411 18.5583 21.5499 18.6431 21.4782C18.7242 21.4083 18.8217 21.36 18.9266 21.3378C19.0315 21.3157 19.1403 21.3204 19.2428 21.3516C19.3802 21.4044 19.5258 21.4327 19.6731 21.4352C19.8796 21.4368 20.0834 21.3878 20.2664 21.2924C20.4494 21.1969 20.6062 21.058 20.7227 20.8879C20.8393 20.7177 20.9121 20.5216 20.9348 20.3167C20.9575 20.1118 20.9293 19.9046 20.8528 19.7131C20.8195 19.6271 20.8054 19.5348 20.8115 19.4428C20.8176 19.3507 20.8438 19.2611 20.8882 19.1803C20.9326 19.0994 20.9942 19.0291 21.0687 18.9745C21.1431 18.9198 21.2287 18.8821 21.3193 18.8638C21.7496 18.7766 22.1366 18.5436 22.4145 18.2042C22.6924 17.8649 22.8443 17.4401 22.8443 17.0018C22.8443 16.5635 22.6924 16.1387 22.4145 15.7994C22.1366 15.4601 21.7496 15.227 21.3193 15.1398C21.2286 15.1217 21.143 15.084 21.0685 15.0293C20.994 14.9747 20.9323 14.9045 20.8878 14.8236C20.8433 14.7427 20.8171 14.6531 20.8109 14.561C20.8048 14.4689 20.8189 14.3766 20.8522 14.2905C20.9437 14.0646 20.9672 13.8169 20.9197 13.5778C20.8723 13.3387 20.756 13.1186 20.5851 12.9445C20.4142 12.7704 20.1961 12.6498 19.9576 12.5975C19.7191 12.5452 19.4704 12.5636 19.2422 12.6502C19.1418 12.6871 19.0335 12.6978 18.9278 12.6813C18.8221 12.6648 18.7223 12.6216 18.638 12.5558C18.5534 12.4907 18.4866 12.4053 18.4439 12.3075C18.4012 12.2097 18.3839 12.1028 18.3937 11.9966C18.3937 11.9877 18.4007 11.9333 18.4019 11.9276C18.3999 11.7612 18.3325 11.6024 18.2141 11.4853C18.0957 11.3682 17.9359 11.3023 17.7692 11.3018Z" fill="#683BF2"/>
</svg>
