<svg width="34" height="31" viewBox="0 0 34 31" fill="none" xmlns="http://www.w3.org/2000/svg">
<path d="M14.7414 11.3972H0.517241C0.206897 11.3972 0 11.1386 0 10.88V7.56964C0 6.12136 1.18965 4.87998 2.68966 4.87998H16.5C16.8103 4.87998 17.0172 5.1386 17.0172 5.39722C17.0172 5.65585 16.7586 5.91447 16.5 5.91447H2.63793C1.75862 5.91447 1.03448 6.6386 1.03448 7.51791V10.311H14.7414C15.0517 10.311 15.2586 10.5696 15.2586 10.8283C15.2586 11.0869 15.0517 11.3972 14.7414 11.3972Z" fill="#683BF2"/>
<path d="M2.63793 30.5352C1.91379 30.5352 1.24138 30.2765 0.775862 29.7593C0.258621 29.2421 0 28.5696 0 27.8455V10.8283C0 10.5179 0.258621 10.311 0.517241 10.311H14.7414C15.0517 10.311 15.2586 10.5696 15.2586 10.8283C15.2586 11.0869 15 11.3455 14.7414 11.3455H1.03448V27.7938C1.03448 28.2076 1.18966 28.6214 1.5 28.9317C1.81034 29.2421 2.22414 29.3972 2.63793 29.3972H26.8966C27.7759 29.3972 28.5 28.6731 28.5 27.7938V17.4489C28.5 17.1386 28.7586 16.9317 29.0172 16.9317C29.2759 16.9317 29.5345 17.1903 29.5345 17.4489V27.7938C29.5345 29.2421 28.3448 30.4834 26.8448 30.4834H2.63793V30.5352Z" fill="#683BF2"/>
<path d="M4.65517 8.65585H3.51724C3.2069 8.65585 3 8.39723 3 8.1386C3 7.87998 3.25862 7.62136 3.51724 7.62136H4.65517C4.96552 7.62136 5.17241 7.87998 5.17241 8.1386C5.17241 8.39723 4.96552 8.65585 4.65517 8.65585Z" fill="#683BF2"/>
<path d="M7.18965 8.65585H6.05172C5.74138 8.65585 5.53448 8.39723 5.53448 8.1386C5.53448 7.87998 5.7931 7.62136 6.05172 7.62136H7.18965C7.5 7.62136 7.7069 7.87998 7.7069 8.1386C7.7069 8.39723 7.5 8.65585 7.18965 8.65585Z" fill="#683BF2"/>
<path d="M9.72414 8.65585H8.58621C8.27586 8.65585 8.06896 8.39723 8.06896 8.1386C8.06896 7.87998 8.32759 7.62136 8.58621 7.62136H9.72414C10.0345 7.62136 10.2414 7.87998 10.2414 8.1386C10.2414 8.39723 10.0345 8.65585 9.72414 8.65585Z" fill="#683BF2"/>
<path d="M12.7241 20.7593H5.17241C4.2931 20.7593 3.56897 20.0352 3.56897 19.1558V14.6558C3.56897 13.7765 4.2931 13.0524 5.17241 13.0524H12.7241C13.6034 13.0524 14.3276 13.7765 14.3276 14.6558V19.1558C14.3276 20.0352 13.6034 20.7593 12.7241 20.7593ZM12.7241 14.0869H5.17241C4.86207 14.0869 4.65517 14.3455 4.65517 14.6041V19.1558C4.65517 19.4662 4.91379 19.6731 5.17241 19.6731H12.7241C13.0345 19.6731 13.2414 19.4145 13.2414 19.1558V14.6558C13.2414 14.3455 12.9828 14.0869 12.7241 14.0869Z" fill="#683BF2"/>
<path d="M18.1552 17.5524H17.5862C17.2759 17.5524 17.069 17.2938 17.069 17.0352C17.069 16.7765 17.3276 16.5179 17.5862 16.5179H18.1552C18.4655 16.5179 18.6724 16.7765 18.6724 17.0352C18.6724 17.2938 18.4138 17.5524 18.1552 17.5524Z" fill="#683BF2"/>
<path d="M25.7586 20.9662H17.5862C17.2759 20.9662 17.069 20.7076 17.069 20.4489C17.069 20.1903 17.3276 19.9317 17.5862 19.9317H25.7586C26.069 19.9317 26.2759 20.1903 26.2759 20.4489C26.2759 20.7076 26.0172 20.9662 25.7586 20.9662Z" fill="#683BF2"/>
<path d="M25.7586 24.38H3.82759C3.51724 24.38 3.31034 24.1214 3.31034 23.8627C3.31034 23.6041 3.56897 23.3455 3.82759 23.3455H25.7586C26.069 23.3455 26.2759 23.6041 26.2759 23.8627C26.2759 24.1214 26.0172 24.38 25.7586 24.38Z" fill="#683BF2"/>
<path d="M25.7586 27.7938H3.82759C3.51724 27.7938 3.31034 27.5352 3.31034 27.2765C3.31034 27.0179 3.56897 26.7593 3.82759 26.7593H25.7586C26.069 26.7593 26.2759 27.0179 26.2759 27.2765C26.2759 27.5352 26.0172 27.7938 25.7586 27.7938Z" fill="#683BF2"/>
<path d="M25.0345 17.7593H24.2069C23.5345 17.7593 22.9655 17.2421 22.8621 16.6214L22.6552 15.3283C22.6552 15.2248 22.5517 15.1731 22.5 15.1214C22.2931 15.0696 22.1379 14.9662 21.931 14.9145C21.8276 14.8627 21.7759 14.8627 21.6724 14.9145L20.6379 15.6903C20.1207 16.0524 19.3448 16.0007 18.8793 15.5352L18.2586 14.9145C17.7931 14.4489 17.7414 13.7248 18.1034 13.1558L18.8793 12.1214C18.931 12.0179 18.931 11.9145 18.8793 11.8627C18.7759 11.7076 18.7241 11.5007 18.6207 11.2938C18.569 11.1903 18.5172 11.1386 18.4138 11.1386L17.1724 10.9317C16.5 10.8283 16.0345 10.2593 16.0345 9.58688V8.70757C16.0345 8.03516 16.5 7.46619 17.1724 7.36274L18.4138 7.15585C18.5172 7.15585 18.569 7.0524 18.6207 7.00067C18.6724 6.79378 18.7759 6.6386 18.8793 6.43171C18.931 6.32826 18.931 6.22481 18.8793 6.17309L18.1034 5.1386C17.6897 4.62136 17.7931 3.89723 18.2069 3.37998L18.8276 2.75929C19.2931 2.29378 20.069 2.24205 20.5862 2.65585L21.569 3.43171C21.6724 3.53516 21.7759 3.48343 21.8276 3.43171C22.0345 3.32826 22.1897 3.27654 22.3966 3.17309C22.5 3.12136 22.5517 3.06964 22.6034 2.96619L22.8103 1.67309C22.9655 1.0524 23.5345 0.535156 24.2069 0.535156H25.0345C25.7069 0.535156 26.2759 1.0524 26.3793 1.67309L26.5862 2.96619C26.5862 3.06964 26.6897 3.12136 26.7414 3.17309C26.9483 3.22481 27.1034 3.32826 27.3103 3.37998C27.4138 3.43171 27.4655 3.43171 27.569 3.37998L28.6034 2.60412C29.1207 2.19033 29.8966 2.29378 30.3621 2.75929L30.9828 3.37998C31.4483 3.8455 31.5 4.56964 31.1379 5.1386L30.3621 6.17309C30.3103 6.27654 30.3103 6.37998 30.3621 6.43171C30.4655 6.58688 30.5172 6.79378 30.6207 7.00067C30.6724 7.10412 30.7241 7.15585 30.8276 7.15585L32.069 7.36274C32.7414 7.46619 33.2069 8.03516 33.2069 8.70757V9.58688C33.2069 10.2593 32.7414 10.8283 32.069 10.9317L30.8276 11.1386C30.7241 11.1386 30.6724 11.2421 30.6207 11.2938C30.569 11.5007 30.4655 11.6558 30.4138 11.8627C30.3621 11.9662 30.3621 12.0696 30.4138 12.1731L31.1897 13.2076C31.5517 13.7248 31.5 14.4489 31.0862 14.9662L30.3103 15.5352C29.8448 16.0007 29.069 16.0524 28.5517 15.6386L27.569 14.8627C27.4655 14.7593 27.3621 14.811 27.3103 14.8627C27.1034 14.9662 26.9483 15.0179 26.7414 15.1214C26.6379 15.1731 26.5862 15.2248 26.5862 15.3283L26.3793 16.6214C26.2759 17.2421 25.7069 17.7593 25.0345 17.7593ZM21.7759 13.7765C21.9828 13.7765 22.1897 13.8283 22.3448 13.9317C22.5 13.9834 22.6552 14.0869 22.8103 14.1386C23.2759 14.2938 23.5862 14.7076 23.6897 15.1731L23.8966 16.4662C23.8966 16.6214 24.0517 16.7248 24.1552 16.7248H24.9828C25.1379 16.7248 25.2414 16.6214 25.2414 16.5179L25.4483 15.2248C25.5 14.7593 25.8621 14.3455 26.3276 14.1903C26.4828 14.1386 26.6379 14.0869 26.7931 13.9834C27.2069 13.7765 27.7759 13.8283 28.1897 14.1386L29.2241 14.9145C29.3793 15.0179 29.4828 14.9662 29.5862 14.8627L30.2069 14.2421C30.3103 14.1386 30.3103 13.9834 30.2069 13.88L29.431 12.8455C29.1207 12.4317 29.069 11.9145 29.2759 11.5007C29.3276 11.3455 29.431 11.1903 29.4828 11.0352C29.6379 10.5696 30.0517 10.2076 30.5172 10.1558L31.7586 9.94895C31.9138 9.94895 31.9655 9.79378 31.9655 9.69033V8.81102C31.9655 8.65585 31.8621 8.5524 31.7586 8.5524L30.5172 8.3455C30.0517 8.29378 29.6379 7.93171 29.4828 7.46619C29.431 7.31102 29.3793 7.15585 29.2759 7.00067C29.069 6.53516 29.1207 6.01791 29.3793 5.60412L30.1552 4.56964C30.2586 4.46619 30.2069 4.31102 30.1552 4.20757L29.5345 3.58688C29.4828 3.53516 29.3793 3.48343 29.3276 3.48343C29.2759 3.48343 29.2241 3.48343 29.1724 3.53516L28.1897 4.31102C27.8276 4.62136 27.2586 4.67309 26.7931 4.46619C26.6379 4.41447 26.4828 4.31102 26.3276 4.25929C25.8621 4.10412 25.5517 3.69033 25.4483 3.22481L25.2414 1.93171C25.2414 1.77654 25.0862 1.67309 24.9828 1.67309H24.1552C24 1.67309 23.8966 1.77654 23.8966 1.87998L23.7414 3.12136C23.6897 3.58688 23.3276 4.00067 22.8621 4.15585C22.7069 4.20757 22.5517 4.25929 22.3966 4.36274C21.9828 4.56964 21.4138 4.51792 21 4.20757L19.9655 3.43171C19.8103 3.27654 19.7069 3.37998 19.6034 3.48343L18.9828 4.10412C18.8793 4.20757 18.8793 4.36274 18.9828 4.46619L19.7586 5.50067C20.0172 5.91447 20.069 6.43171 19.8621 6.8455C19.8103 7.00067 19.7069 7.15585 19.6552 7.31102C19.5 7.77654 19.0862 8.1386 18.6207 8.19033L17.3793 8.39723C17.2241 8.39723 17.1724 8.5524 17.1724 8.65585V9.53516C17.1724 9.69033 17.2759 9.79378 17.3793 9.79378L18.6207 10.0007C19.0862 10.0524 19.5 10.4145 19.6552 10.88C19.7069 11.0352 19.7586 11.1903 19.8621 11.3455C20.069 11.811 20.0172 12.3283 19.7069 12.7421L18.931 13.7765C18.8276 13.88 18.8793 14.0352 18.931 14.1386L19.5517 14.7593C19.6552 14.8627 19.7586 14.9145 19.9138 14.811L20.9483 14.0352C21.2069 13.88 21.5172 13.7765 21.7759 13.7765Z" fill="#683BF2"/>
<path d="M24.6207 12.5869C22.7069 12.5869 21.1552 11.0352 21.1552 9.12136C21.1552 7.20757 22.7069 5.65585 24.6207 5.65585C26.5345 5.65585 28.0862 7.20757 28.0862 9.12136C28.0862 11.0352 26.5345 12.5869 24.6207 12.5869ZM24.6207 6.74205C23.2759 6.74205 22.2414 7.82826 22.2414 9.12136C22.2414 10.4662 23.3276 11.5007 24.6207 11.5007C25.9138 11.5007 27 10.4145 27 9.12136C27 7.82826 25.9138 6.74205 24.6207 6.74205Z" fill="#683BF2"/>
</svg>
