<svg width="30" height="31" viewBox="0 0 30 31" fill="none" xmlns="http://www.w3.org/2000/svg">
<path d="M29.5605 15.0957H22.4849V14.0959H24.3939C24.6366 14.0959 24.8334 13.8991 24.8334 13.6564C24.8334 13.4137 24.6366 13.217 24.3939 13.217H22.4849V12.217H23.8103C24.304 12.217 24.7683 12.0248 25.1174 11.6756L28.0076 8.78545C28.1959 8.87926 28.4047 8.92918 28.6212 8.92918C28.9895 8.92918 29.3358 8.78574 29.5962 8.52535C29.8567 8.2649 30.0001 7.91867 30.0001 7.55035C30.0001 7.18203 29.8567 6.8358 29.5962 6.57535C29.3358 6.3149 28.9895 6.17146 28.6212 6.17146C28.2529 6.17146 27.9067 6.3149 27.6462 6.57529C27.3858 6.83574 27.2423 7.18197 27.2423 7.55029C27.2423 7.76686 27.2923 7.97563 27.3861 8.16395L24.4959 11.0541C24.3128 11.2372 24.0693 11.3381 23.8102 11.3381H22.4848V10.3685C22.4848 9.09025 21.4448 8.05033 20.1666 8.05033H19.197V4.16C19.7424 3.97607 20.1364 3.46004 20.1364 2.85336C20.1364 2.09305 19.5178 1.47453 18.7576 1.47453C17.9973 1.47453 17.3787 2.09311 17.3787 2.85336C17.3787 3.46004 17.7727 3.97602 18.3181 4.16V8.05027H17.3183V6.14123C17.3183 5.89854 17.1215 5.70178 16.8788 5.70178C16.6361 5.70178 16.4394 5.89854 16.4394 6.14123V8.05027H15.4395V0.974609C15.4395 0.731914 15.2427 0.535156 15 0.535156C14.7573 0.535156 14.5605 0.731914 14.5605 0.974609V8.05027H13.5607V6.14123C13.5607 5.89854 13.3639 5.70178 13.1213 5.70178C12.8786 5.70178 12.6818 5.89854 12.6818 6.14123V8.05027H11.682V6.72494C11.682 6.23117 11.4896 5.76693 11.1405 5.41783L8.2493 2.52664C8.50471 2.01096 8.4191 1.36795 7.99025 0.939043C7.4526 0.401445 6.57785 0.401504 6.04025 0.939043C5.50266 1.47664 5.50266 2.35139 6.04025 2.88904C6.30908 3.15781 6.66217 3.29223 7.01525 3.29223C7.22549 3.29223 7.43537 3.24342 7.62785 3.14809L10.519 6.03934C10.7022 6.22244 10.803 6.46596 10.803 6.72494V8.05027H9.83344C9.63744 8.05027 9.4425 8.07488 9.25406 8.12334C9.01904 8.18381 8.87754 8.4234 8.93801 8.65848C8.99848 8.89355 9.23812 9.03506 9.47314 8.97453C9.59004 8.94447 9.71121 8.92918 9.83338 8.92918H20.1666C20.9603 8.92918 21.6059 9.57488 21.6059 10.3685V20.7018C21.6059 20.8238 21.5907 20.9449 21.5607 21.0617C21.5003 21.2968 21.6418 21.5363 21.8769 21.5967C21.9135 21.6062 21.9503 21.6107 21.9866 21.6107C22.1824 21.6107 22.3609 21.4789 22.4119 21.2805C22.4603 21.0923 22.4848 20.8975 22.4848 20.7017V19.7321H26.3751C26.559 20.2775 27.0751 20.6715 27.6817 20.6715C28.4421 20.6715 29.0606 20.053 29.0606 19.2927C29.0606 18.5323 28.442 17.9138 27.6817 17.9138C27.0751 17.9138 26.5591 18.3078 26.3751 18.8532H22.4848V17.8533H24.3939C24.6366 17.8533 24.8333 17.6565 24.8333 17.4138C24.8333 17.1712 24.6366 16.9744 24.3939 16.9744H22.4848V15.9746H29.5605C29.8032 15.9746 30 15.7779 30 15.5352C30 15.2925 29.8032 15.0957 29.5605 15.0957ZM28.2677 7.19686C28.3621 7.1024 28.4876 7.05043 28.6212 7.05043C28.7547 7.05043 28.8802 7.1024 28.9747 7.19686C29.0691 7.29131 29.1211 7.41682 29.1211 7.55035C29.1211 7.68389 29.0691 7.80939 28.9747 7.90385C28.8802 7.9983 28.7547 8.05027 28.6212 8.05027C28.4876 8.05027 28.3621 7.9983 28.2677 7.90385C28.1732 7.80939 28.1213 7.68389 28.1213 7.55035C28.1213 7.41682 28.1732 7.29125 28.2677 7.19686ZM7.36869 2.2676C7.17381 2.46242 6.85664 2.46248 6.66164 2.26754C6.4667 2.0726 6.4667 1.75543 6.66164 1.56055C6.75914 1.46305 6.88711 1.41436 7.0152 1.41436C7.14322 1.41436 7.27125 1.46311 7.36869 1.56055C7.56363 1.75549 7.56363 2.07266 7.36869 2.2676ZM18.7576 3.35328C18.4819 3.35328 18.2576 3.12898 18.2576 2.85336C18.2576 2.57773 18.4819 2.35344 18.7576 2.35344C19.0332 2.35344 19.2575 2.57773 19.2575 2.85336C19.2575 3.12898 19.0332 3.35328 18.7576 3.35328ZM27.6818 18.7928C27.9575 18.7928 28.1817 19.0171 28.1817 19.2927C28.1817 19.5684 27.9574 19.7926 27.6818 19.7926C27.4062 19.7926 27.1819 19.5683 27.1819 19.2927C27.1818 19.017 27.4061 18.7928 27.6818 18.7928Z" fill="#683BF2"/>
<path d="M23.9598 28.1813C23.531 27.7524 22.8879 27.6668 22.3722 27.9222L19.481 25.031C19.2979 24.8479 19.197 24.6044 19.197 24.3454V23.02H20.1666C20.3626 23.02 20.5575 22.9954 20.7459 22.947C20.9809 22.8865 21.1224 22.6469 21.0619 22.4118C21.0015 22.1768 20.762 22.0353 20.5268 22.0958C20.41 22.1258 20.2888 22.1411 20.1666 22.1411H9.83338C9.03973 22.1411 8.39408 21.4954 8.39408 20.7018V10.3685C8.39408 10.2464 8.40932 10.1252 8.43937 10.0084C8.4999 9.7734 8.3584 9.53381 8.12338 9.47328C7.8883 9.41275 7.64871 9.55426 7.58824 9.78928C7.53973 9.9776 7.51518 10.1725 7.51518 10.3685V11.3381H3.62484C3.44092 10.7928 2.92488 10.3988 2.3182 10.3988C1.55789 10.3988 0.939375 11.0173 0.939375 11.7776C0.939375 12.5379 1.55795 13.1564 2.3182 13.1564C2.92488 13.1564 3.44086 12.7624 3.62484 12.2171H7.51512V13.217H5.60607C5.36338 13.217 5.16662 13.4137 5.16662 13.6564C5.16662 13.8991 5.36338 14.0959 5.60607 14.0959H7.51512V15.0957H0.439453C0.196758 15.0957 0 15.2925 0 15.5352C0 15.7779 0.196758 15.9746 0.439453 15.9746H7.51512V16.9745H5.60607C5.36338 16.9745 5.16662 17.1712 5.16662 17.4139C5.16662 17.6566 5.36338 17.8534 5.60607 17.8534H7.51512V18.8533H6.18973C5.69596 18.8533 5.23172 19.0455 4.88262 19.3947L1.99242 22.2849C1.8041 22.1911 1.59533 22.1411 1.37877 22.1411C1.01045 22.1411 0.664219 22.2846 0.40377 22.545C0.143438 22.8054 0 23.1517 0 23.52C0 23.8882 0.143438 24.2345 0.403887 24.495C0.664277 24.7554 1.01057 24.8988 1.37889 24.8988C1.74721 24.8988 2.09344 24.7554 2.35389 24.495C2.61434 24.2345 2.75777 23.8883 2.75777 23.52C2.75777 23.3034 2.70785 23.0946 2.61404 22.9063L5.50424 20.0161C5.68734 19.833 5.93086 19.7321 6.1899 19.7321H7.51529V20.7017C7.51529 21.98 8.55527 23.0199 9.8335 23.0199H10.8031V26.9102C10.2577 27.0941 9.86373 27.6102 9.86373 28.2168C9.86373 28.9771 10.4823 29.5957 11.2426 29.5957C12.0028 29.5957 12.6214 28.9771 12.6214 28.2168C12.6214 27.6102 12.2274 27.0942 11.682 26.9102V23.0199H12.6819V24.929C12.6819 25.1717 12.8786 25.3684 13.1213 25.3684C13.364 25.3684 13.5608 25.1717 13.5608 24.929V23.0199H14.5605V30.0957C14.5605 30.3384 14.7573 30.5352 15 30.5352C15.2427 30.5352 15.4395 30.3384 15.4395 30.0957V23.02H16.4393V24.9291C16.4393 25.1718 16.6361 25.3685 16.8787 25.3685C17.1214 25.3685 17.3182 25.1718 17.3182 24.9291V23.02H18.318V24.3454C18.318 24.8391 18.5104 25.3034 18.8595 25.6525L21.7507 28.5437C21.4953 29.0594 21.5809 29.7024 22.0098 30.1313C22.2786 30.4001 22.6317 30.5345 22.9848 30.5345C23.3379 30.5345 23.691 30.4001 23.9598 30.1313C24.4974 29.5937 24.4974 28.7189 23.9598 28.1813ZM2.3182 12.2775C2.04252 12.2775 1.81828 12.0532 1.81828 11.7776C1.81828 11.5019 2.04258 11.2777 2.3182 11.2777C2.59383 11.2777 2.81813 11.502 2.81813 11.7776C2.81818 12.0533 2.59389 12.2775 2.3182 12.2775ZM1.73232 23.8735C1.63787 23.9679 1.51236 24.0199 1.37883 24.0199C1.24529 24.0199 1.11979 23.9679 1.02533 23.8735C0.930879 23.779 0.878906 23.6535 0.878906 23.52C0.878906 23.3864 0.930879 23.2609 1.02533 23.1665C1.11979 23.072 1.24529 23.02 1.37883 23.02C1.51236 23.02 1.63787 23.072 1.73232 23.1665C1.82678 23.2609 1.87875 23.3864 1.87875 23.52C1.87875 23.6535 1.82678 23.7791 1.73232 23.8735ZM11.7424 28.217C11.7424 28.4926 11.5181 28.7169 11.2424 28.7169C10.9668 28.7169 10.7425 28.4926 10.7425 28.217C10.7425 27.9413 10.9668 27.717 11.2424 27.717C11.5181 27.717 11.7424 27.9413 11.7424 28.217ZM23.3384 29.5098C23.1434 29.7048 22.8263 29.7047 22.6313 29.5098C22.4364 29.3149 22.4364 28.9977 22.6313 28.8028C22.7288 28.7054 22.8568 28.6566 22.9849 28.6566C23.1129 28.6566 23.2409 28.7054 23.3384 28.8028C23.5332 28.9977 23.5332 29.3149 23.3384 29.5098Z" fill="#683BF2"/>
<path d="M19.6667 14.361C19.6667 13.4212 18.9793 12.625 18.0382 12.3663C18.066 12.2514 18.0815 12.1333 18.0815 12.0125C18.0815 11.1227 17.2917 10.3988 16.3211 10.3988C15.7952 10.3988 15.3229 10.6114 15.0001 10.9475C14.6772 10.6114 14.2048 10.3988 13.6791 10.3988C12.7083 10.3988 11.9186 11.1227 11.9186 12.0125C11.9186 12.1333 11.9341 12.2514 11.9619 12.3663C11.0208 12.625 10.3334 13.4211 10.3334 14.361C10.3334 14.8203 10.496 15.2537 10.7962 15.6116C10.5026 15.9917 10.3334 16.4531 10.3334 16.9443C10.3333 17.6915 10.7326 18.3892 11.3902 18.822C11.3902 18.8223 11.3902 18.8227 11.3902 18.823C11.3902 19.8423 12.2984 20.6716 13.4149 20.6716C14.0565 20.6716 14.6289 20.3974 15.0001 19.971C15.3713 20.3974 15.9437 20.6716 16.5853 20.6716C17.6597 20.6716 18.5409 19.9034 18.6057 18.9371C19.2582 18.5585 19.6667 17.8953 19.6667 17.1791C19.6667 16.6524 19.4421 16.1499 19.0556 15.7701C19.4421 15.3903 19.6667 14.8877 19.6667 14.361ZM18.1114 16.1587C18.5348 16.3821 18.7876 16.7636 18.7876 17.1791C18.7876 17.4889 18.6437 17.7844 18.4005 18.0054C18.1695 17.5776 17.7611 17.237 17.2452 17.0749C17.0138 17.0022 16.767 17.131 16.6942 17.3625C16.6215 17.594 16.7503 17.8407 16.9818 17.9134C17.4298 18.0542 17.7308 18.4198 17.7308 18.8231C17.7308 19.3578 17.2168 19.7928 16.585 19.7928C15.9533 19.7928 15.4393 19.3578 15.4393 18.8231V16.0049C15.4393 15.4702 15.9533 15.0353 16.585 15.0353C16.8277 15.0353 17.0245 14.8385 17.0245 14.5958C17.0245 14.3531 16.8277 14.1564 16.585 14.1564C16.16 14.1564 15.7653 14.2769 15.4393 14.482V13.9207C15.4393 13.678 15.2425 13.4812 14.9998 13.4812C14.7571 13.4812 14.5604 13.678 14.5604 13.9207V16.3603C14.4125 16.2675 14.2503 16.1907 14.0749 16.1356C13.8432 16.0628 13.5966 16.1916 13.5239 16.423C13.4511 16.6546 13.5799 16.9013 13.8114 16.974C14.2594 17.1148 14.5604 17.4804 14.5604 17.8837V18.823C14.5604 19.3577 14.0464 19.7927 13.4146 19.7927C12.7828 19.7927 12.2688 19.3577 12.2688 18.823C12.2688 18.5939 12.366 18.3711 12.5423 18.1958C12.7145 18.0247 12.7153 17.7464 12.5442 17.5743C12.3731 17.4021 12.0949 17.4013 11.9228 17.5724C11.8175 17.6771 11.7268 17.7915 11.6515 17.9131C11.374 17.6506 11.212 17.3052 11.212 16.9442C11.212 16.2931 11.723 15.7211 12.4546 15.5533C12.6912 15.499 12.8389 15.2632 12.7847 15.0267C12.7304 14.7901 12.4946 14.6424 12.2581 14.6966C11.9636 14.7642 11.6924 14.877 11.4519 15.025C11.296 14.8292 11.212 14.5999 11.212 14.3609C11.2122 13.6999 11.8388 13.1618 12.6112 13.1567C12.6152 13.1568 12.6191 13.1573 12.623 13.1573C12.7233 13.1573 12.8241 13.1231 12.9067 13.0532C13.0751 12.9106 13.1089 12.6686 12.9959 12.4866C12.9925 12.4812 12.9895 12.4757 12.986 12.4705C12.9841 12.4678 12.982 12.4653 12.9801 12.4627C12.9733 12.4531 12.9663 12.4438 12.9588 12.4347C12.9585 12.4344 12.9584 12.4341 12.9581 12.4339C12.8848 12.3472 12.7973 12.2038 12.7973 12.0124C12.7973 11.6073 13.1929 11.2776 13.6789 11.2776C14.1649 11.2776 14.5604 11.6073 14.5604 12.0124C14.5604 12.2551 14.7572 12.4519 14.9999 12.4519C15.2426 12.4519 15.4393 12.2551 15.4393 12.0124C15.4393 11.6073 15.8348 11.2776 16.3209 11.2776C16.8069 11.2776 17.2024 11.6073 17.2024 12.0124C17.2024 12.1207 17.1741 12.2131 17.1365 12.289C16.8865 12.3126 16.6448 12.373 16.4153 12.4698C16.1916 12.5641 16.0868 12.8219 16.1811 13.0455C16.2754 13.2691 16.5331 13.374 16.7568 13.2797C16.9467 13.1996 17.1511 13.1584 17.3643 13.1568C17.3685 13.1569 17.3726 13.1573 17.3769 13.1573C17.3808 13.1573 17.3846 13.1568 17.3886 13.1567C18.161 13.1617 18.7876 13.6999 18.7876 14.3609C18.7876 14.7764 18.5348 15.1578 18.1114 15.3813C17.9672 15.4574 17.877 15.607 17.877 15.77C17.877 15.933 17.9672 16.0826 18.1114 16.1587Z" fill="#683BF2"/>
</svg>
