<svg width="38" height="31" viewBox="0 0 38 31" fill="none" xmlns="http://www.w3.org/2000/svg">
<path d="M8.96153 19.3272L17.4001 24.0154C17.7469 24.2081 18.1274 24.3044 18.5078 24.3044C18.8882 24.3044 19.2687 24.208 19.6154 24.0154L28.054 19.3272C28.7777 18.9252 29.2272 18.1613 29.2272 17.3334V7.50605C29.2272 6.67819 28.7777 5.91423 28.054 5.51227L19.6154 0.82416C18.9218 0.438822 18.0937 0.438822 17.4001 0.82416L8.96153 5.51227C8.23785 5.91423 7.78831 6.67819 7.78831 7.50605V17.3334C7.78838 18.1612 8.23792 18.9252 8.96153 19.3272ZM28.1428 17.3334C28.1428 17.7676 27.9069 18.1683 27.5274 18.3792L19.0888 23.0673C18.725 23.2695 18.2905 23.2695 17.9267 23.0673L9.4882 18.3792C9.10865 18.1683 8.87282 17.7676 8.87282 17.3334V7.50605C8.87282 7.47279 8.87463 7.43983 8.87738 7.40708L17.9656 12.4561V21.0765C17.9656 21.376 18.2083 21.6187 18.5078 21.6187C18.8072 21.6187 19.05 21.376 19.05 21.0765V12.4561L28.1382 7.40708C28.1409 7.43983 28.1428 7.47279 28.1428 7.50605V17.3334ZM17.9268 1.7721C18.1087 1.67104 18.3083 1.6205 18.5078 1.6205C18.7073 1.6205 18.9069 1.67104 19.0888 1.7721L27.5274 6.46021C27.5409 6.46773 27.5538 6.47598 27.5668 6.48393L18.5078 11.5168L9.44866 6.484C9.46182 6.47605 9.47469 6.46773 9.48813 6.46029L17.9268 1.7721Z" fill="#683BF2"/>
<path d="M31.4475 13.3187C31.1779 13.1882 30.8536 13.301 30.7232 13.5706C30.5928 13.8402 30.7056 14.1644 30.9751 14.2949C34.1711 15.8413 35.9311 17.851 35.9311 19.9537C35.9311 21.9974 34.2789 23.56 32.8927 24.511C32.6458 24.6805 32.583 25.018 32.7524 25.2649C32.8575 25.4181 33.0273 25.5004 33.2 25.5004C33.3057 25.5004 33.4125 25.4696 33.5063 25.4052C35.8021 23.8301 37.0156 21.945 37.0156 19.9537C37.0156 17.4125 35.0381 15.0561 31.4475 13.3187Z" fill="#683BF2"/>
<path d="M30.697 25.944L25.0974 25.4228C24.7991 25.3951 24.535 25.6143 24.5072 25.9124C24.4794 26.2106 24.6986 26.4748 24.9968 26.5026L27.9643 26.7788C25.148 27.6476 21.9145 28.1045 18.5078 28.1045C13.7892 28.1045 9.36147 27.2195 6.04041 25.6125C2.84449 24.0661 1.08444 22.0564 1.08444 19.9537C1.08444 17.8623 2.82837 15.8605 5.99486 14.317C6.26409 14.1858 6.37593 13.8612 6.24472 13.592C6.1135 13.3228 5.78874 13.2109 5.51973 13.3421C1.96023 15.0773 0 17.4252 0 19.9537C0 22.4949 1.97744 24.8513 5.56802 26.5887C9.03346 28.2655 13.6289 29.1889 18.5078 29.1889C21.9079 29.1889 25.1494 28.7466 28.0017 27.9018L25.9135 29.5691C25.6795 29.7559 25.6412 30.0971 25.8281 30.3312C25.9352 30.4653 26.0929 30.5352 26.2522 30.5352C26.3708 30.5352 26.4903 30.4964 26.5902 30.4166L30.9851 26.9076C31.158 26.7696 31.2297 26.5405 31.1663 26.3286C31.1029 26.1167 30.9172 25.9645 30.697 25.944Z" fill="#683BF2"/>
</svg>
