<svg width="44" height="50" viewBox="0 0 44 50" fill="none" xmlns="http://www.w3.org/2000/svg">
<path d="M39.1052 39.0126H36.1005C35.6881 39.0126 35.3539 39.3404 35.3539 39.745C35.3539 40.1496 35.6881 40.4774 36.1005 40.4774H36.8505V45.0683C36.8505 45.4728 37.1847 45.8007 37.5971 45.8007C38.0096 45.8007 38.3438 45.4728 38.3438 45.0683V40.4774H39.1051C39.5176 40.4774 39.8518 40.1496 39.8518 39.745C39.8518 39.3404 39.5177 39.0126 39.1052 39.0126Z" fill="#683BF2"/>
<path d="M24.2235 40.5271C24.6359 40.5271 24.9701 40.1993 24.9701 39.7947C24.9701 39.3901 24.6359 39.0623 24.2235 39.0623H21.9516C21.5393 39.0623 21.205 39.3901 21.205 39.7947V45.0682C21.205 45.4727 21.5393 45.8006 21.9516 45.8006H24.2235C24.6359 45.8006 24.9701 45.4727 24.9701 45.0682C24.9701 44.6636 24.6359 44.3357 24.2235 44.3357H22.6983V43.1625H24.0566C24.4691 43.1625 24.8033 42.8347 24.8033 42.4301C24.8033 42.0255 24.4691 41.6977 24.0566 41.6977H22.6983V40.5271H24.2235Z" fill="#683BF2"/>
<path d="M14.4553 44.3303C14.06 44.3326 13.6419 44.3344 13.3024 44.335V39.745C13.3024 39.3404 12.9681 39.0126 12.5557 39.0126C12.1434 39.0126 11.8091 39.3404 11.8091 39.745V45.0627C11.8091 45.4145 12.0642 45.7166 12.4165 45.7822C12.4753 45.7932 12.5142 45.8005 13.1265 45.8005C13.4194 45.8005 13.8438 45.7988 14.4643 45.7951C14.8767 45.7927 15.2089 45.4628 15.2064 45.0582C15.2039 44.6536 14.8704 44.3239 14.4553 44.3303Z" fill="#683BF2"/>
<path d="M18.1577 39.0375C17.7453 39.0375 17.411 39.3653 17.411 39.7699V45.0932C17.411 45.4977 17.7453 45.8256 18.1577 45.8256C18.57 45.8256 18.9043 45.4977 18.9043 45.0932V39.7699C18.9043 39.3653 18.57 39.0375 18.1577 39.0375Z" fill="#683BF2"/>
<path d="M9.33478 43.7611C9.02289 43.4967 8.55131 43.5304 8.28163 43.8364C8.22877 43.8965 8.178 43.9476 8.12573 43.9932C7.8663 44.2205 7.53201 44.3357 7.13212 44.3357C6.04462 44.3357 5.15982 43.4697 5.15982 42.4051C5.15982 41.3421 6.04462 40.4773 7.13212 40.4773C7.52644 40.4773 7.90782 40.5913 8.23514 40.8069C8.5774 41.0323 9.0413 40.9431 9.27126 40.6072C9.50113 40.2714 9.41004 39.8163 9.06768 39.5908C8.49337 39.2125 7.82409 39.0125 7.13222 39.0125C5.22134 39.0125 3.66665 40.5344 3.66665 42.4051C3.66665 44.2773 5.22134 45.8006 7.13222 45.8006C7.89925 45.8006 8.58675 45.5534 9.11985 45.0864C9.22039 44.9985 9.31586 44.9029 9.41173 44.7941C9.68121 44.4881 9.64677 44.0256 9.33478 43.7611Z" fill="#683BF2"/>
<path d="M32.2557 38.8602C31.8433 38.8602 31.5091 39.1881 31.5091 39.5927V43.0186L28.804 39.1842C28.6183 38.9208 28.2793 38.8062 27.9676 38.9017C27.6559 38.9973 27.4435 39.2805 27.4435 39.6009V45.2702C27.4435 45.6748 27.7777 46.0026 28.1901 46.0026C28.6025 46.0026 28.9367 45.6748 28.9367 45.2702V41.9463L31.4877 45.5621C31.7038 45.875 32.0687 46.0091 32.4171 45.9044C32.7726 45.7973 33.0024 45.4734 33.0024 45.0792V39.5926C33.0024 39.1882 32.6681 38.8602 32.2557 38.8602Z" fill="#683BF2"/>
<path d="M25.7513 17.205C26.1637 17.205 26.4979 16.8771 26.4979 16.4725V15.6338C26.4979 15.2292 26.1637 14.9013 25.7513 14.9013C25.3389 14.9013 25.0047 15.2292 25.0047 15.6338V16.4725C25.0047 16.8771 25.3389 17.205 25.7513 17.205Z" fill="#683BF2"/>
<path d="M17.7643 14.9013C17.352 14.9013 17.0177 15.2292 17.0177 15.6338V16.4725C17.0177 16.8771 17.352 17.205 17.7643 17.205C18.1767 17.205 18.511 16.8771 18.511 16.4725V15.6338C18.511 15.2293 18.1767 14.9013 17.7643 14.9013Z" fill="#683BF2"/>
<path d="M20.1957 21.4031C20.641 21.6595 21.1994 21.7878 21.7578 21.7878C22.3163 21.7878 22.8747 21.6595 23.32 21.4031C23.6756 21.1982 23.7945 20.7495 23.5858 20.4006C23.3768 20.0517 22.9194 19.9349 22.5638 20.1398C22.1421 20.3828 21.3737 20.3828 20.9519 20.1398C20.5965 19.9351 20.1388 20.0517 19.93 20.4006C19.7211 20.7495 19.8401 21.1983 20.1957 21.4031Z" fill="#683BF2"/>
<path d="M40.2793 34.863H39.698C39.128 32.7329 37.2769 29.2332 34.5614 28.6094L27.0326 26.8866V24.0954C28.8619 22.7916 30.3732 20.9695 31.2183 19.0725C32.5898 19.0218 33.7463 18.4131 34.4448 17.3522C35.1398 16.2961 35.226 14.9595 34.664 13.9473C34.3517 13.3849 33.8801 12.9646 33.284 12.7044C34.1556 11.9047 34.8761 10.7879 35.338 9.47213C35.4724 9.08971 35.2652 8.67282 34.8753 8.54118C34.4858 8.40924 34.0606 8.61256 33.9263 8.99508C33.3462 10.6471 32.2671 11.9303 31.0885 12.387C30.9308 12.3769 30.765 12.3667 30.5913 12.3559C27.3082 12.153 21.197 11.7753 17.6615 9.16598C17.4865 9.03668 17.2621 8.98942 17.0487 9.03678C16.8349 9.08395 16.6531 9.22086 16.5514 9.4112C15.2784 11.7936 14.0887 12.274 13.062 12.3712V9.67379C13.062 5.77877 14.2975 4.1567 17.3266 4.07496C17.5658 4.06852 17.7873 3.95006 17.9223 3.75631C19.1492 1.99644 20.8401 2.18375 23.7235 2.66637C26.303 3.09791 29.4788 3.62926 32.5469 1.68287C33.9119 3.13365 34.2911 4.78111 34.3594 5.95348C34.3828 6.35748 34.7385 6.66881 35.1473 6.64293C35.559 6.61988 35.8737 6.27379 35.8501 5.86998C35.7202 3.63951 34.782 1.67662 33.1374 0.19322C32.8728 -0.0453548 32.4722 -0.0652767 32.1846 0.146149C29.4675 2.14156 26.6751 1.67408 23.9747 1.22242C21.3993 0.791267 18.7399 0.346052 16.9149 2.62779C12.1327 2.94361 11.5687 6.78112 11.5687 9.67379V12.4037C10.3308 12.4716 9.373 13.0134 8.85454 13.9472C8.29258 14.9594 8.37859 16.296 9.07386 17.352C9.7722 18.4131 10.9287 19.0218 12.3003 19.0724C13.1454 20.9693 14.6568 22.7913 16.4859 24.0952V26.8865L8.95678 28.6094C6.24532 29.2315 4.39099 32.7325 3.81847 34.8629H3.23918C1.45314 34.8629 5.11447e-09 36.2854 5.11447e-09 38.0342V46.826C-9.95457e-05 48.5762 1.45304 50 3.23908 50H40.2793C42.0654 50 43.5185 48.5762 43.5185 46.826V38.0342C43.5185 36.2855 42.0655 34.863 40.2793 34.863ZM31.9498 15.9327V13.872C32.6172 13.927 33.0994 14.1922 33.3526 14.6479C33.6568 15.1959 33.5931 15.9455 33.1902 16.5576C32.9789 16.8786 32.5425 17.3507 31.7488 17.5348C31.8797 16.9939 31.9498 16.4564 31.9498 15.9327ZM10.3283 16.5576C9.92541 15.9455 9.8616 15.196 10.1659 14.6479C10.419 14.1922 10.9013 13.9269 11.5687 13.872V15.9327C11.5687 16.4566 11.6389 16.9942 11.7698 17.5353C10.9756 17.3514 10.5396 16.8788 10.3283 16.5576ZM28.4281 28.71L25.7838 32.0125L23.1553 30.6274L26.4506 28.2576L28.4281 28.71ZM21.7592 29.8151L17.9791 27.0967V25.0046C18.357 25.1968 18.7429 25.366 19.135 25.5085C20.0948 25.8567 20.9288 26.019 21.7592 26.019C22.5866 26.019 23.4202 25.8569 24.3838 25.5084C24.7756 25.366 25.1616 25.1968 25.5393 25.0047V27.0967L21.7592 29.8151ZM13.5586 18.241C13.5436 18.1238 13.5012 18.0162 13.4376 17.924C13.1962 17.248 13.0619 16.5745 13.0619 15.9328V13.8351C14.4605 13.7242 15.9907 13.1812 17.4612 10.8094C21.3687 13.2445 27.2074 13.6147 30.4566 13.8155V15.9329C30.4566 16.5748 30.3223 17.2486 30.0807 17.9247C30.0171 18.0168 29.9748 18.1242 29.9598 18.2413C28.9525 20.718 26.5344 23.165 23.8661 24.1345C23.0743 24.4209 22.4047 24.5543 21.7592 24.5543C21.111 24.5543 20.4418 24.421 19.6533 24.1348C16.9843 23.1649 14.566 20.7177 13.5586 18.241ZM17.0678 28.2576L20.3632 30.6275L17.7348 32.0126L15.0904 28.7101L17.0678 28.2576ZM42.0253 46.826C42.0253 47.7684 41.2421 48.5352 40.2793 48.5352H3.23908C2.27643 48.5352 1.49316 47.7684 1.49316 46.826V38.0342C1.49316 37.0933 2.27643 36.3277 3.23908 36.3277H20.1098C20.5221 36.3277 20.8564 35.9999 20.8564 35.5953C20.8564 35.1907 20.5221 34.8629 20.1098 34.8629H5.37305C5.95592 33.0658 7.47019 30.4548 9.29635 30.0357L13.4855 29.0772L16.9481 33.4014C17.0939 33.5834 17.3126 33.6814 17.5357 33.6814C17.6556 33.6814 17.7768 33.653 17.8886 33.5941L21.7592 31.5548L25.6299 33.5943C25.7417 33.6532 25.8629 33.6816 25.9829 33.6816C26.2058 33.6816 26.4247 33.5835 26.5704 33.4016L30.033 29.0774L34.2216 30.0358C36.0511 30.456 37.5634 33.0668 38.1438 34.8631H23.5643C23.1518 34.8631 22.8176 35.1909 22.8176 35.5955C22.8176 36.0001 23.1518 36.3279 23.5643 36.3279H40.2793C41.2421 36.3279 42.0253 37.0934 42.0253 38.0344V46.826Z" fill="#683BF2"/>
</svg>
