<svg width="49" height="50" viewBox="0 0 49 50" fill="none" xmlns="http://www.w3.org/2000/svg">
<path d="M0.732422 9.17578C1.13701 9.17578 1.46484 8.84785 1.46484 8.44336V2.57129C1.46484 1.96123 1.96123 1.46484 2.57129 1.46484H38.9032C39.5133 1.46484 40.0097 1.96123 40.0097 2.57129V20.5244C40.0097 20.9289 40.3375 21.2568 40.7421 21.2568C41.1467 21.2568 41.4745 20.9289 41.4745 20.5244V2.57129C41.4745 1.15342 40.321 0 38.9032 0H2.57129C1.15352 0 0 1.15352 0 2.57129V8.44336C0 8.84785 0.32793 9.17578 0.732422 9.17578Z" fill="#683BF2"/>
<path d="M39.1655 33.4485C39.1655 31.3527 37.4601 29.6478 35.3638 29.6478C33.268 29.6478 31.563 31.3527 31.563 33.4485C31.563 35.5448 33.268 37.2503 35.3638 37.2503C37.4601 37.2503 39.1655 35.5448 39.1655 33.4485ZM33.0278 33.4485C33.0278 32.1604 34.0757 31.1126 35.3638 31.1126C36.6523 31.1126 37.7007 32.1604 37.7007 33.4485C37.7007 34.7371 36.6524 35.7854 35.3638 35.7854C34.0758 35.7854 33.0278 34.7371 33.0278 33.4485Z" fill="#683BF2"/>
<path d="M45.9336 41.5039H41.4741V40.3312C42.3903 40.6582 43.4403 40.2963 43.9435 39.4246L44.8289 37.8899C45.1035 37.4149 45.1766 36.8613 45.0345 36.3311C44.8925 35.8012 44.5527 35.3581 44.0777 35.0836L43.275 34.6198C43.3326 34.231 43.3617 33.8388 43.3617 33.4482C43.3617 33.0577 43.3326 32.6655 43.275 32.2767L44.0779 31.8128C45.0581 31.2462 45.395 29.9875 44.8291 29.007L43.9434 27.4718C43.4403 26.6004 42.391 26.2383 41.4745 26.5651V23.9404C41.4745 23.5359 41.1467 23.208 40.7421 23.208C40.3375 23.208 40.0097 23.5359 40.0097 23.9404V26.9387C39.4813 26.5602 38.9115 26.2486 38.3041 26.0092V25.084C38.3041 23.9516 37.3828 23.0303 36.2505 23.0303H34.4771C33.3446 23.0303 32.4233 23.9516 32.4233 25.084V26.0092C31.6896 26.2984 31.0099 26.6912 30.393 27.1824L29.5904 26.7188C28.6089 26.1539 27.3506 26.4919 26.7852 27.4716L25.8982 29.007C25.3324 29.9876 25.6694 31.2463 26.6498 31.8131L27.4533 32.277C27.3957 32.6659 27.3666 33.0582 27.3666 33.4483C27.3666 33.8385 27.3957 34.2307 27.4533 34.6197L26.6495 35.0838C25.6688 35.6507 25.3319 36.9096 25.8985 37.8898L26.7851 39.4248C27.3508 40.4048 28.6093 40.7427 29.5915 40.1772L30.393 39.7142C31.0098 40.2053 31.6896 40.5981 32.4233 40.8874V41.5039H9.60254C8.18418 41.5039 7.03018 42.6574 7.03018 44.0757L7.03125 45.6953C7.03125 47.2212 5.81689 48.4948 4.3208 48.5346C4.29727 48.5354 4.27354 48.5352 4.24883 48.5352C3.50508 48.5344 2.80596 48.2449 2.28057 47.7203C1.75459 47.1943 1.46484 46.4953 1.46484 45.752V11.8594C1.46484 11.4549 1.13701 11.127 0.732422 11.127C0.327832 11.127 0 11.4549 0 11.8594V45.752C0 46.8866 0.44209 47.9535 1.24512 48.7565C2.04707 49.5572 3.11318 49.9988 4.25 50H20.876C21.2806 50 21.6084 49.6721 21.6084 49.2676C21.6084 48.8631 21.2806 48.5352 20.876 48.5352H7.42695C8.09102 47.7731 8.49609 46.7758 8.49609 45.6948L8.49502 44.0752C8.49502 43.465 8.99189 42.9688 9.60254 42.9688H45.9335C46.5436 42.9688 47.0399 43.4651 47.0399 44.0752V45.752C47.0399 46.495 46.7504 47.1942 46.2255 47.72C45.699 48.2457 44.9999 48.5352 44.2567 48.5352H24.2938C23.8893 48.5352 23.5614 48.8631 23.5614 49.2676C23.5614 49.6721 23.8893 50 24.2938 50H44.2567C45.3907 50 46.4575 49.5584 47.2614 48.7558C48.0633 47.9526 48.5048 46.8859 48.5048 45.752V44.0752C48.5049 42.6574 47.3514 41.5039 45.9336 41.5039ZM40.0093 41.5039H38.3042V40.8873C38.9114 40.6479 39.4811 40.3365 40.0093 39.9582V41.5039ZM33.3784 39.6733C32.4773 39.3858 31.6663 38.9171 30.9675 38.2801C30.7319 38.0652 30.384 38.0274 30.1076 38.1872L28.8597 38.9083C28.5775 39.0706 28.2161 38.9738 28.0535 38.6924L27.1667 37.157C27.0042 36.8759 27.1011 36.5147 27.3822 36.3521L28.6322 35.6305C28.908 35.4713 29.0493 35.1521 28.9817 34.8408C28.882 34.3813 28.8314 33.9129 28.8314 33.4483C28.8314 32.9838 28.882 32.5153 28.9817 32.0559C29.0493 31.7446 28.908 31.4254 28.6322 31.2662L27.3826 30.5447C27.1013 30.3821 27.0046 30.0208 27.1668 29.7395L28.0537 28.2041C28.216 27.9229 28.5776 27.8261 28.8586 27.9878L30.1076 28.7095C30.3837 28.8691 30.7317 28.8314 30.9675 28.6166C31.6662 27.9796 32.4773 27.5108 33.3784 27.2233C33.682 27.1265 33.8882 26.8443 33.8882 26.5256V25.0842C33.8882 24.7595 34.1523 24.4953 34.4771 24.4953H36.2505C36.5751 24.4953 36.8393 24.7595 36.8393 25.0842V26.5256C36.8393 26.8443 37.0453 27.1265 37.349 27.2233C38.2501 27.5108 39.0611 27.9796 39.76 28.6166C39.9956 28.8315 40.3437 28.8691 40.6199 28.7095L41.8691 27.9883C42.1512 27.8259 42.5123 27.9228 42.6747 28.2041L43.5605 29.7394C43.7229 30.0208 43.6263 30.3821 43.345 30.5447L42.096 31.2664C41.8203 31.4257 41.679 31.7449 41.7467 32.0561C41.8464 32.515 41.897 32.9835 41.897 33.4484C41.897 33.9134 41.8464 34.3818 41.7467 34.8408C41.6791 35.1521 41.8203 35.4712 42.096 35.6305L43.3448 36.3521C43.4812 36.4309 43.5788 36.5581 43.6195 36.7104C43.6603 36.8624 43.6394 37.021 43.5604 37.1576L42.6747 38.6927C42.5124 38.9741 42.1511 39.0711 41.8694 38.9088L40.6199 38.1874C40.3437 38.0276 39.9956 38.0653 39.76 38.2803C39.0612 38.9173 38.2501 39.386 37.349 39.6735C37.0454 39.7704 36.8393 40.0525 36.8393 40.3713V41.5039H33.8881V40.3711C33.8882 40.0523 33.6821 39.7702 33.3784 39.6733Z" fill="#683BF2"/>
<path d="M22.4723 11.0174C23.044 10.6999 23.3993 10.0904 23.3993 9.42676V5.15234C23.3993 4.74785 23.0715 4.41992 22.6669 4.41992C22.2623 4.41992 21.9345 4.74785 21.9345 5.15234V9.42676C21.9345 9.55859 21.8681 9.67734 21.7613 9.73662C21.5712 9.84209 21.3241 9.62373 21.2967 9.59844C20.9982 9.32529 20.535 9.3457 20.2618 9.64414C19.9887 9.94248 20.0092 10.4058 20.3075 10.6789C20.631 10.9749 21.1216 11.2313 21.6581 11.2313C21.923 11.2314 22.1995 11.1687 22.4723 11.0174Z" fill="#683BF2"/>
<path d="M27.4609 5.93359C27.8655 5.93359 28.1934 5.60566 28.1934 5.20117C28.1934 4.79668 27.8655 4.46875 27.4609 4.46875H25.228C24.8234 4.46875 24.4956 4.79668 24.4956 5.20117V10.5005C24.4956 10.905 24.8234 11.2329 25.228 11.2329H27.4609C27.8655 11.2329 28.1934 10.905 28.1934 10.5005C28.1934 10.096 27.8655 9.76807 27.4609 9.76807H25.9604V8.5832H27.2963C27.7009 8.5832 28.0287 8.25527 28.0287 7.85078C28.0287 7.44629 27.7009 7.11836 27.2963 7.11836H25.9604V5.93359H27.4609Z" fill="#683BF2"/>
<path d="M31.9327 5.88477C32.3219 5.88477 32.6971 5.99932 33.0178 6.21592C33.3529 6.44238 33.8082 6.3542 34.0347 6.01904C34.261 5.68389 34.173 5.22861 33.8377 5.00215C33.274 4.62129 32.6151 4.41992 31.9326 4.41992C30.0543 4.41992 28.5261 5.94805 28.5261 7.82646C28.5261 9.70488 30.0542 11.233 31.9326 11.233C32.6851 11.233 33.3609 10.9853 33.8875 10.5165C33.9907 10.4246 34.0887 10.3235 34.1785 10.2162C34.4384 9.90615 34.3977 9.44424 34.0876 9.18437C33.7776 8.92461 33.3156 8.96523 33.0559 9.27529C33.0114 9.32832 32.9634 9.37803 32.9132 9.42266C32.6557 9.65195 32.3257 9.76816 31.9326 9.76816C30.8619 9.76816 29.9909 8.89717 29.9909 7.82646C29.9909 6.75576 30.8621 5.88477 31.9327 5.88477Z" fill="#683BF2"/>
<path d="M39.1878 5.15234C39.1878 4.74785 38.86 4.41992 38.4554 4.41992H35.5019C35.0973 4.41992 34.7694 4.74785 34.7694 5.15234C34.7694 5.55684 35.0973 5.88477 35.5019 5.88477H36.2403V10.5005C36.2403 10.905 36.5682 11.2329 36.9728 11.2329C37.3773 11.2329 37.7052 10.905 37.7052 10.5005V5.88477H38.4555C38.86 5.88477 39.1878 5.55684 39.1878 5.15234Z" fill="#683BF2"/>
<path d="M8.30918 10.5005C8.30918 10.905 8.63701 11.2329 9.0416 11.2329C9.44619 11.2329 9.77402 10.905 9.77402 10.5005V9.15596L11.3833 10.9844C11.528 11.1489 11.7303 11.2329 11.9334 11.2329C12.1053 11.2329 12.2778 11.1728 12.417 11.0503C12.7206 10.783 12.7501 10.3202 12.4829 10.0166L11.1887 8.54609C12.0476 8.25664 12.6656 7.46797 12.6656 6.54228C12.6656 5.37197 11.6783 4.41992 10.4646 4.41992H9.04346C8.84883 4.41992 8.66211 4.49736 8.52471 4.63525C8.3873 4.77314 8.31045 4.96006 8.31104 5.15469C8.31094 5.15479 8.30918 10.5005 8.30918 10.5005ZM10.4646 5.88477C10.8636 5.88477 11.2007 6.18584 11.2007 6.54228C11.2007 6.89873 10.8636 7.1998 10.4646 7.1998C10.3034 7.1998 10.0388 7.20078 9.78164 7.20205C9.78037 6.95234 9.77881 6.14697 9.77803 5.88477H10.4646Z" fill="#683BF2"/>
<path d="M3.06797 10.5005C3.06797 10.905 3.3958 11.2329 3.80039 11.2329C4.20498 11.2329 4.53281 10.905 4.53281 10.5005V8.90586C4.81445 8.90449 5.11221 8.90322 5.28955 8.90322C6.54189 8.90322 7.56074 7.89756 7.56074 6.66152C7.56074 5.42549 6.54199 4.41992 5.28955 4.41992H3.80039C3.60576 4.41992 3.41914 4.49736 3.28164 4.63525C3.14424 4.77305 3.06738 4.95996 3.06797 5.15459V10.5005ZM5.28955 5.88477C5.72666 5.88477 6.0959 6.24053 6.0959 6.66162C6.0959 7.08271 5.72666 7.43848 5.28955 7.43848C5.11338 7.43848 4.81924 7.43965 4.53906 7.44111C4.5376 7.15059 4.53564 6.18945 4.53486 5.88486L5.28955 5.88477Z" fill="#683BF2"/>
<path d="M19.9274 7.82637C19.9274 5.94805 18.3993 4.41982 16.5209 4.41982C14.6425 4.41982 13.1144 5.94795 13.1144 7.82637C13.1144 9.70479 14.6425 11.2329 16.5209 11.2329C18.3993 11.2329 19.9274 9.70479 19.9274 7.82637ZM14.5792 7.82637C14.5792 6.75576 15.4502 5.88467 16.5209 5.88467C17.5916 5.88467 18.4626 6.75566 18.4626 7.82637C18.4626 8.89707 17.5916 9.76807 16.5209 9.76807C15.4502 9.76807 14.5792 8.89707 14.5792 7.82637Z" fill="#683BF2"/>
<path d="M4.70928 13.4317C4.70928 13.8362 5.03711 14.1642 5.4417 14.1642H36.0329C36.4375 14.1642 36.7653 13.8362 36.7653 13.4317C36.7653 13.0272 36.4375 12.6993 36.0329 12.6993H5.4417C5.03711 12.6993 4.70928 13.0271 4.70928 13.4317Z" fill="#683BF2"/>
<path d="M18.3829 16.0117H6.13516C4.59551 16.0117 3.34297 17.2644 3.34297 18.804V25.401C3.34297 26.9406 4.59551 28.1933 6.13516 28.1933H18.3828C19.9226 28.1933 21.1751 26.9406 21.1751 25.401V18.804C21.1751 17.2643 19.9226 16.0117 18.3829 16.0117ZM19.7103 25.401C19.7103 26.1329 19.1147 26.7284 18.3828 26.7284H6.13516C5.40332 26.7284 4.80781 26.1329 4.80781 25.401V18.804C4.80781 18.0721 5.40332 17.4766 6.13516 17.4766H18.3828C19.1147 17.4766 19.7103 18.0721 19.7103 18.804V25.401Z" fill="#683BF2"/>
<path d="M38.1269 19.5694C38.1269 19.1649 37.799 18.837 37.3944 18.837H23.7551C23.3505 18.837 23.0227 19.1649 23.0227 19.5694C23.0227 19.9739 23.3505 20.3019 23.7551 20.3019H37.3944C37.799 20.3019 38.1269 19.9739 38.1269 19.5694Z" fill="#683BF2"/>
<path d="M32.866 22.3947C32.866 21.9902 32.5382 21.6623 32.1336 21.6623H23.7551C23.3505 21.6623 23.0227 21.9902 23.0227 22.3947C23.0227 22.7992 23.3505 23.1271 23.7551 23.1271H32.1336C32.5382 23.1271 32.866 22.7992 32.866 22.3947Z" fill="#683BF2"/>
<path d="M3.34307 30.7731C3.34307 31.1776 3.6709 31.5056 4.07549 31.5056H23.7552C24.1598 31.5056 24.4876 31.1776 24.4876 30.7731C24.4876 30.3687 24.1598 30.0407 23.7552 30.0407H4.07549C3.6709 30.0407 3.34307 30.3687 3.34307 30.7731Z" fill="#683BF2"/>
<path d="M24.4875 36.4238C24.4875 36.0193 24.1597 35.6914 23.7551 35.6914H4.07549C3.6709 35.6914 3.34307 36.0193 3.34307 36.4238C3.34307 36.8283 3.6709 37.1562 4.07549 37.1562H23.7552C24.1597 37.1562 24.4875 36.8283 24.4875 36.4238Z" fill="#683BF2"/>
<path d="M4.07549 38.5977C3.6709 38.5977 3.34307 38.9256 3.34307 39.3301C3.34307 39.7346 3.6709 40.0625 4.07549 40.0625H13.5257C13.9303 40.0625 14.2581 39.7346 14.2581 39.3301C14.2581 38.9256 13.9303 38.5977 13.5257 38.5977H4.07549Z" fill="#683BF2"/>
<path d="M25.754 33.5985C25.754 33.194 25.4262 32.8661 25.0216 32.8661H4.07549C3.6709 32.8661 3.34307 33.194 3.34307 33.5985C3.34307 34.003 3.6709 34.331 4.07549 34.331H25.0216C25.4262 34.331 25.754 34.003 25.754 33.5985Z" fill="#683BF2"/>
<path d="M11.1515 21.4675H6.58311C6.17852 21.4675 5.85068 21.7954 5.85068 22.1999V25.1227C5.85068 25.5271 6.17852 25.8551 6.58311 25.8551H11.1514C11.556 25.8551 11.8838 25.5271 11.8838 25.1227V22.1999C11.8839 21.7954 11.556 21.4675 11.1515 21.4675ZM10.419 24.3901H7.31553V22.9322H10.4189L10.419 24.3901Z" fill="#683BF2"/>
<path d="M17.935 18.7721H13.3667C12.9621 18.7721 12.6343 19.1 12.6343 19.5045V25.1227C12.6343 25.5271 12.9621 25.8551 13.3667 25.8551H17.935C18.3396 25.8551 18.6674 25.5271 18.6674 25.1227V19.5045C18.6674 19.1 18.3395 18.7721 17.935 18.7721ZM17.2025 24.3901H14.0991V20.2368H17.2025V24.3901Z" fill="#683BF2"/>
</svg>
