<svg width="65" height="65" viewBox="0 0 65 65" fill="none" xmlns="http://www.w3.org/2000/svg">
<path d="M26.7819 6.97352C34.4156 2.75694 43.7771 2.74996 51.4233 6.97352C52.3437 7.48197 53.5024 7.14808 54.011 6.2274C54.5196 5.30672 54.1854 4.14812 53.2649 3.63966C44.4864 -1.20928 33.7331 -1.21716 24.9404 3.63966C24.0199 4.14812 23.6857 5.30672 24.1943 6.2274C24.7026 7.14783 25.8611 7.48236 26.7819 6.97352Z" fill="#683BF2"/>
<path d="M10.5407 30.5949H1.647C0.737358 30.5949 0 31.4476 0 32.4993V63.0956C0 64.1473 0.737358 64.9999 1.647 64.9999H10.5407C11.4504 64.9999 12.1877 64.1473 12.1877 63.0956V32.4993C12.1877 31.4474 11.4504 30.5949 10.5407 30.5949Z" fill="#231747"/>
<path d="M65.0013 45.7851C65.0013 47.287 64.1419 48.6569 62.7898 49.3107L36.7677 61.8882C35.314 62.5903 33.6763 62.8137 32.0894 62.5242L15.9965 59.598V36.7206L22.3074 35.5107C25.5562 34.8887 28.9167 35.7038 31.5181 37.7477L41.6415 45.7027L41.4041 46.0354C39.76 48.3371 36.7296 49.0899 34.2006 47.8242L31.8964 46.6727C30.9556 46.203 29.8118 46.5838 29.342 47.5246C28.871 48.4653 29.2532 49.6092 30.1939 50.0789L32.4969 51.2317C36.6763 53.3214 41.7761 52.0683 44.5031 48.2495L46.7006 45.2037C46.9814 44.8144 47.3988 44.5457 47.8693 44.451L60.3141 41.9474C62.7377 41.4599 65.0013 43.3134 65.0013 45.7851Z" fill="#231747"/>
<path d="M39.3563 24.5088C41.6744 24.5088 43.5536 22.6296 43.5536 20.3115C43.5536 17.9934 41.6744 16.1143 39.3563 16.1143C37.0382 16.1143 35.1591 17.9934 35.1591 20.3115C35.1591 22.6296 37.0382 24.5088 39.3563 24.5088Z" fill="#683BF2"/>
<path d="M63.488 19.1818C58.1189 11.8944 48.9856 7.23526 39.3563 7.23526C29.7343 7.23526 20.0628 11.925 14.7167 19.1818C14.2228 19.8534 14.2228 20.77 14.7167 21.4416C20.0628 28.6984 29.7343 33.3881 39.3563 33.3881C48.9848 33.3881 58.1184 28.7296 63.488 21.4416C63.9818 20.7699 63.9818 19.8534 63.488 19.1818ZM39.3563 28.3175C34.9419 28.3175 31.3503 24.7261 31.3503 20.3116C31.3503 15.8971 34.9419 12.3057 39.3563 12.3057C43.7706 12.3057 47.3622 15.8972 47.3622 20.3117C47.3622 24.7262 43.7706 28.3175 39.3563 28.3175Z" fill="#683BF2"/>
</svg>
