<svg width="51" height="50" viewBox="0 0 51 50" fill="none" xmlns="http://www.w3.org/2000/svg">
<path d="M50.6883 1.56137C50.6562 0.810197 50.0727 0.20022 49.3267 0.137929L49.2803 0.134048C44.2254 -0.284577 39.2121 0.278432 34.3797 1.80726C29.4409 3.36991 24.9286 5.86106 20.9682 9.21166C20.2811 9.79298 19.6184 10.3968 18.9771 11.0193C17.4034 10.0684 15.5661 9.61675 13.7128 9.74163C11.5315 9.8886 9.47783 10.8255 7.93044 12.3797L0.435271 19.9078C-0.14509 20.4908 -0.14509 21.4358 0.435271 22.0187L1.31632 22.9036C3.73436 25.3323 6.9098 26.6908 10.2576 26.7804L9.69688 30.4597C9.62525 30.9293 9.7806 31.4051 10.1151 31.741L18.1792 39.8405C18.46 40.1225 18.8388 40.2777 19.2299 40.2777C19.3046 40.2777 19.3798 40.272 19.4547 40.2605L23.1191 39.6971C23.2086 43.0596 24.5604 46.2498 26.9777 48.6779L27.8589 49.5629C28.1491 49.8543 28.5294 50 28.9096 50C29.2899 50 29.6703 49.8543 29.9604 49.5628L37.4555 42.0347C40.3398 39.1376 40.9145 34.7425 38.9827 31.2387C39.7382 30.4968 40.4672 29.7238 41.1656 28.9168C44.4331 25.1405 46.9206 20.8302 48.5589 16.1057C50.1841 11.4197 50.9004 6.52627 50.6883 1.56137ZM47.7517 3.02562C47.773 6.34576 47.3421 9.62401 46.468 12.8132L37.6782 3.98486C40.9761 3.18702 44.3504 2.86481 47.7517 3.02562ZM3.58951 20.9613L10.0319 14.4906C11.8427 12.6719 14.5891 12.228 16.844 13.2593C14.6642 15.7411 12.8087 18.4928 11.3023 21.4868L11.0677 21.9531C10.997 22.0937 10.9489 22.2448 10.9252 22.4005L10.7122 23.7983C8.0626 23.822 5.52983 22.823 3.58951 20.9613ZM12.7487 30.1645L13.3728 26.0691C13.4225 26.0007 13.4674 25.9289 13.505 25.8529L24.0507 36.4449C23.9803 36.4793 23.9136 36.5199 23.8497 36.5648L19.7488 37.1953L12.7487 30.1645ZM35.3541 39.9239L28.9117 46.3947C27.0587 44.4464 26.0636 41.9016 26.0872 39.2407L27.4789 39.0268C27.6339 39.003 27.7842 38.9546 27.9242 38.8836L29.333 38.1686C31.9793 36.8256 34.437 35.2023 36.6875 33.3203C37.5959 35.5469 37.1177 38.1524 35.3541 39.9239ZM27.9925 35.5042L27.5439 35.7319L14.2109 22.3403C18.4646 14.2055 25.7692 7.91777 34.4219 4.93575L45.4362 15.9983C42.2486 24.4934 36.0842 31.3974 27.9925 35.5042Z" fill="white"/>
<path d="M26.3666 15.6971C24.0569 18.0169 24.0569 21.7916 26.3666 24.1115C27.5214 25.2714 29.0384 25.8513 30.5553 25.8513C32.0722 25.8513 33.5893 25.2714 34.7441 24.1114C37.0537 21.7916 37.0537 18.0169 34.7441 15.6971C32.4344 13.3773 28.6761 13.3773 26.3666 15.6971ZM32.6425 22.0006C31.4916 23.1564 29.619 23.1564 28.4682 22.0006C27.3174 20.8446 27.3174 18.9638 28.4682 17.8079C29.0437 17.2299 29.7994 16.9409 30.5553 16.9409C31.3112 16.9409 32.0671 17.2299 32.6425 17.8079C33.7933 18.9639 33.7933 20.8447 32.6425 22.0006Z" fill="white"/>
<path d="M12.1973 38.1613C11.617 37.5785 10.676 37.5784 10.0956 38.1613L5.31395 42.9641C4.73359 43.547 4.73359 44.492 5.31395 45.0749C5.60414 45.3664 5.98447 45.512 6.36471 45.512C6.74494 45.512 7.12538 45.3664 7.41546 45.0748L12.1972 40.272C12.7777 39.6893 12.7777 38.7442 12.1973 38.1613Z" fill="white"/>
<path d="M7.94074 33.8861C7.36048 33.3032 6.41949 33.3032 5.83913 33.8861L1.05734 38.6889C0.47698 39.2718 0.47698 40.2168 1.05734 40.7997C1.34752 41.0912 1.72786 41.2368 2.1081 41.2368C2.48833 41.2368 2.86877 41.0912 3.15885 40.7997L7.94064 35.9969C8.5211 35.414 8.5211 34.469 7.94074 33.8861Z" fill="white"/>
<path d="M14.3524 42.4367L9.57057 47.2395C8.9902 47.8224 8.9902 48.7674 9.57057 49.3503C9.86075 49.6418 10.2411 49.7876 10.6213 49.7876C11.0016 49.7876 11.382 49.6419 11.6721 49.3503L16.4539 44.5475C17.0342 43.9646 17.0342 43.0196 16.4539 42.4367C15.8736 41.8537 14.9327 41.8537 14.3524 42.4367Z" fill="white"/>
</svg>
