<svg width="42" height="50" viewBox="0 0 42 50" fill="none" xmlns="http://www.w3.org/2000/svg">
<path d="M26.5774 50H7.75982C3.48093 50 0 46.4954 0 42.1875V7.8125C0 3.50456 3.48093 0 7.75982 0H26.5774C30.8563 0 34.3372 3.50456 34.3372 7.8125V10.8517C34.3372 11.9305 33.4688 12.8048 32.3972 12.8048C31.3257 12.8048 30.4573 11.9305 30.4573 10.8517V7.8125C30.4573 5.65872 28.7166 3.90625 26.5774 3.90625H7.75982C5.62056 3.90625 3.87991 5.65872 3.87991 7.8125V42.1875C3.87991 44.3413 5.62056 46.0938 7.75982 46.0938H26.5774C28.7166 46.0938 30.4573 44.3413 30.4573 42.1875V38.4884C30.4573 37.4096 31.3257 36.5353 32.3972 36.5353C33.4688 36.5353 34.3372 37.4096 34.3372 38.4884V42.1875C34.3372 46.4954 30.8563 50 26.5774 50ZM19.1085 41.1251C19.1085 40.0463 18.2401 39.172 17.1686 39.172C16.0971 39.172 15.2286 40.0463 15.2286 41.1251C15.2286 42.2039 16.0971 43.0782 17.1686 43.0782C18.2401 43.0782 19.1085 42.2039 19.1085 41.1251ZM21.0485 8.89854C21.0485 7.81975 20.1801 6.94542 19.1085 6.94542H15.2286C14.1571 6.94542 13.2887 7.81975 13.2887 8.89854C13.2887 9.97734 14.1571 10.8517 15.2286 10.8517H19.1085C20.1801 10.8517 21.0485 9.97734 21.0485 8.89854ZM23.6951 34.7775C24.576 34.7775 25.4464 34.193 25.6851 33.3469L30.0913 17.7418C30.4451 16.4894 29.5021 15.2462 28.1987 15.2462C27.3177 15.2462 26.5444 15.8306 26.3057 16.6767L21.8995 32.2823C21.546 33.5346 22.3917 34.7775 23.6951 34.7775ZM18.655 32.4192C19.3435 31.5926 19.2359 30.3604 18.4148 29.6677L13.6172 25.6176C13.416 25.4433 13.3857 25.2247 13.3857 25.1095C13.3857 24.9943 13.416 24.7757 13.6172 24.6014L18.4148 20.5513C19.2359 19.8586 19.3435 18.6264 18.655 17.7998C17.9669 16.9735 16.7431 16.8648 15.922 17.5579L11.1184 21.6129C11.1153 21.6156 11.1119 21.6183 11.1089 21.6213C10.09 22.4922 9.50577 23.7637 9.50577 25.1095C9.50577 26.4553 10.09 27.7267 11.1089 28.5976C11.1119 28.6003 11.115 28.603 11.1184 28.606L15.922 32.6611C16.2854 32.9678 16.7276 33.1173 17.1675 33.1173C17.7214 33.1173 18.2716 32.8796 18.655 32.4192ZM35.6955 32.6481L40.3969 28.5976C41.4157 27.7267 42 26.4553 42 25.1095C42 23.7637 41.4157 22.4922 40.4022 21.6259L35.6955 17.5709C34.8813 16.8694 33.6567 16.9655 32.9603 17.7849C32.2635 18.6047 32.359 19.8376 33.1728 20.5387L37.8852 24.5983C38.0894 24.773 38.1201 24.9935 38.1201 25.1095C38.1201 25.2251 38.0898 25.4456 37.8799 25.6248L33.1728 29.6803C32.359 30.3814 32.2635 31.6143 32.9603 32.4337C33.3441 32.8854 33.8878 33.1173 34.4353 33.1173C34.8813 33.1173 35.3299 32.9632 35.6955 32.6481Z" fill="white"/>
</svg>
