<svg width="44" height="50" viewBox="0 0 44 50" fill="none" xmlns="http://www.w3.org/2000/svg">
<path d="M42.03 5.91326C36.5356 5.91326 26.5385 4.79441 23.407 0.6711C22.8748 -0.165082 21.7102 -0.239469 21.0743 0.558566C17.3874 4.68111 7.36694 5.91326 1.46484 5.91326C0.655746 5.91326 0 6.57129 0 7.38344V30.9094C0 41.5055 12.1971 47.9783 21.4371 49.9909C22.6303 50.2503 43.4948 44.9651 43.4948 30.9094V7.38344C43.4948 6.57167 42.8391 5.91326 42.03 5.91326ZM40.5651 30.9094C40.5651 41.9518 24.2226 46.4292 21.7472 47.0429C19.2719 46.4292 2.92969 41.9518 2.92969 30.9094V8.83722C14.2414 8.57592 19.8826 5.31778 22.1252 3.55158C26.6441 7.54824 34.5467 8.70066 40.5651 8.8376V30.9094Z" fill="#683BF2"/>
<path d="M14.4279 19.0976V23.5578H12.9581C12.1494 23.5578 11.4933 24.2162 11.4933 25.0279V36.7909C11.4933 37.6031 12.1494 38.2615 12.9581 38.2615H30.5363C31.3454 38.2615 32.0011 37.6031 32.0011 36.7909V25.0279C32.0011 24.2162 31.3454 23.5578 30.5363 23.5578H17.3576V19.0976C17.3576 16.7996 19.1673 14.7355 21.7915 14.7355C24.1879 14.7355 26.1372 16.6921 26.1372 19.0976C26.1372 19.9094 26.7933 20.5678 27.602 20.5678C28.4111 20.5678 29.0669 19.9094 29.0669 19.0976C29.0669 15.0708 25.8034 11.7948 21.7915 11.7948C17.5262 11.7948 14.4279 15.2036 14.4279 19.0976ZM29.0714 35.3208H14.423V26.4985H29.0714V35.3208Z" fill="#683BF2"/>
<path d="M23.2121 30.9094C23.2121 30.0973 22.5563 29.4393 21.7472 29.4393C20.9385 29.4393 20.2824 30.0973 20.2824 30.9094C20.2824 31.7216 20.9385 32.38 21.7472 32.38C22.5563 32.38 23.2121 31.7216 23.2121 30.9094Z" fill="#683BF2"/>
</svg>
