<svg width="44" height="50" viewBox="0 0 44 50" fill="none" xmlns="http://www.w3.org/2000/svg">
<path d="M40.6374 19.7181L24.069 3.1497C22.3562 1.43681 19.5689 1.43672 17.8559 3.1497C16.3161 4.68945 16.1834 7.03778 17.3205 8.71464L17.2975 8.82997C16.103 14.8031 13.1949 20.2371 8.88736 24.5445L1.28785 32.144C-0.429138 33.8611 -0.42943 36.64 1.28785 38.3571L5.42984 42.4991C7.14673 44.2161 9.92583 44.2162 11.6429 42.4991L12.6785 41.4635L19.9271 48.7121C21.6441 50.4292 24.423 50.4293 26.1401 48.7121C27.8531 46.9993 27.8531 44.2121 26.1401 42.4992L23.0335 39.3926L24.0691 38.3571C25.7861 36.6402 25.7863 33.8613 24.0691 32.1441L23.3654 31.4403C26.8272 29.0166 30.7587 27.3292 34.9573 26.4894L35.074 26.4661C36.7882 27.6234 39.1311 27.4374 40.6374 25.931C42.3501 24.2182 42.3502 21.4311 40.6374 19.7181ZM9.57192 40.4281C8.99966 41.0002 8.0731 41.0003 7.50083 40.428L3.35885 36.286C2.78648 35.7135 2.78648 34.7874 3.35885 34.215L10.6074 26.9664L16.8205 33.1795C16.1113 33.8886 10.2986 39.7013 9.57192 40.4281ZM24.069 44.5701C24.6399 45.141 24.6399 46.0701 24.069 46.6411C23.4981 47.212 22.5689 47.212 21.998 46.6411L14.7494 39.3924L16.8205 37.3214L24.069 44.5701ZM18.8914 35.2504C19.3317 34.8102 19.9907 34.1359 21.0307 33.2476L21.998 34.215C22.5703 34.7874 22.5703 35.7135 21.998 36.286L20.9624 37.3215L18.8914 35.2504ZM18.9537 31.1708L12.616 24.8331C16.0123 20.9113 18.4446 16.2819 19.7458 11.2526L32.5341 24.0409C27.5048 25.3421 22.8755 27.7743 18.9537 31.1708ZM38.5661 23.8599C37.9938 24.4322 37.0675 24.4322 36.4951 23.8599L19.9269 7.29169C19.3545 6.71923 19.3545 5.79306 19.9269 5.2207C20.4993 4.64833 21.4256 4.64833 21.998 5.2207L38.5661 21.7888C39.137 22.3598 39.137 23.2888 38.5661 23.8599Z" fill="#683BF2"/>
<path d="M11.6428 32.1439C11.071 31.572 10.1437 31.572 9.57183 32.1439L7.50083 34.2149C6.92896 34.7868 6.92896 35.714 7.50083 36.2859C8.07261 36.8578 9.00005 36.8578 9.57183 36.2859L11.6428 34.2149C12.2147 33.643 12.2147 32.7158 11.6428 32.1439Z" fill="#683BF2"/>
<path d="M30.7949 0C29.9862 0 29.3305 0.655663 29.3305 1.46445V4.39335C29.3305 5.20214 29.9862 5.85781 30.7949 5.85781C31.6037 5.85781 32.2594 5.20214 32.2594 4.39335V1.46445C32.2594 0.655663 31.6037 0 30.7949 0Z" fill="#683BF2"/>
<path d="M42.5105 11.7154H39.5816C38.7728 11.7154 38.1171 12.3711 38.1171 13.1799C38.1171 13.9887 38.7728 14.6443 39.5816 14.6443H42.5105C43.3193 14.6443 43.9749 13.9887 43.9749 13.1799C43.9749 12.3711 43.3192 11.7154 42.5105 11.7154Z" fill="#683BF2"/>
<path d="M40.6171 3.35771C40.0453 2.78584 39.118 2.78584 38.5461 3.35771L35.6172 6.28661C35.0453 6.85849 35.0453 7.78573 35.6172 8.35761C36.189 8.92948 37.1163 8.92958 37.6882 8.35761L40.6171 5.4287C41.189 4.85683 41.189 3.92968 40.6171 3.35771Z" fill="#683BF2"/>
</svg>
