<svg width="38" height="38" viewBox="0 0 38 38" fill="none" xmlns="http://www.w3.org/2000/svg">
<path d="M36.9326 12.3004C36.1162 11.8519 34.8725 11.9421 34.0714 13.2014C34.069 13.2052 34.0667 13.2089 34.0643 13.2127L31.0864 18.0865C30.7277 17.8797 30.3158 17.788 29.8979 17.8254C29.3733 17.8724 28.9012 18.1185 28.5688 18.5187C28.356 18.7748 27.6529 19.6531 26.9086 20.583C26.2034 21.4639 25.4742 22.3749 25.2707 22.6199C23.3673 24.8417 20.4261 25.748 18.9946 28.6267C17.5635 25.7483 14.6217 24.8414 12.7186 22.6199C12.2971 22.112 9.82319 19.0025 9.42041 18.5186C9.08806 18.1185 8.61611 17.8723 8.09146 17.8253C7.67302 17.788 7.26163 17.8796 6.90286 18.0864L3.92493 13.2127C3.92263 13.2088 3.92026 13.205 3.91781 13.2013C3.1167 11.942 1.8731 11.8516 1.0567 12.3004C0.0892683 12.8323 -0.271728 14.019 0.216998 15.0609C0.218111 15.0632 0.219224 15.0655 0.220337 15.068C1.27164 17.4165 3.0361 21.8208 4.23783 24.427C5.36788 26.9128 5.87471 27.6113 7.85329 29.4096L10.5226 31.8359V32.0626H10.0884C9.67861 32.0626 9.34626 32.3949 9.34626 32.8047V37.2578C9.34626 37.6676 9.67861 38 10.0884 38H27.9008C28.3106 38 28.643 37.6676 28.643 37.2578V32.8047C28.643 32.3949 28.3106 32.0626 27.9008 32.0626H27.4667V31.8359L30.136 29.4096C32.1145 27.6113 32.6213 26.9126 33.7515 24.427C34.949 21.8303 36.7222 17.4063 37.769 15.068C37.7701 15.0656 37.7712 15.0633 37.7723 15.0609C38.2609 14.019 37.8999 12.8323 36.9326 12.3004ZM11.764 30.9583L8.85175 28.3111C7.02895 26.6544 6.63263 26.1078 5.58912 23.8126C4.39584 21.2272 2.60066 16.7433 1.55968 14.428C1.35172 13.9818 1.59486 13.6985 1.77157 13.6013C2.06777 13.4386 2.40027 13.5849 2.66189 13.9928L5.97224 19.4105C5.91145 19.8077 5.96132 20.3012 6.20253 20.9109C6.89536 22.6616 7.75399 24.4101 8.55844 25.7083C8.77434 26.0567 9.2316 26.1643 9.58027 25.9482C9.92865 25.7323 10.0361 25.2749 9.82014 24.9263C9.06015 23.6998 8.24457 22.0371 7.58277 20.3647C7.29992 19.6499 7.48784 19.4919 7.55857 19.4325C7.67265 19.3366 7.81477 19.2907 7.95898 19.3039C8.08708 19.3153 8.20063 19.3734 8.27864 19.4672C8.48281 19.713 9.2143 20.6268 9.92182 21.5106C10.6638 22.4374 11.3645 23.313 11.5769 23.5685C12.4027 24.5625 13.4228 25.3026 14.4093 26.0185C16.3212 27.4057 17.9734 28.6047 18.2524 31.3889V32.0624H12.007V31.5074C12.0069 31.2984 11.9187 31.099 11.764 30.9583ZM10.8306 33.5468H18.2524V36.5156H10.8306V33.5468ZM27.1586 36.5156H19.7368V33.5468H27.1586V36.5156ZM36.4296 14.428C35.3848 16.752 33.5966 21.2199 32.4002 23.8126C31.3568 26.1078 30.9604 26.6544 29.1375 28.3112L26.2253 30.9583C26.0706 31.099 25.9824 31.2984 25.9824 31.5075V32.0625H19.7369V31.3889C20.1212 27.1363 24.0892 26.3856 26.4126 23.5684C26.6247 23.313 27.3256 22.4375 28.0675 21.5106C28.775 20.6268 29.5066 19.7129 29.7107 19.4672C29.7887 19.3733 29.9022 19.3153 30.0304 19.3039C30.1744 19.2907 30.3166 19.3366 30.4308 19.4325C30.5015 19.4919 30.6894 19.6499 30.4065 20.3647C29.7448 22.0371 28.9293 23.6997 28.1691 24.9263C27.9532 25.2747 28.0606 25.7322 28.409 25.9482C28.7574 26.164 29.2148 26.0566 29.4309 25.7083C30.2354 24.4102 31.094 22.6616 31.7868 20.9109C32.028 20.3012 32.0779 19.8077 32.0171 19.4105L35.3273 13.993C35.5889 13.585 35.9215 13.4385 36.2178 13.6013C36.3943 13.6984 36.6373 13.9818 36.4296 14.428Z" fill="#683BF2"/>
<path d="M14.8077 15.8109C14.5535 15.9287 14.3773 16.1861 14.3773 16.4845V20.3596C14.3773 20.7694 14.7096 21.1017 15.1195 21.1017H22.8696C23.2794 21.1017 23.6118 20.7694 23.6118 20.3596V16.4845C23.6118 16.186 23.4355 15.9287 23.1814 15.8109C23.1866 14.845 23.303 14.5671 25.0665 12.254C28.8945 7.33013 25.2367 -0.0526346 18.9945 0.000282895C14.7867 0.000208677 11.3634 3.42352 11.3634 7.63138C11.2886 11.9904 14.9058 13.4559 14.8077 15.8109ZM22.1274 19.6174H15.8617V17.2267H22.1275L22.1274 19.6174ZM18.9946 1.48457C24.0228 1.44234 26.9684 7.38854 23.8862 11.354C22.0914 13.7081 21.7214 14.309 21.6981 15.7423H19.7367V9.31658L20.8972 8.1561C21.187 7.86628 21.187 7.39633 20.8972 7.10644C20.6073 6.81669 20.1375 6.81669 19.8475 7.10644L18.9945 7.95943L18.1416 7.10644C17.8518 6.81676 17.382 6.81669 17.092 7.10644C16.8021 7.39626 16.8021 7.86621 17.092 8.1561L18.2524 9.3165V15.7422H16.291C16.2678 14.3089 15.8977 13.708 14.1028 11.3539C11.02 7.38765 13.9682 1.44182 18.9946 1.48457Z" fill="#683BF2"/>
<path d="M6.69646 8.3735H8.76575C9.74944 8.33698 9.7487 6.92535 8.76575 6.88913H6.69646C5.71284 6.92572 5.71358 8.33736 6.69646 8.3735Z" fill="#683BF2"/>
<path d="M9.76442 12.1005L7.97234 13.1351C7.61735 13.34 7.49571 13.7939 7.7007 14.1489C7.90673 14.5072 8.36585 14.6237 8.71453 14.4206L10.5066 13.386C10.8616 13.181 10.9832 12.7271 10.7783 12.3721C10.5736 12.0173 10.1196 11.8955 9.76442 12.1005Z" fill="#683BF2"/>
<path d="M27.4725 13.386L29.2646 14.4206C29.6133 14.6237 30.0723 14.5072 30.2784 14.1489C30.4834 13.7939 30.3618 13.3401 30.0068 13.1351L28.2147 12.1005C27.8597 11.8955 27.4058 12.0172 27.2009 12.3721C26.9959 12.7272 27.1176 13.181 27.4725 13.386Z" fill="#683BF2"/>
<path d="M28.4711 7.63131C28.4711 8.04115 28.8035 8.3735 29.2133 8.3735H31.2826C32.2663 8.33698 32.2656 6.92535 31.2826 6.88913H29.2133C28.8035 6.88913 28.4711 7.22148 28.4711 7.63131Z" fill="#683BF2"/>
<path d="M27.8444 3.26181C27.9702 3.26181 28.0979 3.22968 28.2147 3.16221L30.0068 2.12761C30.3618 1.92261 30.4834 1.46877 30.2784 1.11378C30.0735 0.758866 29.6196 0.637147 29.2646 0.842139L27.4725 1.87675C27.1176 2.08174 26.9959 2.53559 27.2009 2.89057C27.3384 3.12867 27.5878 3.26181 27.8444 3.26181Z" fill="#683BF2"/>
<path d="M7.97234 2.12753L9.76442 3.16221C10.1132 3.36535 10.5721 3.24883 10.7783 2.89057C10.9832 2.53559 10.8616 2.08174 10.5066 1.87675L8.71453 0.842065C8.35946 0.637073 7.90569 0.758791 7.7007 1.1137C7.49571 1.46869 7.61735 1.92254 7.97234 2.12753Z" fill="#683BF2"/>
</svg>
