<svg width="39" height="38" viewBox="0 0 39 38" fill="none" xmlns="http://www.w3.org/2000/svg">
<path d="M38.1994 19.0998C38.1994 17.9227 37.3411 16.943 36.2175 16.7521C35.8105 13.7515 34.6236 10.9255 32.7625 8.52584C33.0317 8.14003 33.1901 7.67157 33.1901 7.16654C33.1901 5.85313 32.1216 4.78458 30.8082 4.78458C30.2873 4.78458 29.8052 4.95312 29.4127 5.23798C27.0704 3.49236 24.3347 2.37405 21.4473 1.98191C21.2564 0.858373 20.2767 0 19.0997 0C17.9227 0 16.9429 0.858373 16.752 1.98191C13.8647 2.37397 11.1289 3.49228 8.78667 5.23798C8.39415 4.9532 7.9121 4.78458 7.39119 4.78458C6.07777 4.78458 5.00923 5.85313 5.00923 7.16654C5.00923 7.67164 5.16777 8.14018 5.43696 8.52606C4.98334 9.11151 4.5671 9.7245 4.19741 10.3544C4.04103 10.621 4.13034 10.9638 4.39684 11.1203C4.48585 11.1725 4.58329 11.1973 4.67953 11.1973C4.8715 11.1973 5.05847 11.0984 5.1627 10.9208C5.49575 10.3532 5.86954 9.80015 6.27608 9.27043C6.60899 9.44763 6.98845 9.54842 7.39119 9.54842C7.91188 9.54842 8.3937 9.38003 8.78614 9.09547C9.09129 9.32288 9.40428 9.54074 9.72286 9.74718C9.56207 10.0677 9.47098 10.429 9.47098 10.8113C9.47098 11.7206 9.98332 12.5122 10.7343 12.9134C10.491 14.1545 10.3226 15.4463 10.2318 16.7661C9.32885 16.951 8.61104 17.6487 8.39549 18.5402H4.69684C4.50077 17.7293 3.88913 17.0789 3.10044 16.8288C3.2757 15.5801 3.59756 14.3558 4.05991 13.1825C4.17324 12.8949 4.032 12.5701 3.74446 12.4567C3.45707 12.3434 3.132 12.4846 3.01874 12.7722C2.51431 14.0522 2.16656 15.3889 1.98168 16.7521C0.858299 16.9432 0 17.9229 0 19.0998C0 20.2768 0.858373 21.2565 1.98191 21.4474C2.38897 24.448 3.57585 27.274 5.43689 29.6737C5.16777 30.0595 5.0093 30.5279 5.0093 31.033C5.0093 32.3464 6.07785 33.4149 7.39126 33.4149C7.91218 33.4149 8.39423 33.2463 8.78674 32.9615C11.1289 34.7071 13.8646 35.8254 16.7518 36.2175C16.7812 36.3902 16.8296 36.5624 16.8995 36.7309C16.9295 36.8031 16.9633 36.8741 17 36.9419C17.1467 37.2139 17.4863 37.3152 17.7582 37.1684C18.0302 37.0216 18.1316 36.6821 17.9847 36.4102C17.966 36.3755 17.9486 36.3388 17.9331 36.3016C17.6662 35.6587 17.9725 34.9184 18.6157 34.6514C19.2589 34.3845 19.9994 34.6901 20.2663 35.333C20.5177 35.9386 20.258 36.6451 19.675 36.9415C19.3995 37.0816 19.2897 37.4184 19.4297 37.6939C19.5285 37.8882 19.725 38 19.929 38C20.0143 38 20.1009 37.9805 20.1821 37.9391C20.8704 37.5891 21.3203 36.9368 21.445 36.2179C24.3333 35.8261 27.0698 34.7077 29.4128 32.9615C29.8054 33.2463 30.2874 33.4149 30.8083 33.4149C32.1217 33.4149 33.1903 32.3463 33.1903 31.033C33.1903 30.5279 33.0318 30.0595 32.7627 29.6737C34.6237 27.274 35.8106 24.448 36.2177 21.4474C37.3411 21.2565 38.1994 20.2768 38.1994 19.0998ZM30.8082 28.6511C30.2877 28.6511 29.806 28.8194 29.4137 29.1038C29.1661 28.9192 28.9136 28.7414 28.6579 28.5713C28.6926 28.4096 28.7114 28.2421 28.7114 28.0703C28.7114 27.1159 28.147 26.2913 27.3346 25.9115C27.6488 24.4821 27.8607 22.9802 27.967 21.4335C28.8703 21.2489 29.5885 20.5511 29.804 19.6594H30.2336C30.5426 19.6594 30.7932 19.4089 30.7932 19.0998C30.7932 18.7908 30.5426 18.5403 30.2336 18.5403H29.804C29.5885 17.6487 28.8705 16.951 27.9674 16.7662C27.8761 15.442 27.7072 14.1475 27.4637 12.9055C28.2062 12.5017 28.7113 11.7145 28.7113 10.8115C28.7113 10.4324 28.6218 10.074 28.4637 9.75554C28.7872 9.54656 29.1045 9.32601 29.4134 9.0957C29.8058 9.38018 30.2876 9.54857 30.8082 9.54857C31.2111 9.54857 31.5907 9.4477 31.9236 9.27036C33.6225 11.4818 34.7121 14.0758 35.0985 16.829C34.3101 17.0792 33.6986 17.7295 33.5025 18.5403H32.8448C32.5357 18.5403 32.2852 18.7908 32.2852 19.0998C32.2852 19.4089 32.5357 19.6594 32.8448 19.6594H33.5025C33.6985 20.4702 34.3101 21.1205 35.0985 21.3706C34.7121 24.1239 33.6226 26.718 31.9236 28.9293C31.5907 28.752 31.2111 28.6511 30.8082 28.6511ZM21.4472 25.8471C21.2874 24.9078 20.5762 24.1545 19.6592 23.9328V21.4146C20.5238 21.2056 21.2055 20.524 21.4146 19.6593H25.1742C25.3766 20.4966 26.0223 21.1622 26.8481 21.3933C26.7443 22.8793 26.5394 24.3203 26.2371 25.6905C25.5387 25.7173 24.9164 26.0457 24.4975 26.5495C23.508 26.2242 22.4856 25.9885 21.4472 25.8471ZM19.0998 27.5105C18.4034 27.5105 17.837 26.944 17.837 26.2477C17.837 25.5514 18.4035 24.985 19.0998 24.985C19.796 24.985 20.3625 25.5515 20.3625 26.2477C20.3625 26.944 19.796 27.5105 19.0998 27.5105ZM16.7522 25.847C15.7097 25.9887 14.6828 26.2259 13.6885 26.5541C13.273 26.0519 12.6559 25.7227 11.9624 25.6911C11.6601 24.3198 11.4551 22.8785 11.3513 21.3934C12.1771 21.1624 12.8228 20.4967 13.0252 19.6595H16.7848C16.9938 20.524 17.6755 21.2057 18.5401 21.4148V23.933C17.6232 24.1545 16.9121 24.9078 16.7522 25.847ZM9.51515 29.957C9.68242 29.8334 9.85268 29.7131 10.0252 29.5956C10.4625 30.1186 11.1194 30.4521 11.8529 30.4521C12.0083 30.4521 12.1602 30.4367 12.3074 30.4081C13.1451 32.2892 14.1883 33.7945 15.3516 34.8202C13.2501 34.321 11.2665 33.4016 9.51522 32.1089C9.67973 31.7855 9.77314 31.42 9.77314 31.033C9.77314 30.6459 9.67973 30.2804 9.51515 29.957ZM11.8529 26.8074C12.5492 26.8074 13.1156 27.3739 13.1156 28.0703C13.1156 28.7666 12.5491 29.333 11.8529 29.333C11.1566 29.333 10.5901 28.7665 10.5901 28.0703C10.5901 27.3739 11.1566 26.8074 11.8529 26.8074ZM16.8289 11.2331C15.947 11.1089 15.0757 10.9119 14.2283 10.6444C14.1735 9.85827 13.7361 9.17612 13.1009 8.78376C14.1306 6.25281 15.4983 4.42348 17.0181 3.53795C17.3376 4.11094 17.8866 4.5389 18.5401 4.69684V9.63691C17.7293 9.83298 17.0791 10.4445 16.8289 11.2331ZM10.4539 8.88537C10.1347 8.68251 9.82045 8.46876 9.51492 8.24322C9.67966 7.91964 9.77322 7.55391 9.77322 7.16661C9.77322 6.77954 9.67981 6.41411 9.5153 6.09068C11.2652 4.79906 13.2471 3.8801 15.3467 3.38059C14.0538 4.51957 12.9157 6.24833 12.0342 8.43713C11.9743 8.43257 11.914 8.42952 11.8529 8.42952C11.3305 8.42952 10.8471 8.59903 10.4539 8.88537ZM28.6847 8.24337C28.3766 8.47077 28.0591 8.68647 27.7362 8.89089C27.3417 8.60112 26.8553 8.42944 26.3294 8.42944C26.2741 8.42944 26.2193 8.43205 26.1648 8.43578C25.2829 6.24751 24.1448 4.5192 22.8522 3.38037C24.952 3.8798 26.9341 4.79883 28.6842 6.09061C28.5197 6.41404 28.4263 6.77947 28.4263 7.16654C28.4263 7.55398 28.5198 7.91971 28.6847 8.24337ZM28.7519 19.1001C28.7517 19.7962 28.1853 20.3625 27.4891 20.3625C26.7927 20.3625 26.2263 19.796 26.2263 19.0998C26.2263 18.4035 26.7928 17.837 27.4891 17.837C28.1852 17.837 28.7517 18.4033 28.7519 19.0994V19.1001ZM25.1742 18.5402H21.4146C21.2055 17.6756 20.5238 16.9939 19.6592 16.7849V14.2667C20.576 14.045 21.2871 13.2919 21.4471 12.353C22.3618 12.2285 23.2654 12.0296 24.1455 11.7611C24.5131 12.6031 25.3535 13.1933 26.3293 13.1933C26.3463 13.1933 26.363 13.1924 26.3798 13.192C26.6047 14.355 26.7616 15.5665 26.8485 16.806C26.0226 17.037 25.3767 17.7028 25.1742 18.5402ZM26.3294 12.0742C25.6331 12.0742 25.0667 11.5076 25.0667 10.8114C25.0667 10.1151 25.6332 9.54865 26.3294 9.54865C27.0257 9.54865 27.5922 10.1151 27.5922 10.8114C27.5922 11.5076 27.0257 12.0742 26.3294 12.0742ZM21.1813 3.53809C22.6988 4.42265 24.0652 6.2487 25.095 8.77495C24.4509 9.1668 24.0071 9.85566 23.9536 10.6497C23.1124 10.9145 22.247 11.1097 21.3705 11.2331C21.1204 10.4445 20.4701 9.83298 19.6592 9.63691V4.69692C20.3127 4.5389 20.8617 4.11109 21.1813 3.53809ZM19.0998 10.689C19.7961 10.689 20.3625 11.2555 20.3625 11.9519C20.3625 12.6482 19.796 13.2146 19.0998 13.2146C18.4035 13.2146 17.837 12.6481 17.837 11.9519C17.8369 11.2555 18.4034 10.689 19.0998 10.689ZM19.0998 17.837C19.7961 17.837 20.3625 18.4035 20.3625 19.0998C20.3625 19.796 19.796 20.3625 19.0998 20.3625C18.4035 20.3625 17.837 19.796 17.837 19.0998C17.837 18.4035 18.4034 17.837 19.0998 17.837ZM25.0667 28.0702C25.0667 27.3739 25.6332 26.8074 26.3294 26.8074C27.0257 26.8074 27.5922 27.3739 27.5922 28.0702C27.5922 28.7665 27.0257 29.3329 26.3294 29.3329C25.6332 29.3329 25.0667 28.7665 25.0667 28.0702ZM26.3294 30.4521C27.0663 30.4521 27.7261 30.1157 28.1633 29.5884C28.3389 29.7077 28.5128 29.8305 28.6842 29.957C28.5197 30.2805 28.4263 30.6459 28.4263 31.033C28.4263 31.42 28.5197 31.7855 28.6842 32.1089C26.933 33.4015 24.9494 34.3209 22.8482 34.8201C24.0109 33.7949 25.0538 32.2906 25.8912 30.411C26.0334 30.4376 26.1797 30.4521 26.3294 30.4521ZM37.0803 19.0998C37.0803 19.7961 36.5138 20.3625 35.8175 20.3625C35.1218 20.3625 34.5558 19.797 34.5548 19.1015C34.5548 19.1009 34.5549 19.1003 34.5549 19.0998C34.5549 19.0992 34.5548 19.0986 34.5548 19.098C34.5558 18.4025 35.1218 17.837 35.8175 17.837C36.5138 17.837 37.0803 18.4035 37.0803 19.0998ZM30.8082 5.90379C31.5046 5.90379 32.0711 6.47029 32.0711 7.16661C32.0711 7.86294 31.5046 8.42937 30.8082 8.42937C30.1119 8.42937 29.5455 7.86286 29.5455 7.16661C29.5454 6.47029 30.1119 5.90379 30.8082 5.90379ZM19.0998 1.11921C19.7961 1.11921 20.3625 1.68571 20.3625 2.38203C20.3625 3.07836 19.796 3.64478 19.0998 3.64478C18.4035 3.64478 17.837 3.07828 17.837 2.38203C17.8369 1.68571 18.4034 1.11921 19.0998 1.11921ZM7.39119 8.42937C6.69486 8.42937 6.12836 7.86286 6.12836 7.16661C6.12836 6.47029 6.69486 5.90379 7.39119 5.90379C8.08751 5.90379 8.65394 6.47029 8.65394 7.16661C8.65401 7.86286 8.08751 8.42937 7.39119 8.42937ZM11.8529 9.54865C12.5492 9.54865 13.1156 10.1151 13.1156 10.8114C13.1156 11.5076 12.5491 12.0742 11.8529 12.0742C11.1566 12.0742 10.5901 11.5076 10.5901 10.8114C10.5901 10.1151 11.1566 9.54865 11.8529 9.54865ZM11.8529 13.1933C12.8305 13.1933 13.672 12.601 14.0387 11.7567C14.9243 12.0274 15.833 12.2278 16.7523 12.3529C16.9122 13.2919 17.6234 14.045 18.5402 14.2667V16.7849C17.6756 16.9939 16.9939 17.6755 16.7849 18.5402H13.0253C12.8228 17.7027 12.1768 17.0369 11.3507 16.806C11.4372 15.5681 11.5942 14.3567 11.8195 13.1925C11.8306 13.1926 11.8417 13.1933 11.8529 13.1933ZM10.7104 17.837C11.4067 17.837 11.9731 18.4035 11.9731 19.0998C11.9731 19.796 11.4066 20.3625 10.7104 20.3625C10.0141 20.3625 9.44755 19.796 9.44755 19.0998C9.44755 18.4035 10.0141 17.837 10.7104 17.837ZM4.69684 19.6593H8.39542C8.61104 20.551 9.32922 21.2488 10.2325 21.4334C10.3386 22.9766 10.55 24.4761 10.8634 25.9044C10.0427 26.2808 9.47098 27.1097 9.47098 28.0702C9.47098 28.2455 9.4906 28.4163 9.52671 28.581C9.27491 28.7489 9.02736 28.9236 8.7857 29.1037C8.3934 28.8193 7.91173 28.6511 7.39119 28.6511C6.9883 28.6511 6.60869 28.752 6.27571 28.9293C4.57687 26.7179 3.48729 24.1239 3.10081 21.3706C3.88928 21.1204 4.50077 20.4702 4.69684 19.6593ZM1.11913 19.0998C1.11913 18.4034 1.68563 17.837 2.38196 17.837C3.07828 17.837 3.64471 18.4035 3.64471 19.0998C3.64471 19.796 3.07821 20.3625 2.38196 20.3625C1.68563 20.3626 1.11913 19.7961 1.11913 19.0998ZM7.39119 32.2958C6.69486 32.2958 6.12836 31.7293 6.12836 31.033C6.12836 30.3368 6.69486 29.7703 7.39119 29.7703C8.08751 29.7703 8.65394 30.3368 8.65394 31.033C8.65394 31.7293 8.08751 32.2958 7.39119 32.2958ZM18.1865 33.6179C17.6711 33.8318 17.2709 34.2073 17.0192 34.6611C15.6143 33.8397 14.325 32.1955 13.3243 29.9412C13.8781 29.5047 14.2347 28.8286 14.2347 28.0703C14.2347 27.8989 14.2162 27.7319 14.1816 27.5707C15.0428 27.2954 15.9293 27.0927 16.8287 26.9662C17.0788 27.7549 17.7291 28.3666 18.5401 28.5627V33.5025C18.4213 33.5313 18.3031 33.5695 18.1865 33.6179ZM19.6593 33.5036V28.5626C20.4702 28.3665 21.1205 27.7549 21.3706 26.9663C22.265 27.0923 23.1461 27.2934 24.0018 27.5655C23.9666 27.7282 23.9475 27.897 23.9475 28.0701C23.9475 28.8344 24.3098 29.5153 24.8711 29.9514C23.8714 32.1996 22.5841 33.8397 21.1816 34.6601C20.851 34.0645 20.2901 33.6569 19.6593 33.5036ZM30.8082 32.2958C30.1119 32.2958 29.5455 31.7293 29.5455 31.033C29.5455 30.3368 30.112 29.7703 30.8082 29.7703C31.5046 29.7703 32.0711 30.3368 32.0711 31.033C32.0711 31.7293 31.5046 32.2958 30.8082 32.2958Z" fill="#683BF2"/>
</svg>
