<svg width="38" height="35" viewBox="0 0 38 35" fill="none" xmlns="http://www.w3.org/2000/svg">
<path d="M19.3958 28.4375C19.3958 28.8403 19.0694 29.1667 18.6667 29.1667C18.2639 29.1667 17.9375 28.8403 17.9375 28.4375C17.9375 28.0348 18.2639 27.7083 18.6667 27.7083C19.0694 27.7083 19.3958 28.0348 19.3958 28.4375Z" fill="#683BF2"/>
<path d="M34.9271 21.875C34.9271 19.4625 32.9646 17.5 30.5521 17.5C28.1396 17.5 26.1771 19.4625 26.1771 21.875C26.1771 24.2875 28.1396 26.25 30.5521 26.25C32.9646 26.25 34.9271 24.2875 34.9271 21.875ZM30.5521 24.7917C28.9439 24.7917 27.6354 23.4832 27.6354 21.875C27.6354 20.2668 28.9439 18.9583 30.5521 18.9583C32.1602 18.9583 33.4688 20.2668 33.4688 21.875C33.4688 23.4832 32.1602 24.7917 30.5521 24.7917Z" fill="#683BF2"/>
<path d="M30.5521 26.25C28.7146 26.25 26.8823 27.0128 25.6342 28.2495C23.9913 26.0905 21.458 24.7917 18.6667 24.7917C15.9935 24.7917 13.4033 26.0113 11.6994 28.2495C10.451 27.0131 8.61898 26.25 6.78125 26.25C3.10551 26.25 0 29.2552 0 32.8125V34.2708C0 34.6736 0.326416 35 0.729167 35H36.6042C37.0069 35 37.3333 34.6736 37.3333 34.2708V32.8125C37.3333 29.2552 34.2278 26.25 30.5521 26.25ZM1.45833 32.8125C1.45833 30.0457 3.89592 27.7083 6.78125 27.7083C8.36007 27.7083 9.92578 28.4079 10.8951 29.5199C10.2542 30.7577 9.91667 32.1375 9.91667 33.5417H1.45833V32.8125ZM18.6667 26.25C22.7241 26.25 25.9583 29.5421 25.9583 33.5417H11.375C11.375 29.4888 14.6753 26.25 18.6667 26.25ZM35.875 33.5417H27.4167C27.4167 32.1375 27.0791 30.7577 26.4383 29.5199C27.4076 28.4079 28.9733 27.7083 30.5521 27.7083C33.4374 27.7083 35.875 30.0457 35.875 32.8125V33.5417Z" fill="#683BF2"/>
<path d="M11.1563 21.875C11.1563 19.4625 9.19377 17.5 6.78125 17.5C4.36873 17.5 2.40625 19.4625 2.40625 21.875C2.40625 24.2875 4.36873 26.25 6.78125 26.25C9.19377 26.25 11.1563 24.2875 11.1563 21.875ZM6.78125 24.7917C5.1731 24.7917 3.86458 23.4832 3.86458 21.875C3.86458 20.2668 5.1731 18.9583 6.78125 18.9583C8.38941 18.9583 9.69792 20.2668 9.69792 21.875C9.69792 23.4832 8.38941 24.7917 6.78125 24.7917Z" fill="#683BF2"/>
<path d="M24.5 18.9583C24.5 15.7417 21.8833 13.125 18.6667 13.125C15.4501 13.125 12.8333 15.7417 12.8333 18.9583C12.8333 22.1749 15.4501 24.7917 18.6667 24.7917C21.8833 24.7917 24.5 22.1749 24.5 18.9583ZM18.6667 23.3333C16.2542 23.3333 14.2917 21.3709 14.2917 18.9583C14.2917 16.5458 16.2542 14.5833 18.6667 14.5833C21.0792 14.5833 23.0417 16.5458 23.0417 18.9583C23.0417 21.3709 21.0792 23.3333 18.6667 23.3333Z" fill="#683BF2"/>
<path d="M24.4373 4.24085C24.3516 3.97681 24.1235 3.78455 23.8486 3.74467L20.7035 3.28809L19.2953 0.409017C19.1731 0.158651 18.919 0 18.6405 0C18.3619 0 18.1078 0.158651 17.9854 0.408732L16.5774 3.28809L13.4323 3.74439C13.1575 3.78426 12.9293 3.97681 12.8436 4.24085C12.7579 4.50488 12.8293 4.79456 13.0282 4.98824L15.3057 7.20793L14.7682 10.3425C14.7212 10.6159 14.8337 10.8925 15.0584 11.0554C15.2817 11.2178 15.5791 11.2408 15.8263 11.111L18.6405 9.63127L21.4557 11.111C21.7013 11.2403 21.9989 11.2186 22.2236 11.0554C22.4481 10.8922 22.5606 10.6159 22.5136 10.3422L21.9755 7.20793L24.2528 4.98824C24.4516 4.79456 24.5231 4.50488 24.4373 4.24085ZM20.6827 6.43119C20.5109 6.59867 20.4323 6.84021 20.4731 7.07662L20.826 9.13281L18.9797 8.16211C18.7672 8.05046 18.5134 8.05046 18.3009 8.16211L16.4552 9.13281L16.8079 7.07662C16.8483 6.83993 16.7697 6.59867 16.5979 6.43119L15.1043 4.97542L17.1679 4.67578C17.4066 4.64132 17.6125 4.49093 17.7182 4.27446L18.6405 2.38888L19.5625 4.27446C19.6684 4.49121 19.8743 4.64132 20.1128 4.67578L22.1766 4.97542L20.6827 6.43119Z" fill="#683BF2"/>
<path d="M35.3361 9.70589C35.2504 9.44185 35.0222 9.24959 34.7474 9.20972L32.6165 8.90011L31.6638 6.96895C31.541 6.72001 31.2878 6.5625 31.0101 6.5625C30.7327 6.5625 30.4789 6.72001 30.3561 6.96895L29.4028 8.90011L27.2717 9.20972C26.9971 9.24959 26.769 9.44185 26.6832 9.70589C26.5972 9.96993 26.6687 10.2596 26.8675 10.4533L28.4093 11.9569L28.0453 14.0789C27.9986 14.3523 28.1108 14.6286 28.3355 14.7918C28.56 14.955 28.8576 14.9767 29.1031 14.8477L31.0098 13.8459L32.9159 14.8477C33.1614 14.9767 33.4594 14.955 33.6838 14.7918C33.9082 14.6289 34.0205 14.3523 33.9738 14.0789L33.6097 11.9569L35.1518 10.4533C35.3506 10.2596 35.4218 9.96993 35.3361 9.70589ZM32.3175 11.1805C32.1454 11.3479 32.0671 11.5892 32.1078 11.8256L32.2867 12.8692L31.3493 12.3768C31.1368 12.2651 30.8831 12.2651 30.6709 12.3768L29.7326 12.8695L29.9118 11.8256C29.9522 11.5892 29.8739 11.3479 29.7021 11.1805L28.9434 10.4405L29.9918 10.2884C30.2294 10.2539 30.4347 10.1047 30.541 9.88961L31.0098 8.9397L31.4784 9.88932C31.5846 10.1047 31.79 10.2539 32.0275 10.2884L33.076 10.4405L32.3175 11.1805Z" fill="#683BF2"/>
<path d="M10.5444 9.70589C10.4587 9.44185 10.2306 9.24959 9.95569 9.20972L7.82487 8.90011L6.87211 6.96895C6.74935 6.72001 6.49613 6.5625 6.21842 6.5625C5.94071 6.5625 5.68722 6.72001 5.56445 6.96895L4.61112 8.90011L2.48002 9.20972C2.20544 9.24959 1.9773 9.44185 1.89156 9.70589C1.80554 9.96993 1.87703 10.2596 2.07585 10.4533L3.61764 11.9569L3.25391 14.0789C3.20691 14.3523 3.31942 14.6286 3.54386 14.7918C3.76831 14.955 4.06596 14.9767 4.31177 14.8477L6.21814 13.8459L8.12423 14.8477C8.37146 14.9775 8.66882 14.9542 8.89213 14.7918C9.11658 14.6289 9.22909 14.3523 9.18209 14.0789L8.81808 11.9569L10.3601 10.4533C10.559 10.2596 10.6302 9.96993 10.5444 9.70589ZM7.52551 11.1805C7.35376 11.3479 7.27543 11.5892 7.31588 11.8256L7.49504 12.8692L6.55737 12.3768C6.34517 12.2651 6.09139 12.2651 5.87919 12.3768L4.94067 12.8695L5.11983 11.8256C5.16056 11.5892 5.08195 11.3479 4.9102 11.1805L4.15141 10.4405L5.20015 10.2884C5.43742 10.2539 5.64278 10.1047 5.74902 9.88961L6.21786 8.9397L6.6864 9.88932C6.79264 10.1047 6.99801 10.2539 7.23556 10.2884L8.28402 10.4405L7.52551 11.1805Z" fill="#683BF2"/>
<path d="M21.8619 28.6631C21.5252 28.4418 21.0732 28.5355 20.8522 28.8722C20.6309 29.2085 20.7246 29.6606 21.0612 29.8819C21.7354 30.3248 22.2743 30.9423 22.6195 31.6675C22.7922 32.0306 23.2268 32.1859 23.5911 32.0124C23.9548 31.8395 24.1092 31.4043 23.9363 31.0409C23.4766 30.0747 22.7591 29.2524 21.8619 28.6631Z" fill="#683BF2"/>
</svg>
