<svg width="63" height="60" viewBox="0 0 63 60" fill="none" xmlns="http://www.w3.org/2000/svg">
<path d="M12.4773 9.92108H10.5089C9.46267 9.92108 8.6114 10.7687 8.6114 11.8105V22.17H6.57227C6.06784 22.17 5.65889 22.5771 5.65889 23.0795C5.65889 23.5818 6.06784 23.9889 6.57227 23.9889H32.1606C32.665 23.9889 33.074 23.5818 33.074 23.0795C33.074 22.5771 32.665 22.17 32.1606 22.17H30.1215V9.85063C30.1215 8.8088 29.2702 7.96133 28.2238 7.96133H26.2555C25.2092 7.96133 24.358 8.8088 24.358 9.85063V22.17H22.2481V15.4852C22.2481 14.4433 21.3968 13.5959 20.3504 13.5959H18.3821C17.3358 13.5959 16.4846 14.4433 16.4846 15.4852V22.17H14.3747V11.8105C14.3749 10.7687 13.5236 9.92108 12.4773 9.92108ZM10.4381 11.8105C10.4381 11.7716 10.4699 11.7399 10.5089 11.7399H12.4773C12.5164 11.7399 12.5482 11.7716 12.5482 11.8105V22.17H10.4381V11.8105ZM26.1848 9.85063C26.1848 9.81183 26.2166 9.78018 26.2556 9.78018H28.224C28.2631 9.78018 28.2948 9.81183 28.2948 9.85063V22.17H26.1849L26.1848 9.85063ZM18.3115 15.4852C18.3115 15.4464 18.3433 15.4147 18.3823 15.4147H20.3507C20.3898 15.4147 20.4216 15.4464 20.4216 15.4852V22.17H18.3117L18.3115 15.4852Z" fill="#683BF2"/>
<path d="M60.8011 27.5042L59.2371 27.1799C59.058 26.6478 58.841 26.127 58.5881 25.6227L59.4644 24.2911C59.9677 23.5261 59.8616 22.5014 59.2122 21.8549L56.8872 19.54C56.2377 18.8933 55.2085 18.7878 54.4407 19.2891L53.1031 20.1616C52.5967 19.9098 52.0736 19.6937 51.5393 19.5154L51.2134 17.9581C51.0261 17.0627 50.2236 16.413 49.3051 16.413H46.0172C45.0987 16.413 44.2962 17.0627 44.1089 17.9581L43.783 19.5154C43.2486 19.6937 42.7255 19.9098 42.2192 20.1616L40.8817 19.2892C40.2224 18.8589 39.3717 18.8768 38.733 19.2991V3.3588C38.733 1.50685 37.2197 0 35.3596 0H2.88139C1.29261 0 0 1.28702 0 2.86893V5.56082C0 6.06319 0.408948 6.47024 0.913373 6.47024C1.4178 6.47024 1.82675 6.06319 1.82675 5.56082V2.86893C1.82675 2.28993 2.29987 1.81885 2.88139 1.81885H35.3597C36.2124 1.81885 36.9064 2.50964 36.9064 3.3588V21.0622L36.1103 21.8549C35.4608 22.5014 35.3546 23.5261 35.8581 24.2911L36.7343 25.6227C36.4816 26.1269 36.2644 26.6477 36.0853 27.1799L34.5214 27.5042C33.6221 27.6907 32.9695 28.4898 32.9695 29.4044V30.1322H14.8551C14.5942 30.1322 14.3458 30.2433 14.1725 30.4376L7.97801 37.3756V31.0417C7.97801 30.5393 7.56906 30.1322 7.06464 30.1322H2.88139C2.29987 30.1322 1.82675 29.6605 1.82675 29.0809V9.81692C1.82675 9.31456 1.4178 8.9075 0.913373 8.9075C0.408948 8.9075 0 9.31456 0 9.81692V29.0809C0 30.6636 1.29261 31.9511 2.88139 31.9511H6.15126V37.546C6.15126 38.5135 6.94176 39.3005 7.91347 39.3005C8.41899 39.3005 8.90027 39.0842 9.23055 38.7104L15.2651 31.9512H17.7182V43.188C17.7182 43.6904 18.1272 44.0975 18.6316 44.0975C19.136 44.0975 19.545 43.6904 19.545 43.188V31.9512H32.9695V32.6781C32.9695 33.5925 33.622 34.3916 34.5212 34.5783L36.0852 34.9027C36.2643 35.4349 36.4815 35.9557 36.7342 36.4599L35.8579 37.7915C35.3546 38.5564 35.4607 39.5809 36.1101 40.2277L38.435 42.5423C39.0843 43.189 40.1134 43.2947 40.8816 42.7935L42.2192 41.921C42.7256 42.1728 43.2487 42.3888 43.783 42.5672L44.1089 44.1245C44.2962 45.0199 45.0987 45.6695 46.0172 45.6695H49.3051C50.2236 45.6695 51.0261 45.0199 51.2134 44.1245L51.5393 42.5672C52.0737 42.3888 52.5968 42.1728 53.1031 41.921L54.4406 42.7935C54.5002 42.8324 54.5619 42.8663 54.6245 42.898V49.782C54.6245 50.361 54.1513 50.832 53.5698 50.832H49.3866C48.8821 50.832 48.4732 51.2391 48.4732 51.7415V58.0766L42.2775 51.1372C42.1042 50.9431 41.8558 50.832 41.5949 50.832H20.5995C20.018 50.832 19.5448 50.361 19.5448 49.782V47.444C19.5448 46.9416 19.1359 46.5346 18.6315 46.5346C18.127 46.5346 17.7181 46.9416 17.7181 47.444V49.7817C17.7181 51.3636 19.0107 52.6506 20.5995 52.6506H41.1847L47.2197 59.4101C47.5534 59.785 48.0338 60 48.5377 60C49.5094 60 50.2999 59.2129 50.2999 58.2454V52.6508H53.5698C55.1586 52.6508 56.4512 51.3638 56.4512 49.7818V42.8666C56.6084 42.7806 56.7559 42.6731 56.8873 42.5422L59.2123 40.2273C59.8616 39.5807 59.9677 38.5562 59.4644 37.7913L58.5881 36.4596C58.8408 35.9555 59.058 35.4345 59.2371 34.9025L60.8013 34.578C61.7003 34.3914 62.3529 33.5923 62.3529 32.6779V29.4043C62.3529 28.4898 61.7003 27.6907 60.8011 27.5042ZM60.5262 32.678C60.5262 32.7356 60.4852 32.7858 60.4286 32.7974L58.3379 33.2311C58.0052 33.3001 57.7385 33.5473 57.6455 33.8729C57.4286 34.6329 57.121 35.3709 56.7314 36.0665C56.5658 36.3621 56.5788 36.7248 56.765 37.008L57.9365 38.7882C57.9681 38.8363 57.9614 38.9008 57.9206 38.9414L55.5957 41.2563C55.5549 41.297 55.4903 41.3036 55.4419 41.2721L53.654 40.1058C53.3696 39.9203 53.0055 39.9073 52.7086 40.0723C52.0099 40.4603 51.2686 40.7667 50.5054 40.9826C50.1785 41.0751 49.9302 41.3406 49.8609 41.672L49.4253 43.7537C49.4135 43.81 49.3631 43.8508 49.3053 43.8508H46.0174C45.9597 43.8508 45.9092 43.81 45.8975 43.7537L45.4619 41.672C45.3926 41.3407 45.1443 41.0751 44.8174 40.9826C44.0542 40.7667 43.3129 40.4604 42.6142 40.0723C42.4756 39.9954 42.3224 39.9572 42.1693 39.9572C41.9946 39.9572 41.8203 40.007 41.6688 40.1059L39.8809 41.2722C39.8328 41.3037 39.768 41.2972 39.727 41.2563L37.4021 38.9416C37.3613 38.9009 37.3545 38.8365 37.3862 38.7884L38.5576 37.0082C38.7439 36.7251 38.7569 36.3624 38.5914 36.0668C38.2016 35.3711 37.894 34.633 37.6771 33.8729C37.5842 33.5474 37.3175 33.3002 36.9848 33.2312L34.8943 32.7977C34.8376 32.7858 34.7966 32.7356 34.7966 32.6781V29.4046C34.7966 29.347 34.8375 29.2968 34.8941 29.2851L36.9848 28.8515C37.3175 28.7825 37.5842 28.5353 37.6771 28.2098C37.894 27.4497 38.2016 26.7117 38.5914 26.0159C38.7569 25.7203 38.7439 25.3576 38.5576 25.0745L37.3862 23.2943C37.3545 23.2463 37.3612 23.1818 37.402 23.1411L39.7269 20.8263C39.7678 20.7857 39.8326 20.779 39.8808 20.8105L41.6687 21.9768C41.9529 22.162 42.3171 22.1751 42.6141 22.0102C43.3129 21.6222 44.0542 21.3159 44.8173 21.1C45.1441 21.0074 45.3925 20.742 45.4617 20.4106L45.8974 18.3289C45.9092 18.2726 45.9596 18.2318 46.0173 18.2318H49.3052C49.3629 18.2318 49.4135 18.2726 49.4252 18.3289L49.8608 20.4106C49.9301 20.7419 50.1784 21.0074 50.5053 21.1C51.2685 21.3159 52.0098 21.6223 52.7085 22.0102C53.0054 22.175 53.3695 22.162 53.6539 21.9768L55.442 20.8104C55.4902 20.7789 55.555 20.7855 55.5957 20.8262L57.9206 23.1412C57.9614 23.1818 57.9681 23.2462 57.9365 23.2943L56.765 25.0745C56.5787 25.3576 56.5658 25.7203 56.7313 26.0159C57.121 26.7116 57.4286 27.4498 57.6455 28.2097C57.7385 28.5353 58.0052 28.7825 58.3379 28.8515L60.4286 29.2851C60.4852 29.2969 60.5261 29.3471 60.5261 29.4046L60.5262 32.678Z" fill="#683BF2"/>
<path d="M47.661 22.7829C46.3219 22.7829 44.9918 23.1082 43.8144 23.7237C43.3678 23.9572 43.1957 24.5069 43.4303 24.9517C43.6647 25.3963 44.2168 25.5674 44.6636 25.3341C45.5933 24.8481 46.6018 24.6017 47.6611 24.6017C51.2276 24.6017 54.1291 27.4907 54.1291 31.0415C54.1291 34.5925 51.2276 37.4815 47.6611 37.4815C44.0947 37.4815 41.1933 34.5925 41.1933 31.0415C41.1933 29.9477 41.473 28.8685 42.0024 27.9212C42.2476 27.4823 42.089 26.9285 41.6482 26.6844C41.2073 26.4401 40.6512 26.598 40.406 27.0369C39.726 28.2541 39.3665 29.639 39.3665 31.0415C39.3665 35.5956 43.0875 39.3003 47.6611 39.3003C52.2348 39.3003 55.9558 35.5954 55.9558 31.0415C55.9557 26.4877 52.2347 22.7829 47.661 22.7829Z" fill="#683BF2"/>
<path d="M46.6669 33.9306C46.9006 33.9306 47.1344 33.8418 47.3127 33.6643L51.2899 29.7043C51.6466 29.349 51.6466 28.7733 51.2899 28.4181C50.9332 28.0631 50.3549 28.0631 49.9983 28.4181L46.6669 31.7351L45.3241 30.3981C44.9674 30.0431 44.3891 30.0431 44.0325 30.3981C43.6758 30.7534 43.6758 31.3292 44.0325 31.6843L46.0211 33.6643C46.1994 33.8418 46.4332 33.9306 46.6669 33.9306Z" fill="#683BF2"/>
</svg>
