<svg width="65" height="65" viewBox="0 0 65 65" fill="none" xmlns="http://www.w3.org/2000/svg">
<g clip-path="url(#clip0_1188_71)">
<path d="M65 43.9893C65 35.9233 60.3727 28.7246 53.4423 25.223C53.2271 40.6885 40.6885 53.2271 25.223 53.4423C28.7246 60.3727 35.9233 65 43.9893 65C47.7711 65 51.4488 63.9928 54.6801 62.0791L64.9083 64.9083L62.0791 54.6801C63.9928 51.4488 65 47.7711 65 43.9893Z" fill="#231747"/>
<path d="M49.6387 24.8193C49.6387 11.1337 38.505 0 24.8193 0C11.1337 0 0 11.1337 0 24.8193C0 29.2796 1.18721 33.6222 3.44162 37.4348L0.0912476 49.5469L12.2039 46.1971C16.0164 48.4515 20.3591 49.6387 24.8193 49.6387C38.505 49.6387 49.6387 38.505 49.6387 24.8193ZM21.0107 19.043H17.2022C17.2022 14.8426 20.619 11.4258 24.8193 11.4258C29.0197 11.4258 32.4365 14.8426 32.4365 19.043C32.4365 21.1749 31.534 23.224 29.9595 24.6641L26.7236 27.6257V30.5957H22.915V25.9485L27.3882 21.8543C28.1876 21.1228 28.6279 20.1246 28.6279 19.043C28.6279 16.9428 26.9195 15.2344 24.8193 15.2344C22.7192 15.2344 21.0107 16.9428 21.0107 19.043ZM22.915 34.4043H26.7236V38.2129H22.915V34.4043Z" fill="#683BF2"/>
</g>
<defs>
<clipPath id="clip0_1188_71">
<rect width="65" height="65" fill="white"/>
</clipPath>
</defs>
</svg>
