<svg width="58" height="58" viewBox="0 0 58 58" fill="none" xmlns="http://www.w3.org/2000/svg">
<path d="M56.8672 0H38.8702C38.412 0 37.9989 0.276066 37.8236 0.699285C37.6483 1.12262 37.7453 1.60984 38.0692 1.93382L42.3082 6.17281L28.0408 20.4401L14.8642 7.26348C14.4217 6.82123 13.7047 6.82123 13.2621 7.26348L0.334746 20.1908C-0.107617 20.6332 -0.107617 21.3505 0.334746 21.7929C0.555984 22.0141 0.845871 22.1247 1.13576 22.1247C1.42564 22.1247 1.71553 22.0141 1.93677 21.7929L14.0632 9.66663L29.8443 25.4477C30.0655 25.6689 30.3554 25.7795 30.6453 25.7795C30.9352 25.7795 31.2251 25.6689 31.4463 25.4477C31.8887 25.0054 31.8887 24.2881 31.4463 23.8456L29.643 22.0423L43.9102 7.77495L50.2357 14.1005L38.7384 25.5978C38.2961 26.0402 38.2961 26.7575 38.7384 27.2C38.9597 27.4211 39.2496 27.5318 39.5395 27.5318C39.8293 27.5318 40.1192 27.4211 40.3405 27.2L51.8377 15.7026L56.0661 19.9309C56.2828 20.1476 56.5725 20.2627 56.8673 20.2627C57.0132 20.2627 57.1605 20.2345 57.3006 20.1765C57.7238 20.0012 57.9999 19.5881 57.9999 19.1299V1.13281C58 0.507273 57.4927 0 56.8672 0ZM55.7344 16.395L41.605 2.26562H55.7344V16.395Z" fill="#683BF2"/>
<path d="M37.5368 28.4019C37.3262 28.19 37.0339 28.07 36.736 28.07C36.438 28.07 36.1458 28.19 35.9351 28.4019C35.7232 28.6126 35.6032 28.9048 35.6032 29.2028C35.6032 29.5007 35.7232 29.793 35.9351 30.0036C36.1458 30.2143 36.438 30.3356 36.736 30.3356C37.0339 30.3356 37.3262 30.2144 37.5368 30.0036C37.7475 29.793 37.8688 29.5007 37.8688 29.2028C37.8688 28.9048 37.7476 28.6126 37.5368 28.4019Z" fill="#683BF2"/>
<path d="M21.8052 30.0597L15.6651 23.9198L17.4933 22.0915C17.9358 21.6492 17.9358 20.9319 17.4935 20.4895C17.051 20.0473 16.3339 20.0473 15.8913 20.4895L0.334293 36.0465C-0.10807 36.4889 -0.10807 37.2062 0.334293 37.6487C0.555531 37.8698 0.845418 37.9805 1.1353 37.9805C1.42519 37.9805 1.71508 37.8698 1.93632 37.6487L14.0631 25.5219L20.2031 31.6619C20.4244 31.883 20.7143 31.9937 21.0042 31.9937C21.294 31.9937 21.5839 31.883 21.8052 31.6619C22.2475 31.2195 22.2475 30.5022 21.8052 30.0597Z" fill="#683BF2"/>
<path d="M29.0529 41.5631L29 41.563C28.3745 41.563 27.8672 42.0703 27.8672 42.6958C27.8672 43.3214 28.3745 43.8286 29 43.8286L29.0361 43.8287C29.039 43.8287 29.0419 43.8287 29.0447 43.8287C29.6663 43.8287 30.1727 43.327 30.1773 42.7043C30.182 42.0788 29.6786 41.5678 29.0529 41.5631Z" fill="#683BF2"/>
<path d="M56.8672 55.7344H54.8802V50.6579C54.8802 50.1377 54.526 49.6844 54.0212 49.5587L48.756 48.2469L46.8685 43.6926L49.6636 39.0427C49.9317 38.5968 49.8616 38.0258 49.4938 37.658L45.1037 33.2679C44.7358 32.9 44.1647 32.8302 43.719 33.0981L39.069 35.8932L34.5148 34.0058L33.203 28.7406C33.0773 28.2358 32.624 27.8816 32.1038 27.8816H25.8961C25.3759 27.8816 24.9226 28.2358 24.7969 28.7406L23.4851 34.0058L18.9309 35.8932L14.2809 33.0981C13.835 32.8299 13.2641 32.9 12.8962 33.2679L8.50618 37.6581C8.13835 38.0259 8.06834 38.597 8.33637 39.0428L11.1315 43.6926L9.24409 48.2469L3.97889 49.5587C3.47411 49.6844 3.11988 50.1377 3.11988 50.6579V55.7344H1.13281C0.507273 55.7344 0 56.2416 0 56.8672C0 57.4927 0.507273 58 1.13281 58H56.8672C57.4927 58 58 57.4927 58 56.8672C58 56.2416 57.4927 55.7344 56.8672 55.7344ZM52.6144 55.7344H41.037C41.6662 51.8863 40.4225 47.933 37.6255 45.1359C36.399 43.9094 34.9612 42.9765 33.3525 42.3631C32.768 42.1402 32.1134 42.4333 31.8905 43.018C31.6675 43.6025 31.9608 44.2571 32.5454 44.48C33.8539 44.9789 35.0242 45.7386 36.0234 46.7379C38.3895 49.1041 39.3906 52.4868 38.7344 55.7343H19.2647C18.6086 52.4867 19.6097 49.104 21.9759 46.7379C22.985 45.7288 24.1679 44.9644 25.4916 44.4657C26.0771 44.2453 26.3729 43.5918 26.1525 43.0063C25.9319 42.4209 25.2785 42.1252 24.693 42.3454C23.0656 42.9584 21.6124 43.8972 20.3737 45.1358C17.5768 47.9328 16.333 51.886 16.9622 55.7343H5.38539V51.5432L10.3458 50.3074C10.6943 50.2205 10.9809 49.9737 11.1184 49.6419L13.4431 44.0322C13.5806 43.7003 13.5526 43.3228 13.3674 43.0149L10.7341 38.6342L13.8723 35.496L18.2531 38.1293C18.561 38.3145 18.9388 38.3426 19.2704 38.205L24.88 35.8804C25.2118 35.7428 25.4587 35.4562 25.5455 35.1077L26.7813 30.1473H31.2185L32.4543 35.1077C32.5411 35.4562 32.788 35.7428 33.1198 35.8804L38.7294 38.205C39.0612 38.3426 39.4389 38.3147 39.7467 38.1293L44.1275 35.496L47.2657 38.6342L44.6324 43.0149C44.4471 43.3229 44.4192 43.7004 44.5567 44.0322L46.8813 49.6419C47.0189 49.9737 47.3055 50.2205 47.654 50.3074L52.6144 51.5432V55.7344Z" fill="#683BF2"/>
</svg>
