<svg width="60" height="60" viewBox="0 0 60 60" fill="none" xmlns="http://www.w3.org/2000/svg">
<path d="M29.4679 7.62423C30.1127 7.62423 30.6353 7.09583 30.6353 6.44404V1.1802C30.6353 0.5284 30.1127 0 29.4679 0C28.8232 0 28.3005 0.5284 28.3005 1.1802V6.44404C28.3006 7.09583 28.8233 7.62423 29.4679 7.62423Z" fill="#683BF2"/>
<path d="M58.0038 40.5452L55.9415 38.4662C55.2079 37.7254 54.2301 37.3174 53.1883 37.3174C52.5221 37.3174 51.8826 37.485 51.3158 37.7989L47.4296 33.8748L47.6189 33.6836C49.1955 32.0866 49.1949 29.4915 47.6187 27.8998C47.0555 27.3294 46.3527 26.949 45.5866 26.7889C45.6921 26.4208 45.7476 26.0352 45.7476 25.6407C45.7476 24.5444 45.3263 23.5164 44.5638 22.7487C44.0005 22.1782 43.2978 21.7979 42.5317 21.6378C42.6371 21.2697 42.6927 20.8843 42.6927 20.4896C42.6927 19.3932 42.2714 18.3653 41.5076 17.5964C40.9308 17.014 40.2218 16.6453 39.4772 16.4884C39.8755 15.1001 39.5352 13.5381 38.4548 12.444C37.5555 11.5388 36.3353 11.1497 35.1593 11.2758L27.4582 9.80217C26.2838 9.57693 24.817 9.42799 23.8912 10.2817C23.8328 10.3356 23.7732 10.3976 23.7145 10.4666C22.279 9.93764 20.6047 10.2526 19.4551 11.4135C18.6925 12.1835 18.2724 13.211 18.2724 14.3067C18.2724 14.7014 18.3277 15.0869 18.4331 15.4551C17.6678 15.615 16.9659 15.995 16.4045 16.5635C15.6404 17.3329 15.219 18.3592 15.2182 19.4536C15.2179 19.8493 15.2734 20.236 15.3793 20.6051C14.6137 20.7647 13.9113 21.1439 13.3482 21.7125C12.5841 22.4842 12.1633 23.5123 12.1633 24.6074C12.1633 25.4463 12.411 26.2454 12.8701 26.9204C12.2905 27.119 11.7596 27.4496 11.315 27.8985C9.73736 29.4915 9.73678 32.0867 11.3161 33.6861L11.5047 33.8759L7.61791 37.7981C6.17346 37.1105 4.39376 37.3681 3.20178 38.5716L1.1382 40.652C0.404207 41.3931 0.000115918 42.3816 0 43.4355C0 44.4895 0.404207 45.4782 1.1382 46.2194L3.71356 48.8198C4.16969 49.2805 4.9089 49.28 5.36446 48.8189C5.82014 48.3578 5.81967 47.6104 5.36354 47.1499L2.78818 44.5495C2.49584 44.2543 2.33482 43.8587 2.33482 43.4356C2.33482 43.0127 2.49584 42.6172 2.78749 42.3227L4.85118 40.2423C5.36678 39.7216 6.15595 39.644 6.75525 40.0062C6.79744 40.0704 6.84624 40.1313 6.90212 40.1879C7.00215 40.2893 7.11633 40.367 7.23759 40.4238L19.072 52.3703C19.1282 52.4941 19.2054 52.6107 19.3062 52.7127C19.4042 52.8119 19.5161 52.8887 19.6348 52.9452C19.8851 53.2312 20.0234 53.5966 20.0234 53.9864C20.0234 54.4094 19.8624 54.805 19.57 55.1001L17.5084 57.1819C16.8993 57.795 15.9084 57.7949 15.3011 57.1837L12.7257 54.5799C12.2698 54.119 11.5307 54.119 11.0748 54.5799C10.6189 55.0408 10.6189 55.788 11.0748 56.2489L13.652 58.8546C14.4106 59.6183 15.4068 60 16.4035 60C17.4004 60 18.3977 59.6177 19.1572 58.8533L21.2201 56.7703C21.9541 56.0291 22.3583 55.0405 22.3583 53.9864C22.3583 53.2342 22.1514 52.5158 21.7667 51.8964L26.1409 47.4795C26.1456 47.4747 26.1502 47.4699 26.155 47.4651C26.6559 46.9417 28.0507 47.0396 29.3996 47.1343C30.3581 47.2017 31.4266 47.2766 32.4705 47.1549L37.2607 51.9919C36.9504 52.5639 36.7848 53.2096 36.7848 53.882C36.7848 54.9349 37.189 55.9229 37.923 56.6641L39.986 58.7472C40.7195 59.4879 41.6973 59.8959 42.7392 59.8959C43.7809 59.8959 44.7587 59.488 45.4923 58.7472L58.0047 46.1131C58.7386 45.372 59.1429 44.3834 59.1429 43.3295C59.1427 42.2756 58.7385 41.287 58.0038 40.5452ZM27.0235 12.1213L32.0877 13.0903L29.0565 16.1535C28.5876 15.9257 27.945 15.5008 27.24 14.819C26.2749 13.8857 25.5847 12.8082 25.5218 12.1361C25.5217 12.1357 25.5217 12.1354 25.5217 12.135C25.5217 12.1349 25.5217 12.1351 25.5217 12.135C25.5172 12.0867 25.5159 12.0478 25.5165 12.0184C25.6692 11.9809 26.0746 11.9393 27.0235 12.1213ZM21.105 13.0835C21.6964 12.4862 22.6152 12.4173 23.2834 12.8748C23.6622 14.4801 25.0167 15.935 25.626 16.5244C26.0777 16.9613 27.5267 18.2711 28.9894 18.6311C29.1873 18.9179 29.295 19.2597 29.295 19.6204C29.295 20.085 29.1182 20.5195 28.7961 20.8448C28.4748 21.1701 28.0444 21.3491 27.584 21.3491C27.1235 21.3491 26.6931 21.1701 26.3703 20.8432L21.1049 15.5297C20.7839 15.2057 20.6071 14.7713 20.6071 14.3067C20.6072 13.8421 20.784 13.4077 21.105 13.0835ZM18.0545 18.2336C18.3757 17.9084 18.8056 17.7292 19.2654 17.7292C19.7257 17.7292 20.157 17.9087 20.4803 18.2352L24.7197 22.5125C25.3872 23.1884 25.3872 24.2883 24.722 24.9619C24.399 25.2871 23.9671 25.4662 23.5059 25.4662C23.0447 25.4662 22.6127 25.2871 22.2912 24.9633L19.0749 21.7125C19.0699 21.7075 19.0645 21.7028 19.0594 21.6977L18.0532 20.6809C17.7304 20.3549 17.5527 19.9197 17.553 19.4554C17.5535 18.9926 17.7306 18.5596 18.0545 18.2336ZM14.9982 23.3826C15.3196 23.0581 15.7505 22.8794 16.2116 22.8794C16.6689 22.8794 17.0961 23.0555 17.4161 23.3744L20.6421 26.6342C20.9638 26.9581 21.141 27.392 21.141 27.8561C21.141 28.3201 20.9638 28.754 20.6409 29.0792C20.3195 29.4036 19.8891 29.5823 19.4288 29.5823C18.9678 29.5823 18.536 29.4031 18.2142 29.0792L17.0447 27.8983C17.0445 27.8979 17.0441 27.8977 17.0439 27.8975L14.9983 25.8319C14.6758 25.5063 14.4982 25.0713 14.4982 24.6072C14.4982 24.1433 14.6758 23.7081 14.9982 23.3826ZM12.965 29.5685C13.2878 29.2424 13.7193 29.0629 14.1798 29.0629C14.6402 29.0629 15.0716 29.2423 15.3943 29.5681L16.5654 30.7506C16.8872 31.0746 17.0643 31.5085 17.0643 31.9726C17.0643 32.4366 16.8871 32.8705 16.563 33.1969C16.2418 33.5221 15.8114 33.7013 15.3509 33.7013C14.8904 33.7013 14.46 33.5223 14.1365 33.1946L13.9898 33.0469C13.9879 33.0449 13.9863 33.0428 13.9845 33.041C13.9823 33.0389 13.98 33.037 13.9778 33.0349L12.9661 32.0162C12.2986 31.3399 12.298 30.2419 12.965 29.5685ZM36.7553 42.9815C36.2997 42.5203 35.5605 42.5199 35.1044 42.9805L34.0658 44.0292C33.0789 45.0269 31.2906 44.9013 29.5612 44.78C27.6832 44.6481 25.7413 44.5119 24.4846 45.8162L20.1846 50.158L9.43169 39.3032L13.237 35.4631C13.866 35.8529 14.5918 36.0618 15.3512 36.0618C16.436 36.0618 17.4533 35.6367 18.2132 34.8671C18.9781 34.0969 19.3995 33.0691 19.3995 31.9727C19.3995 31.9625 19.3988 31.9524 19.3988 31.9422C19.4089 31.9423 19.419 31.9429 19.4291 31.9429C20.5124 31.9429 21.5289 31.519 22.2898 30.7508C23.0547 29.9806 23.4761 28.9526 23.4761 27.8563C23.4761 27.8461 23.4754 27.8361 23.4754 27.8259C23.4856 27.8259 23.4958 27.8266 23.5061 27.8266C24.5891 27.8266 25.6062 27.4032 26.3722 26.632C27.1674 25.8268 27.5607 24.7667 27.5532 23.7088C27.5636 23.709 27.574 23.7095 27.5845 23.7095C28.6694 23.7094 29.6865 23.2844 30.4475 22.5136C31.2102 21.7436 31.6302 20.7161 31.6302 19.6204C31.6302 18.8541 31.4241 18.1216 31.0399 17.487L34.3752 14.1166C34.6237 13.8664 34.9302 13.7093 35.2514 13.6445C35.2862 13.6408 35.3205 13.6351 35.3545 13.6283C35.8698 13.5565 36.4111 13.7173 36.8052 14.1141C37.4728 14.7901 37.4728 15.8901 36.8076 16.5637L35.7918 17.5864C35.7885 17.5898 35.7849 17.5928 35.7815 17.5962L34.6116 18.777C34.1553 19.2375 34.1548 19.9848 34.6105 20.446C35.0663 20.9072 35.8054 20.9076 36.2614 20.447L37.2813 19.4174C37.2815 19.4172 37.2817 19.417 37.282 19.4167L37.4361 19.2614C38.1056 18.5909 39.1901 18.5923 39.8588 19.2674C40.1806 19.5913 40.3578 20.0253 40.3578 20.4893C40.3578 20.9533 40.1806 21.3872 39.8563 21.7137L38.8347 22.7486C38.8346 22.7487 38.8344 22.7488 38.8343 22.7491L37.6645 23.9269C37.2077 24.3869 37.2061 25.1342 37.6611 25.5959C38.1161 26.0577 38.8552 26.0592 39.312 25.5993L40.4872 24.4161C40.8084 24.0908 41.2388 23.9117 41.6993 23.9117C42.1598 23.9117 42.5903 24.0907 42.9138 24.4184C43.2356 24.7424 43.4128 25.1764 43.4128 25.6404C43.4128 26.1044 43.2356 26.5383 42.912 26.8641L40.8753 28.9239C40.4195 29.3849 40.4196 30.1321 40.8755 30.5929C41.1035 30.8233 41.4022 30.9384 41.7009 30.9384C41.9997 30.9384 42.2986 30.8231 42.5264 30.5926L43.5246 29.5831C43.5303 29.5776 43.5364 29.5728 43.5421 29.567C43.8633 29.2417 44.2937 29.0627 44.7542 29.0627C45.2147 29.0627 45.6451 29.2417 45.9675 29.5682C46.6344 30.2417 46.6338 31.3398 45.9675 32.0145L44.9526 33.0393C44.9523 33.0397 44.9518 33.04 44.9515 33.0404C44.9511 33.0407 44.9508 33.0412 44.9504 33.0415L43.3396 34.668C42.8835 35.1287 42.883 35.876 43.3386 36.3371C43.5666 36.5678 43.8657 36.6833 44.1646 36.6833C44.4631 36.6833 44.7617 36.5682 44.9896 36.3382L45.7775 35.5426L49.5538 39.3557L38.8018 50.2122L34.9493 46.3223C35.2179 46.1477 35.4749 45.9424 35.7161 45.6985L36.7542 44.6504C37.2106 44.19 37.211 43.4427 36.7553 42.9815ZM56.3546 44.4431L43.8422 57.0771C43.5495 57.3727 43.1577 57.5354 42.739 57.5354C42.3203 57.5354 41.9285 57.3727 41.6357 57.077L39.5727 54.994C39.2804 54.6989 39.1194 54.304 39.1194 53.882C39.1194 53.4601 39.2804 53.0652 39.5727 52.77L52.0851 40.136C52.3779 39.8403 52.7696 39.6775 53.1884 39.6775C53.6071 39.6775 53.9989 39.8403 54.2924 40.1367L56.3547 42.2157C56.647 42.5109 56.808 42.9063 56.808 43.3293C56.8079 43.7525 56.6469 44.148 56.3546 44.4431Z" fill="#683BF2"/>
<path d="M13.9663 6.62931C14.1942 6.85923 14.4926 6.97408 14.7909 6.97408C15.09 6.97408 15.3892 6.85853 15.6172 6.62755C16.0726 6.16618 16.0719 5.41899 15.6156 4.95856L11.3616 0.666564C10.9054 0.206133 10.1661 0.206719 9.7107 0.668204C9.25526 1.12957 9.25595 1.87676 9.71232 2.33719L13.9663 6.62931Z" fill="#683BF2"/>
<path d="M44.1449 6.97408C44.4434 6.97408 44.742 6.859 44.9699 6.62896L49.2206 2.33684C49.6767 1.87629 49.6772 1.12899 49.2215 0.667853C48.766 0.206719 48.0269 0.20625 47.5706 0.666915L43.3199 4.95903C42.8638 5.41958 42.8633 6.16689 43.319 6.62802C43.547 6.85876 43.8459 6.97408 44.1449 6.97408Z" fill="#683BF2"/>
<path d="M7.17823 50.7662C6.72627 51.231 6.73253 51.9783 7.19238 52.4352L7.19574 52.4385C7.42259 52.6639 7.71714 52.7762 8.01157 52.7762C8.31377 52.7762 8.61597 52.658 8.84491 52.4225C9.29687 51.9578 9.28887 51.2088 8.82914 50.7519C8.36953 50.295 7.63043 50.3014 7.17823 50.7662Z" fill="#683BF2"/>
<path d="M39.6106 41.2814C39.7882 41.2814 39.9684 41.2405 40.1375 41.1543C40.7131 40.8608 40.9444 40.1511 40.6541 39.5691C40.3638 38.9872 39.6616 38.7533 39.0861 39.0468L39.0796 39.0501C38.504 39.3437 38.276 40.0517 38.5662 40.6337C38.7712 41.0448 39.1834 41.2814 39.6106 41.2814Z" fill="#683BF2"/>
</svg>
