<svg width="40" height="40" viewBox="0 0 40 40" fill="none" xmlns="http://www.w3.org/2000/svg">
<path d="M29.2372 20.8393L33.6843 16.3922L33.6849 16.3916L33.6855 16.391L37.1498 12.9267L37.15 12.9265L39.0527 11.0237C39.6636 10.413 40 9.60078 40 8.73695C40 7.87312 39.6635 7.06093 39.0527 6.45023L33.5499 0.947337C32.9391 0.336555 32.127 7.09827e-05 31.2631 7.09827e-05C30.3992 7.09827e-05 29.5871 0.336477 28.9763 0.947337L19.1607 10.7628L12.4983 4.10031C11.383 2.98499 9.98516 2.19109 8.45586 1.80445L1.45914 0.0357741C1.05914 -0.0653978 0.635078 0.0513991 0.343281 0.343352C0.0514063 0.635149 -0.0653906 1.05898 0.0357813 1.45913L1.80453 8.45585C2.19109 9.98507 2.985 11.383 4.10031 12.4983L10.7628 19.1607L0.947188 28.9762C0.336406 29.5871 0 30.3992 0 31.263C0 32.127 0.336406 32.939 0.947266 33.5498L6.45016 39.0527C7.06102 39.6636 7.87313 40 8.73703 40C9.60086 40 10.413 39.6636 11.0238 39.0527L16.3891 33.6874C16.39 33.6866 16.3908 33.6858 16.3916 33.685C16.3925 33.6842 16.3933 33.6834 16.3941 33.6825L20.8393 29.2373L29.8627 38.2608C31.0204 39.4184 32.541 39.9973 34.0617 39.9973C35.5824 39.9973 37.1031 39.4185 38.2607 38.2608C40.5761 35.9455 40.5761 32.1781 38.2607 29.8628L29.2372 20.8393ZM4.07672 7.88148L2.78953 2.7896L7.88141 4.07687C9.00102 4.35984 10.0244 4.94109 10.8409 5.75765L11.7648 6.68156L6.68141 11.765L5.7575 10.8411C4.94094 10.0244 4.35977 9.00109 4.07672 7.88148ZM8.33867 13.4222L13.4221 8.33874L17.5034 12.4201L12.42 17.5035L8.33867 13.4222ZM8.73703 37.6562C8.49922 37.6562 8.2757 37.5636 8.1075 37.3955L2.60453 31.8926C2.43641 31.7245 2.34383 31.5009 2.34383 31.263C2.34383 31.0252 2.43641 30.8016 2.60453 30.6334L30.6335 2.60452C30.8016 2.4364 31.0253 2.34374 31.2631 2.34374C31.5009 2.34374 31.7245 2.4364 31.8927 2.60452L37.3956 8.10749C37.5637 8.27554 37.6563 8.49914 37.6563 8.73695C37.6563 8.97476 37.5637 9.19835 37.3956 9.36656L36.3213 10.4409L32.7465 6.86601C32.289 6.40835 31.547 6.40835 31.0892 6.86601C30.6316 7.32359 30.6316 8.06562 31.0892 8.52328L34.664 12.0981L32.8563 13.9058L31.014 12.0635C30.5564 11.6058 29.8144 11.6059 29.3567 12.0635C28.8991 12.5212 28.8991 13.2631 29.3567 13.7208L31.1991 15.563L29.3914 17.3707L25.8166 13.7959C25.359 13.3382 24.617 13.3382 24.1594 13.7959C23.7017 14.2534 23.7017 14.9955 24.1594 15.4531L27.7341 19.0279L25.9265 20.8355L24.0841 18.9933C23.6266 18.5357 22.8845 18.5357 22.4269 18.9933C21.9692 19.4509 21.9692 20.1929 22.4269 20.6505L24.2691 22.4928L22.4928 24.2691L18.9181 20.6944C18.4604 20.2367 17.7184 20.2367 17.2608 20.6944C16.8031 21.152 16.8031 21.894 17.2608 22.3516L20.8356 25.9264L19.0279 27.7341L17.1856 25.8918C16.7281 25.4342 15.986 25.4342 15.5284 25.8918C15.0707 26.3494 15.0707 27.0914 15.5284 27.5491L17.3706 29.3913L15.563 31.199L11.9883 27.6243C11.5307 27.1667 10.7887 27.1667 10.331 27.6243C9.87336 28.0819 9.87336 28.8239 10.331 29.2816L13.9057 32.8563L12.098 34.6639L10.2558 32.8216C9.79821 32.3641 9.05617 32.3641 8.59852 32.8216C8.14086 33.2792 8.14086 34.0212 8.59852 34.4789L10.4408 36.3212L9.36649 37.3955C9.19836 37.5637 8.97477 37.6562 8.73703 37.6562ZM23.3167 26.7598C23.3184 26.7583 23.3199 26.7567 23.3216 26.7551C23.3232 26.7534 23.3248 26.7519 23.3263 26.7502L26.7538 23.3227C26.7543 23.3223 26.7552 23.3214 26.7552 23.3214C26.7552 23.3214 26.756 23.3205 26.7565 23.3201L27.58 22.4966L32.5458 27.4623L27.4623 32.5458L22.4966 27.58L23.3167 26.7598ZM36.6034 36.6034C35.202 38.0049 32.9215 38.0049 31.52 36.6034L29.1196 34.203L34.2031 29.1195L36.6035 31.5199C38.005 32.9216 38.005 35.202 36.6034 36.6034Z" fill="white"/>
</svg>
