<svg width="40" height="40" viewBox="0 0 40 40" fill="none" xmlns="http://www.w3.org/2000/svg">
<path d="M38.4374 9.27092C39.3005 9.27092 39.9999 8.57146 39.9999 7.70842V1.5625C39.9999 0.711974 39.3081 0 38.4374 0H32.2915C31.4288 0 30.729 0.699462 30.729 1.5625C30.729 2.42553 31.4288 3.12499 32.2915 3.12499H34.6652L30.7034 7.08678C27.5759 2.72766 22.557 0 16.9272 0C7.5717 0 0 7.57079 0 16.9272C0 26.282 7.57079 33.8543 16.9272 33.8543C20.9237 33.8543 24.7079 32.4777 27.7407 29.9505L37.3327 39.5425C37.9427 40.1525 38.9321 40.1525 39.5422 39.5425C40.1525 38.9321 40.1525 37.9427 39.5422 37.3327L29.9505 27.7407C34.2635 22.565 34.9249 15.5536 32.3272 9.88249L36.8749 5.33477V7.70812C36.8749 8.57115 37.5744 9.27092 38.4374 9.27092ZM16.9272 3.12499C21.7367 3.12499 25.979 5.59844 28.4506 9.33958L20 17.7902L14.9591 12.7493C14.3487 12.1393 13.3597 12.1393 12.7493 12.7493L3.92913 21.5695C0.721739 12.6159 7.39195 3.12499 16.9272 3.12499ZM16.9272 30.729C12.1173 30.729 7.87535 28.2556 5.40374 24.5144L13.8543 16.0638L18.8952 21.1047C19.5053 21.715 20.4947 21.715 21.1047 21.1047L29.9249 12.2845C33.1326 21.2381 26.4624 30.729 16.9272 30.729Z" fill="white"/>
</svg>
