<svg width="50" height="50" viewBox="0 0 50 50" fill="none" xmlns="http://www.w3.org/2000/svg">
<path d="M24.8255 6.35353C25.3687 6.35353 25.809 5.9132 25.809 5.37003V0.983498C25.809 0.440333 25.3687 0 24.8255 0C24.2824 0 23.842 0.440333 23.842 0.983498V5.37003C23.8421 5.9132 24.2825 6.35353 24.8255 6.35353Z" fill="white"/>
<path d="M48.8659 33.7877L47.1285 32.0551C46.5104 31.4379 45.6867 31.0978 44.809 31.0978C44.2477 31.0978 43.709 31.2375 43.2315 31.4991L39.9575 28.229L40.117 28.0697C41.4452 26.7388 41.4447 24.5762 40.1169 23.2499C39.6424 22.7745 39.0503 22.4575 38.4049 22.3241C38.4937 22.0173 38.5405 21.696 38.5405 21.3672C38.5405 20.4537 38.1856 19.597 37.5432 18.9573C37.0686 18.4819 36.4766 18.1649 35.8312 18.0315C35.9201 17.7247 35.9669 17.4035 35.9669 17.0746C35.9669 16.161 35.612 15.3044 34.9685 14.6637C34.4826 14.1783 33.8852 13.8711 33.258 13.7404C33.5935 12.5834 33.3068 11.2818 32.3966 10.37C31.639 9.61564 30.611 9.29142 29.6203 9.3965L23.1325 8.16847C22.143 7.98078 20.9074 7.85666 20.1274 8.56808C20.0782 8.61301 20.028 8.66467 19.9786 8.72219C18.7692 8.28136 17.3586 8.54386 16.3902 9.51125C15.7477 10.1529 15.3938 11.0092 15.3938 11.9223C15.3938 12.2512 15.4404 12.5724 15.5291 12.8792C14.8844 13.0125 14.2931 13.3291 13.8201 13.803C13.1764 14.4441 12.8214 15.2993 12.8207 16.2114C12.8204 16.541 12.8672 16.8633 12.9565 17.1709C12.3115 17.3039 11.7197 17.62 11.2453 18.0938C10.6016 18.7369 10.2471 19.5936 10.2471 20.5062C10.2471 21.2052 10.4558 21.8711 10.8425 22.4336C10.3542 22.5992 9.90695 22.8747 9.53244 23.2488C8.20334 24.5762 8.20285 26.7389 9.53332 28.0717L9.69221 28.2299L6.41779 31.4984C5.20089 30.9255 3.70157 31.1401 2.69737 32.143L0.958889 33.8766C0.340528 34.4942 9.76564e-05 35.318 0 36.1963C0 37.0746 0.340528 37.8985 0.958889 38.5162L3.12852 40.6832C3.5128 41.0671 4.13556 41.0667 4.51934 40.6824C4.90323 40.2981 4.90284 39.6754 4.51856 39.2916L2.34893 37.1246C2.10264 36.8786 1.967 36.5489 1.967 36.1964C1.967 35.8439 2.10264 35.5143 2.34834 35.2689L4.08692 33.5352C4.5213 33.1013 5.18614 33.0367 5.69103 33.3385C5.72657 33.392 5.76769 33.4427 5.81476 33.4899C5.89903 33.5744 5.99523 33.6391 6.09738 33.6865L16.0674 43.6419C16.1148 43.7451 16.1798 43.8423 16.2647 43.9272C16.3473 44.0099 16.4415 44.0739 16.5415 44.121C16.7524 44.3594 16.8689 44.6639 16.8689 44.9887C16.8689 45.3412 16.7332 45.6708 16.4869 45.9168L14.7501 47.6516C14.2369 48.1625 13.4022 48.1624 12.8906 47.6531L10.7209 45.4833C10.3368 45.0992 9.71418 45.0992 9.3301 45.4833C8.94601 45.8674 8.94601 46.49 9.3301 46.8741L11.5013 49.0455C12.1404 49.6819 12.9796 50 13.8193 50C14.6591 50 15.4993 49.6814 16.1392 49.0444L17.8771 47.3086C18.4954 46.6909 18.836 45.8671 18.836 44.9887C18.836 44.3618 18.6617 43.7632 18.3375 43.247L22.0227 39.5663C22.0266 39.5623 22.0305 39.5583 22.0345 39.5543C22.4565 39.118 23.6316 39.1997 24.768 39.2786C25.5754 39.3347 26.4756 39.3971 27.3551 39.2958L31.3907 43.3265C31.1293 43.8032 30.9897 44.3413 30.9897 44.9016C30.9897 45.7791 31.3302 46.6024 31.9486 47.2201L33.6866 48.956C34.3046 49.5732 35.1283 49.9133 36.006 49.9133C36.8837 49.9133 37.7074 49.5733 38.3255 48.956L48.8666 38.4276C49.485 37.81 49.8255 36.9862 49.8255 36.1079C49.8254 35.2297 49.4849 34.4058 48.8659 33.7877ZM22.7663 10.1011L27.0326 10.9086L24.479 13.4613C24.0839 13.2714 23.5425 12.9173 22.9486 12.3491C22.1356 11.5714 21.554 10.6735 21.5011 10.1134C21.501 10.1131 21.501 10.1128 21.501 10.1125C21.501 10.1124 21.501 10.1126 21.501 10.1125C21.4972 10.0723 21.4961 10.0399 21.4966 10.0154C21.6252 9.9841 21.9668 9.94943 22.7663 10.1011ZM17.7801 10.903C18.2784 10.4052 19.0524 10.3478 19.6154 10.729C19.9344 12.0667 21.0755 13.2791 21.5889 13.7703C21.9694 14.1344 23.1902 15.2259 24.4224 15.5259C24.5891 15.7649 24.6798 16.0497 24.6798 16.3503C24.6798 16.7375 24.5309 17.0995 24.2595 17.3706C23.9889 17.6417 23.6263 17.791 23.2384 17.791C22.8504 17.791 22.4878 17.6417 22.216 17.3694L17.78 12.9414C17.5096 12.6714 17.3607 12.3094 17.3607 11.9223C17.3608 11.5351 17.5097 11.1731 17.7801 10.903ZM15.2102 15.1947C15.4808 14.9237 15.843 14.7743 16.2303 14.7743C16.6181 14.7743 16.9815 14.924 17.2538 15.196L20.8253 18.7604C21.3877 19.3237 21.3877 20.2403 20.8273 20.8016C20.5552 21.0726 20.1913 21.2218 19.8028 21.2218C19.4142 21.2218 19.0503 21.0726 18.7794 20.8028L16.0699 18.0938C16.0657 18.0896 16.0611 18.0857 16.0568 18.0814L15.2091 17.2341C14.9371 16.9624 14.7874 16.5997 14.7877 16.2128C14.7881 15.8272 14.9373 15.4663 15.2102 15.1947ZM12.6354 19.4855C12.9062 19.2151 13.2692 19.0662 13.6576 19.0662C14.0429 19.0662 14.4028 19.2129 14.6724 19.4787L17.3902 22.1952C17.6612 22.4651 17.8105 22.8267 17.8105 23.2134C17.8105 23.6 17.6612 23.9617 17.3891 24.2327C17.1184 24.503 16.7558 24.6519 16.368 24.6519C15.9796 24.6519 15.6159 24.5026 15.3448 24.2327L14.3595 23.2486C14.3593 23.2483 14.359 23.2481 14.3588 23.2479L12.6355 21.5266C12.3638 21.2552 12.2142 20.8927 12.2142 20.506C12.2142 20.1194 12.3638 19.7568 12.6354 19.4855ZM10.9225 24.6404C11.1945 24.3687 11.5579 24.2191 11.9459 24.2191C12.3338 24.2191 12.6972 24.3686 12.9691 24.6401L13.9557 25.6255C14.2268 25.8955 14.376 26.2571 14.376 26.6438C14.376 27.0305 14.2267 27.392 13.9536 27.6641C13.683 27.9351 13.3204 28.0844 12.9325 28.0844C12.5446 28.0844 12.182 27.9352 11.9094 27.6622L11.7859 27.5391C11.7842 27.5375 11.7829 27.5357 11.7814 27.5341C11.7795 27.5324 11.7776 27.5308 11.7757 27.5291L10.9235 26.6801C10.3611 26.1166 10.3606 25.2016 10.9225 24.6404ZM30.9649 35.8179C30.581 35.4336 29.9583 35.4333 29.5741 35.8171L28.6991 36.691C27.8676 37.5224 26.3611 37.4178 24.9042 37.3167C23.322 37.2067 21.686 37.0932 20.6273 38.1802L17.0047 41.7983L7.94582 32.7527L11.1517 29.5526C11.6816 29.8774 12.293 30.0515 12.9327 30.0515C13.8467 30.0515 14.7037 29.6972 15.3439 29.0559C15.9883 28.4141 16.3433 27.5576 16.3433 26.6439C16.3433 26.6354 16.3427 26.627 16.3427 26.6185C16.3512 26.6186 16.3597 26.6191 16.3682 26.6191C17.2809 26.6191 18.1372 26.2659 18.7783 25.6256C19.4227 24.9838 19.7777 24.1272 19.7777 23.2136C19.7777 23.2051 19.7771 23.1967 19.7771 23.1882C19.7857 23.1882 19.7943 23.1888 19.803 23.1888C20.7154 23.1888 21.5722 22.836 22.2175 22.1933C22.8874 21.5223 23.2188 20.6389 23.2125 19.7574C23.2212 19.7575 23.23 19.7579 23.2388 19.7579C24.1528 19.7579 25.0097 19.4037 25.6508 18.7614C26.2933 18.1197 26.6472 17.2634 26.6472 16.3503C26.6472 15.7118 26.4736 15.1013 26.1499 14.5725L28.9597 11.7638C29.1691 11.5553 29.4273 11.4244 29.6979 11.3704C29.7272 11.3673 29.7561 11.3626 29.7847 11.357C30.2189 11.2971 30.6749 11.4311 31.0069 11.7617C31.5693 12.3251 31.5693 13.2417 31.0089 13.8031L30.1532 14.6553C30.1504 14.6581 30.1473 14.6607 30.1445 14.6635L29.1588 15.6475C28.7745 16.0313 28.7741 16.654 29.158 17.0383C29.542 17.4227 30.1646 17.423 30.5488 17.0392L31.408 16.1812C31.4082 16.181 31.4084 16.1808 31.4086 16.1806L31.5384 16.0512C32.1024 15.4924 33.0161 15.4936 33.5795 16.0562C33.8506 16.3261 33.9999 16.6877 33.9999 17.0744C33.9999 17.4611 33.8506 17.8227 33.5773 18.0948L32.7167 18.9572C32.7166 18.9573 32.7165 18.9574 32.7164 18.9576L31.7308 19.9391C31.346 20.3224 31.3447 20.9452 31.728 21.3299C32.1113 21.7148 32.734 21.716 33.1188 21.3328L34.1089 20.3467C34.3795 20.0756 34.7421 19.9264 35.13 19.9264C35.5179 19.9264 35.8806 20.0756 36.1532 20.3487C36.4243 20.6187 36.5735 20.9803 36.5735 21.367C36.5735 21.7537 36.4243 22.1153 36.1516 22.3868L34.4358 24.1033C34.0518 24.4875 34.0519 25.1101 34.436 25.4941C34.6281 25.6861 34.8797 25.782 35.1313 25.782C35.3831 25.782 35.6348 25.6859 35.8268 25.4938L36.6677 24.6526C36.6725 24.648 36.6777 24.644 36.6825 24.6392C36.9531 24.3681 37.3157 24.2189 37.7036 24.2189C38.0916 24.2189 38.4542 24.3681 38.7258 24.6402C39.2876 25.2014 39.2871 26.1165 38.7258 26.6788L37.8708 27.5328C37.8705 27.5331 37.8701 27.5334 37.8698 27.5336C37.8695 27.5339 37.8692 27.5343 37.8689 27.5346L36.5119 28.89C36.1276 29.2739 36.1272 29.8966 36.511 30.2809C36.7031 30.4732 36.9551 30.5694 37.2069 30.5694C37.4584 30.5694 37.7099 30.4735 37.9019 30.2818L38.5657 29.6188L41.7471 32.7965L32.6889 41.8435L29.4434 38.6019C29.6697 38.4564 29.8862 38.2853 30.0894 38.0821L30.9639 37.2087C31.3484 36.825 31.3488 36.2022 30.9649 35.8179ZM47.4765 37.0359L36.9353 47.5643C36.6887 47.8105 36.3587 47.9462 36.0059 47.9462C35.6532 47.9462 35.3231 47.8105 35.0764 47.5642L33.3384 45.8283C33.0922 45.5824 32.9565 45.2533 32.9565 44.9016C32.9565 44.5501 33.0922 44.221 33.3384 43.975L43.8796 33.4466C44.1263 33.2003 44.4562 33.0646 44.8091 33.0646C45.1618 33.0646 45.4919 33.2003 45.7392 33.4472L47.4766 35.1798C47.7228 35.4258 47.8585 35.7552 47.8585 36.1078C47.8584 36.4604 47.7228 36.79 47.4765 37.0359Z" fill="white"/>
<path d="M11.766 5.52443C11.958 5.71603 12.2094 5.81173 12.4608 5.81173C12.7127 5.81173 12.9648 5.71544 13.1569 5.52296C13.5406 5.13849 13.54 4.51583 13.1555 4.13214L9.5717 0.55547C9.18732 0.171778 8.56457 0.172266 8.18087 0.556837C7.79718 0.94131 7.79777 1.56397 8.18224 1.94766L11.766 5.52443Z" fill="white"/>
<path d="M37.1903 5.81173C37.4418 5.81173 37.6933 5.71583 37.8853 5.52413L41.4664 1.94737C41.8507 1.56358 41.8511 0.940822 41.4672 0.556544C41.0834 0.172266 40.4607 0.171875 40.0763 0.555763L36.4953 4.13253C36.111 4.51632 36.1106 5.13907 36.4945 5.52335C36.6866 5.71564 36.9384 5.81173 37.1903 5.81173Z" fill="white"/>
<path d="M6.04738 42.3052C5.66661 42.6925 5.67189 43.3152 6.05929 43.696L6.06212 43.6987C6.25323 43.8866 6.50138 43.9802 6.74943 43.9802C7.00402 43.9802 7.25861 43.8816 7.45148 43.6854C7.83224 43.2981 7.8255 42.674 7.4382 42.2932C7.05099 41.9125 6.42833 41.9179 6.04738 42.3052Z" fill="white"/>
<path d="M33.3704 34.4011C33.52 34.4011 33.6717 34.3671 33.8142 34.2953C34.2992 34.0507 34.494 33.4592 34.2495 32.9743C34.0049 32.4893 33.4133 32.2944 32.9285 32.539L32.923 32.5418C32.438 32.7864 32.246 33.3764 32.4905 33.8614C32.6632 34.204 33.0104 34.4011 33.3704 34.4011Z" fill="white"/>
</svg>
