<svg width="40" height="40" viewBox="0 0 40 40" fill="none" xmlns="http://www.w3.org/2000/svg">
<path d="M39.654 8.64883L37.3271 6.32906L39.6885 3.76586C40.3796 3.01555 39.8445 1.79992 38.8267 1.79992H29.7103V1.17188C29.7103 0.524687 29.1856 0 28.5385 0C27.8913 0 27.3667 0.524687 27.3667 1.17188V14.8438H23.1378C22.4906 14.8438 21.966 15.3684 21.966 16.0156V24.0061H12.3365C11.6893 24.0061 11.1647 24.5308 11.1647 25.178V30.5687H1.53526C0.888071 30.5687 0.363462 31.0934 0.363462 31.7405V38.8281C0.363462 39.4753 0.888149 40 1.53526 40H34.1381C34.7853 40 35.3099 39.4753 35.3099 38.8281V16.0156C35.3099 15.3684 34.7852 14.8438 34.1381 14.8438H29.7103V10.6506H38.8267C39.8685 10.6506 40.3927 9.38523 39.654 8.64883ZM2.70706 32.9124H11.1647V37.6562H2.70706V32.9124ZM13.5083 26.3498H21.966V37.6562H13.5083C13.5083 37.4055 13.5083 26.5841 13.5083 26.3498ZM32.9662 37.6562H24.3096C24.3096 37.1584 24.3096 17.4006 24.3096 17.1875H32.9662V37.6562ZM34.8745 7.19344L35.9913 8.30688H29.7102V4.14367H36.1535L34.8399 5.56945C34.4136 6.03227 34.4289 6.74922 34.8745 7.19344Z" fill="white"/>
<path d="M1.62846 24.5765C5.75198 22.8323 9.46088 20.3298 12.6521 17.1384C15.253 14.5374 17.396 11.5933 19.0435 8.36203L19.8862 10.0613C20.1737 10.6412 20.8767 10.878 21.4567 10.5905C22.0365 10.303 22.2735 9.59984 21.9859 9.02L20.0605 5.13719C19.8253 4.66281 19.2955 4.40055 18.7693 4.51102L14.6014 5.3882C13.968 5.52148 13.5627 6.14297 13.696 6.77633C13.8121 7.32828 14.299 7.70711 14.8415 7.70711C15.0046 7.70711 14.8996 7.72063 16.9605 7.28688C15.4238 10.3033 13.4239 13.0522 10.995 15.4812C8.01831 18.458 4.55987 20.7919 0.715649 22.4178C0.119556 22.67 -0.159272 23.3575 0.092915 23.9536C0.345024 24.5502 1.03291 24.8284 1.62846 24.5765Z" fill="white"/>
</svg>
