<svg width="35" height="35" viewBox="0 0 35 35" fill="none" xmlns="http://www.w3.org/2000/svg">
<path d="M33.9749 2.52611H29.4834C29.4997 2.02863 29.5088 1.52822 29.5088 1.0254C29.5088 0.459026 29.0495 0 28.4834 0H6.51689C5.95078 0 5.49149 0.459026 5.49149 1.0254C5.49149 1.52822 5.50057 2.02863 5.51686 2.52611H1.0254C0.459026 2.52611 0 2.98514 0 3.55151C0 8.14604 1.20084 12.4808 3.38114 15.7575C5.53635 18.9968 8.4072 20.8548 11.5085 21.0356C12.2116 21.8007 12.9547 22.4244 13.7289 22.9003V27.4577H12.0086C9.92901 27.4577 8.23737 29.1496 8.23737 31.229V32.9492H8.16447C7.59809 32.9492 7.13907 33.4085 7.13907 33.9746C7.13907 34.541 7.59809 35 8.16447 35H26.8358C27.4022 35 27.8612 34.541 27.8612 33.9746C27.8612 33.4085 27.4022 32.9492 26.8358 32.9492H26.7629V31.229C26.7629 29.1496 25.0713 27.4577 22.9916 27.4577H21.2714V22.9003C22.0455 22.4247 22.7889 21.8007 23.492 21.0356C26.5931 20.8548 29.4639 18.9968 31.6194 15.7575C33.7997 12.4808 35.0003 8.14604 35.0003 3.55151C35.0003 2.98514 34.5412 2.52611 33.9749 2.52611ZM5.08854 14.6215C3.29009 11.9189 2.23345 8.38397 2.07243 4.57691H5.63141C6.00125 9.25689 7.09981 13.5828 8.81682 17.0165C9.09026 17.5634 9.37625 18.0801 9.67292 18.5667C7.9674 17.9226 6.38898 16.5762 5.08854 14.6215ZM24.7121 31.229V32.9495H10.2882V31.229C10.2882 30.2805 11.0599 29.5085 12.0086 29.5085H22.9916C23.9404 29.5085 24.7121 30.2805 24.7121 31.229ZM19.2206 27.4577H15.7797V23.7914C16.3434 23.9398 16.9177 24.017 17.5001 24.017C18.0825 24.017 18.6569 23.9398 19.2206 23.7914V27.4577ZM19.8556 21.3518C19.8094 21.3707 19.7651 21.3937 19.7226 21.4191C18.9979 21.7796 18.2532 21.9662 17.5001 21.9662C16.7474 21.9662 16.0029 21.7796 15.2784 21.4196C15.2354 21.3937 15.1908 21.3707 15.1441 21.3513C14.3401 20.9261 13.5622 20.2842 12.8266 19.4406C12.7878 19.3854 12.7443 19.3344 12.696 19.2879C11.9657 18.4209 11.2786 17.3543 10.6511 16.0993C8.76662 12.3307 7.6782 7.37539 7.5543 2.0508H27.446C27.3218 7.37539 26.2334 12.331 24.3492 16.0993C23.7217 17.3543 23.0346 18.4209 22.3046 19.2879C22.256 19.3344 22.2119 19.3856 22.1734 19.4409C21.4378 20.2847 20.6596 20.9264 19.8556 21.3518ZM29.9117 14.6215C28.6113 16.5762 27.0329 17.9226 25.3273 18.5667C25.624 18.0801 25.91 17.5634 26.1834 17.0165C27.9004 13.5828 28.9987 9.25689 29.3688 4.57691H32.9278C32.7668 8.38397 31.7102 11.9189 29.9117 14.6215Z" fill="white"/>
</svg>
