<svg width="44" height="41" viewBox="0 0 44 41" fill="none" xmlns="http://www.w3.org/2000/svg">
<path d="M22.8594 33.3125C22.8594 33.7843 22.4747 34.1667 22 34.1667C21.5253 34.1667 21.1406 33.7843 21.1406 33.3125C21.1406 32.8407 21.5253 32.4583 22 32.4583C22.4747 32.4583 22.8594 32.8407 22.8594 33.3125Z" fill="#683BF2"/>
<path d="M41.1641 25.625C41.1641 22.7989 38.8511 20.5 36.0078 20.5C33.1645 20.5 30.8516 22.7989 30.8516 25.625C30.8516 28.4511 33.1645 30.75 36.0078 30.75C38.8511 30.75 41.1641 28.4511 41.1641 25.625ZM36.0078 29.0417C34.1125 29.0417 32.5703 27.5088 32.5703 25.625C32.5703 23.7412 34.1125 22.2083 36.0078 22.2083C37.9031 22.2083 39.4453 23.7412 39.4453 25.625C39.4453 27.5088 37.9031 29.0417 36.0078 29.0417Z" fill="#683BF2"/>
<path d="M36.0078 30.75C33.8423 30.75 31.6827 31.6435 30.2117 33.0923C28.2755 30.5632 25.2898 29.0417 22 29.0417C18.8495 29.0417 15.7967 30.4704 13.7886 33.0923C12.3173 31.6439 10.1581 30.75 7.99219 30.75C3.66006 30.75 0 34.2704 0 38.4375V40.1458C0 40.6176 0.384705 41 0.859375 41H43.1406C43.6153 41 44 40.6176 44 40.1458V38.4375C44 34.2704 40.3399 30.75 36.0078 30.75ZM1.71875 38.4375C1.71875 35.1963 4.59161 32.4583 7.99219 32.4583C9.85294 32.4583 11.6982 33.2778 12.8406 34.5804C12.0853 36.0305 11.6875 37.6467 11.6875 39.2917H1.71875V38.4375ZM22 30.75C26.782 30.75 30.5938 34.6064 30.5938 39.2917H13.4062C13.4062 34.544 17.2959 30.75 22 30.75ZM42.2812 39.2917H32.3125C32.3125 37.6467 31.9147 36.0305 31.1594 34.5804C32.3018 33.2778 34.1471 32.4583 36.0078 32.4583C39.4084 32.4583 42.2812 35.1963 42.2812 38.4375V39.2917Z" fill="#683BF2"/>
<path d="M13.1484 25.625C13.1484 22.7989 10.8355 20.5 7.99219 20.5C5.14886 20.5 2.83594 22.7989 2.83594 25.625C2.83594 28.4511 5.14886 30.75 7.99219 30.75C10.8355 30.75 13.1484 28.4511 13.1484 25.625ZM7.99219 29.0417C6.09686 29.0417 4.55469 27.5088 4.55469 25.625C4.55469 23.7412 6.09686 22.2083 7.99219 22.2083C9.88751 22.2083 11.4297 23.7412 11.4297 25.625C11.4297 27.5088 9.88751 29.0417 7.99219 29.0417Z" fill="#683BF2"/>
<path d="M28.875 22.2083C28.875 18.4403 25.791 15.375 22 15.375C18.209 15.375 15.125 18.4403 15.125 22.2083C15.125 25.9763 18.209 29.0417 22 29.0417C25.791 29.0417 28.875 25.9763 28.875 22.2083ZM22 27.3333C19.1567 27.3333 16.8438 25.0344 16.8438 22.2083C16.8438 19.3822 19.1567 17.0833 22 17.0833C24.8433 17.0833 27.1562 19.3822 27.1562 22.2083C27.1562 25.0344 24.8433 27.3333 22 27.3333Z" fill="#683BF2"/>
<path d="M28.8011 4.96785C28.7001 4.65855 28.4312 4.43333 28.1073 4.38661L24.4005 3.85176L22.7409 0.479134C22.5969 0.185848 22.2974 0 21.9691 0C21.6408 0 21.3414 0.185848 21.197 0.478801L19.5377 3.85176L15.831 4.38628C15.507 4.43299 15.2381 4.65855 15.1371 4.96785C15.036 5.27715 15.1203 5.61648 15.3546 5.84337L18.0388 8.44357L17.4054 12.1155C17.35 12.4358 17.4826 12.7598 17.7474 12.9506C18.0106 13.1408 18.3611 13.1678 18.6525 13.0157L21.9691 11.2823L25.2871 13.0157C25.5765 13.1672 25.9273 13.1418 26.1921 12.9506C26.4567 12.7594 26.5893 12.4358 26.5339 12.1152L25.8997 8.44357L28.5836 5.84337C28.8179 5.61648 28.9022 5.27715 28.8011 4.96785ZM24.376 7.53368C24.1736 7.72988 24.081 8.01282 24.129 8.28975L24.5449 10.6984L22.3689 9.56133C22.1185 9.43053 21.8194 9.43053 21.569 9.56133L19.3937 10.6984L19.8093 8.28975C19.8569 8.01248 19.7643 7.72988 19.5619 7.53368L17.8015 5.82835L20.2336 5.47734C20.5149 5.43697 20.7576 5.2608 20.8821 5.00722L21.9691 2.7984L23.0558 5.00722C23.1806 5.26113 23.4233 5.43697 23.7043 5.47734L26.1367 5.82835L24.376 7.53368Z" fill="#683BF2"/>
<path d="M41.6461 11.3698C41.5451 11.0605 41.2762 10.8352 40.9522 10.7885L38.4409 10.4258L37.318 8.16363C37.1733 7.87201 36.8749 7.6875 36.5476 7.6875C36.2206 7.6875 35.9215 7.87201 35.7769 8.16363L34.6533 10.4258L32.1416 10.7885C31.818 10.8352 31.5491 11.0605 31.4481 11.3698C31.3467 11.6791 31.431 12.0184 31.6653 12.2453L33.4824 14.0067L33.0534 16.4924C32.9983 16.8127 33.1306 17.1364 33.3954 17.3276C33.66 17.5188 34.0108 17.5441 34.3001 17.393L36.5473 16.2195L38.7937 17.393C39.0831 17.5441 39.4342 17.5188 39.6988 17.3276C39.9633 17.1367 40.0955 16.8127 40.0405 16.4924L39.6115 14.0067L41.4289 12.2453C41.6632 12.0184 41.7472 11.6791 41.6461 11.3698ZM38.0884 13.0971C37.8857 13.2933 37.7934 13.5759 37.8414 13.8529L38.0522 15.0754L36.9474 14.4985C36.697 14.3677 36.3979 14.3677 36.1478 14.4985L35.042 15.0757L35.2532 13.8529C35.3008 13.5759 35.2085 13.2933 35.0061 13.0971L34.1118 12.2303L35.3475 12.0521C35.6275 12.0117 35.8695 11.8369 35.9947 11.585L36.5473 10.4722L37.0995 11.5846C37.2247 11.8369 37.4667 12.0117 37.7467 12.0521L38.9824 12.2303L38.0884 13.0971Z" fill="#683BF2"/>
<path d="M12.4274 11.3698C12.3263 11.0605 12.0574 10.8352 11.7335 10.7885L9.22217 10.4258L8.09927 8.16363C7.95459 7.87201 7.65616 7.6875 7.32886 7.6875C7.00156 7.6875 6.70279 7.87201 6.55811 8.16363L5.43454 10.4258L2.92288 10.7885C2.59927 10.8352 2.33038 11.0605 2.22934 11.3698C2.12796 11.6791 2.21222 12.0184 2.44653 12.2453L4.26364 14.0067L3.83496 16.4924C3.77957 16.8127 3.91217 17.1364 4.1767 17.3276C4.44122 17.5188 4.79202 17.5441 5.08173 17.393L7.32852 16.2195L9.57498 17.393C9.86636 17.5451 10.2168 17.5178 10.48 17.3276C10.7445 17.1367 10.8771 16.8127 10.8217 16.4924L10.3927 14.0067L12.2102 12.2453C12.4445 12.0184 12.5284 11.6791 12.4274 11.3698ZM8.86935 13.0971C8.66693 13.2933 8.57462 13.5759 8.62228 13.8528L8.83344 15.0754L7.72833 14.4985C7.47824 14.3677 7.17914 14.3677 6.92905 14.4985L5.82294 15.0757L6.03409 13.8528C6.08209 13.5759 5.98944 13.2933 5.78702 13.0971L4.89273 12.2303L6.12875 12.0521C6.40839 12.0117 6.65042 11.8369 6.77563 11.585L7.32819 10.4722L7.8804 11.5846C8.00562 11.8369 8.24765 12.0117 8.52762 12.0521L9.76331 12.2303L8.86935 13.0971Z" fill="#683BF2"/>
<path d="M25.7658 33.5768C25.369 33.3175 24.8363 33.4273 24.5758 33.8217C24.3149 34.2157 24.4254 34.7452 24.8222 35.0045C25.6168 35.5233 26.2519 36.2467 26.6588 37.0962C26.8622 37.5216 27.3745 37.7035 27.8038 37.5003C28.2325 37.2977 28.4144 36.7879 28.2107 36.3621C27.6689 35.2304 26.8232 34.2671 25.7658 33.5768Z" fill="#683BF2"/>
</svg>
