<svg width="42" height="42" viewBox="0 0 42 42" fill="none" xmlns="http://www.w3.org/2000/svg">
<path d="M7.38698 32.4802C6.79898 32.4802 6.23373 32.627 5.73225 32.9025C3.09059 29.5162 1.64062 25.3095 1.64062 21C1.64062 10.325 10.325 1.64062 21 1.64062C22.2978 1.64062 23.5949 1.76976 24.8555 2.02451C25.299 2.11423 25.7322 1.82712 25.8219 1.383C25.9116 0.938873 25.6245 0.506287 25.1804 0.416245C23.8131 0.14003 22.4067 0 21 0C15.3908 0 10.1171 2.1844 6.15074 6.15074C2.1844 10.1171 0 15.3908 0 21C0 25.7184 1.60217 30.323 4.51909 34.0145C4.14354 34.5755 3.94167 35.235 3.94167 35.9255C3.94167 36.8458 4.30023 37.711 4.95103 38.3615C5.60152 39.0123 6.46669 39.3708 7.38698 39.3708C8.30727 39.3708 9.17244 39.0123 9.82324 38.3615C10.474 37.711 10.8323 36.8455 10.8323 35.9252C10.8323 35.0052 10.474 34.1397 9.82324 33.4893C9.17244 32.8385 8.30727 32.4802 7.38698 32.4802ZM8.66295 37.2015C8.32233 37.5424 7.86891 37.7302 7.38698 37.7302C6.90504 37.7302 6.45195 37.5424 6.11101 37.2015C5.77007 36.8605 5.58229 36.4075 5.58229 35.9255C5.58229 35.4433 5.77007 34.9902 6.11101 34.6492C6.45163 34.3083 6.90504 34.1208 7.38698 34.1208C7.86891 34.1208 8.32201 34.3086 8.66295 34.6492C9.00389 34.9902 9.19167 35.4433 9.19167 35.9255C9.19167 36.4075 9.00389 36.8605 8.66295 37.2015Z" fill="#683BF2"/>
<path d="M37.4803 7.98459C38.372 6.64677 38.2288 4.81773 37.0493 3.63821C36.3985 2.98773 35.5333 2.62916 34.613 2.62916C33.6927 2.62916 32.8276 2.98773 32.1768 3.63821C31.526 4.28902 31.1677 5.15419 31.1677 6.07448C31.1677 6.99477 31.526 7.85994 32.1768 8.51074C32.8276 9.16154 33.6927 9.51979 34.613 9.51979C35.201 9.51979 35.7663 9.37303 36.2677 9.09746C38.9094 12.4841 40.3594 16.6905 40.3594 21C40.3594 31.675 31.675 40.3594 21 40.3594C19.7151 40.3594 18.4301 40.2328 17.1814 39.9829C16.7373 39.8941 16.305 40.1822 16.2159 40.6263C16.1271 41.0707 16.4152 41.5027 16.8593 41.5918C18.2138 41.8625 19.6071 42 21 42C26.6092 42 31.8829 39.8156 35.8493 35.8493C39.8156 31.8829 42 26.6092 42 21C42 16.2813 40.3975 11.6763 37.4803 7.98459ZM33.3371 7.35077C32.9961 7.00983 32.8083 6.55673 32.8083 6.07448C32.8083 5.59254 32.9961 5.13945 33.3371 4.79851C33.6777 4.45756 34.1311 4.26979 34.613 4.26979C35.095 4.26979 35.5484 4.45756 35.8893 4.79851C36.5927 5.50218 36.5927 6.64709 35.8893 7.35077C35.5484 7.69139 35.095 7.87917 34.613 7.87917C34.1308 7.87917 33.6777 7.69139 33.3371 7.35077Z" fill="#683BF2"/>
<path d="M17.6149 35.1094C17.6149 35.5625 17.9825 35.9297 18.4352 35.9297H23.5644C24.0175 35.9297 24.3848 35.5625 24.3848 35.1094V33.5191C25.4633 33.2287 26.4945 32.8013 27.4635 32.2431L28.5863 33.3659C28.7401 33.5197 28.9487 33.6062 29.1666 33.6062C29.3839 33.6062 29.5928 33.5197 29.7466 33.3656L33.372 29.7376C33.6921 29.4172 33.6921 28.8978 33.372 28.5776L32.2505 27.4561C32.8087 26.4871 33.2361 25.456 33.5264 24.3774H35.1107C35.5638 24.3774 35.931 24.0102 35.931 23.5571V18.4279C35.931 17.9748 35.5638 17.6076 35.1107 17.6076H33.5261C33.2358 16.5293 32.8087 15.4981 32.2505 14.5291L33.3659 13.4137C33.5197 13.2599 33.6062 13.051 33.6062 12.8334C33.6059 12.6158 33.5194 12.4069 33.3656 12.2531L29.7373 8.6277C29.4172 8.30759 28.8978 8.30759 28.5773 8.62802L27.4635 9.74217C26.4945 9.18397 25.4633 8.75651 24.3848 8.4662V6.89062C24.3848 6.43753 24.0175 6.07031 23.5644 6.07031H18.4352C17.9825 6.07031 17.6149 6.43753 17.6149 6.89062V8.46652C16.5367 8.75651 15.5055 9.18397 14.5365 9.74217L13.4224 8.62802C13.1022 8.30791 12.5828 8.30759 12.2624 8.6277L8.63443 12.2534C8.4803 12.4072 8.39378 12.6158 8.39378 12.8334C8.39378 13.051 8.4803 13.2599 8.63411 13.4137L9.74954 14.5291C9.19135 15.4981 8.76389 16.529 8.47357 17.6076H6.89223C6.43913 17.6076 6.07191 17.9748 6.07191 18.4276L6.06903 23.5567C6.06871 23.7743 6.15523 23.9832 6.30904 24.1371C6.46284 24.2909 6.67145 24.3774 6.88934 24.3774H8.47357C8.76389 25.456 9.19135 26.4871 9.74954 27.4561L8.62802 28.5776C8.30791 28.8978 8.30759 29.4172 8.62802 29.7376L12.2534 33.3656C12.4072 33.5194 12.6158 33.6062 12.8334 33.6062C13.051 33.6062 13.2599 33.5197 13.4137 33.3659L14.5362 32.2431C15.5055 32.8013 16.5367 33.2287 17.6149 33.5191V35.1094ZM14.8579 30.5179C14.5333 30.308 14.1062 30.3535 13.8325 30.6268L12.8337 31.6256L10.368 29.1579L11.3658 28.1598C11.6391 27.8865 11.6846 27.4593 11.4748 27.1347C10.731 25.9837 10.2081 24.7222 9.92097 23.3847C9.83958 23.0069 9.50569 22.7368 9.11893 22.7368H7.70998L7.7119 19.2482H9.11893C9.50569 19.2482 9.83958 18.9784 9.92097 18.6003C10.2081 17.2631 10.731 16.0015 11.4748 14.8505C11.6846 14.5259 11.6391 14.0988 11.3658 13.8255L10.3744 12.8337L12.8421 10.368L13.8325 11.3588C14.1062 11.6321 14.533 11.6773 14.8579 11.4677C16.0086 10.724 17.2701 10.201 18.6076 9.91392C18.9854 9.83253 19.2556 9.49832 19.2556 9.11188V7.71094H22.7441V9.11156C22.7441 9.49832 23.0139 9.83253 23.392 9.9136C24.7292 10.201 25.9911 10.7237 27.1418 11.4674C27.4664 11.6773 27.8935 11.6321 28.1668 11.3584L29.1576 10.368L31.6253 12.8337L30.6339 13.8251C30.3602 14.0988 30.315 14.5259 30.5249 14.8505C31.2686 16.0015 31.7913 17.2631 32.0787 18.6003C32.1598 18.9784 32.494 19.2482 32.8808 19.2482H34.2903V22.7368H32.8808C32.494 22.7368 32.1601 23.0069 32.0787 23.3847C31.7916 24.7218 31.2686 25.9837 30.5249 27.1344C30.315 27.4593 30.3605 27.8865 30.6339 28.1598L31.6317 29.1576L29.166 31.6253L28.1672 30.6268C27.8935 30.3532 27.4664 30.308 27.1418 30.5179C25.9908 31.2616 24.7292 31.7842 23.392 32.0717C23.0139 32.153 22.7441 32.4869 22.7441 32.8737V34.2891H19.2556V32.8737C19.2556 32.4873 18.9854 32.153 18.6076 32.0717C17.2705 31.7845 16.0089 31.2616 14.8579 30.5179Z" fill="#683BF2"/>
<path d="M27.7782 21C27.7782 17.2624 24.7375 14.2218 21 14.2218C17.2624 14.2218 14.2218 17.2624 14.2218 21C14.2218 24.7375 17.2624 27.7782 21 27.7782C24.7375 27.7782 27.7782 24.7375 27.7782 21ZM15.8625 21C15.8625 18.167 18.167 15.8625 21 15.8625C23.833 15.8625 26.1375 18.1674 26.1375 21C26.1375 23.8326 23.833 26.1375 21 26.1375C18.167 26.1375 15.8625 23.833 15.8625 21Z" fill="#683BF2"/>
<path d="M28.5533 3.10245C28.7693 3.10245 28.9807 3.01465 29.1333 2.86212C29.2858 2.70863 29.3736 2.49715 29.3736 2.28117C29.3736 2.06648 29.2861 1.85467 29.1333 1.70119C28.9807 1.54866 28.7693 1.46086 28.5533 1.46086C28.3367 1.46086 28.1261 1.54866 27.9736 1.70119C27.8208 1.85467 27.733 2.06552 27.733 2.28117C27.733 2.49779 27.8208 2.70863 27.9736 2.86212C28.1261 3.01465 28.3367 3.10245 28.5533 3.10245Z" fill="#683BF2"/>
<path d="M13.4826 38.9123C13.267 38.9123 13.0551 39.0001 12.9026 39.1526C12.7501 39.3051 12.6623 39.517 12.6623 39.7326C12.6623 39.9492 12.7501 40.1601 12.9026 40.3126C13.0551 40.4651 13.267 40.5529 13.4826 40.5529C13.6983 40.5529 13.9101 40.4651 14.0626 40.3126C14.2151 40.1601 14.3029 39.9483 14.3029 39.7326C14.3029 39.517 14.2151 39.3051 14.0626 39.1526C13.9101 39.0001 13.6983 38.9123 13.4826 38.9123Z" fill="#683BF2"/>
</svg>
