<svg width="41" height="40" viewBox="0 0 41 40" fill="none" xmlns="http://www.w3.org/2000/svg">
<path d="M40.2099 20.105C40.2099 18.866 39.3064 17.8347 38.1237 17.6338C37.6952 14.4753 36.4459 11.5005 34.4869 8.97456C34.7702 8.56846 34.937 8.07533 34.937 7.54373C34.937 6.16119 33.8122 5.0364 32.4297 5.0364C31.8813 5.0364 31.3739 5.21381 30.9607 5.51366C28.4952 3.67617 25.6154 2.499 22.5761 2.08622C22.3751 0.903551 21.3439 0 20.1049 0C18.8659 0 17.8346 0.903551 17.6337 2.08622C14.5944 2.49892 11.7147 3.67609 9.24912 5.51366C8.83595 5.21389 8.32853 5.0364 7.7802 5.0364C6.39766 5.0364 5.27287 6.16119 5.27287 7.54373C5.27287 8.07541 5.43976 8.56861 5.72312 8.9748C5.24562 9.59107 4.80747 10.2363 4.41833 10.8994C4.25372 11.18 4.34772 11.5409 4.62825 11.7056C4.72195 11.7605 4.82451 11.7866 4.92582 11.7866C5.1279 11.7866 5.32471 11.6825 5.43442 11.4956C5.785 10.8981 6.17846 10.3159 6.6064 9.75835C6.95683 9.94487 7.35626 10.051 7.7802 10.051C8.32829 10.051 8.83548 9.87372 9.24857 9.57418C9.56978 9.81356 9.89924 10.0429 10.2346 10.2602C10.0653 10.5976 9.96945 10.9779 9.96945 11.3803C9.96945 12.3375 10.5088 13.1707 11.2992 13.5931C11.0431 14.8995 10.8659 16.2593 10.7704 17.6486C9.81984 17.8432 9.06425 18.5776 8.83736 19.516H4.94404C4.73765 18.6624 4.09382 17.9778 3.26362 17.7145C3.4481 16.4001 3.7869 15.1114 4.27359 13.8763C4.39288 13.5736 4.24421 13.2317 3.94154 13.1124C3.63902 12.9931 3.29684 13.1417 3.17762 13.4444C2.64665 14.7918 2.28059 16.1988 2.08598 17.6338C0.903472 17.8349 0 18.8662 0 20.105C0 21.344 0.903551 22.3753 2.08622 22.5762C2.51471 25.7347 3.76405 28.7095 5.72304 31.2354C5.43976 31.6415 5.27295 32.1347 5.27295 32.6663C5.27295 34.0488 6.39774 35.1735 7.78027 35.1735C8.32861 35.1735 8.83603 34.9961 9.2492 34.6963C11.7147 36.5338 14.5943 37.7109 17.6335 38.1237C17.6644 38.3055 17.7154 38.4867 17.789 38.6641C17.8206 38.7401 17.8561 38.8148 17.8947 38.8862C18.0492 39.1725 18.4067 39.2792 18.6929 39.1246C18.9791 38.9701 19.0858 38.6128 18.9313 38.3265C18.9116 38.29 18.8933 38.2514 18.8769 38.2122C18.596 37.5355 18.9184 36.7563 19.5955 36.4752C20.2725 36.1943 21.052 36.5159 21.333 37.1927C21.5976 37.8301 21.3242 38.5738 20.7105 38.8858C20.4206 39.0332 20.305 39.3878 20.4524 39.6778C20.5563 39.8823 20.7632 40 20.9778 40C21.0677 40 21.1588 39.9794 21.2443 39.9359C21.9689 39.5675 22.4425 38.8809 22.5737 38.1241C25.614 37.7117 28.4946 36.5344 30.9609 34.6963C31.3741 34.9961 31.8815 35.1735 32.4298 35.1735C33.8123 35.1735 34.9371 34.0487 34.9371 32.6663C34.9371 32.1347 34.7703 31.6415 34.487 31.2354C36.446 28.7095 37.6954 25.7347 38.1239 22.5762C39.3064 22.3753 40.2099 21.344 40.2099 20.105ZM32.4297 30.159C31.8818 30.159 31.3748 30.3362 30.9617 30.6356C30.7012 30.4413 30.4353 30.2541 30.1662 30.075C30.2028 29.9048 30.2225 29.7285 30.2225 29.5476C30.2225 28.543 29.6284 27.675 28.7733 27.2753C29.104 25.7706 29.327 24.1897 29.4389 22.5616C30.3898 22.3672 31.1458 21.6328 31.3726 20.6941H31.8249C32.1501 20.6941 32.4139 20.4304 32.4139 20.1051C32.4139 19.7798 32.1501 19.5161 31.8249 19.5161H31.3726C31.1458 18.5776 30.39 17.8432 29.4394 17.6486C29.3432 16.2547 29.1655 14.8921 28.9091 13.5848C29.6907 13.1596 30.2224 12.331 30.2224 11.3805C30.2224 10.9815 30.1283 10.6042 29.9618 10.269C30.3024 10.049 30.6363 9.81686 30.9615 9.57442C31.3745 9.87387 31.8816 10.0511 32.4297 10.0511C32.8537 10.0511 33.2533 9.94495 33.6038 9.75827C35.3921 12.0861 36.539 14.8166 36.9458 17.7148C36.1159 17.9781 35.4722 18.6626 35.2658 19.5161H34.5734C34.2481 19.5161 33.9844 19.7798 33.9844 20.1051C33.9844 20.4304 34.2481 20.6941 34.5734 20.6941H35.2658C35.4721 21.5475 36.1159 22.2321 36.9458 22.4954C36.539 25.3936 35.3922 28.1242 33.6038 30.4519C33.2534 30.2652 32.8537 30.159 32.4297 30.159ZM22.576 27.2074C22.4078 26.2188 21.6591 25.4258 20.6939 25.1925V22.5417C21.604 22.3217 22.3216 21.6042 22.5416 20.694H26.4991C26.7122 21.5753 27.3919 22.276 28.2611 22.5193C28.1519 24.0835 27.9362 25.6003 27.618 27.0427C26.8828 27.0709 26.2278 27.4166 25.7869 27.9468C24.7453 27.6044 23.6691 27.3563 22.576 27.2074ZM20.105 28.9585C19.372 28.9585 18.7758 28.3621 18.7758 27.6292C18.7758 26.8962 19.3721 26.3 20.105 26.3C20.8379 26.3 21.4342 26.8963 21.4342 27.6292C21.4342 28.3621 20.8379 28.9585 20.105 28.9585ZM17.6339 27.2074C16.5365 27.3565 15.4556 27.6062 14.4089 27.9516C13.9715 27.4231 13.322 27.0765 12.592 27.0433C12.2738 25.5997 12.058 24.0827 11.9487 22.5194C12.818 22.2762 13.4977 21.5755 13.7107 20.6942H17.6682C17.8883 21.6042 18.6058 22.3218 19.5159 22.5419V25.1926C18.5508 25.4258 17.8022 26.2188 17.6339 27.2074ZM10.0159 31.5336C10.192 31.4036 10.3712 31.2769 10.5529 31.1533C11.0132 31.7038 11.7046 32.0549 12.4767 32.0549C12.6403 32.0549 12.8002 32.0386 12.9551 32.0085C13.8369 33.9887 14.9351 35.5731 16.1595 36.6528C13.9475 36.1273 11.8595 35.1595 10.016 33.7988C10.1892 33.4584 10.2875 33.0737 10.2875 32.6663C10.2875 32.2588 10.1892 31.8741 10.0159 31.5336ZM12.4767 28.2183C13.2097 28.2183 13.8059 28.8147 13.8059 29.5476C13.8059 30.2806 13.2096 30.8768 12.4767 30.8768C11.7438 30.8768 11.1475 30.2805 11.1475 29.5476C11.1475 28.8146 11.7438 28.2183 12.4767 28.2183ZM17.7146 11.8243C16.7863 11.6935 15.8692 11.4862 14.9771 11.2047C14.9195 10.3771 14.459 9.65908 13.7904 9.24606C14.8743 6.5819 16.314 4.65629 17.9138 3.72415C18.2501 4.3273 18.828 4.77778 19.5159 4.94404V10.1441C18.6625 10.3505 17.9779 10.9943 17.7146 11.8243ZM11.0042 9.35303C10.6681 9.13949 10.3373 8.91448 10.0157 8.67707C10.1891 8.33646 10.2876 7.95148 10.2876 7.5438C10.2876 7.13636 10.1893 6.7517 10.0161 6.41124C11.8581 5.05164 13.9444 4.08432 16.1544 3.55852C14.7935 4.75744 13.5955 6.57719 12.6676 8.88118C12.6046 8.87639 12.541 8.87317 12.4768 8.87317C11.9268 8.87317 11.418 9.05161 11.0042 9.35303ZM30.1944 8.67723C29.8701 8.9166 29.5359 9.14365 29.196 9.35884C28.7807 9.0538 28.2688 8.8731 27.7152 8.8731C27.6569 8.8731 27.5992 8.87584 27.5419 8.87977C26.6136 6.57632 25.4156 4.75705 24.0549 3.55829C26.2652 4.084 28.3517 5.0514 30.1939 6.41117C30.0207 6.75162 29.9224 7.13628 29.9224 7.54373C29.9224 7.95156 30.0209 8.33654 30.1944 8.67723ZM30.2651 20.1054C30.2649 20.8381 29.6687 21.4342 28.9358 21.4342C28.2029 21.4342 27.6066 20.8379 27.6066 20.105C27.6066 19.3721 28.203 18.7758 28.9358 18.7758C29.6687 18.7758 30.2649 19.3719 30.2651 20.1046V20.1054ZM26.4991 19.516H22.5416C22.3216 18.6059 21.604 17.8883 20.6939 17.6683V15.0176C21.659 14.7842 22.4075 13.9915 22.5759 13.0031C23.5387 12.8721 24.4899 12.6627 25.4164 12.3801C25.8033 13.2664 26.6878 13.8877 27.7151 13.8877C27.7329 13.8877 27.7505 13.8867 27.7683 13.8863C28.005 15.1105 28.1701 16.3858 28.2616 17.6905C27.3922 17.9337 26.7123 18.6345 26.4991 19.516ZM27.7152 12.7096C26.9822 12.7096 26.386 12.1133 26.386 11.3804C26.386 10.6475 26.9823 10.0512 27.7152 10.0512C28.4481 10.0512 29.0444 10.6475 29.0444 11.3804C29.0444 12.1133 28.4481 12.7096 27.7152 12.7096ZM22.2961 3.72431C23.8935 4.65543 25.3318 6.57758 26.4158 9.23679C25.7378 9.64926 25.2707 10.3744 25.2143 11.2102C24.3288 11.489 23.4179 11.6944 22.4953 11.8243C22.232 10.9943 21.5475 10.3505 20.6939 10.1441V4.94412C21.3818 4.77778 21.9597 4.32746 22.2961 3.72431ZM20.105 11.2516C20.838 11.2516 21.4342 11.8479 21.4342 12.5809C21.4342 13.3139 20.8379 13.9101 20.105 13.9101C19.3721 13.9101 18.7758 13.3138 18.7758 12.5809C18.7757 11.8479 19.372 11.2516 20.105 11.2516ZM20.105 18.7758C20.838 18.7758 21.4342 19.3721 21.4342 20.105C21.4342 20.8379 20.8379 21.4342 20.105 21.4342C19.3721 21.4342 18.7758 20.8379 18.7758 20.105C18.7758 19.3721 19.372 18.7758 20.105 18.7758ZM26.386 29.5476C26.386 28.8146 26.9823 28.2183 27.7152 28.2183C28.4481 28.2183 29.0444 28.8146 29.0444 29.5476C29.0444 30.2805 28.4481 30.8768 27.7152 30.8768C26.9823 30.8768 26.386 30.2805 26.386 29.5476ZM27.7152 32.0549C28.4909 32.0549 29.1854 31.7007 29.6456 31.1457C29.8304 31.2713 30.0134 31.4005 30.1939 31.5337C30.0207 31.8742 29.9224 32.2588 29.9224 32.6663C29.9224 33.0737 30.0207 33.4584 30.1939 33.7988C28.3505 35.1595 26.2626 36.1273 24.0507 36.6527C25.2747 35.5736 26.3724 33.9902 27.2539 32.0116C27.4036 32.0396 27.5575 32.0549 27.7152 32.0549ZM39.0319 20.105C39.0319 20.838 38.4356 21.4342 37.7026 21.4342C36.9703 21.4342 36.3745 20.8389 36.3735 20.1069C36.3735 20.1063 36.3735 20.1056 36.3735 20.105C36.3735 20.1044 36.3735 20.1037 36.3735 20.1031C36.3745 19.3711 36.9703 18.7758 37.7026 18.7758C38.4356 18.7758 39.0319 19.3721 39.0319 20.105ZM32.4297 6.21451C33.1627 6.21451 33.759 6.81083 33.759 7.5438C33.759 8.27678 33.1627 8.87302 32.4297 8.87302C31.6968 8.87302 31.1005 8.2767 31.1005 7.5438C31.1004 6.81083 31.6968 6.21451 32.4297 6.21451ZM20.105 1.17811C20.838 1.17811 21.4342 1.77443 21.4342 2.5074C21.4342 3.24037 20.8379 3.83662 20.105 3.83662C19.3721 3.83662 18.7758 3.24029 18.7758 2.5074C18.7757 1.77443 19.372 1.17811 20.105 1.17811ZM7.7802 8.87302C7.04722 8.87302 6.4509 8.2767 6.4509 7.5438C6.4509 6.81083 7.04722 6.21451 7.7802 6.21451C8.51317 6.21451 9.10941 6.81083 9.10941 7.5438C9.10949 8.2767 8.51317 8.87302 7.7802 8.87302ZM12.4767 10.0512C13.2097 10.0512 13.8059 10.6475 13.8059 11.3804C13.8059 12.1133 13.2096 12.7096 12.4767 12.7096C11.7438 12.7096 11.1475 12.1133 11.1475 11.3804C11.1475 10.6475 11.7438 10.0512 12.4767 10.0512ZM12.4767 13.8877C13.5057 13.8877 14.3916 13.2642 14.7775 12.3755C15.7098 12.6605 16.6663 12.8713 17.634 13.003C17.8023 13.9915 18.5509 14.7842 19.516 15.0176V17.6683C18.6059 17.8883 17.8883 18.6058 17.6683 19.516H13.7108C13.4977 18.6344 12.8177 17.9336 11.9481 17.6905C12.0392 16.3874 12.2044 15.1123 12.4416 13.8868C12.4533 13.887 12.4649 13.8877 12.4767 13.8877ZM11.2741 18.7758C12.0071 18.7758 12.6033 19.3721 12.6033 20.105C12.6033 20.8379 12.007 21.4342 11.2741 21.4342C10.5411 21.4342 9.94479 20.8379 9.94479 20.105C9.94479 19.3721 10.5411 18.7758 11.2741 18.7758ZM4.94404 20.694H8.83728C9.06425 21.6327 9.82023 22.3671 10.7711 22.5615C10.8827 24.1859 11.1053 25.7643 11.4352 27.2677C10.5713 27.664 9.96945 28.5366 9.96945 29.5476C9.96945 29.7321 9.9901 29.9119 10.0281 30.0852C9.76306 30.262 9.50248 30.4458 9.2481 30.6355C8.83516 30.3361 8.32814 30.159 7.7802 30.159C7.3561 30.159 6.95651 30.2652 6.60601 30.4519C4.81776 28.1241 3.67083 25.3936 3.26401 22.4954C4.09398 22.232 4.73765 21.5475 4.94404 20.694ZM1.17803 20.105C1.17803 19.372 1.77435 18.7758 2.50732 18.7758C3.2403 18.7758 3.83654 19.3721 3.83654 20.105C3.83654 20.8379 3.24022 21.4342 2.50732 21.4342C1.77435 21.4343 1.17803 20.838 1.17803 20.105ZM7.7802 33.9956C7.04722 33.9956 6.4509 33.3993 6.4509 32.6664C6.4509 31.9335 7.04722 31.3371 7.7802 31.3371C8.51317 31.3371 9.10941 31.9335 9.10941 32.6664C9.10941 33.3993 8.51317 33.9956 7.7802 33.9956ZM19.1437 35.3872C18.6011 35.6125 18.1799 36.0076 17.915 36.4854C16.4361 35.6207 15.079 33.89 14.0256 31.5171C14.6085 31.0576 14.9839 30.3459 14.9839 29.5476C14.9839 29.3672 14.9644 29.1915 14.928 29.0218C15.8346 28.732 16.7676 28.5186 17.7145 28.3855C17.9777 29.2157 18.6622 29.8596 19.5159 30.066V35.2658C19.3908 35.2961 19.2664 35.3363 19.1437 35.3872ZM20.694 35.267V30.0659C21.5476 29.8595 22.2321 29.2157 22.4954 28.3855C23.4369 28.5182 24.3643 28.7298 25.2651 29.0163C25.228 29.1876 25.2079 29.3653 25.2079 29.5475C25.2079 30.352 25.5892 31.0687 26.1801 31.5278C25.1277 33.8943 23.7728 35.6208 22.2964 36.4844C21.9484 35.8574 21.358 35.4283 20.694 35.267ZM32.4297 33.9956C31.6968 33.9956 31.1005 33.3993 31.1005 32.6664C31.1005 31.9335 31.6968 31.3371 32.4297 31.3371C33.1627 31.3371 33.759 31.9335 33.759 32.6664C33.759 33.3993 33.1627 33.9956 32.4297 33.9956Z" fill="#683BF2"/>
</svg>
