<svg width="42" height="40" viewBox="0 0 42 40" fill="none" xmlns="http://www.w3.org/2000/svg">
<path d="M38.956 13.3719C38.2325 13.2233 36.6858 13.4118 35.9247 15.1836C35.9195 15.1957 35.9146 15.2078 35.9099 15.2201L33.5582 21.5269C33.156 21.2906 32.6967 21.1646 32.2182 21.1646C31.7094 21.1646 31.2141 21.3103 30.787 21.5852L24.7557 25.4566C22.4673 26.8502 21.2481 28.6802 20.5988 30.2272C19.9496 28.6802 18.7304 26.8502 16.442 25.4566L10.4116 21.5859C9.98359 21.3103 9.48825 21.1646 8.9794 21.1646C8.50104 21.1646 8.04175 21.2906 7.63943 21.527C7.63943 21.527 5.27813 15.1957 5.27298 15.1837C4.51179 13.412 2.96535 13.2236 2.24166 13.372C0.772381 13.646 -0.160198 14.9117 0.0228575 16.3856C0.0268807 16.4176 2.58862 26.7236 2.58862 26.7236C3.26484 29.4273 5.10232 32.1548 7.50393 34.0194C7.5123 34.0259 7.52066 34.0321 7.52919 34.0383L11.5948 36.9471V38.3907C11.5948 39.2781 12.3167 40 13.2041 40H27.9936C28.8809 40 29.6028 39.2781 29.6028 38.3907V36.9471L33.6684 34.0383C33.677 34.0321 33.6854 34.0259 33.6937 34.0194C36.0953 32.1548 37.9327 29.4273 38.6093 26.7226C38.6093 26.7226 41.1708 16.4176 41.1748 16.3856C41.3578 14.9115 40.4253 13.6459 38.956 13.3719ZM19.7852 34.4541C19.783 34.4782 19.7819 38.3906 19.7819 38.3906H13.2041V36.5334C13.2041 36.2737 13.0788 36.0301 12.8676 35.879L8.47851 32.7387C6.3895 31.1122 4.73146 28.659 4.14994 26.334L1.61516 16.1442C1.55787 15.5324 1.91771 15.0671 2.54195 14.953C2.5578 14.9501 2.55032 14.9522 2.55941 14.9498C2.71366 14.926 3.38352 14.8815 3.78721 15.802L6.46079 22.9719C6.15535 23.8731 6.35265 24.9012 7.05767 25.6423C7.08399 25.6701 11.2095 28.9273 11.2095 28.9273C11.5583 29.2024 12.0644 29.1426 12.3396 28.7937C12.6148 28.4448 12.5551 27.9388 12.2061 27.6636L8.19053 24.4967C7.83882 24.0896 7.85773 23.4641 8.2413 23.08C8.43884 22.8825 8.70099 22.7738 8.97948 22.7738C9.17879 22.7738 9.37279 22.8308 9.54144 22.9394C9.54144 22.9394 15.592 26.823 15.5977 26.8265C17.4975 27.9812 18.7788 29.6053 19.4061 31.6535C19.8826 33.2095 19.7859 34.4444 19.7852 34.4541ZM39.5825 16.1442L37.0479 26.333C36.4662 28.6591 34.8081 31.1122 32.719 32.7387L28.33 35.879C28.1188 36.03 27.9935 36.2737 27.9935 36.5334V38.3906H21.4157C21.4157 38.3906 21.4146 34.4782 21.4124 34.4541C21.408 34.4059 21.0294 29.6044 25.5999 26.8265C25.6055 26.8231 31.6571 22.9389 31.6571 22.9389C31.8249 22.8309 32.0188 22.7738 32.2182 22.7738C32.4966 22.7738 32.7588 22.8825 32.9559 23.0796C33.3398 23.4641 33.3588 24.0896 33.0071 24.4967L28.9915 27.6636C28.6426 27.9388 28.5829 28.4448 28.8581 28.7937C29.1332 29.1427 29.6392 29.2024 29.9881 28.9273C29.9881 28.9273 34.1137 25.6701 34.14 25.6423C34.8449 24.9013 35.0422 23.8734 34.7368 22.972L37.4104 15.8019C37.8143 14.8814 38.4845 14.9259 38.6382 14.9498C38.6472 14.952 38.6398 14.9499 38.6557 14.9529C39.2799 15.0671 39.6398 15.5325 39.5825 16.1442Z" fill="#683BF2"/>
<path d="M9.62915 17.3509H14.3115V20.8265C14.3115 21.7139 15.0334 22.4358 15.9208 22.4358H16.9394C17.3837 22.4358 17.744 22.0756 17.744 21.6312C17.744 21.1868 17.3837 20.8265 16.9394 20.8265H15.9208C15.9208 20.8265 15.9239 16.4977 15.9218 16.4738C15.9425 15.1923 16.9908 14.156 18.2772 14.156H22.9204C24.2068 14.156 25.255 15.1923 25.2758 16.4738C25.2737 16.4977 25.2768 20.8265 25.2768 20.8265H24.2713C23.827 20.8265 23.4666 21.1868 23.4666 21.6312C23.4666 22.0756 23.827 22.4358 24.2713 22.4358H25.2768C26.1641 22.4358 26.886 21.7139 26.886 20.8265V17.3509H31.5684C32.485 17.3509 33.2306 16.6052 33.2306 15.6887V11.4278C33.2306 9.59462 31.98 8.04858 30.2873 7.59646C31.027 6.78908 31.4792 5.71424 31.4792 4.5356C31.4792 2.03462 29.4445 0 26.9436 0C24.4426 0 22.4079 2.0347 22.4079 4.5356C22.4079 4.87033 22.4454 5.19629 22.5146 5.51059C21.9322 5.23797 21.2832 5.08477 20.5987 5.08477C19.9143 5.08477 19.2654 5.23805 18.6829 5.51059C18.752 5.19629 18.7896 4.87033 18.7896 4.5356C18.7896 2.03462 16.7549 0 14.2539 0C11.753 0 9.7183 2.0347 9.7183 4.5356C9.7183 5.71424 10.1705 6.78908 10.9101 7.59646C9.21749 8.04858 7.96692 9.59462 7.96692 11.4278V15.6887C7.967 16.6053 8.71266 17.3509 9.62915 17.3509ZM31.6214 11.4278V15.6887C31.6214 15.7179 31.5976 15.7416 31.5685 15.7416H26.8103C26.5166 14.257 25.392 13.0681 23.9428 12.681C24.6824 11.8737 25.1345 10.7989 25.1345 9.62029C25.1345 9.43434 25.122 9.25144 25.1001 9.07128H29.2649C30.5642 9.07136 31.6214 10.1284 31.6214 11.4278ZM26.9437 1.6092C28.5573 1.6092 29.87 2.92197 29.87 4.5356C29.87 6.14923 28.5573 7.462 26.9437 7.462C25.33 7.462 24.0173 6.14923 24.0173 4.5356C24.0173 2.92197 25.3301 1.6092 26.9437 1.6092ZM23.5252 9.62037C23.5252 11.234 22.2124 12.5468 20.5988 12.5468C18.9852 12.5468 17.6724 11.234 17.6724 9.62037C17.6724 8.00674 18.9852 6.69397 20.5988 6.69397C22.2124 6.69397 23.5252 8.00674 23.5252 9.62037ZM14.254 1.6092C15.8676 1.6092 17.1804 2.92197 17.1804 4.5356C17.1804 6.14923 15.8676 7.462 14.254 7.462C12.6404 7.462 11.3277 6.14923 11.3277 4.5356C11.3277 2.92197 12.6404 1.6092 14.254 1.6092ZM9.57628 11.4278C9.57628 10.1284 10.6334 9.07136 11.9327 9.07136H16.0975C16.0757 9.25152 16.0631 9.43442 16.0631 9.62037C16.0631 10.7989 16.5152 11.8737 17.2547 12.6811C15.8056 13.0682 14.6809 14.257 14.3872 15.7417H9.62915C9.60002 15.7417 9.57628 15.7179 9.57628 15.6888V11.4278Z" fill="#683BF2"/>
<path d="M20.5988 22.4356C21.0432 22.4356 21.4035 22.0753 21.4035 21.6309C21.4035 21.1865 21.0432 20.8263 20.5988 20.8263C20.1544 20.8263 19.7942 21.1865 19.7942 21.6309C19.7942 22.0753 20.1544 22.4356 20.5988 22.4356Z" fill="#683BF2"/>
</svg>
