<svg width="40" height="45" viewBox="0 0 40 45" fill="none" xmlns="http://www.w3.org/2000/svg">
<path d="M37.827 5.32193C32.8821 5.32193 23.8846 4.31497 21.0663 0.60399C20.5873 -0.148574 19.5392 -0.215522 18.9669 0.502709C15.6487 4.213 6.63025 5.32193 1.31836 5.32193C0.590172 5.32193 0 5.91416 0 6.6451V27.8185C0 37.355 10.9774 43.1805 19.2934 44.9918C20.3673 45.2253 39.1453 40.4686 39.1453 27.8185V6.6451C39.1453 5.91451 38.5551 5.32193 37.827 5.32193ZM36.5086 27.8185C36.5086 37.7567 21.8003 41.7862 19.5725 42.3386C17.3447 41.7862 2.63672 37.7567 2.63672 27.8185V7.9535C12.8173 7.71832 17.8943 4.786 19.9127 3.19642C23.9797 6.79341 31.092 7.83059 36.5086 7.95384V27.8185Z" fill="#683BF2"/>
<path d="M12.9852 17.1879V21.202H11.6623C10.9345 21.202 10.344 21.7946 10.344 22.5251V33.1119C10.344 33.8428 10.9345 34.4354 11.6623 34.4354H27.4826C28.2108 34.4354 28.801 33.8428 28.801 33.1119V22.5251C28.801 21.7946 28.2108 21.202 27.4826 21.202H15.6219V17.1879C15.6219 15.1197 17.2506 13.262 19.6123 13.262C21.7691 13.262 23.5234 15.0229 23.5234 17.1879C23.5234 17.9184 24.114 18.511 24.8418 18.511C25.57 18.511 26.1602 17.9184 26.1602 17.1879C26.1602 13.5637 23.223 10.6153 19.6123 10.6153C15.7736 10.6153 12.9852 13.6832 12.9852 17.1879ZM26.1643 31.7887H12.9807V23.8487H26.1643V31.7887Z" fill="#683BF2"/>
<path d="M20.8908 27.8185C20.8908 27.0876 20.3007 26.4953 19.5725 26.4953C18.8446 26.4953 18.2541 27.0876 18.2541 27.8185C18.2541 28.5494 18.8446 29.142 19.5725 29.142C20.3007 29.142 20.8908 28.5494 20.8908 27.8185Z" fill="#683BF2"/>
</svg>
