<svg width="50" height="50" viewBox="0 0 50 50" fill="none" xmlns="http://www.w3.org/2000/svg">
<path d="M38.1807 42.9712C37.684 43.2418 37.1804 43.5211 36.6704 43.8038C32.3551 46.1964 27.464 48.9083 22.7631 48.4885L6.11552 47.0023C6.09384 47.0004 6.07206 46.9994 6.05028 46.9994H1.46767V38.7609H6.05018C6.22372 38.7609 6.39169 38.6993 6.52411 38.5873C6.5371 38.5764 7.84852 37.4745 9.845 36.4374C10.2047 36.2506 10.3447 35.8075 10.158 35.4479C9.97107 35.0883 9.5282 34.9481 9.16844 35.135C7.48504 36.0095 6.26386 36.9201 5.79061 37.2932H0.733885C0.328613 37.2932 0 37.6218 0 38.0271V47.7333C0 48.1386 0.328515 48.4672 0.733885 48.4672H6.01747L22.6326 49.9505C23.0079 49.984 23.3823 50 23.7568 50C28.5216 50 33.2102 47.4006 37.3821 45.0876C37.8889 44.8067 38.3894 44.5291 38.8829 44.2601C39.2388 44.0661 39.3701 43.6204 39.1762 43.2646C38.9823 42.9085 38.5367 42.7773 38.1807 42.9712Z" fill="#683BF2"/>
<path d="M49.4334 34.8424C48.6531 33.8081 47.2937 33.4509 46.1203 33.9421C46.0903 33.4728 45.9315 33.0156 45.6531 32.6259C44.9193 31.5987 43.5243 31.2677 42.4082 31.856L40.6629 32.7758C40.6405 32.366 40.5196 31.9626 40.3041 31.6065C39.6078 30.4554 38.1365 30.0557 36.9543 30.6964L35.6498 31.4037C35.6263 30.8965 35.4545 30.4022 35.148 29.9849C34.383 28.944 32.9981 28.6238 31.8548 29.2235L22.4371 34.1629C21.378 33.7563 18.0018 32.6566 14.0572 33.391C13.3767 33.5177 12.6757 33.7009 11.9733 33.9358C11.5889 34.0643 11.3815 34.48 11.5099 34.8644C11.6386 35.2488 12.0545 35.4561 12.4386 35.3278C13.0769 35.1144 13.7118 34.9483 14.3258 34.8339C18.5367 34.0498 22.1403 35.625 22.1752 35.6406C22.2698 35.683 22.3722 35.705 22.4759 35.705H32.2786C32.9751 35.705 33.5417 36.2733 33.5417 36.9717C33.5417 37.6083 33.0667 38.1486 32.437 38.2283L20.0127 39.802C19.6451 39.8486 19.3699 40.1617 19.3711 40.5321C19.3721 40.9027 19.6493 41.2142 20.0171 41.2585L25.2937 41.8946C30.4051 42.5105 35.486 41.5135 39.9873 39.0112L46.5812 35.3456C47.1612 35.0434 47.8669 35.203 48.2616 35.7263C48.7548 36.3488 48.5404 37.347 47.8342 37.7106L40.7593 41.566C39.9134 42.0106 40.6384 43.3235 41.4616 42.8548L48.5365 38.9993C49.2535 38.6087 49.7637 37.9265 49.9363 37.1277C50.1091 36.3281 49.9258 35.4951 49.4334 34.8424ZM32.5366 30.5232C33.0325 30.2631 33.6332 30.4022 33.9654 30.854C34.3734 31.3802 34.1881 32.2149 33.595 32.5177L30.4231 34.2373H25.4552L32.5366 30.5232ZM33.204 34.3992L37.6538 31.9867C38.1459 31.72 38.7583 31.8868 39.0484 32.3662C39.3645 32.8627 39.1666 33.5796 38.6398 33.8421L34.7802 35.8763C34.4804 35.1926 33.9095 34.6543 33.204 34.3992ZM39.2742 37.7283C35.2378 39.9723 30.7052 40.928 26.1257 40.5071L32.6214 39.6843C33.8265 39.5318 34.7687 38.6003 34.9694 37.4356L43.0925 33.1543C43.5622 32.9068 44.1496 33.0462 44.4588 33.4789C44.8331 33.9763 44.6593 34.7525 44.1077 35.0413L39.2742 37.7283Z" fill="#683BF2"/>
<path d="M17.0889 19.9398C17.9177 19.9398 18.7151 19.7605 19.4587 19.4069C19.8247 19.2329 19.9803 18.795 19.8062 18.429C19.6322 18.0631 19.1946 17.9073 18.8283 18.0814C18.2833 18.3406 17.698 18.472 17.0889 18.472C14.8525 18.472 13.033 16.6525 13.033 14.4161C13.033 12.1797 14.8525 10.3602 17.0889 10.3602C19.3254 10.3602 21.1449 12.1797 21.1449 14.4161C21.1449 15.1009 20.9712 15.7773 20.6428 16.3724C20.447 16.7273 20.5758 17.1737 20.9307 17.3695C21.2857 17.5653 21.7321 17.4364 21.9278 17.0816C22.3757 16.2699 22.6126 15.3482 22.6126 14.416C22.6126 11.3702 20.1346 8.89237 17.0889 8.89237C14.0432 8.89237 11.5653 11.3702 11.5653 14.416C11.5653 17.4618 14.0432 19.9398 17.0889 19.9398Z" fill="#683BF2"/>
<path d="M5.62958 16.598L7.15057 16.8266C7.39891 17.857 7.80331 18.833 8.35741 19.7386L7.44305 20.9764C7.01102 21.5614 7.07069 22.359 7.58495 22.8731L8.63201 23.9203C9.14617 24.4344 9.94393 24.4941 10.5288 24.0621L11.7665 23.1478C12.6721 23.7019 13.648 24.1064 14.6785 24.3547L14.9072 25.8757C15.0153 26.5948 15.6216 27.1166 16.3486 27.1166H17.8294C18.5565 27.1166 19.1628 26.5948 19.2708 25.8756L19.4994 24.3547C20.5298 24.1064 21.5057 23.7019 22.4114 23.1478L23.6492 24.0622C24.234 24.4941 25.0318 24.4345 25.5458 23.9204L26.5929 22.8733C27.1072 22.3592 27.1668 21.5615 26.7348 20.9765L25.8206 19.7388C26.3747 18.8332 26.7791 17.8573 27.0274 16.8268L28.5483 16.5982C29.2673 16.4901 29.7893 15.884 29.7893 15.1567V15.1501H34.1444V24.5038C34.1444 25.4474 34.9121 26.2152 35.8558 26.2152H38.9909C39.3266 27.7111 40.6645 28.8325 42.2602 28.8325C44.108 28.8325 45.6114 27.3291 45.6114 25.4812C45.6114 23.6334 44.1081 22.1299 42.2602 22.1299C40.6644 22.1299 39.3265 23.2514 38.9908 24.7474H35.8557C35.7213 24.7474 35.612 24.6381 35.612 24.5038V15.1501H38.9908C39.3265 16.6461 40.6644 17.7675 42.2602 17.7675C44.108 17.7675 45.6114 16.2642 45.6114 14.4163C45.6114 12.5683 44.1081 11.065 42.2602 11.065C40.6645 11.065 39.3266 12.1864 38.9908 13.6823H35.6122V4.3288C35.6122 4.19443 35.7215 4.08515 35.8559 4.08515H38.991C39.3267 5.58114 40.6646 6.70253 42.2604 6.70253C44.1082 6.70253 45.6116 5.19921 45.6116 3.35126C45.6116 1.50332 44.1081 0 42.2603 0C40.6646 0 39.3267 1.12138 38.9909 2.61738H35.8558C34.9121 2.61738 34.1444 3.38505 34.1444 4.3287V13.6822H29.7893V13.6758C29.7893 12.9487 29.2674 12.3425 28.5484 12.2344L27.0274 12.0057C26.779 10.9753 26.3747 9.9994 25.8206 9.09373L26.7348 7.85604C27.1668 7.27108 27.1073 6.47333 26.593 5.95927L25.5459 4.9121C25.0319 4.39794 24.2341 4.33837 23.6492 4.7703L22.4115 5.68456C21.5057 5.13046 20.5298 4.72597 19.4995 4.47773L19.2709 2.95673C19.1629 2.23769 18.5566 1.71572 17.8295 1.71572H16.3486C15.6216 1.71572 15.0153 2.23759 14.9072 2.95673L14.6785 4.47773C13.6481 4.72607 12.6722 5.13046 11.7665 5.68456L10.5288 4.7703C9.94402 4.33827 9.14617 4.39784 8.63201 4.9121L7.58495 5.95907C7.07069 6.47323 7.01102 7.27098 7.44305 7.85584L8.35731 9.09354C7.80321 9.9992 7.39872 10.9752 7.15047 12.0055L5.62948 12.2342C4.91044 12.3423 4.38857 12.9485 4.38857 13.6756V15.1563C4.38857 15.8838 4.91054 16.4899 5.62958 16.598ZM42.2603 23.5975C43.2988 23.5975 44.1438 24.4424 44.1438 25.481C44.1438 26.5196 43.2988 27.3645 42.2603 27.3645C41.2217 27.3645 40.3768 26.5196 40.3768 25.481C40.3768 24.4424 41.2217 23.5975 42.2603 23.5975ZM42.2603 12.5326C43.2988 12.5326 44.1438 13.3775 44.1438 14.4161C44.1438 15.4547 43.2988 16.2996 42.2603 16.2996C41.2217 16.2996 40.3768 15.4547 40.3768 14.4161C40.3768 13.3775 41.2217 12.5326 42.2603 12.5326ZM42.2603 1.46767C43.2988 1.46767 44.1438 2.31259 44.1438 3.35117C44.1438 4.38974 43.2988 5.23466 42.2603 5.23466C41.2217 5.23466 40.3768 4.38974 40.3768 3.35117C40.3768 2.31269 41.2217 1.46767 42.2603 1.46767ZM5.85624 13.6843L7.87059 13.3815C8.17957 13.3351 8.42528 13.0981 8.4828 12.7911C8.70643 11.5984 9.16815 10.4845 9.85486 9.48006C10.0311 9.22225 10.025 8.88104 9.83934 8.62977L8.62879 6.99081L9.66365 5.95604L11.3026 7.16669C11.5538 7.35223 11.8949 7.35848 12.1528 7.18221C13.1573 6.4954 14.2713 6.03378 15.4638 5.81005C15.7709 5.75253 16.0078 5.50683 16.0543 5.19784L16.3571 3.18349H17.8206L18.1234 5.19784C18.1699 5.50683 18.4068 5.75253 18.7138 5.81005C19.9064 6.03368 21.0205 6.4954 22.0249 7.18221C22.2828 7.35858 22.6239 7.35223 22.8752 7.16669L24.5141 5.95604L25.549 6.99081L24.3384 8.62987C24.1529 8.88104 24.1466 9.22225 24.3229 9.48016C25.0097 10.4846 25.4713 11.5985 25.6951 12.7913C25.7527 13.0983 25.9984 13.3352 26.3073 13.3817L28.3216 13.6845V15.148L26.3073 15.4508C25.9984 15.4972 25.7527 15.7342 25.6951 16.0413C25.4713 17.234 25.0097 18.348 24.3229 19.3524C24.1466 19.6102 24.1528 19.9514 24.3384 20.2026L25.5491 21.8416L24.5142 22.8764L22.8752 21.6658C22.6241 21.4802 22.2829 21.474 22.025 21.6503C21.0206 22.3372 19.9066 22.7988 18.7138 23.0225C18.4068 23.0801 18.1699 23.3258 18.1234 23.6347L17.8206 25.6491H16.3571L16.0543 23.6347C16.0078 23.3258 15.7709 23.0801 15.4638 23.0225C14.2711 22.7988 13.1571 22.3372 12.1527 21.6503C11.8949 21.4741 11.5538 21.4802 11.3025 21.6658L9.66356 22.8764L8.62869 21.8416L9.83934 20.2026C10.0249 19.9514 10.0311 19.6101 9.85486 19.3524C9.16805 18.348 8.70643 17.2341 8.4828 16.0414C8.42518 15.7343 8.17957 15.4973 7.87059 15.4509L5.85624 15.1481V13.6843Z" fill="#683BF2"/>
</svg>
