<svg width="35" height="35" viewBox="0 0 35 35" fill="none" xmlns="http://www.w3.org/2000/svg">
<path d="M34.9589 2.61281C34.8831 1.22253 33.7774 0.116954 32.3871 0.0410754C29.5818 -0.112186 24.0922 0.0369056 18.8431 2.75192C16.1672 4.13606 13.3371 6.48276 11.0786 9.19033C11.0507 9.22369 11.0237 9.25725 10.9961 9.29068L5.87049 9.68662C5.02681 9.75183 4.27533 10.194 3.80871 10.8998L0.311871 16.1889C-0.0420238 16.7241 -0.0982834 17.394 0.161276 17.9807C0.420904 18.5675 0.954379 18.9764 1.58841 19.0746L5.90672 19.7435C5.89148 19.8274 5.87617 19.9113 5.86215 19.9952C5.7184 20.8552 6.00332 21.7394 6.62443 22.3604L12.6395 28.3755C13.1544 28.8905 13.8503 29.1744 14.5632 29.1744C14.7101 29.1744 14.8577 29.1623 15.0047 29.1377C15.0887 29.1237 15.1725 29.1084 15.2565 29.0932L15.9253 33.4115C16.0235 34.0456 16.4325 34.5791 17.0191 34.8387C17.2632 34.9467 17.5216 35 17.7787 35C18.1399 34.9999 18.4985 34.8948 18.811 34.6881L24.1001 31.1912C24.8059 30.7245 25.2481 29.9731 25.3131 29.1295L25.7091 24.004C25.7425 23.9763 25.7761 23.9493 25.8095 23.9214C28.5171 21.6629 30.8639 18.8329 32.248 16.1569C34.9631 10.9075 35.1119 5.41793 34.9589 2.61281ZM22.9691 29.4805L17.9098 32.8255L17.2579 28.617C19.3962 27.9883 21.5114 26.9813 23.5266 25.6324L23.2686 28.9714C23.2526 29.1797 23.1433 29.3653 22.9691 29.4805ZM14.0896 26.9254L8.07446 20.9103C7.921 20.7568 7.85004 20.5411 7.88483 20.3333C8.06366 19.264 8.34154 18.2461 8.68552 17.2871L17.7108 26.3124C16.5591 26.725 15.5275 26.9711 14.6665 27.115C14.4585 27.1496 14.2431 27.0789 14.0896 26.9254ZM6.02847 11.7313L9.36741 11.4734C8.01841 13.4885 7.01148 15.6038 6.38278 17.7421L2.17432 17.0903L5.5194 12.0309C5.63466 11.8565 5.82025 11.7474 6.02847 11.7313ZM24.496 22.3465C22.8395 23.7283 21.2315 24.7277 19.7493 25.4508L9.54869 15.2502C10.496 13.3154 11.6522 11.7042 12.6534 10.504C14.7434 7.99828 17.3429 5.8367 19.7853 4.57342C24.6029 2.08153 29.6786 1.94734 32.2754 2.0887C32.6192 2.10743 32.8925 2.3808 32.9113 2.72458C33.0528 5.32141 32.9184 10.3971 30.4265 15.2147C29.1633 17.657 27.0017 20.2564 24.496 22.3465Z" fill="#683BF2"/>
<path d="M23.9751 16.1493C25.2877 16.1492 26.6009 15.6495 27.6002 14.6501C28.5686 13.6818 29.1018 12.3944 29.1018 11.025C29.1018 9.65562 28.5685 8.36815 27.6002 7.39984C25.6012 5.40082 22.3487 5.40095 20.3499 7.39984C19.3815 8.36815 18.8483 9.65562 18.8483 11.025C18.8483 12.3944 19.3816 13.6818 20.3499 14.6501C21.3494 15.6497 22.6619 16.1495 23.9751 16.1493ZM21.7999 8.84987C22.3995 8.25016 23.1872 7.95034 23.9749 7.95034C24.7627 7.95034 25.5504 8.25016 26.15 8.84987C26.731 9.43086 27.0509 10.2033 27.0509 11.0249C27.0509 11.8465 26.731 12.6191 26.15 13.2C24.9507 14.3994 22.9992 14.3993 21.7998 13.2C21.2188 12.6191 20.8988 11.8466 20.8988 11.025C20.8988 10.2034 21.2189 9.43086 21.7999 8.84987Z" fill="#683BF2"/>
<path d="M1.04603 28.8433C1.30846 28.8433 1.57089 28.7432 1.77105 28.5429L5.1188 25.1952C5.51925 24.7947 5.51925 24.1455 5.1188 23.7451C4.71842 23.3446 4.06915 23.3446 3.6687 23.7451L0.321014 27.0928C-0.0794334 27.4933 -0.0794334 28.1425 0.321014 28.5429C0.52117 28.7431 0.783601 28.8433 1.04603 28.8433Z" fill="#683BF2"/>
<path d="M8.18683 26.8131C7.78645 26.4126 7.13717 26.4126 6.73672 26.8131L0.300438 33.2494C-0.100009 33.6499 -0.100009 34.2991 0.300438 34.6995C0.500662 34.8998 0.763025 34.9998 1.02546 34.9998C1.28789 34.9998 1.55032 34.8998 1.75047 34.6995L8.18676 28.2632C8.58727 27.8627 8.58727 27.2135 8.18683 26.8131Z" fill="#683BF2"/>
<path d="M9.80475 29.8811L6.457 33.2289C6.05655 33.6293 6.05655 34.2785 6.457 34.679C6.65722 34.8792 6.91965 34.9793 7.18202 34.9793C7.44438 34.9793 7.70688 34.8792 7.90703 34.679L11.2548 31.3312C11.6552 30.9308 11.6552 30.2816 11.2548 29.8811C10.8544 29.4807 10.2051 29.4807 9.80475 29.8811Z" fill="#683BF2"/>
</svg>
