<svg width="378" height="378" viewBox="0 0 378 378" fill="none" xmlns="http://www.w3.org/2000/svg">
<path d="M50.5257 0.00023543H48.7898V377.703H50.5257V0.00023543Z" fill="#7F57F7"/>
<path d="M106.189 0H104.453V377.702H106.189V0Z" fill="#7F57F7"/>
<path d="M161.876 0H160.14V377.702H161.876V0Z" fill="#7F57F7"/>
<path d="M217.562 0H215.826V377.702H217.562V0Z" fill="#7F57F7"/>
<path d="M273.249 0H271.513V377.702H273.249V0Z" fill="#7F57F7"/>
<path d="M328.912 0H327.176V377.702H328.912V0Z" fill="#7F57F7"/>
<path d="M377.702 48.7901H1.17743e-05V50.5258H377.702V48.7901Z" fill="#7F57F7"/>
<path d="M377.702 104.453H0V106.189H377.702V104.453Z" fill="#7F57F7"/>
<path d="M377.702 160.14H0V161.876H377.702V160.14Z" fill="#7F57F7"/>
<path d="M377.702 215.826H0V217.562H377.702V215.826Z" fill="#7F57F7"/>
<path d="M377.702 271.513H0V273.249H377.702V271.513Z" fill="#7F57F7"/>
<path d="M377.702 327.177H0V328.912H377.702V327.177Z" fill="#7F57F7"/>
</svg>
