<svg width="370" height="180" viewBox="0 0 370 180" fill="none" xmlns="http://www.w3.org/2000/svg">
<path d="M369.5 15V165C369.5 173.008 363.008 179.5 355 179.5H15C6.99186 179.5 0.5 173.008 0.5 165V14.0665C0.5 6.57393 6.57392 0.5 14.0665 0.5C17.9801 0.5 21.7031 2.19013 24.2793 5.13632L31.5633 13.4665C37.355 20.0901 45.725 23.8898 54.5236 23.8898H138.718C148.479 23.8898 157.65 19.2177 163.389 11.3216L166.912 6.47505C169.64 2.72119 174.001 0.5 178.641 0.5H355C363.008 0.5 369.5 6.99187 369.5 15Z" fill="#F4F1FE" stroke="#683BF2"/>
</svg>
