<svg width="402" height="402" viewBox="0 0 402 402" fill="none" xmlns="http://www.w3.org/2000/svg">
<path d="M195.199 402C192.109 401.932 189.698 399.353 189.8 396.298C189.868 393.209 192.448 390.799 195.504 390.867C198.56 390.935 200.97 393.515 200.902 396.603C200.835 399.59 198.356 402 195.334 402C195.3 402 195.266 402 195.199 402ZM212.141 396.264C211.903 393.209 214.144 390.528 217.199 390.256C220.255 389.985 222.937 392.259 223.243 395.314C223.481 398.368 221.206 401.05 218.15 401.355C218.15 401.355 218.15 401.355 218.15 401.321C218.014 401.355 217.845 401.355 217.675 401.355C214.789 401.355 212.378 399.149 212.141 396.264ZM172.315 400.065C169.259 399.624 167.154 396.807 167.596 393.786C168.037 390.732 170.855 388.627 173.877 389.068C176.898 389.476 179.003 392.293 178.596 395.348C178.223 398.131 175.812 400.133 173.096 400.133C172.858 400.133 172.587 400.099 172.315 400.065ZM234.311 393.752C233.734 390.766 235.669 387.813 238.691 387.236C241.679 386.625 244.633 388.559 245.244 391.58C245.821 394.567 243.886 397.52 240.864 398.131C240.49 398.199 240.151 398.233 239.744 398.233C237.163 398.199 234.854 396.366 234.311 393.752ZM149.805 395.551C146.817 394.771 145.051 391.75 145.832 388.763C146.613 385.776 149.635 384.011 152.623 384.792C155.611 385.573 157.376 388.593 156.595 391.58C155.916 394.092 153.675 395.755 151.231 395.755C150.755 395.755 150.28 395.653 149.805 395.551ZM256.074 388.695C255.124 385.776 256.753 382.654 259.639 381.703H259.673C262.593 380.753 265.717 382.382 266.667 385.301C267.618 388.22 265.988 391.343 263.069 392.293C262.525 392.463 261.914 392.53 261.337 392.53C259.028 392.53 256.855 391.037 256.074 388.695ZM127.94 388.458C125.122 387.337 123.696 384.113 124.782 381.262C125.937 378.411 129.128 376.985 132.014 378.106H131.98C134.832 379.226 136.258 382.45 135.138 385.301C134.289 387.507 132.184 388.865 129.977 388.865C129.298 388.865 128.619 388.695 127.94 388.458ZM277.091 381.194C275.801 378.377 277.023 375.119 279.841 373.829C282.625 372.539 285.918 373.761 287.208 376.544C288.499 379.361 287.242 382.62 284.458 383.943C283.711 384.283 282.93 384.452 282.15 384.452C280.045 384.419 278.041 383.197 277.091 381.194ZM107.059 378.92C104.343 377.461 103.291 374.1 104.717 371.419C106.176 368.704 109.538 367.652 112.22 369.077C114.936 370.537 115.989 373.897 114.563 376.578C113.578 378.479 111.609 379.565 109.64 379.565C108.757 379.565 107.874 379.361 107.059 378.92ZM297.122 371.317C295.527 368.67 296.409 365.276 299.024 363.681C301.672 362.085 305.067 362.934 306.663 365.547C308.259 368.195 307.376 371.589 304.762 373.184C303.879 373.727 302.86 373.999 301.91 373.999C300.008 373.999 298.175 373.048 297.122 371.317ZM87.401 367.075C84.8886 365.344 84.2435 361.882 85.9411 359.336C87.6727 356.824 91.1358 356.179 93.6822 357.877C96.2286 359.608 96.8397 363.07 95.1421 365.615C94.0556 367.176 92.3241 368.025 90.5586 368.025C89.4721 368.025 88.3856 367.72 87.401 367.075ZM315.898 359.2C313.996 356.79 314.438 353.294 316.882 351.428C319.293 349.527 322.79 349.968 324.657 352.446C326.559 354.856 326.117 358.352 323.639 360.218C322.654 361.033 321.432 361.372 320.244 361.372C318.614 361.372 316.984 360.626 315.898 359.2ZM69.2367 353.057C66.8941 351.02 66.6564 347.525 68.6935 345.183C70.6967 342.875 74.1937 342.637 76.5364 344.64C78.8451 346.642 79.0828 350.172 77.0797 352.48C75.9592 353.77 74.4314 354.415 72.8696 354.415C71.5455 354.415 70.2893 353.939 69.2367 353.057ZM333.145 345.047C331.006 342.841 331.074 339.311 333.247 337.173C335.454 335.034 338.985 335.102 341.124 337.274C343.263 339.481 343.195 343.01 341.022 345.149C339.936 346.201 338.544 346.744 337.152 346.744C335.726 346.744 334.266 346.167 333.145 345.047ZM52.7361 337.071C50.665 334.831 50.8348 331.301 53.0756 329.196C55.3164 327.126 58.8474 327.296 60.9185 329.57C62.9896 331.81 62.8538 335.306 60.6129 337.41C59.5265 338.394 58.2023 338.87 56.8443 338.87C55.3164 338.87 53.8565 338.259 52.7361 337.071ZM348.729 329.061C346.353 327.126 346.013 323.63 347.948 321.22C349.884 318.844 353.381 318.505 355.791 320.439C358.168 322.374 358.508 325.87 356.572 328.28C355.452 329.604 353.89 330.316 352.26 330.316C351.038 330.316 349.782 329.909 348.729 329.061ZM38.2046 319.319C36.4052 316.842 36.9145 313.38 39.393 311.581C41.9054 309.782 45.3685 310.291 47.168 312.803C48.9674 315.28 48.4242 318.742 45.9457 320.541C44.9271 321.254 43.8067 321.593 42.6523 321.593C40.9887 321.593 39.2911 320.813 38.2046 319.319ZM362.378 311.377C359.798 309.714 359.085 306.286 360.748 303.707C362.378 301.127 365.841 300.38 368.422 302.043C371.002 303.707 371.749 307.169 370.085 309.714C369.033 311.377 367.233 312.26 365.4 312.26C364.347 312.26 363.329 311.988 362.378 311.377ZM25.7443 300.041C24.2164 297.36 25.1671 293.999 27.8153 292.472C30.4975 290.945 33.8588 291.895 35.3866 294.543C36.8805 297.224 35.9299 300.584 33.3156 302.111C32.4328 302.62 31.4822 302.858 30.5655 302.858C28.6302 302.858 26.7968 301.84 25.7443 300.041ZM373.922 292.234C371.172 290.877 370.017 287.585 371.409 284.801C372.767 282.052 376.095 280.932 378.845 282.29C381.595 283.647 382.749 286.974 381.391 289.723C380.407 291.691 378.437 292.845 376.4 292.845C375.585 292.845 374.737 292.642 373.922 292.234ZM15.5926 279.473C14.4043 276.622 15.7284 273.397 18.5465 272.175C21.3645 271.021 24.6239 272.311 25.8461 275.162C27.0344 277.979 25.7103 281.238 22.8584 282.426C22.1793 282.731 21.3984 282.867 20.6854 282.867C18.5465 282.867 16.5093 281.577 15.5926 279.473ZM383.225 271.938C380.339 270.919 378.845 267.729 379.863 264.81C380.882 261.925 384.073 260.432 386.993 261.45C389.879 262.468 391.373 265.659 390.354 268.577C389.54 270.852 387.401 272.277 385.126 272.277C384.481 272.277 383.87 272.175 383.225 271.938ZM7.85158 257.852C7.00278 254.899 8.66643 251.811 11.5863 250.962C14.5401 250.08 17.6298 251.777 18.5125 254.73C19.3613 257.682 17.6637 260.771 14.7438 261.62C14.2006 261.789 13.6913 261.857 13.182 261.857C10.7714 261.823 8.56457 260.262 7.85158 257.852ZM390.117 250.691C387.129 250.012 385.296 247.025 385.975 244.038C386.654 241.051 389.642 239.218 392.629 239.897C395.617 240.576 397.45 243.563 396.771 246.55C396.194 249.095 393.919 250.826 391.373 250.826C390.966 250.826 390.558 250.792 390.117 250.691ZM2.65693 235.485C2.1137 232.464 4.15082 229.579 7.17254 229.07C10.1943 228.527 13.0802 230.563 13.5895 233.584C14.1327 236.605 12.0956 239.49 9.07385 239.999C8.73433 240.067 8.42877 240.067 8.1232 240.067C5.47495 240.101 3.0983 238.166 2.65693 235.485ZM394.531 228.798C391.475 228.459 389.268 225.71 389.641 222.655C389.981 219.6 392.731 217.428 395.787 217.768C398.842 218.107 401.049 220.89 400.676 223.911C400.37 226.728 397.96 228.866 395.176 228.866C394.938 228.832 394.734 228.832 394.531 228.798ZM0.00867336 212.676C-0.161086 209.622 2.1816 207.008 5.27123 206.805C8.32691 206.635 10.9412 208.977 11.1449 212.066C11.3147 215.12 8.972 217.734 5.91632 217.937C5.81447 217.937 5.67866 217.937 5.5768 217.937C2.65693 217.937 0.212385 215.663 0.00867336 212.676ZM390.864 201.001C390.864 200.933 390.864 200.865 390.864 200.763C390.864 200.695 390.864 200.661 390.864 200.56C390.83 197.505 393.342 194.993 396.398 194.993C399.488 194.993 401.966 197.471 402 200.56C402 200.627 402 200.695 402 200.763C402 200.831 402 200.899 402 201.001C402 204.055 399.488 206.567 396.432 206.567C393.342 206.567 390.864 204.055 390.864 201.001ZM5.23728 195.604C2.1816 195.4 -0.161086 192.787 0.00867336 189.732C0.178433 186.644 2.79274 184.302 5.84842 184.471C8.93805 184.641 11.2807 187.289 11.111 190.343C10.9412 193.296 8.49667 195.604 5.54285 195.604C5.47494 195.604 5.33914 195.604 5.23728 195.604ZM389.574 178.939C389.2 175.884 391.407 173.135 394.463 172.762C397.518 172.422 400.268 174.595 400.608 177.649C400.981 180.704 398.809 183.453 395.753 183.793C395.515 183.827 395.311 183.86 395.108 183.86C392.29 183.86 389.913 181.79 389.574 178.939ZM7.13859 173.373C4.11686 172.83 2.07974 169.979 2.58902 166.958C3.13226 163.937 5.98422 161.901 9.00594 162.41C12.0277 162.953 14.0648 165.804 13.5216 168.825C13.0802 171.54 10.7035 173.475 8.05529 173.475C7.74973 173.441 7.44416 173.407 7.13859 173.373ZM385.839 157.59C385.16 154.603 386.993 151.616 390.015 150.938C393.003 150.259 395.991 152.092 396.67 155.078C397.349 158.065 395.515 161.052 392.527 161.731C392.086 161.833 391.679 161.901 391.237 161.901C388.759 161.901 386.484 160.136 385.839 157.59ZM11.4844 151.481C8.53061 150.632 6.86697 147.543 7.71577 144.591C8.59852 141.638 11.6882 139.941 14.608 140.823C17.5958 141.672 19.2594 144.76 18.4106 147.713C17.6976 150.123 15.4568 151.718 13.0462 151.718C12.5709 151.684 12.0277 151.616 11.4844 151.481ZM379.728 136.818C378.709 133.933 380.203 130.743 383.089 129.69C385.975 128.672 389.132 130.166 390.219 133.051C391.237 135.936 389.743 139.092 386.857 140.144C386.246 140.382 385.601 140.484 384.956 140.484C382.647 140.484 380.542 139.058 379.728 136.818ZM18.3767 130.2C15.5587 129.012 14.2006 125.753 15.3889 122.936C16.5772 120.119 19.8706 118.761 22.6546 119.949C25.4727 121.137 26.8307 124.43 25.6424 127.213C24.7597 129.351 22.6886 130.641 20.5157 130.641C19.8366 130.675 19.0897 130.539 18.3767 130.2ZM371.24 116.861C369.881 114.112 371.002 110.785 373.752 109.428C376.502 108.07 379.829 109.19 381.187 111.939C381.187 111.939 381.187 111.939 381.187 111.973C382.546 114.722 381.425 118.015 378.675 119.406C377.86 119.814 377.045 119.983 376.196 119.983C374.193 119.949 372.224 118.795 371.24 116.861ZM27.6456 109.903C24.9634 108.375 24.0467 104.981 25.5745 102.3C27.0684 99.6186 30.4636 98.7022 33.1458 100.196C35.828 101.689 36.7447 105.083 35.2508 107.764V107.798C34.2323 109.597 32.331 110.616 30.3957 110.616C29.445 110.616 28.4944 110.378 27.6456 109.903ZM360.511 97.9895C358.847 95.4439 359.594 91.9819 362.174 90.3188C364.755 88.6557 368.184 89.4024 369.847 91.948C371.511 94.5275 370.798 97.9895 368.218 99.6526C367.267 100.264 366.249 100.535 365.23 100.535C363.363 100.535 361.597 99.6526 360.511 97.9895ZM39.2232 90.76C36.7108 88.9612 36.1675 85.4652 37.967 83.0215C39.7664 80.5098 43.2635 80.0007 45.742 81.7657C48.2205 83.5645 48.7637 87.0265 46.9642 89.5381C45.8778 91.0315 44.1802 91.8122 42.4486 91.8122C41.3282 91.8122 40.1739 91.4728 39.2232 90.76ZM347.711 80.4759C345.776 78.1 346.115 74.604 348.492 72.6694C350.868 70.7347 354.365 71.0741 356.301 73.4161C358.236 75.7919 357.896 79.3218 355.554 81.2565C354.501 82.105 353.245 82.5124 352.023 82.5124C350.427 82.5124 348.831 81.8335 347.711 80.4759ZM52.8379 73.0767C50.5971 71.0063 50.4274 67.4764 52.4984 65.2362C54.5695 62.9622 58.1005 62.8265 60.3413 64.8629C62.6161 66.9333 62.7519 70.4632 60.7148 72.7373C59.5944 73.9252 58.1005 74.5362 56.6066 74.5362C55.2485 74.5362 53.8904 74.061 52.8379 73.0767ZM333.01 64.5235C330.803 62.4192 330.769 58.8893 332.908 56.6831C335.013 54.4769 338.544 54.409 340.751 56.5473C342.958 58.6856 343.025 62.2155 340.886 64.4217C339.8 65.5417 338.34 66.1187 336.88 66.1187C335.488 66.1187 334.096 65.6096 333.01 64.5235ZM68.3879 57.0565C66.3508 54.7146 66.6224 51.2186 68.9312 49.1822C68.9312 49.1822 68.9312 49.1821 68.9312 49.216C71.2739 47.1796 74.7709 47.4511 76.7741 49.7591C78.8112 52.0671 78.5396 55.563 76.2309 57.5995C75.1783 58.5159 73.8542 58.9572 72.598 58.9572C71.0362 58.9572 69.4744 58.3123 68.3879 57.0565ZM316.611 50.3701C314.2 48.5034 313.725 45.0074 315.626 42.5976C317.494 40.1538 320.991 39.7125 323.401 41.5793C325.846 43.446 326.287 46.942 324.42 49.3518C323.299 50.8113 321.67 51.5241 320.006 51.5241C318.818 51.4902 317.629 51.1508 316.611 50.3701ZM85.6355 42.903C83.87 40.3575 84.5151 36.8955 87.0615 35.1645C89.574 33.3995 93.071 34.0445 94.8026 36.59C96.5341 39.1017 95.889 42.5976 93.3426 44.2946C92.358 44.9735 91.2716 45.3128 90.1851 45.3128C88.4536 45.3128 86.722 44.4643 85.6355 42.903ZM298.684 38.1513C296.036 36.5561 295.187 33.162 296.783 30.5145C298.379 27.9011 301.774 27.0526 304.422 28.6139C307.036 30.2091 307.885 33.6032 306.323 36.2506C305.305 37.9816 303.437 38.9319 301.536 38.9319C300.552 38.9658 299.601 38.6604 298.684 38.1513ZM104.411 30.786C102.951 28.0707 104.004 24.7106 106.72 23.2851C109.402 21.8256 112.763 22.8778 114.223 25.5592C115.683 28.2745 114.631 31.6345 111.914 33.094C111.066 33.5352 110.183 33.7389 109.334 33.7389C107.331 33.7389 105.396 32.6867 104.411 30.786ZM279.501 28.0368C276.683 26.747 275.461 23.4888 276.751 20.6716C278.041 17.8885 281.301 16.6327 284.085 17.9224C284.085 17.9224 284.085 17.9224 284.119 17.9224C286.903 19.2122 288.159 22.4705 286.869 25.2876C285.918 27.358 283.881 28.5459 281.81 28.5459C281.029 28.5459 280.248 28.3762 279.501 28.0368ZM124.409 20.8753C123.288 18.0242 124.714 14.7998 127.566 13.6798C130.384 12.5597 133.61 13.9513 134.764 16.8023C135.884 19.6534 134.458 22.8778 131.607 23.9978C130.927 24.2693 130.282 24.3712 129.569 24.3712C127.363 24.4052 125.291 23.0815 124.409 20.8753ZM259.266 20.1964C256.346 19.2461 254.75 16.1235 255.667 13.2046C256.618 10.2856 259.741 8.6904 262.661 9.60681C265.581 10.5572 267.177 13.6797 266.26 16.5987C265.479 18.9746 263.306 20.468 260.964 20.468C260.386 20.468 259.809 20.4001 259.266 20.1964ZM145.459 13.3742C144.678 10.3874 146.444 7.36665 149.397 6.586C152.385 5.77142 155.407 7.57031 156.222 10.5232C157.003 13.51 155.237 16.5308 152.249 17.3114C151.774 17.4472 151.299 17.515 150.823 17.515C148.345 17.515 146.104 15.818 145.459 13.3742ZM238.25 14.732C235.262 14.155 233.293 11.202 233.87 8.21521C234.481 5.2284 237.401 3.22587 240.423 3.87076C243.41 4.4817 245.38 7.40068 244.768 10.3875C244.225 13.0349 241.916 14.8676 239.336 14.8676C238.997 14.8337 238.657 14.7998 238.25 14.732ZM167.188 8.31703C166.781 5.26233 168.852 2.44527 171.908 2.00404C174.929 1.5628 177.781 3.6671 178.189 6.7218C178.63 9.74256 176.525 12.5597 173.503 13.0009C173.232 13.0349 172.96 13.0688 172.688 13.0688C169.972 13.0688 167.596 11.0663 167.188 8.31703ZM216.792 11.7111C213.736 11.4396 211.462 8.7583 211.699 5.7036C211.937 2.61496 214.653 0.37485 217.709 0.612438C220.764 0.850025 223.039 3.56528 222.802 6.61998C222.564 9.50497 220.119 11.7111 217.233 11.7111C217.098 11.7111 216.928 11.7111 216.792 11.7111ZM189.359 5.73748C189.291 2.64883 191.701 0.103242 194.757 0.00141883C197.847 -0.0664634 200.393 2.30951 200.495 5.39815C200.597 8.45285 198.186 10.9984 195.097 11.1342C195.029 11.1342 194.995 11.1342 194.927 11.1342C191.939 11.1342 189.461 8.75823 189.359 5.73748Z" fill="#7F57F7"/>
</svg>
