<svg width="413" height="413" viewBox="0 0 413 413" fill="none" xmlns="http://www.w3.org/2000/svg">
<mask id="mask0_1205_602" style="mask-type:luminance" maskUnits="userSpaceOnUse" x="0" y="0" width="413" height="413">
<path d="M121.023 291.666L121.023 291.666C168.153 338.768 244.533 338.739 291.634 291.638C338.736 244.536 338.736 168.156 291.634 121.054C244.532 73.9523 168.181 73.9528 121.051 121.054C73.9208 168.156 73.9208 244.564 121.023 291.666ZM61.497 61.4724C141.479 -18.5093 271.206 -18.4817 351.188 61.5005C431.17 141.511 431.198 271.21 351.216 351.191C271.206 431.201 141.479 431.174 61.497 351.191C-18.4851 271.209 -18.5129 141.482 61.497 61.4724Z" fill="white" stroke="white" stroke-width="3"/>
</mask>
<g mask="url(#mask0_1205_602)">
<path d="M197.99 -103.643L-103.676 198.023" stroke="#683BF2" stroke-width="3" stroke-miterlimit="10"/>
<path d="M211.239 -90.3921L-90.4268 211.274" stroke="#683BF2" stroke-width="3" stroke-miterlimit="10"/>
<path d="M224.519 -77.1143L-77.1465 224.551" stroke="#683BF2" stroke-width="3" stroke-miterlimit="10"/>
<path d="M237.768 -63.8647L-63.8975 237.801" stroke="#683BF2" stroke-width="3" stroke-miterlimit="10"/>
<path d="M251.048 -50.5864L-50.6182 251.079" stroke="#683BF2" stroke-width="3" stroke-miterlimit="10"/>
<path d="M264.298 -37.3359L-37.3682 264.33" stroke="#683BF2" stroke-width="3" stroke-miterlimit="10"/>
<path d="M277.574 -24.0576L-24.0918 277.608" stroke="#683BF2" stroke-width="3" stroke-miterlimit="10"/>
<path d="M290.826 -10.8081L-10.8398 290.858" stroke="#683BF2" stroke-width="3" stroke-miterlimit="10"/>
<path d="M304.103 2.47021L2.4375 304.136" stroke="#683BF2" stroke-width="3" stroke-miterlimit="10"/>
<path d="M317.38 15.7207L15.6865 317.415" stroke="#683BF2" stroke-width="3" stroke-miterlimit="10"/>
<path d="M330.632 28.999L28.9658 330.665" stroke="#683BF2" stroke-width="3" stroke-miterlimit="10"/>
<path d="M343.912 42.2773L42.2461 343.943" stroke="#683BF2" stroke-width="3" stroke-miterlimit="10"/>
<path d="M357.161 55.5278L55.4951 357.194" stroke="#683BF2" stroke-width="3" stroke-miterlimit="10"/>
<path d="M370.437 68.8062L68.7715 370.472" stroke="#683BF2" stroke-width="3" stroke-miterlimit="10"/>
<path d="M383.69 82.0557L82.0244 383.721" stroke="#683BF2" stroke-width="3" stroke-miterlimit="10"/>
<path d="M396.967 95.3335L95.3008 396.999" stroke="#683BF2" stroke-width="3" stroke-miterlimit="10"/>
<path d="M410.216 108.584L108.55 410.25" stroke="#683BF2" stroke-width="3" stroke-miterlimit="10"/>
<path d="M423.496 121.863L121.83 423.529" stroke="#683BF2" stroke-width="3" stroke-miterlimit="10"/>
<path d="M436.773 135.112L135.079 436.778" stroke="#683BF2" stroke-width="3" stroke-miterlimit="10"/>
<path d="M450.024 148.39L148.358 450.056" stroke="#683BF2" stroke-width="3" stroke-miterlimit="10"/>
<path d="M463.302 161.668L161.636 463.334" stroke="#683BF2" stroke-width="3" stroke-miterlimit="10"/>
<path d="M476.553 174.919L174.888 476.585" stroke="#683BF2" stroke-width="3" stroke-miterlimit="10"/>
<path d="M489.83 188.197L188.164 489.863" stroke="#683BF2" stroke-width="3" stroke-miterlimit="10"/>
<path d="M503.08 201.448L201.414 503.114" stroke="#683BF2" stroke-width="3" stroke-miterlimit="10"/>
<path d="M516.359 214.726L214.693 516.392" stroke="#683BF2" stroke-width="3" stroke-miterlimit="10"/>
<path d="M529.608 227.976L227.942 529.641" stroke="#683BF2" stroke-width="3" stroke-miterlimit="10"/>
</g>
</svg>
