<svg width="499" height="189" viewBox="0 0 499 189" fill="none" xmlns="http://www.w3.org/2000/svg">
<path d="M2.07318 91.3015C1.51786 91.3015 0.981067 91.0793 0.610854 90.6906C0.407237 90.5055 0.25917 90.2834 0.166617 90.0427C0.0555534 89.8021 0 89.5244 0 89.2653C0 88.71 0.222131 88.1732 0.610854 87.803C1.07362 87.3402 1.77705 87.0996 2.46195 87.2476C2.59152 87.2662 2.72108 87.3032 2.85065 87.3587C2.98023 87.4142 3.0913 87.4883 3.20236 87.5623C3.31342 87.6178 3.40595 87.7104 3.51701 87.803C3.90573 88.1732 4.10936 88.71 4.10936 89.2653C4.10936 89.5244 4.07237 89.8021 3.9613 90.0427C3.85024 90.2834 3.70212 90.5055 3.51701 90.6906C3.40595 90.8017 3.31342 90.8757 3.20236 90.9498C3.0913 91.0053 2.98023 91.0793 2.85065 91.1349C2.72108 91.1904 2.59152 91.2089 2.46195 91.2644C2.35088 91.283 2.20276 91.3015 2.07318 91.3015Z" fill="#683BF2"/>
<path d="M2.48031 80.3244C1.35116 80.1763 0.573727 79.1582 0.703302 78.0291C0.851387 76.9 1.86945 76.104 2.9986 76.2521C4.12775 76.4002 4.92375 77.4183 4.77566 78.5474C4.62758 79.5655 3.75757 80.3429 2.73948 80.3429C2.66544 80.3614 2.57286 80.3244 2.48031 80.3244ZM174.092 78.3993C173.944 77.2702 174.74 76.2521 175.869 76.104C176.98 75.9559 177.998 76.7519 178.146 77.881C178.294 79.0102 177.498 80.0283 176.388 80.1763C176.277 80.1763 176.203 80.1948 176.129 80.1948C175.092 80.2134 174.204 79.4544 174.092 78.3993ZM4.27584 69.4957C3.18371 69.1995 2.53586 68.1074 2.79501 66.9968C3.09118 65.9046 4.18332 65.2568 5.29396 65.5159C6.38609 65.7936 7.05245 66.9042 6.77479 68.0148C6.53415 68.9404 5.70116 69.5512 4.79414 69.5512C4.62754 69.5697 4.46095 69.5512 4.27584 69.4957ZM172.075 67.8853C171.797 66.7931 172.445 65.664 173.556 65.4048C174.648 65.1087 175.777 65.7751 176.036 66.8672C176.332 67.9778 175.666 69.0885 174.555 69.3661C174.389 69.4031 174.222 69.4217 174.055 69.4217C173.148 69.4217 172.297 68.8108 172.075 67.8853ZM7.4412 58.9816C6.36758 58.5744 5.86779 57.3897 6.27502 56.3161C6.70077 55.2795 7.90396 54.7612 8.94056 55.1685C10.0142 55.5942 10.514 56.7974 10.0882 57.834C9.77353 58.6299 8.99608 59.1297 8.18162 59.1297C7.92247 59.1297 7.68184 59.0927 7.4412 58.9816ZM168.761 57.7044C168.336 56.6493 168.835 55.4646 169.909 55.0389C170.946 54.6317 172.149 55.15 172.556 56.1865C172.982 57.2417 172.482 58.4448 171.427 58.8521C171.186 58.9631 170.909 59.0002 170.668 59.0002C169.854 59.0002 169.058 58.5189 168.761 57.7044ZM11.8652 48.9489C10.8842 48.3936 10.514 47.1534 11.0693 46.1538C11.6246 45.1727 12.8463 44.8025 13.8644 45.3578C14.8455 45.8946 15.2157 47.1348 14.6603 48.1344C14.2901 48.8378 13.5867 49.208 12.8648 49.208C12.5131 49.208 12.1614 49.1155 11.8652 48.9489ZM164.189 48.0234V48.0419C163.634 47.0423 163.986 45.7836 164.985 45.2468C165.966 44.6914 167.225 45.0431 167.78 46.0427C168.317 47.0238 167.965 48.2825 166.984 48.8378C166.651 49.0044 166.337 49.0785 165.985 49.0785C165.244 49.097 164.559 48.7082 164.189 48.0234ZM17.548 39.564C16.6225 38.8791 16.4189 37.6204 17.1038 36.6948C17.7516 35.7693 19.0473 35.5657 19.9544 36.2506C20.8799 36.8985 21.0835 38.1942 20.3986 39.1197C20.0099 39.6565 19.3805 39.9527 18.7326 39.9527C18.3254 39.9527 17.8997 39.8046 17.548 39.564ZM158.414 39.0087C157.729 38.1016 157.951 36.8059 158.858 36.158C159.765 35.4731 161.061 35.6953 161.709 36.5838C161.709 36.5838 161.709 36.5838 161.727 36.5838C162.375 37.5093 162.172 38.8051 161.283 39.4529C160.913 39.7121 160.487 39.8416 160.08 39.8416C159.451 39.8416 158.803 39.564 158.414 39.0087ZM24.3229 30.938C23.5084 30.1606 23.4529 28.8648 24.2488 28.0319C25.0263 27.2174 26.322 27.1619 27.1365 27.9578C27.951 28.7353 28.0065 30.031 27.2105 30.8455C26.8218 31.2712 26.2665 31.4934 25.7112 31.4934C25.2299 31.4934 24.7301 31.3082 24.3229 30.938ZM151.565 30.7899C150.806 29.957 150.825 28.6612 151.676 27.8838C152.491 27.1063 153.786 27.1434 154.564 27.9578C155.341 28.7908 155.304 30.0865 154.49 30.864C154.082 31.2342 153.583 31.4193 153.083 31.4193C152.528 31.4193 151.972 31.1972 151.565 30.7899ZM32.1529 23.2376C31.4309 22.3676 31.5605 21.0904 32.412 20.3685C33.3005 19.628 34.5778 19.7576 35.2997 20.6276C36.0216 21.4976 35.9105 22.7748 35.0405 23.5153C34.6518 23.8299 34.2076 23.978 33.7263 23.978C33.1524 23.9965 32.5601 23.7189 32.1529 23.2376ZM143.754 23.4412C142.884 22.7193 142.772 21.4236 143.494 20.5536C144.216 19.6836 145.512 19.5725 146.382 20.2944C147.252 21.0163 147.363 22.3121 146.641 23.1821C146.234 23.6819 145.66 23.9225 145.068 23.9225C144.624 23.904 144.142 23.7744 143.754 23.4412ZM40.8529 16.5923C40.242 15.6297 40.5197 14.3525 41.4822 13.7417C42.4263 13.1493 43.7035 13.427 44.3144 14.371C44.9067 15.3336 44.6476 16.6108 43.685 17.2031C43.3333 17.4253 42.9631 17.5363 42.5929 17.5363C41.908 17.5363 41.2601 17.2031 40.8529 16.5923ZM135.109 17.1476C134.147 16.5553 133.85 15.278 134.48 14.3155C135.072 13.3714 136.349 13.0938 137.312 13.6861C138.256 14.297 138.534 15.5742 137.941 16.5182C137.552 17.1291 136.868 17.4808 136.201 17.4808C135.812 17.4808 135.424 17.3697 135.109 17.1476ZM50.3303 11.0576C49.8305 10.058 50.2933 8.81782 51.3114 8.33654C52.3295 7.87378 53.5512 8.29953 54.0324 9.31761C54.4952 10.3357 54.0695 11.5759 53.0514 12.0387C52.7552 12.1868 52.4776 12.2423 52.1814 12.2423C51.4224 12.2423 50.682 11.8165 50.3303 11.0576ZM125.706 12.0017C124.688 11.5019 124.225 10.2987 124.725 9.28059C125.224 8.2625 126.428 7.79974 127.446 8.29953C128.464 8.76229 128.908 10.0025 128.427 11.0206C128.075 11.761 127.335 12.1868 126.557 12.1868C126.279 12.1868 126.002 12.1127 125.706 12.0017ZM60.4186 6.78165C60.0669 5.68952 60.6593 4.54186 61.7329 4.17165C61.7329 4.17165 61.7329 4.17165 61.7514 4.17165C62.825 3.81995 63.9912 4.41229 64.3429 5.50442C64.6946 6.57803 64.1022 7.74421 63.0101 8.09591C62.8065 8.15144 62.6029 8.20697 62.3808 8.20697C61.5108 8.20697 60.7148 7.65165 60.4186 6.78165ZM115.747 8.05889C114.673 7.70718 114.081 6.54101 114.433 5.46739C114.784 4.37527 115.932 3.80144 117.024 4.13463C117.024 4.13463 117.024 4.13463 117.024 4.15314C118.098 4.48633 118.69 5.6525 118.338 6.70761C118.061 7.59612 117.246 8.15144 116.395 8.15144C116.173 8.16995 115.951 8.11442 115.747 8.05889ZM70.9882 3.80144C70.7846 2.6908 71.5065 1.63569 72.6357 1.39505C73.7463 1.19144 74.8014 1.93187 75.042 3.04251C75.2457 4.15314 74.5052 5.24527 73.3946 5.44889C73.265 5.4674 73.1539 5.48591 73.0059 5.48591C72.0433 5.4674 71.1733 4.78251 70.9882 3.80144ZM105.362 5.41187C104.233 5.18974 103.511 4.11612 103.715 3.00548C103.919 1.87633 105.011 1.15442 106.121 1.35804C107.232 1.56165 107.972 2.65378 107.769 3.76442C107.584 4.74548 106.732 5.43037 105.751 5.43037C105.603 5.43037 105.492 5.43038 105.362 5.41187ZM81.8355 2.1725C81.7799 1.04335 82.6129 0.0622867 83.7605 0.00675478C84.8897 -0.0487771 85.8523 0.784203 85.9263 1.93186C85.9818 3.06101 85.1303 4.02357 84.0012 4.09761C83.9642 4.09761 83.9271 4.09761 83.8716 4.09761C82.798 4.09761 81.9095 3.26463 81.8355 2.1725ZM94.7373 4.0791C93.5897 4.02356 92.7197 3.02399 92.8123 1.91336C92.8678 0.784206 93.8673 -0.0857984 94.978 0.00675478C96.1071 0.0622867 96.9586 1.02484 96.8846 2.1725C96.829 3.26463 95.9221 4.0791 94.8484 4.0791C94.8299 4.0791 94.7743 4.0791 94.7373 4.0791Z" fill="#683BF2"/>
<path d="M176.814 91.301C176.555 91.301 176.277 91.2455 176.036 91.1344C175.777 91.0234 175.574 90.8938 175.351 90.6902C174.981 90.32 174.759 89.7832 174.759 89.2464C174.759 88.691 174.981 88.1727 175.351 87.784C175.555 87.5989 175.777 87.4323 176.036 87.3398C176.795 87.0251 177.702 87.2102 178.276 87.784C178.646 88.1727 178.868 88.691 178.868 89.2464C178.868 89.7832 178.646 90.32 178.276 90.6902C178.091 90.8938 177.869 91.0419 177.591 91.1344C177.351 91.2455 177.091 91.301 176.814 91.301Z" fill="#683BF2"/>
<path d="M27.9141 91.301C27.766 91.301 27.6549 91.2825 27.5068 91.264C27.3773 91.227 27.2662 91.2085 27.1366 91.1344C26.9885 91.0974 26.896 91.0049 26.7664 90.9493C26.6554 90.8753 26.5628 90.7827 26.4517 90.6902C26.3407 90.6161 26.2666 90.5051 26.2111 90.3755C26.137 90.2644 26.063 90.1534 26.0075 90.0238C25.9705 89.8942 25.9335 89.7832 25.8964 89.6351C25.8594 89.5055 25.8594 89.3759 25.8594 89.2464C25.8594 88.691 26.063 88.1727 26.4517 87.784C27.0256 87.2102 27.9326 87.0251 28.6915 87.3398C28.9321 87.4508 29.1543 87.5989 29.3394 87.784C29.543 87.9691 29.6911 88.1913 29.7836 88.4319C29.8947 88.691 29.9502 88.9687 29.9502 89.2279C29.9502 89.7647 29.7281 90.3015 29.3394 90.6717C28.9877 91.0789 28.4509 91.301 27.9141 91.301Z" fill="#683BF2"/>
<path d="M28.4879 80.5832C27.3588 80.3796 26.6184 79.3244 26.8035 78.1953C27.0071 77.0847 28.0807 76.3257 29.1728 76.5294C30.302 76.7145 31.0424 77.7881 30.8388 78.9172C30.6722 79.8983 29.8207 80.6017 28.8211 80.6017C28.7286 80.6017 28.6175 80.6017 28.4879 80.5832ZM148.011 78.8247C147.826 77.714 148.566 76.6589 149.677 76.4368C150.806 76.2517 151.88 76.9921 152.046 78.1028C152.25 79.2319 151.491 80.3055 150.381 80.4906C150.251 80.5091 150.14 80.5276 150.029 80.5276C149.048 80.5091 148.178 79.8242 148.011 78.8247ZM30.9128 70.1247C29.8392 69.7359 29.2839 68.5698 29.6911 67.4962C30.0799 66.4225 31.246 65.9042 32.3197 66.2745C33.3933 66.6632 33.9486 67.8479 33.5413 68.9215C33.2266 69.7359 32.4492 70.2727 31.6163 70.2727C31.3941 70.2542 31.135 70.2172 30.9128 70.1247ZM145.309 68.8104C144.92 67.7553 145.475 66.5706 146.53 66.1819C147.604 65.7932 148.77 66.3485 149.159 67.4036C149.548 68.4772 148.992 69.6434 147.937 70.0321C147.715 70.1062 147.474 70.1617 147.234 70.1617C146.401 70.1617 145.623 69.6434 145.309 68.8104ZM35.1147 60.2585C34.1337 59.7032 33.8005 58.463 34.3743 57.4634C34.9296 56.4823 36.1699 56.1491 37.1694 56.7045C38.1505 57.2783 38.4837 58.537 37.9284 59.5181C37.5397 60.1659 36.8362 60.5362 36.1513 60.5362C35.7996 60.5362 35.4479 60.4436 35.1147 60.2585ZM140.922 59.4255C140.348 58.4444 140.681 57.1857 141.662 56.6304C142.643 56.0566 143.902 56.3898 144.476 57.3708C145.031 58.3334 144.698 59.6106 143.717 60.1659C143.402 60.3696 143.032 60.4621 142.699 60.4621C141.995 60.4621 141.292 60.0919 140.922 59.4255ZM40.9826 51.2623C40.1126 50.5404 40.0016 49.2447 40.742 48.3932C41.4639 47.5047 42.7596 47.4121 43.6111 48.134C44.4996 48.8744 44.5922 50.1702 43.8703 51.0217C43.4631 51.5215 42.8892 51.7621 42.2969 51.7621C41.8341 51.7621 41.3714 51.5955 40.9826 51.2623ZM134.961 50.9662C134.221 50.0962 134.35 48.8004 135.202 48.0785C136.072 47.3381 137.349 47.4676 138.089 48.3191C138.811 49.1891 138.7 50.4664 137.849 51.2068C137.46 51.54 136.979 51.6696 136.535 51.6696C135.942 51.6881 135.368 51.4289 134.961 50.9662ZM48.3128 43.4323C47.5909 42.5623 47.702 41.2851 48.572 40.5632C48.572 40.5632 48.572 40.5632 48.5535 40.5632C49.442 39.8227 50.7192 39.9523 51.4411 40.8038C52.1816 41.6738 52.052 42.951 51.2005 43.6915C50.8118 44.0062 50.3305 44.1542 49.8862 44.1542C49.2939 44.1728 48.7201 43.9321 48.3128 43.4323ZM127.612 43.6359C126.742 42.914 126.631 41.5998 127.372 40.7483C128.094 39.8783 129.389 39.7672 130.259 40.5076C131.129 41.2296 131.24 42.5253 130.5 43.3953C130.093 43.8581 129.519 44.1172 128.927 44.1172C128.482 44.1172 128.001 43.9691 127.612 43.6359ZM56.8833 36.9906C56.3094 36.0096 56.6611 34.7508 57.6237 34.177C58.6047 33.6217 59.8634 33.9549 60.4373 34.9359C61.0111 35.8985 60.6594 37.1757 59.6969 37.7496C59.3637 37.9347 59.012 38.0087 58.6788 38.0087C57.9384 38.0272 57.2535 37.657 56.8833 36.9906ZM119.135 37.694C118.153 37.1387 117.82 35.8615 118.394 34.8989C118.949 33.9179 120.19 33.5662 121.189 34.14C122.17 34.7138 122.503 35.9725 121.948 36.9351C121.559 37.62 120.875 37.9717 120.171 37.9717C119.801 37.9902 119.449 37.8791 119.135 37.694ZM66.4348 32.1408C66.046 31.0672 66.6014 29.8825 67.6565 29.5123C68.7301 29.1051 69.8962 29.6604 70.2849 30.7155C70.6737 31.7891 70.1183 32.9553 69.0632 33.344C68.8411 33.4181 68.6005 33.4736 68.3598 33.4736C67.5268 33.4736 66.7494 32.9553 66.4348 32.1408ZM109.731 33.3255C108.657 32.9368 108.102 31.7706 108.509 30.697C108.898 29.6234 110.064 29.0681 111.138 29.4753C112.212 29.864 112.767 31.0302 112.36 32.1038C112.045 32.9368 111.268 33.4551 110.435 33.4551C110.212 33.4551 109.953 33.3996 109.731 33.3255ZM76.6896 29.0125C76.5045 27.8834 77.2449 26.8098 78.3741 26.6432C79.4847 26.4396 80.5399 27.18 80.725 28.3091C80.9286 29.4198 80.1882 30.4749 79.059 30.6785C78.9295 30.697 78.8369 30.697 78.7073 30.697C77.7448 30.697 76.8747 30.0121 76.6896 29.0125ZM99.7169 30.66C98.6062 30.4564 97.8473 29.4013 98.0509 28.2721C98.236 27.1615 99.3097 26.4025 100.402 26.6062C101.531 26.7913 102.271 27.8649 102.086 28.994C101.901 29.9751 101.031 30.6785 100.05 30.6785C99.976 30.6785 99.8464 30.6785 99.7169 30.66ZM89.3879 29.7715C88.2588 29.7715 87.3332 28.8459 87.3332 27.7168C87.3332 26.5876 88.2588 25.6621 89.3879 25.6621C90.5356 25.6621 91.4426 26.5691 91.4611 27.7168C91.4611 28.8459 90.5356 29.7715 89.4065 29.7715C88.2588 29.7715 89.4065 29.7715 89.3879 29.7715Z" fill="#683BF2"/>
<path d="M150.973 91.3011C150.713 91.3011 150.436 91.2456 150.177 91.1345C149.936 91.0234 149.714 90.8938 149.529 90.6902C149.344 90.5051 149.177 90.283 149.085 90.0424C148.974 89.8017 148.937 89.5241 148.937 89.2649C148.937 89.1168 148.937 89.0058 148.974 88.8577C148.992 88.7281 149.029 88.5985 149.085 88.469C149.14 88.3394 149.214 88.2468 149.288 88.1172C149.344 88.0062 149.436 87.9136 149.529 87.8026C149.714 87.6175 149.936 87.4509 150.177 87.3583C150.936 87.0436 151.861 87.2287 152.435 87.8026C152.509 87.9136 152.602 88.0062 152.676 88.1172C152.731 88.2468 152.824 88.3394 152.861 88.469C152.898 88.5985 152.935 88.7281 152.99 88.8577C153.009 89.0058 153.027 89.1168 153.027 89.2649C153.027 89.5241 152.972 89.8017 152.861 90.0424C152.75 90.283 152.62 90.5051 152.435 90.6902C152.046 91.0789 151.509 91.3011 150.973 91.3011Z" fill="#683BF2"/>
<path d="M53.1255 91.301C52.5887 91.301 52.0519 91.0789 51.6632 90.6902C51.2929 90.32 51.0708 89.7832 51.0708 89.2464C51.0708 88.691 51.2929 88.1727 51.6632 87.784C52.237 87.2102 53.1625 87.0251 53.9029 87.3398C54.1621 87.4508 54.3657 87.5989 54.5879 87.784C54.9581 88.1727 55.1802 88.691 55.1802 89.2464C55.1802 89.3759 55.1617 89.5055 55.1432 89.6351C55.1247 89.7832 55.0876 89.8942 55.0136 90.0238C54.9766 90.1534 54.9025 90.2644 54.8285 90.3755C54.7544 90.5051 54.6619 90.5976 54.5879 90.6902C54.1991 91.0789 53.6623 91.301 53.1255 91.301Z" fill="#683BF2"/>
<path d="M54.0139 80.9723C52.9218 80.6577 52.311 79.51 52.6441 78.4364C52.9588 77.3443 54.1065 76.7334 55.1801 77.0481C56.2537 77.3813 56.8831 78.5104 56.5499 79.584C56.3093 80.4911 55.4763 81.0649 54.5878 81.0649C54.4027 81.0464 54.2175 81.0279 54.0139 80.9723ZM122.318 79.547C121.985 78.4549 122.614 77.3072 123.688 77.0111C124.78 76.6779 125.928 77.2887 126.224 78.3809C126.557 79.473 125.928 80.6206 124.854 80.9168C124.651 80.9723 124.465 81.0279 124.28 81.0279C123.392 81.0279 122.596 80.4355 122.318 79.547ZM57.7901 71.3283C56.8275 70.7174 56.5684 69.4402 57.1793 68.4962C57.7901 67.5336 59.0674 67.2745 60.0114 67.8853C60.974 68.4962 61.2331 69.7734 60.6222 70.7175C60.2335 71.3283 59.5671 71.6615 58.9008 71.6615C58.4935 71.6615 58.1233 71.5504 57.7901 71.3283ZM118.264 70.6989C117.654 69.7549 117.913 68.4777 118.857 67.8668C119.819 67.256 121.096 67.5151 121.707 68.4592C121.707 68.4592 121.707 68.4592 121.689 68.4592C122.318 69.4217 122.041 70.6989 121.097 71.3098C120.745 71.5319 120.356 71.643 119.986 71.643C119.301 71.643 118.653 71.3098 118.264 70.6989ZM64.1208 63.1466C63.3618 62.2766 63.4729 60.9994 64.3244 60.2589C65.1573 59.5 66.4531 59.6111 67.212 60.4626C67.9524 61.3326 67.8414 62.6098 67.0084 63.3502C66.6197 63.6834 66.1199 63.85 65.6571 63.85C65.0833 63.85 64.5095 63.6094 64.1208 63.1466ZM111.86 63.3317C110.99 62.5913 110.897 61.2955 111.656 60.444C112.396 59.574 113.692 59.5 114.544 60.2404C115.377 60.9809 115.488 62.2766 114.747 63.1281C114.34 63.5908 113.766 63.8315 113.192 63.8315C112.73 63.8315 112.248 63.6649 111.86 63.3317ZM72.4876 57.0566C72.0063 56.0385 72.4691 54.8168 73.4871 54.354C74.5052 53.8913 75.7454 54.3355 76.2082 55.3536C76.671 56.3717 76.2267 57.6119 75.1901 58.0747C74.9309 58.2043 74.6348 58.2598 74.3571 58.2598C73.5797 58.2598 72.8207 57.8155 72.4876 57.0566ZM103.659 58.0562C102.641 57.5934 102.16 56.3717 102.641 55.3536C103.104 54.2985 104.344 53.8543 105.362 54.3355C106.381 54.7983 106.843 56.02 106.362 57.0566C106.029 57.797 105.27 58.2413 104.492 58.2413C104.215 58.2413 103.919 58.1857 103.659 58.0562ZM82.2242 53.5951C82.0576 52.466 82.835 51.4479 83.9642 51.2813C85.0748 51.1147 86.1114 51.8921 86.278 53.0213C86.4446 54.1319 85.6671 55.1685 84.538 55.3351C84.4269 55.3351 84.3529 55.3536 84.2418 55.3536C83.2608 55.3536 82.3723 54.6132 82.2242 53.5951ZM94.3116 55.3351C93.1825 55.1685 92.405 54.1319 92.5716 53.0028C92.7197 51.8921 93.7563 51.1147 94.8854 51.2813C94.8854 51.2813 94.8854 51.2813 94.8854 51.2628C96.0146 51.4294 96.792 52.466 96.6254 53.5951C96.4774 54.6132 95.6073 55.3536 94.5893 55.3536C94.4967 55.3536 94.3857 55.3351 94.3116 55.3351Z" fill="#683BF2"/>
<path d="M125.78 91.3011C125.224 91.3011 124.706 91.0789 124.317 90.7087C124.206 90.5977 124.132 90.5051 124.058 90.3755C124.003 90.2645 123.929 90.1534 123.873 90.0238C123.836 89.8943 123.799 89.7832 123.762 89.6351C123.725 89.5055 123.725 89.376 123.725 89.2464C123.725 88.7096 123.929 88.1728 124.317 87.784C125.076 87.0251 126.446 87.0251 127.205 87.784C127.594 88.1728 127.816 88.7096 127.816 89.2464C127.816 89.376 127.797 89.5055 127.779 89.6351C127.742 89.7832 127.705 89.8943 127.649 90.0238C127.594 90.1534 127.52 90.2645 127.464 90.3755C127.39 90.5051 127.298 90.5977 127.205 90.7087C127.131 90.7828 127.02 90.8753 126.89 90.9494C126.779 91.0049 126.668 91.0975 126.539 91.1345C126.409 91.19 126.28 91.2455 126.15 91.2641C126.039 91.2826 125.891 91.3011 125.78 91.3011Z" fill="#683BF2"/>
<path d="M300.872 101.556C300.317 101.556 299.798 101.334 299.409 100.946C299.298 100.871 299.224 100.76 299.169 100.631C299.095 100.52 299.021 100.409 298.965 100.279C298.928 100.15 298.891 100.038 298.854 99.8904C298.817 99.7608 298.817 99.6313 298.817 99.5017C298.817 99.3536 298.817 99.2425 298.854 99.0945C298.873 98.9649 298.91 98.8538 298.965 98.7057C299.021 98.5762 299.095 98.4836 299.169 98.354C299.224 98.243 299.317 98.1504 299.409 98.0393C299.595 97.8542 299.817 97.6876 300.057 97.5951C300.576 97.3915 301.15 97.3915 301.631 97.5951C301.871 97.7062 302.112 97.8542 302.279 98.0393C302.39 98.1504 302.464 98.243 302.538 98.354C302.593 98.4836 302.686 98.5762 302.723 98.7057C302.778 98.8538 302.797 98.9649 302.853 99.0945C302.871 99.2425 302.89 99.3536 302.89 99.5017C302.89 99.6313 302.871 99.7608 302.853 99.8904C302.815 100.038 302.797 100.15 302.723 100.279C302.686 100.409 302.593 100.52 302.538 100.631C302.464 100.76 302.371 100.853 302.279 100.946C301.945 101.334 301.409 101.556 300.872 101.556Z" fill="#683BF2"/>
<path d="M207.948 188.76C206.819 188.686 205.968 187.724 206.042 186.594C206.097 185.465 207.06 184.614 208.189 184.669C209.318 184.743 210.207 185.724 210.114 186.835C210.059 187.927 209.152 188.76 208.06 188.76C208.041 188.76 207.985 188.76 207.948 188.76ZM217 186.835C216.945 185.706 217.796 184.725 218.925 184.669C220.054 184.595 221.017 185.447 221.091 186.576C221.147 187.705 220.295 188.686 219.166 188.742C219.129 188.742 219.092 188.76 219.036 188.76C217.963 188.76 217.074 187.927 217 186.835ZM196.805 187.372C196.805 187.372 196.805 187.372 196.805 187.39C195.694 187.168 194.954 186.095 195.158 184.984C195.38 183.855 196.453 183.133 197.564 183.337C198.693 183.54 199.415 184.614 199.211 185.743C199.026 186.724 198.175 187.409 197.194 187.409C197.083 187.409 196.953 187.39 196.805 187.372ZM227.903 185.724C227.699 184.595 228.44 183.522 229.55 183.318C230.661 183.096 231.753 183.836 231.957 184.947C232.16 186.058 231.438 187.15 230.309 187.353C230.309 187.353 230.309 187.353 230.328 187.353C230.18 187.372 230.069 187.39 229.939 187.39C228.958 187.39 228.107 186.687 227.903 185.724ZM185.939 184.595C184.847 184.244 184.255 183.096 184.607 182.004C184.958 180.93 186.124 180.338 187.198 180.69C188.29 181.041 188.864 182.189 188.512 183.281C188.253 184.151 187.42 184.688 186.569 184.688C186.347 184.706 186.143 184.669 185.939 184.595ZM238.584 183.244C238.232 182.152 238.824 181.004 239.916 180.653C240.99 180.301 242.138 180.875 242.508 181.967C242.86 183.04 242.267 184.207 241.175 184.558C240.971 184.614 240.768 184.669 240.564 184.669C239.676 184.669 238.88 184.114 238.584 183.244ZM175.481 180.486C174.463 179.986 174.019 178.783 174.5 177.765C175 176.747 176.203 176.284 177.221 176.784C178.239 177.247 178.702 178.487 178.202 179.505C177.85 180.245 177.11 180.671 176.351 180.671C176.055 180.671 175.777 180.597 175.481 180.486ZM248.894 179.431C248.431 178.413 248.857 177.191 249.875 176.71C250.893 176.247 252.133 176.673 252.596 177.691C253.096 178.709 252.633 179.949 251.615 180.412C251.356 180.56 251.041 180.616 250.745 180.616C249.968 180.616 249.246 180.171 248.894 179.431ZM165.633 175.062C164.689 174.451 164.411 173.193 165.004 172.23C165.615 171.268 166.892 171.008 167.836 171.601C168.798 172.212 169.095 173.47 168.465 174.433C168.077 175.044 167.41 175.396 166.744 175.396C166.355 175.396 165.985 175.284 165.633 175.062ZM258.612 174.377C258.02 173.433 258.279 172.156 259.241 171.545C260.204 170.934 261.463 171.212 262.074 172.175C262.684 173.119 262.407 174.396 261.444 175.007C261.111 175.21 260.722 175.34 260.352 175.34C259.667 175.34 259.001 174.988 258.612 174.377ZM156.563 168.454C155.693 167.732 155.582 166.436 156.304 165.585C157.026 164.696 158.321 164.585 159.191 165.289C160.061 166.011 160.173 167.306 159.451 168.176C159.043 168.676 158.47 168.917 157.877 168.917C157.414 168.935 156.952 168.787 156.563 168.454ZM267.627 168.139C266.886 167.251 267.016 165.974 267.886 165.252C268.774 164.53 270.052 164.641 270.774 165.511C271.495 166.381 271.366 167.677 270.514 168.398C270.126 168.713 269.644 168.861 269.2 168.861C268.608 168.88 268.034 168.621 267.627 168.139ZM148.363 160.791C147.585 159.976 147.622 158.68 148.437 157.903C149.27 157.126 150.566 157.163 151.343 157.977C152.12 158.791 152.083 160.087 151.269 160.865C150.862 161.235 150.362 161.42 149.862 161.42C149.307 161.42 148.788 161.216 148.363 160.791ZM275.79 160.809C274.976 160.032 274.92 158.717 275.716 157.903C276.475 157.088 277.789 157.033 278.604 157.829C279.418 158.588 279.474 159.902 278.678 160.717C278.289 161.142 277.734 161.364 277.197 161.364C276.697 161.364 276.179 161.179 275.79 160.809ZM141.218 152.165C140.533 151.258 140.755 149.962 141.662 149.296C142.569 148.648 143.865 148.851 144.513 149.74C145.197 150.665 144.975 151.943 144.068 152.609C143.717 152.868 143.291 152.998 142.884 152.998C142.236 152.998 141.606 152.701 141.218 152.165ZM282.991 152.535C282.065 151.85 281.861 150.573 282.546 149.666C283.194 148.74 284.49 148.537 285.397 149.221C286.322 149.869 286.526 151.165 285.841 152.072C285.453 152.627 284.823 152.942 284.175 152.942C283.768 152.924 283.342 152.776 282.991 152.535ZM135.183 142.706C134.628 141.725 134.98 140.466 135.979 139.911C136.96 139.355 138.219 139.726 138.774 140.707C139.311 141.688 138.959 142.946 137.96 143.502C137.645 143.668 137.312 143.742 136.979 143.742C136.257 143.742 135.553 143.372 135.183 142.706ZM289.081 143.391C288.1 142.835 287.729 141.595 288.285 140.596C288.84 139.614 290.062 139.244 291.08 139.8C292.061 140.336 292.431 141.577 291.876 142.595C291.505 143.28 290.802 143.631 290.062 143.631C289.747 143.65 289.414 143.557 289.081 143.391ZM130.389 132.543C129.963 131.507 130.463 130.304 131.537 129.878C132.592 129.471 133.776 129.989 134.202 131.026C134.609 132.099 134.091 133.284 133.054 133.691C132.795 133.802 132.536 133.839 132.295 133.839C131.463 133.839 130.685 133.376 130.389 132.543ZM294.004 133.58C292.968 133.173 292.431 131.988 292.857 130.933V130.914C293.264 129.859 294.449 129.36 295.522 129.767C296.559 130.193 297.077 131.396 296.67 132.432C296.337 133.228 295.559 133.728 294.763 133.728C294.504 133.728 294.245 133.673 294.004 133.58ZM126.89 121.881C126.594 120.789 127.261 119.66 128.371 119.382C129.463 119.086 130.593 119.771 130.852 120.863C131.129 121.974 130.481 123.084 129.389 123.362C129.204 123.399 129.038 123.418 128.871 123.418C127.964 123.418 127.131 122.807 126.89 121.881ZM297.633 123.214C296.54 122.955 295.874 121.826 296.152 120.734C296.429 119.623 297.54 118.975 298.651 119.234C299.743 119.53 300.391 120.641 300.131 121.733C299.891 122.659 299.039 123.27 298.151 123.27C297.984 123.288 297.799 123.251 297.633 123.214ZM124.78 110.849C124.632 109.738 125.428 108.72 126.557 108.572C127.668 108.424 128.686 109.22 128.834 110.331C128.982 111.46 128.205 112.478 127.075 112.626C126.964 112.644 126.89 112.644 126.816 112.644C125.817 112.663 124.91 111.904 124.78 110.849ZM299.928 112.496C298.799 112.348 298.003 111.33 298.151 110.22C298.299 109.09 299.317 108.294 300.446 108.443C301.575 108.591 302.371 109.609 302.223 110.719C302.075 111.774 301.205 112.515 300.187 112.515C300.113 112.515 300.02 112.515 299.928 112.496Z" fill="#683BF2"/>
<path d="M126.113 101.557C125.576 101.557 125.039 101.335 124.651 100.946C124.466 100.761 124.317 100.539 124.225 100.298C124.114 100.058 124.058 99.78 124.058 99.5208C124.058 99.2617 124.114 98.984 124.225 98.7249C124.336 98.4842 124.466 98.2621 124.651 98.077C125.224 97.5032 126.15 97.318 126.89 97.6327C127.15 97.7623 127.39 97.8919 127.575 98.077C127.76 98.2621 127.909 98.4842 128.001 98.7249C128.131 98.984 128.168 99.2617 128.168 99.5208C128.168 99.78 128.131 100.058 128.001 100.298C127.89 100.539 127.76 100.761 127.575 100.946C127.39 101.15 127.168 101.298 126.89 101.39C126.65 101.501 126.391 101.557 126.113 101.557Z" fill="#683BF2"/>
<path d="M275.29 101.556C275.031 101.556 274.753 101.5 274.513 101.389C274.272 101.278 274.05 101.148 273.828 100.945C273.458 100.575 273.236 100.038 273.236 99.501C273.236 99.2418 273.291 98.9642 273.402 98.7235C273.513 98.4644 273.643 98.2237 273.828 98.0386C274.032 97.8535 274.254 97.7054 274.513 97.5944C274.883 97.4463 275.29 97.4093 275.697 97.4833C275.827 97.5018 275.938 97.5388 276.068 97.5944C276.197 97.6499 276.308 97.7239 276.438 97.798C276.549 97.8535 276.642 97.9461 276.753 98.0386C276.938 98.2237 277.086 98.4459 277.178 98.7235C277.289 98.9642 277.345 99.2418 277.345 99.501C277.345 100.038 277.123 100.575 276.753 100.945C276.642 101.056 276.549 101.13 276.438 101.204C276.308 101.278 276.197 101.352 276.068 101.389C275.938 101.445 275.827 101.5 275.697 101.519C275.549 101.537 275.42 101.556 275.29 101.556Z" fill="#683BF2"/>
<path d="M211.503 161.29C211.503 160.16 212.41 159.235 213.557 159.235C214.686 159.235 215.612 160.16 215.612 161.29C215.612 162.419 214.686 163.344 213.557 163.344C212.41 163.326 211.503 162.437 211.503 161.29ZM202.469 162.382C201.34 162.197 200.6 161.123 200.785 159.994C200.989 158.883 202.044 158.124 203.173 158.328C204.283 158.513 205.042 159.587 204.839 160.716C204.672 161.697 203.802 162.419 202.821 162.419C202.692 162.437 202.58 162.419 202.469 162.382ZM222.239 160.716C222.035 159.605 222.794 158.55 223.905 158.346C225.034 158.161 226.089 158.902 226.293 160.012C226.496 161.142 225.737 162.215 224.627 162.382C224.497 162.4 224.386 162.419 224.256 162.419C223.294 162.419 222.405 161.715 222.239 160.716ZM191.733 159.513C190.66 159.142 190.104 157.958 190.512 156.884C190.882 155.81 192.066 155.292 193.14 155.662C194.214 156.051 194.732 157.236 194.362 158.291C194.047 159.124 193.27 159.642 192.437 159.642C192.178 159.642 191.955 159.605 191.733 159.513ZM232.753 158.272C232.364 157.199 232.901 156.033 233.956 155.644C235.03 155.255 236.214 155.81 236.585 156.866C236.973 157.939 236.436 159.105 235.381 159.494C235.141 159.568 234.919 159.624 234.659 159.624C233.826 159.624 233.031 159.105 232.753 158.272ZM181.645 154.829C180.664 154.274 180.331 153.015 180.886 152.034C181.46 151.053 182.719 150.702 183.7 151.275C184.681 151.849 185.014 153.108 184.44 154.089C184.07 154.737 183.366 155.107 182.682 155.107C182.311 155.107 181.96 155.033 181.645 154.829ZM242.638 154.052C242.082 153.071 242.415 151.812 243.396 151.238C244.378 150.664 245.636 150.998 246.21 151.979C246.765 152.96 246.432 154.219 245.451 154.792C245.118 154.977 244.766 155.052 244.433 155.052C243.711 155.052 243.026 154.7 242.638 154.052ZM172.519 148.462C172.519 148.462 172.519 148.462 172.538 148.462C171.649 147.721 171.557 146.426 172.279 145.574C173.019 144.686 174.315 144.593 175.166 145.315C176.036 146.055 176.147 147.351 175.407 148.203C175.018 148.702 174.426 148.943 173.852 148.943C173.371 148.943 172.908 148.776 172.519 148.462ZM251.652 148.129C250.912 147.259 251.041 145.981 251.893 145.241C252.763 144.519 254.059 144.63 254.78 145.5C255.521 146.37 255.391 147.647 254.54 148.369C254.151 148.702 253.67 148.869 253.226 148.869C252.633 148.869 252.059 148.628 251.652 148.129ZM164.652 140.595C163.912 139.725 164.023 138.447 164.893 137.726C165.763 136.985 167.04 137.096 167.78 137.966C168.502 138.836 168.391 140.113 167.521 140.854C167.151 141.169 166.688 141.317 166.207 141.317C165.633 141.335 165.059 141.076 164.652 140.595ZM259.519 140.78C258.649 140.058 258.557 138.762 259.279 137.892C260 137.022 261.315 136.93 262.166 137.652C263.036 138.392 263.147 139.688 262.407 140.539C262 141.039 261.426 141.28 260.852 141.28C260.371 141.261 259.908 141.094 259.519 140.78ZM158.266 131.506C157.692 130.525 158.025 129.266 159.006 128.692C159.987 128.137 161.246 128.47 161.82 129.451C162.375 130.414 162.042 131.691 161.061 132.246C160.746 132.432 160.376 132.543 160.043 132.543C159.321 132.524 158.618 132.154 158.266 131.506ZM265.998 132.154C265.017 131.599 264.684 130.321 265.239 129.359C265.813 128.378 267.072 128.044 268.053 128.6C269.034 129.174 269.367 130.432 268.812 131.413C268.423 132.061 267.719 132.432 267.035 132.432C266.664 132.45 266.313 132.339 265.998 132.154ZM153.546 121.436C153.157 120.363 153.694 119.196 154.749 118.808C155.823 118.419 156.989 118.974 157.378 120.011C157.766 121.084 157.229 122.269 156.174 122.658C155.934 122.732 155.712 122.787 155.452 122.787C154.619 122.787 153.823 122.269 153.546 121.436ZM270.866 122.565C269.793 122.177 269.237 121.01 269.626 119.937C270.015 118.863 271.181 118.308 272.255 118.715C273.328 119.104 273.883 120.289 273.476 121.344C273.162 122.177 272.384 122.695 271.551 122.695C271.348 122.676 271.107 122.639 270.866 122.565ZM150.64 110.682C150.436 109.571 151.176 108.516 152.306 108.331C153.416 108.127 154.471 108.867 154.675 109.997H154.656C154.86 111.107 154.12 112.162 152.99 112.347C152.879 112.366 152.768 112.384 152.639 112.384C151.676 112.384 150.806 111.7 150.64 110.682ZM273.995 112.273C272.884 112.07 272.143 110.996 272.329 109.886C272.532 108.775 273.587 108.016 274.716 108.22C275.827 108.405 276.586 109.478 276.382 110.57C276.216 111.57 275.364 112.273 274.365 112.273C274.235 112.292 274.106 112.292 273.995 112.273Z" fill="#683BF2"/>
<path d="M151.713 101.556C151.565 101.556 151.454 101.537 151.306 101.519C151.176 101.482 151.065 101.463 150.936 101.389C150.806 101.352 150.695 101.259 150.565 101.204C150.454 101.13 150.362 101.037 150.251 100.963C149.881 100.575 149.658 100.038 149.658 99.501C149.658 98.9456 149.881 98.4273 150.251 98.0386C150.362 97.9276 150.454 97.8535 150.565 97.798C150.695 97.7239 150.806 97.6499 150.936 97.5944C151.065 97.5573 151.176 97.5203 151.306 97.4833C151.713 97.4093 152.12 97.4463 152.491 97.5944C152.731 97.7054 152.953 97.8535 153.175 98.0386C153.546 98.4273 153.768 98.9456 153.768 99.501C153.768 100.038 153.546 100.575 153.175 100.963C152.972 101.148 152.75 101.297 152.491 101.389C152.25 101.5 151.972 101.556 151.713 101.556Z" fill="#683BF2"/>
<path d="M249.486 89.2466C249.338 89.2466 249.227 89.2281 249.079 89.2096C248.949 89.1726 248.82 89.1541 248.69 89.08C248.561 89.043 248.45 88.9504 248.339 88.8949C248.228 88.8209 248.117 88.7283 248.024 88.6358C247.635 88.2655 247.432 87.7287 247.432 87.1919C247.432 86.6366 247.635 86.0998 248.024 85.7296C248.098 85.6185 248.228 85.5445 248.339 85.4889C248.45 85.4149 248.561 85.3409 248.69 85.2853C248.82 85.2483 248.949 85.2113 249.079 85.1743C249.764 85.0262 250.449 85.2483 250.93 85.7296C251.041 85.8407 251.115 85.9332 251.189 86.0443C251.245 86.1738 251.337 86.2664 251.374 86.396C251.43 86.544 251.448 86.6551 251.504 86.7847C251.522 86.9328 251.541 87.0438 251.541 87.1919C251.541 87.7287 251.319 88.2655 250.93 88.6358C250.541 89.0245 250.023 89.2466 249.486 89.2466Z" fill="#2A3255"/>
<path d="M250.042 78.5285C248.931 78.3249 248.191 77.2698 248.376 76.1407C248.579 75.03 249.653 74.2711 250.764 74.4747C251.874 74.6598 252.633 75.7334 252.43 76.8626C252.263 77.8436 251.412 78.547 250.412 78.547C250.282 78.547 250.153 78.547 250.042 78.5285ZM369.565 76.77C369.361 75.6594 370.12 74.6043 371.231 74.3821C372.342 74.197 373.415 74.9375 373.619 76.0481C373.619 76.0481 373.619 76.0481 373.619 76.0666C373.822 77.1773 373.063 78.2324 371.953 78.4175C371.823 78.436 371.712 78.4545 371.601 78.4545C370.602 78.473 369.732 77.7696 369.565 76.77ZM252.448 68.07C251.412 67.6813 250.856 66.5151 251.245 65.4415C251.615 64.3679 252.8 63.8496 253.873 64.2198C254.947 64.6085 255.502 65.7932 255.095 66.8668C254.78 67.6813 254.003 68.1996 253.17 68.1996C252.929 68.1996 252.707 68.1441 252.448 68.07ZM366.881 66.7743C366.492 65.7006 367.029 64.516 368.084 64.1272C369.158 63.7385 370.342 64.2938 370.731 65.349C371.12 66.4226 370.564 67.5887 369.509 67.9775C369.287 68.0515 369.028 68.107 368.806 68.107C367.955 68.107 367.177 67.5887 366.881 66.7743ZM256.687 58.2038C255.706 57.6485 255.373 56.4083 255.928 55.4087C256.502 54.4277 257.761 54.0945 258.742 54.6498C259.723 55.2236 260.056 56.4824 259.482 57.4634C259.112 58.1113 258.409 58.4815 257.724 58.4815C257.353 58.4815 256.983 58.4075 256.687 58.2038ZM362.475 57.3894H362.494C361.92 56.4083 362.253 55.1496 363.234 54.5943C364.197 54.0204 365.474 54.3536 366.029 55.3347C366.029 55.3347 366.029 55.3347 366.048 55.3347C366.603 56.3158 366.27 57.5745 365.289 58.1483C364.956 58.3334 364.623 58.4075 364.271 58.4075C363.549 58.4075 362.864 58.0372 362.475 57.3894ZM262.536 49.2262C261.648 48.5043 261.555 47.2085 262.277 46.357C263.018 45.4685 264.313 45.376 265.165 46.0979C266.053 46.8383 266.146 48.1341 265.424 48.9856H265.406C265.017 49.4853 264.425 49.726 263.851 49.726C263.388 49.7075 262.925 49.5409 262.536 49.2262ZM356.515 48.9115C355.775 48.0415 355.904 46.7643 356.756 46.0238C357.626 45.2834 358.903 45.413 359.643 46.2645C360.365 47.1345 360.254 48.4117 359.403 49.1521C359.014 49.4853 358.533 49.6519 358.07 49.6519C357.496 49.6519 356.904 49.3928 356.515 48.9115ZM269.867 41.3777C269.126 40.5077 269.256 39.2304 270.107 38.5085C270.977 37.7681 272.273 37.8792 272.995 38.7492C273.717 39.6192 273.606 40.8964 272.754 41.6368C272.366 41.9515 271.884 42.0996 271.422 42.0996C270.848 42.1181 270.274 41.8775 269.867 41.3777ZM349.185 41.5998C348.296 40.8779 348.204 39.5636 348.926 38.7121C349.666 37.8421 350.962 37.7311 351.813 38.4715C352.702 39.1934 352.794 40.4892 352.072 41.3592C351.665 41.8219 351.091 42.0811 350.499 42.0811C350.018 42.0626 349.573 41.9145 349.185 41.5998ZM278.437 34.9545C277.863 33.9734 278.196 32.7147 279.177 32.1409C280.159 31.5855 281.417 31.9187 281.991 32.8998C282.546 33.8809 282.213 35.1396 281.232 35.6949C280.917 35.8985 280.547 35.9911 280.214 35.9911C279.511 35.9726 278.807 35.6024 278.437 34.9545ZM340.688 35.6394C339.707 35.0841 339.374 33.8068 339.929 32.8443C340.503 31.8632 341.762 31.5115 342.743 32.0853C343.706 32.6592 344.057 33.9179 343.483 34.899C343.113 35.5468 342.41 35.917 341.725 35.917C341.355 35.9355 341.022 35.8245 340.688 35.6394ZM287.989 30.0862C287.6 29.0126 288.155 27.8279 289.192 27.4577C289.192 27.4577 289.192 27.4577 289.192 27.4392C290.265 27.0504 291.45 27.6058 291.839 28.6609C292.227 29.7345 291.672 30.9007 290.617 31.2894C290.395 31.4004 290.136 31.419 289.914 31.419C289.081 31.419 288.303 30.9007 287.989 30.0862ZM331.285 31.2709C330.211 30.8821 329.656 29.716 330.045 28.6424C330.433 27.5687 331.6 27.0134 332.673 27.4207C333.747 27.8094 334.302 28.9756 333.913 30.0492C333.599 30.8821 332.821 31.4004 331.988 31.4004C331.766 31.4004 331.526 31.3634 331.285 31.2709ZM298.243 26.9394C298.058 25.8287 298.799 24.7736 299.909 24.5885C301.039 24.3849 302.094 25.1253 302.279 26.2545C302.482 27.3651 301.723 28.4202 300.613 28.6238C300.483 28.6424 300.372 28.6424 300.261 28.6424C299.299 28.6424 298.429 27.9575 298.243 26.9394ZM321.289 28.6053C320.16 28.4202 319.42 27.3466 319.623 26.2175C319.808 25.1068 320.882 24.3479 321.974 24.5515C323.103 24.7366 323.844 25.8102 323.64 26.9394C323.473 27.9204 322.622 28.6238 321.622 28.6238C321.511 28.6238 321.4 28.6238 321.289 28.6053ZM308.906 25.6807C308.906 24.5515 309.831 23.626 310.96 23.626C312.089 23.626 313.015 24.533 313.015 25.6807C313.015 26.8098 312.108 27.7353 310.96 27.7353C309.813 27.7353 308.906 26.8098 308.906 25.6807Z" fill="#2A3255"/>
<path d="M372.508 89.2454C371.971 89.2454 371.434 89.0233 371.064 88.6346C370.676 88.2644 370.453 87.7276 370.453 87.1908C370.453 86.9316 370.509 86.654 370.62 86.3948C370.731 86.1542 370.861 85.932 371.064 85.7469C371.823 84.988 373.193 84.988 373.952 85.7469C374.137 85.932 374.304 86.1542 374.396 86.3948C374.507 86.654 374.544 86.9316 374.544 87.1908C374.544 87.7276 374.341 88.2644 373.952 88.6346C373.6 89.0233 373.063 89.2454 372.508 89.2454Z" fill="#2A3255"/>
<path d="M274.679 89.2464C274.143 89.2464 273.606 89.0243 273.217 88.6356C273.143 88.5615 273.032 88.4505 272.976 88.3209C272.902 88.2098 272.828 88.0988 272.773 87.9692C272.736 87.8396 272.699 87.7286 272.662 87.5805C272.625 87.4509 272.625 87.3213 272.625 87.1917C272.625 86.9326 272.662 86.6549 272.773 86.3958C272.884 86.1551 273.032 85.933 273.217 85.7479C273.976 84.989 275.346 84.989 276.105 85.7479C276.308 85.933 276.456 86.1551 276.549 86.3958C276.66 86.6549 276.716 86.9326 276.716 87.1917C276.716 87.7285 276.493 88.2654 276.105 88.6356C275.753 89.0243 275.216 89.2464 274.679 89.2464Z" fill="#2A3255"/>
<path d="M275.568 78.9177C274.476 78.603 273.865 77.4553 274.18 76.3817C274.513 75.2896 275.642 74.6787 276.716 74.9934C277.808 75.3266 278.437 76.4557 278.104 77.5294C277.845 78.4364 277.012 79.0102 276.142 79.0102C275.957 78.9917 275.753 78.9732 275.568 78.9177ZM343.872 77.5109C343.558 76.4187 344.187 75.2711 345.261 74.9749C346.353 74.6417 347.5 75.2525 347.797 76.3447C347.797 76.3447 347.797 76.3447 347.797 76.3632C348.13 77.4368 347.519 78.5845 346.427 78.8991C346.223 78.9362 346.038 78.9732 345.834 78.9732C344.946 78.9732 344.131 78.3808 343.872 77.5109ZM279.344 69.2736C278.382 68.6628 278.104 67.3855 278.733 66.4415C279.344 65.4789 280.603 65.2198 281.566 65.8306C282.51 66.4415 282.787 67.7187 282.176 68.6628C281.788 69.2736 281.14 69.6068 280.455 69.6068C280.066 69.6068 279.677 69.4957 279.344 69.2736ZM339.8 68.6443C339.189 67.6817 339.448 66.423 340.411 65.8121C341.355 65.2013 342.632 65.4604 343.243 66.4045C343.854 67.367 343.595 68.6443 342.632 69.2551C342.299 69.4772 341.91 69.5883 341.521 69.5883C340.874 69.5883 340.189 69.2366 339.8 68.6443ZM285.656 61.0919C284.916 60.2219 285.027 58.9447 285.86 58.2043C286.73 57.4453 288.007 57.5564 288.766 58.4079C289.507 59.2409 289.396 60.5551 288.544 61.2955C288.155 61.6287 287.674 61.7953 287.211 61.7953C286.637 61.7953 286.064 61.5732 285.656 61.0919ZM333.414 61.277C332.581 60.5366 332.47 59.2408 333.21 58.3894C333.969 57.5194 335.265 57.4453 336.098 58.1857C336.968 58.9262 337.06 60.2219 336.301 61.0734C335.913 61.5362 335.339 61.7768 334.765 61.7768C334.284 61.7768 333.803 61.6102 333.414 61.277ZM294.042 55.0019C293.542 53.9838 294.005 52.7621 295.041 52.2994C296.059 51.8366 297.281 52.2808 297.744 53.2989C298.225 54.317 297.762 55.5572 296.744 56.02C296.448 56.1496 296.17 56.2051 295.874 56.2051C295.115 56.2236 294.375 55.7609 294.042 55.0019ZM325.232 56.0015C324.196 55.5387 323.733 54.317 324.214 53.2989C324.677 52.2438 325.898 51.7996 326.935 52.2808C327.953 52.7436 328.416 53.9653 327.935 55.0019C327.583 55.7423 326.842 56.1866 326.065 56.1866C325.769 56.1866 325.491 56.1311 325.232 56.0015ZM303.797 51.5404C303.63 50.4113 304.408 49.3932 305.537 49.2266C306.647 49.06 307.684 49.8374 307.851 50.9666C308.017 52.0772 307.24 53.1138 306.111 53.2804C306 53.2804 305.907 53.2989 305.833 53.2989C304.815 53.2989 303.926 52.5585 303.797 51.5404ZM315.866 53.2804C314.737 53.1138 313.959 52.0772 314.126 50.9481C314.274 49.8374 315.31 49.06 316.44 49.2266C317.55 49.3747 318.328 50.4113 318.18 51.5404C318.013 52.5585 317.161 53.2989 316.143 53.2989C316.051 53.2989 315.958 53.2804 315.866 53.2804Z" fill="#2A3255"/>
<path d="M347.315 89.2464C346.778 89.2464 346.242 89.0243 345.853 88.6355C345.483 88.2653 345.26 87.7285 345.26 87.1917C345.26 86.6364 345.483 86.1181 345.853 85.7294C346.63 84.9704 348 84.9704 348.759 85.7294C349.148 86.1181 349.351 86.6364 349.351 87.1917C349.351 87.7285 349.148 88.2653 348.759 88.6355C348.37 89.0243 347.87 89.2464 347.315 89.2464Z" fill="#2A3255"/>
<path d="M496.844 99.5013C496.289 99.5013 495.77 99.2791 495.381 98.8904C495.011 98.5202 494.789 97.9834 494.789 97.4466C494.789 96.8913 495.011 96.3545 495.381 95.9842C496.14 95.2253 497.529 95.2253 498.288 95.9842C498.658 96.373 498.88 96.8913 498.88 97.4466C498.88 97.9834 498.658 98.5202 498.288 98.8904C497.917 99.2791 497.381 99.5013 496.844 99.5013Z" fill="#2A3255"/>
<path d="M433.038 159.235C433.038 158.106 433.963 157.18 435.093 157.18C436.24 157.18 437.147 158.106 437.166 159.235C437.166 160.364 436.24 161.29 435.093 161.29C433.963 161.29 433.038 160.383 433.038 159.235ZM424.023 160.346C424.023 160.346 424.023 160.346 424.042 160.346C422.913 160.16 422.172 159.087 422.357 157.995C422.542 156.866 423.616 156.107 424.745 156.31C425.856 156.495 426.615 157.569 426.411 158.698C426.244 159.679 425.356 160.401 424.393 160.401C424.264 160.383 424.134 160.364 424.023 160.346ZM443.811 158.661C443.607 157.55 444.366 156.495 445.477 156.292C446.588 156.107 447.643 156.847 447.865 157.958C448.05 159.087 447.31 160.16 446.199 160.327C446.069 160.346 445.958 160.364 445.829 160.364C444.848 160.364 443.978 159.642 443.811 158.661ZM413.268 157.476C412.195 157.106 411.677 155.922 412.047 154.848C412.436 153.774 413.62 153.256 414.694 153.626C415.767 154.015 416.286 155.2 415.897 156.273C415.601 157.088 414.805 157.606 413.972 157.606C413.75 157.587 413.509 157.55 413.268 157.476ZM454.288 156.218C453.899 155.144 454.455 153.978 455.51 153.589C456.583 153.2 457.75 153.756 458.138 154.811C458.527 155.847 457.972 157.051 456.935 157.439C456.694 157.513 456.472 157.569 456.213 157.569C455.38 157.569 454.603 157.051 454.288 156.218ZM403.199 152.775C402.218 152.219 401.866 150.961 402.44 149.98C403.014 148.999 404.272 148.665 405.253 149.221C406.216 149.794 406.568 151.053 405.994 152.034C405.624 152.682 404.92 153.052 404.217 153.052C403.884 153.052 403.513 152.978 403.199 152.775ZM464.191 151.997C463.617 151.016 463.969 149.757 464.95 149.184C465.913 148.61 467.19 148.943 467.745 149.924C468.319 150.905 467.986 152.164 467.005 152.738C466.672 152.923 466.32 153.015 465.987 153.015C465.265 153.015 464.58 152.645 464.191 151.997ZM394.073 146.407C393.203 145.667 393.092 144.371 393.832 143.519C394.554 142.631 395.85 142.538 396.72 143.26C397.59 144.001 397.683 145.296 396.961 146.148C396.553 146.648 395.98 146.888 395.387 146.888C394.943 146.888 394.462 146.722 394.073 146.407ZM473.224 146.092C472.484 145.222 472.614 143.945 473.465 143.205C474.335 142.483 475.612 142.594 476.353 143.464C477.075 144.334 476.964 145.611 476.112 146.333C475.723 146.666 475.242 146.833 474.779 146.833C474.206 146.814 473.632 146.574 473.224 146.092ZM386.187 138.559C385.466 137.67 385.577 136.393 386.447 135.671C387.317 134.93 388.594 135.042 389.316 135.911C390.056 136.781 389.927 138.059 389.075 138.799C388.705 139.114 388.242 139.262 387.761 139.262C387.206 139.28 386.613 139.021 386.187 138.559ZM481.073 138.725C480.203 138.003 480.092 136.707 480.832 135.837C481.554 134.967 482.85 134.875 483.72 135.597C484.59 136.337 484.683 137.633 483.961 138.484C483.553 138.984 482.98 139.225 482.387 139.225C481.925 139.206 481.462 139.058 481.073 138.725ZM379.801 129.451C379.246 128.47 379.579 127.211 380.56 126.656C381.523 126.082 382.8 126.416 383.355 127.397H383.374C383.929 128.359 383.596 129.636 382.615 130.192C382.282 130.395 381.93 130.488 381.597 130.488C380.856 130.469 380.19 130.118 379.801 129.451ZM487.552 130.118C486.571 129.562 486.237 128.322 486.793 127.323C487.367 126.341 488.625 126.008 489.606 126.564C490.587 127.137 490.921 128.396 490.347 129.377C489.977 130.025 489.273 130.395 488.588 130.395C488.237 130.395 487.885 130.321 487.552 130.118ZM375.081 119.381C374.692 118.308 375.248 117.142 376.321 116.753C377.395 116.364 378.561 116.92 378.95 117.956C379.338 119.03 378.783 120.214 377.747 120.603C377.506 120.677 377.284 120.733 377.025 120.733C376.192 120.733 375.396 120.214 375.081 119.381ZM492.439 120.511C491.365 120.122 490.828 118.956 491.217 117.882C491.605 116.809 492.772 116.253 493.845 116.66C494.919 117.049 495.474 118.234 495.067 119.307C494.752 120.122 493.975 120.64 493.142 120.64C492.901 120.64 492.661 120.585 492.439 120.511ZM372.193 108.645C372.008 107.535 372.749 106.48 373.859 106.257C374.988 106.072 376.044 106.813 376.247 107.923V107.942C376.451 109.053 375.71 110.108 374.581 110.293C374.452 110.311 374.341 110.33 374.23 110.33C373.23 110.33 372.378 109.645 372.193 108.645ZM495.548 110.219C494.438 110.015 493.697 108.942 493.882 107.831C494.086 106.72 495.141 105.961 496.252 106.165C497.362 106.35 498.121 107.424 497.918 108.553C497.751 109.534 496.881 110.237 495.881 110.237C495.789 110.237 495.678 110.237 495.548 110.219Z" fill="#2A3255"/>
<path d="M373.267 99.5013C372.712 99.5013 372.193 99.2791 371.805 98.8904C371.416 98.5202 371.212 97.9834 371.212 97.4466C371.212 96.8913 371.416 96.373 371.805 95.9842C372.564 95.2253 373.933 95.2253 374.692 95.9842C375.081 96.373 375.303 96.8913 375.303 97.4466C375.303 97.9834 375.081 98.5202 374.692 98.8904C374.341 99.2791 373.804 99.5013 373.267 99.5013Z" fill="#2A3255"/>
<path d="M249.801 101.556C249.671 101.556 249.542 101.538 249.412 101.519C249.264 101.501 249.153 101.464 249.023 101.39C248.894 101.353 248.783 101.279 248.672 101.205C248.542 101.131 248.45 101.038 248.357 100.946C248.153 100.76 248.005 100.538 247.913 100.298C247.802 100.057 247.746 99.7794 247.746 99.5203C247.746 98.9649 247.968 98.4281 248.357 98.0579C248.431 97.9468 248.542 97.8728 248.672 97.8173C248.783 97.7432 248.894 97.6692 249.023 97.6137C249.153 97.5766 249.264 97.5396 249.412 97.5026C249.671 97.4471 249.949 97.4471 250.208 97.5026C250.338 97.5211 250.467 97.5581 250.578 97.6137C250.726 97.6692 250.819 97.7432 250.948 97.8173C251.06 97.8728 251.152 97.9654 251.263 98.0579C251.633 98.4466 251.855 98.9649 251.855 99.5203C251.855 100.057 251.633 100.594 251.263 100.964C251.152 101.075 251.06 101.149 250.948 101.223C250.819 101.297 250.726 101.371 250.578 101.408C250.467 101.464 250.338 101.519 250.208 101.538C250.078 101.538 249.949 101.556 249.801 101.556Z" fill="#683BF2"/>
<path d="M208.059 137.486C206.93 137.319 206.153 136.282 206.319 135.172C206.486 134.043 207.522 133.265 208.633 133.432C209.762 133.598 210.54 134.616 210.373 135.746C210.225 136.764 209.355 137.504 208.337 137.504C208.263 137.523 208.152 137.486 208.059 137.486ZM216.648 135.746C216.482 134.616 217.259 133.58 218.388 133.432C219.517 133.265 220.535 134.043 220.702 135.153C220.869 136.282 220.091 137.319 218.962 137.486C218.851 137.486 218.777 137.504 218.684 137.504C217.666 137.523 216.796 136.782 216.648 135.746ZM197.564 134.413C196.546 133.95 196.083 132.728 196.564 131.71C197.045 130.692 198.249 130.211 199.267 130.692C200.285 131.155 200.766 132.395 200.285 133.413C199.933 134.172 199.193 134.598 198.415 134.598C198.156 134.598 197.86 134.561 197.564 134.413ZM226.736 133.395C226.274 132.377 226.699 131.155 227.736 130.692C228.754 130.229 229.976 130.674 230.439 131.692C230.901 132.71 230.457 133.95 229.439 134.413C229.18 134.542 228.865 134.598 228.606 134.598C227.829 134.598 227.07 134.154 226.736 133.395ZM188.401 128.526C187.531 127.786 187.438 126.472 188.179 125.639C188.919 124.769 190.233 124.676 191.085 125.417C191.918 126.176 192.029 127.471 191.289 128.323C190.881 128.767 190.307 129.026 189.734 129.026C189.271 129.026 188.771 128.86 188.401 128.526ZM235.714 128.304C234.974 127.434 235.085 126.157 235.918 125.398H235.936C236.769 124.658 238.065 124.769 238.824 125.62C239.564 126.453 239.453 127.749 238.602 128.508C238.602 128.508 238.602 128.508 238.62 128.508C238.232 128.841 237.732 129.008 237.269 129.008C236.695 129.008 236.121 128.749 235.714 128.304ZM181.256 120.289C180.645 119.345 180.904 118.068 181.848 117.457C182.811 116.846 184.088 117.105 184.699 118.068C185.31 119.012 185.032 120.289 184.088 120.9C183.736 121.122 183.347 121.233 182.977 121.233C182.292 121.233 181.645 120.9 181.256 120.289ZM242.933 120.863C241.971 120.271 241.693 118.993 242.322 118.031C242.933 117.087 244.21 116.809 245.154 117.42C246.117 118.031 246.376 119.308 245.765 120.271C245.377 120.863 244.729 121.196 244.044 121.196C243.655 121.196 243.285 121.085 242.933 120.863ZM176.702 110.367C176.369 109.275 176.998 108.146 178.072 107.832C179.164 107.498 180.312 108.146 180.626 109.22C180.941 110.312 180.312 111.441 179.238 111.756C179.035 111.793 178.849 111.83 178.664 111.83C177.757 111.83 176.943 111.256 176.702 110.367ZM247.783 111.719C246.691 111.404 246.062 110.256 246.395 109.183C246.709 108.091 247.857 107.48 248.931 107.794C250.023 108.128 250.634 109.257 250.319 110.33C250.06 111.237 249.227 111.811 248.357 111.811C248.153 111.793 247.968 111.774 247.783 111.719Z" fill="#683BF2"/>
<path d="M177.184 101.557C176.628 101.557 176.11 101.335 175.721 100.946C175.332 100.576 175.129 100.039 175.129 99.5023C175.129 99.2431 175.166 98.9655 175.277 98.7063C175.388 98.4657 175.536 98.2436 175.721 98.0585C176.48 97.2995 177.85 97.2995 178.609 98.0585C178.813 98.2436 178.961 98.4657 179.053 98.7063C179.164 98.9655 179.22 99.2431 179.22 99.5023C179.22 100.039 178.998 100.576 178.609 100.946C178.257 101.335 177.72 101.557 177.184 101.557Z" fill="#683BF2"/>
</svg>
