<svg width="39" height="198" viewBox="0 0 39 198" fill="none" xmlns="http://www.w3.org/2000/svg">
<path d="M35.6593 6.73445C33.9113 6.73445 32.4825 5.30566 32.4825 3.55766C32.4825 1.80966 33.9113 0.380861 35.6593 0.380861C37.4073 0.380861 38.8361 1.80966 38.8361 3.55766C38.8361 5.32086 37.4073 6.73445 35.6593 6.73445Z" fill="#683BF2" fill-opacity="0.5"/>
<path d="M35.6593 34.0337C33.9113 34.0337 32.4825 32.6048 32.4825 30.8568C32.4825 29.1088 33.9113 27.68 35.6593 27.68C37.4073 27.68 38.8361 29.1088 38.8361 30.8568C38.8361 32.6048 37.4073 34.0337 35.6593 34.0337Z" fill="#683BF2" fill-opacity="0.5"/>
<path d="M35.6593 61.3329C33.9113 61.3329 32.4825 59.9041 32.4825 58.1561C32.4825 56.4081 33.9113 54.9793 35.6593 54.9793C37.4073 54.9793 38.8361 56.4081 38.8361 58.1561C38.8361 59.9041 37.4073 61.3329 35.6593 61.3329Z" fill="#683BF2" fill-opacity="0.5"/>
<path d="M35.6593 88.6168C33.9113 88.6168 32.4825 87.188 32.4825 85.44C32.4825 83.692 33.9113 82.2633 35.6593 82.2633C37.4073 82.2633 38.8361 83.692 38.8361 85.44C38.8361 87.188 37.4073 88.6168 35.6593 88.6168Z" fill="#683BF2" fill-opacity="0.5"/>
<path d="M35.6593 115.171C33.9113 115.171 32.4825 113.742 32.4825 111.994C32.4825 110.246 33.9113 108.818 35.6593 108.818C37.4073 108.818 38.8361 110.246 38.8361 111.994C38.8361 113.742 37.4073 115.171 35.6593 115.171Z" fill="#683BF2" fill-opacity="0.5"/>
<path d="M35.6593 142.47C33.9113 142.47 32.4825 141.042 32.4825 139.294C32.4825 137.546 33.9113 136.117 35.6593 136.117C37.4073 136.117 38.8361 137.546 38.8361 139.294C38.8361 141.042 37.4073 142.47 35.6593 142.47Z" fill="#683BF2" fill-opacity="0.5"/>
<path d="M35.6593 169.755C33.9113 169.755 32.4825 168.326 32.4825 166.578C32.4825 164.83 33.9113 163.401 35.6593 163.401C37.4073 163.401 38.8361 164.83 38.8361 166.578C38.8361 168.341 37.4073 169.755 35.6593 169.755Z" fill="#683BF2" fill-opacity="0.5"/>
<path d="M35.6593 197.054C33.9113 197.054 32.4825 195.625 32.4825 193.877C32.4825 192.129 33.9113 190.7 35.6593 190.7C37.4073 190.7 38.8361 192.129 38.8361 193.877C38.8361 195.625 37.4073 197.054 35.6593 197.054Z" fill="#683BF2" fill-opacity="0.5"/>
<path d="M3.7393 6.73445C1.9913 6.73445 0.562502 5.30565 0.562502 3.55765C0.562502 1.80965 1.9913 0.380859 3.7393 0.380859C5.4873 0.380859 6.91609 1.80965 6.91609 3.55765C6.91609 5.32085 5.4873 6.73445 3.7393 6.73445Z" fill="#683BF2" fill-opacity="0.5"/>
<path d="M3.73929 34.0337C1.99129 34.0337 0.5625 32.6048 0.5625 30.8568C0.5625 29.1088 1.99129 27.68 3.73929 27.68C5.48729 27.68 6.91609 29.1088 6.91609 30.8568C6.91609 32.6048 5.48729 34.0337 3.73929 34.0337Z" fill="#683BF2" fill-opacity="0.5"/>
<path d="M3.73929 61.3329C1.99129 61.3329 0.5625 59.9041 0.5625 58.1561C0.5625 56.4081 1.99129 54.9793 3.73929 54.9793C5.48729 54.9793 6.91609 56.4081 6.91609 58.1561C6.91609 59.9041 5.48729 61.3329 3.73929 61.3329Z" fill="#683BF2" fill-opacity="0.5"/>
<path d="M3.73929 88.6168C1.99129 88.6168 0.5625 87.188 0.5625 85.44C0.5625 83.692 1.99129 82.2633 3.73929 82.2633C5.48729 82.2633 6.91609 83.692 6.91609 85.44C6.91609 87.188 5.48729 88.6168 3.73929 88.6168Z" fill="#683BF2" fill-opacity="0.5"/>
<path d="M3.73929 115.171C1.99129 115.171 0.5625 113.742 0.5625 111.994C0.5625 110.246 1.99129 108.818 3.73929 108.818C5.48729 108.818 6.91609 110.246 6.91609 111.994C6.91609 113.742 5.48729 115.171 3.73929 115.171Z" fill="#683BF2" fill-opacity="0.5"/>
<path d="M3.73929 142.47C1.99129 142.47 0.5625 141.042 0.5625 139.294C0.5625 137.546 1.99129 136.117 3.73929 136.117C5.48729 136.117 6.91609 137.546 6.91609 139.294C6.91609 141.042 5.48729 142.47 3.73929 142.47Z" fill="#683BF2" fill-opacity="0.5"/>
<path d="M3.73929 169.755C1.99129 169.755 0.5625 168.326 0.5625 166.578C0.5625 164.83 1.99129 163.401 3.73929 163.401C5.48729 163.401 6.91609 164.83 6.91609 166.578C6.91609 168.341 5.48729 169.755 3.73929 169.755Z" fill="#683BF2" fill-opacity="0.5"/>
<path d="M3.73929 197.054C1.99129 197.054 0.5625 195.625 0.5625 193.877C0.5625 192.129 1.99129 190.7 3.73929 190.7C5.48729 190.7 6.91609 192.129 6.91609 193.877C6.91609 195.625 5.48729 197.054 3.73929 197.054Z" fill="#683BF2" fill-opacity="0.5"/>
</svg>
