<svg width="194" height="183" viewBox="0 0 194 183" fill="none" xmlns="http://www.w3.org/2000/svg">
<path d="M9.20497 178.28C9.20497 180.546 7.36927 182.381 5.10248 182.381C2.8357 182.381 1 180.546 1 178.28C1 176.014 2.8357 174.18 5.10248 174.18C7.36927 174.18 9.20497 176.014 9.20497 178.28Z" stroke="#683BF2" stroke-width="1.1786" stroke-miterlimit="10" stroke-linecap="round" stroke-linejoin="round"/>
<path d="M31.3305 182.381C33.5962 182.381 35.433 180.545 35.433 178.28C35.433 176.016 33.5962 174.18 31.3305 174.18C29.0648 174.18 27.228 176.016 27.228 178.28C27.228 180.545 29.0648 182.381 31.3305 182.381Z" stroke="#683BF2" stroke-width="1.1786" stroke-miterlimit="10" stroke-linecap="round" stroke-linejoin="round"/>
<path d="M57.5446 182.381C59.8104 182.381 61.647 180.545 61.647 178.28C61.647 176.016 59.8104 174.18 57.5446 174.18C55.2789 174.18 53.4421 176.016 53.4421 178.28C53.4421 180.545 55.2789 182.381 57.5446 182.381Z" stroke="#683BF2" stroke-width="1.1786" stroke-miterlimit="10" stroke-linecap="round" stroke-linejoin="round"/>
<path d="M83.7724 182.381C86.0381 182.381 87.8749 180.545 87.8749 178.28C87.8749 176.016 86.0381 174.18 83.7724 174.18C81.5067 174.18 79.6699 176.016 79.6699 178.28C79.6699 180.545 81.5067 182.381 83.7724 182.381Z" stroke="#683BF2" stroke-width="1.1786" stroke-miterlimit="10" stroke-linecap="round" stroke-linejoin="round"/>
<path d="M110 182.381C112.266 182.381 114.103 180.545 114.103 178.28C114.103 176.016 112.266 174.18 110 174.18C107.735 174.18 105.898 176.016 105.898 178.28C105.898 180.545 107.735 182.381 110 182.381Z" stroke="#683BF2" stroke-width="1.1786" stroke-miterlimit="10" stroke-linecap="round" stroke-linejoin="round"/>
<path d="M136.228 182.381C138.494 182.381 140.331 180.545 140.331 178.28C140.331 176.016 138.494 174.18 136.228 174.18C133.963 174.18 132.126 176.016 132.126 178.28C132.126 180.545 133.963 182.381 136.228 182.381Z" stroke="#683BF2" stroke-width="1.1786" stroke-miterlimit="10" stroke-linecap="round" stroke-linejoin="round"/>
<path d="M162.443 182.381C164.708 182.381 166.545 180.545 166.545 178.28C166.545 176.016 164.708 174.18 162.443 174.18C160.177 174.18 158.34 176.016 158.34 178.28C158.34 180.545 160.177 182.381 162.443 182.381Z" stroke="#683BF2" stroke-width="1.1786" stroke-miterlimit="10" stroke-linecap="round" stroke-linejoin="round"/>
<path d="M192.773 178.28C192.773 180.546 190.937 182.381 188.67 182.381C186.404 182.381 184.568 180.546 184.568 178.28C184.568 176.014 186.404 174.18 188.67 174.18C190.937 174.18 192.773 176.014 192.773 178.28Z" stroke="#683BF2" stroke-width="1.1786" stroke-miterlimit="10" stroke-linecap="round" stroke-linejoin="round"/>
<path d="M9.20497 153.539C9.20497 155.805 7.36927 157.639 5.10248 157.639C2.8357 157.639 1 155.805 1 153.539C1 151.273 2.8357 149.438 5.10248 149.438C7.36927 149.438 9.20497 151.273 9.20497 153.539Z" stroke="#683BF2" stroke-width="1.1786" stroke-miterlimit="10" stroke-linecap="round" stroke-linejoin="round"/>
<path d="M31.3305 157.639C33.5962 157.639 35.433 155.804 35.433 153.539C35.433 151.274 33.5962 149.438 31.3305 149.438C29.0648 149.438 27.228 151.274 27.228 153.539C27.228 155.804 29.0648 157.639 31.3305 157.639Z" stroke="#683BF2" stroke-width="1.1786" stroke-miterlimit="10" stroke-linecap="round" stroke-linejoin="round"/>
<path d="M57.5446 157.639C59.8104 157.639 61.647 155.804 61.647 153.539C61.647 151.274 59.8104 149.438 57.5446 149.438C55.2789 149.438 53.4421 151.274 53.4421 153.539C53.4421 155.804 55.2789 157.639 57.5446 157.639Z" stroke="#683BF2" stroke-width="1.1786" stroke-miterlimit="10" stroke-linecap="round" stroke-linejoin="round"/>
<path d="M83.7724 157.639C86.0381 157.639 87.8749 155.804 87.8749 153.539C87.8749 151.274 86.0381 149.438 83.7724 149.438C81.5067 149.438 79.6699 151.274 79.6699 153.539C79.6699 155.804 81.5067 157.639 83.7724 157.639Z" stroke="#683BF2" stroke-width="1.1786" stroke-miterlimit="10" stroke-linecap="round" stroke-linejoin="round"/>
<path d="M110 157.639C112.266 157.639 114.103 155.804 114.103 153.539C114.103 151.274 112.266 149.438 110 149.438C107.735 149.438 105.898 151.274 105.898 153.539C105.898 155.804 107.735 157.639 110 157.639Z" stroke="#683BF2" stroke-width="1.1786" stroke-miterlimit="10" stroke-linecap="round" stroke-linejoin="round"/>
<path d="M136.228 157.639C138.494 157.639 140.331 155.804 140.331 153.539C140.331 151.274 138.494 149.438 136.228 149.438C133.963 149.438 132.126 151.274 132.126 153.539C132.126 155.804 133.963 157.639 136.228 157.639Z" stroke="#683BF2" stroke-width="1.1786" stroke-miterlimit="10" stroke-linecap="round" stroke-linejoin="round"/>
<path d="M162.443 157.639C164.708 157.639 166.545 155.804 166.545 153.539C166.545 151.274 164.708 149.438 162.443 149.438C160.177 149.438 158.34 151.274 158.34 153.539C158.34 155.804 160.177 157.639 162.443 157.639Z" stroke="#683BF2" stroke-width="1.1786" stroke-miterlimit="10" stroke-linecap="round" stroke-linejoin="round"/>
<path d="M192.773 153.539C192.773 155.805 190.937 157.639 188.67 157.639C186.404 157.639 184.568 155.805 184.568 153.539C184.568 151.273 186.404 149.438 188.67 149.438C190.937 149.438 192.773 151.273 192.773 153.539Z" stroke="#683BF2" stroke-width="1.1786" stroke-miterlimit="10" stroke-linecap="round" stroke-linejoin="round"/>
<path d="M9.20497 128.797C9.20497 131.062 7.36927 132.897 5.10248 132.897C2.8357 132.897 1 131.062 1 128.797C1 126.531 2.8357 124.696 5.10248 124.696C7.36927 124.696 9.20497 126.531 9.20497 128.797Z" stroke="#683BF2" stroke-width="1.1786" stroke-miterlimit="10" stroke-linecap="round" stroke-linejoin="round"/>
<path d="M31.3305 132.897C33.5962 132.897 35.433 131.061 35.433 128.797C35.433 126.532 33.5962 124.696 31.3305 124.696C29.0648 124.696 27.228 126.532 27.228 128.797C27.228 131.061 29.0648 132.897 31.3305 132.897Z" stroke="#683BF2" stroke-width="1.1786" stroke-miterlimit="10" stroke-linecap="round" stroke-linejoin="round"/>
<path d="M57.5446 132.897C59.8104 132.897 61.647 131.061 61.647 128.797C61.647 126.532 59.8104 124.696 57.5446 124.696C55.2789 124.696 53.4421 126.532 53.4421 128.797C53.4421 131.061 55.2789 132.897 57.5446 132.897Z" stroke="#683BF2" stroke-width="1.1786" stroke-miterlimit="10" stroke-linecap="round" stroke-linejoin="round"/>
<path d="M83.7724 132.897C86.0381 132.897 87.8749 131.061 87.8749 128.797C87.8749 126.532 86.0381 124.696 83.7724 124.696C81.5067 124.696 79.6699 126.532 79.6699 128.797C79.6699 131.061 81.5067 132.897 83.7724 132.897Z" stroke="#683BF2" stroke-width="1.1786" stroke-miterlimit="10" stroke-linecap="round" stroke-linejoin="round"/>
<path d="M110 132.897C112.266 132.897 114.103 131.061 114.103 128.797C114.103 126.532 112.266 124.696 110 124.696C107.735 124.696 105.898 126.532 105.898 128.797C105.898 131.061 107.735 132.897 110 132.897Z" stroke="#683BF2" stroke-width="1.1786" stroke-miterlimit="10" stroke-linecap="round" stroke-linejoin="round"/>
<path d="M136.228 132.897C138.494 132.897 140.331 131.061 140.331 128.797C140.331 126.532 138.494 124.696 136.228 124.696C133.963 124.696 132.126 126.532 132.126 128.797C132.126 131.061 133.963 132.897 136.228 132.897Z" stroke="#683BF2" stroke-width="1.1786" stroke-miterlimit="10" stroke-linecap="round" stroke-linejoin="round"/>
<path d="M162.443 132.897C164.708 132.897 166.545 131.061 166.545 128.797C166.545 126.532 164.708 124.696 162.443 124.696C160.177 124.696 158.34 126.532 158.34 128.797C158.34 131.061 160.177 132.897 162.443 132.897Z" stroke="#683BF2" stroke-width="1.1786" stroke-miterlimit="10" stroke-linecap="round" stroke-linejoin="round"/>
<path d="M192.773 128.797C192.773 131.062 190.937 132.897 188.67 132.897C186.404 132.897 184.568 131.062 184.568 128.797C184.568 126.531 186.404 124.696 188.67 124.696C190.937 124.696 192.773 126.531 192.773 128.797Z" stroke="#683BF2" stroke-width="1.1786" stroke-miterlimit="10" stroke-linecap="round" stroke-linejoin="round"/>
<path d="M9.20497 104.055C9.20497 106.32 7.36927 108.155 5.10248 108.155C2.8357 108.155 1 106.32 1 104.055C1 101.789 2.8357 99.9541 5.10248 99.9541C7.36927 99.968 9.20497 101.803 9.20497 104.055Z" stroke="#683BF2" stroke-width="1.1786" stroke-miterlimit="10" stroke-linecap="round" stroke-linejoin="round"/>
<path d="M35.419 104.055C35.419 106.32 33.5833 108.155 31.3165 108.155C29.0497 108.155 27.2141 106.32 27.2141 104.055C27.2141 101.789 29.0497 99.9541 31.3165 99.9541C33.5833 99.968 35.419 101.803 35.419 104.055Z" stroke="#683BF2" stroke-width="1.1786" stroke-miterlimit="10" stroke-linecap="round" stroke-linejoin="round"/>
<path d="M61.647 104.055C61.647 106.32 59.8114 108.155 57.5446 108.155C55.2778 108.155 53.4421 106.32 53.4421 104.055C53.4421 101.789 55.2778 99.9541 57.5446 99.9541C59.8114 99.968 61.647 101.803 61.647 104.055Z" stroke="#683BF2" stroke-width="1.1786" stroke-miterlimit="10" stroke-linecap="round" stroke-linejoin="round"/>
<path d="M87.8749 104.055C87.8749 106.32 86.0392 108.155 83.7724 108.155C81.5056 108.155 79.6699 106.32 79.6699 104.055C79.6699 101.789 81.5056 99.9541 83.7724 99.9541C86.0392 99.968 87.8749 101.803 87.8749 104.055Z" stroke="#683BF2" stroke-width="1.1786" stroke-miterlimit="10" stroke-linecap="round" stroke-linejoin="round"/>
<path d="M114.089 104.055C114.089 106.32 112.253 108.155 109.987 108.155C107.72 108.155 105.884 106.32 105.884 104.055C105.884 101.789 107.72 99.9541 109.987 99.9541C112.267 99.968 114.089 101.803 114.089 104.055Z" stroke="#683BF2" stroke-width="1.1786" stroke-miterlimit="10" stroke-linecap="round" stroke-linejoin="round"/>
<path d="M140.317 104.055C140.317 106.32 138.481 108.155 136.215 108.155C133.948 108.155 132.112 106.32 132.112 104.055C132.112 101.789 133.948 99.9541 136.215 99.9541C138.481 99.968 140.317 101.803 140.317 104.055Z" stroke="#683BF2" stroke-width="1.1786" stroke-miterlimit="10" stroke-linecap="round" stroke-linejoin="round"/>
<path d="M166.545 104.055C166.545 106.32 164.709 108.155 162.443 108.155C160.176 108.155 158.34 106.32 158.34 104.055C158.34 101.789 160.176 99.9541 162.443 99.9541C164.709 99.968 166.545 101.803 166.545 104.055Z" stroke="#683BF2" stroke-width="1.1786" stroke-miterlimit="10" stroke-linecap="round" stroke-linejoin="round"/>
<path d="M192.773 104.055C192.773 106.32 190.937 108.155 188.67 108.155C186.404 108.155 184.568 106.32 184.568 104.055C184.568 101.789 186.404 99.9541 188.67 99.9541C190.937 99.968 192.773 101.803 192.773 104.055Z" stroke="#683BF2" stroke-width="1.1786" stroke-miterlimit="10" stroke-linecap="round" stroke-linejoin="round"/>
<path d="M9.20497 79.3261C9.20497 81.5918 7.36927 83.4266 5.10248 83.4266C2.8357 83.4266 1 81.5918 1 79.3261C1 77.0604 2.8357 75.2256 5.10248 75.2256C7.36927 75.2256 9.20497 77.0604 9.20497 79.3261Z" stroke="#683BF2" stroke-width="1.1786" stroke-miterlimit="10" stroke-linecap="round" stroke-linejoin="round"/>
<path d="M35.419 79.3261C35.419 81.5918 33.5833 83.4266 31.3165 83.4266C29.0497 83.4266 27.2141 81.5918 27.2141 79.3261C27.2141 77.0604 29.0497 75.2256 31.3165 75.2256C33.5833 75.2256 35.419 77.0604 35.419 79.3261Z" stroke="#683BF2" stroke-width="1.1786" stroke-miterlimit="10" stroke-linecap="round" stroke-linejoin="round"/>
<path d="M61.647 79.3261C61.647 81.5918 59.8114 83.4266 57.5446 83.4266C55.2778 83.4266 53.4421 81.5918 53.4421 79.3261C53.4421 77.0604 55.2778 75.2256 57.5446 75.2256C59.8114 75.2256 61.647 77.0604 61.647 79.3261Z" stroke="#683BF2" stroke-width="1.1786" stroke-miterlimit="10" stroke-linecap="round" stroke-linejoin="round"/>
<path d="M87.8749 79.3261C87.8749 81.5918 86.0392 83.4266 83.7724 83.4266C81.5056 83.4266 79.6699 81.5918 79.6699 79.3261C79.6699 77.0604 81.5056 75.2256 83.7724 75.2256C86.0392 75.2256 87.8749 77.0604 87.8749 79.3261Z" stroke="#683BF2" stroke-width="1.1786" stroke-miterlimit="10" stroke-linecap="round" stroke-linejoin="round"/>
<path d="M114.089 79.3261C114.089 81.5918 112.253 83.4266 109.987 83.4266C107.72 83.4266 105.884 81.5918 105.884 79.3261C105.884 77.0604 107.72 75.2256 109.987 75.2256C112.267 75.2256 114.089 77.0604 114.089 79.3261Z" stroke="#683BF2" stroke-width="1.1786" stroke-miterlimit="10" stroke-linecap="round" stroke-linejoin="round"/>
<path d="M140.317 79.3261C140.317 81.5918 138.481 83.4266 136.215 83.4266C133.948 83.4266 132.112 81.5918 132.112 79.3261C132.112 77.0604 133.948 75.2256 136.215 75.2256C138.481 75.2256 140.317 77.0604 140.317 79.3261Z" stroke="#683BF2" stroke-width="1.1786" stroke-miterlimit="10" stroke-linecap="round" stroke-linejoin="round"/>
<path d="M166.545 79.3261C166.545 81.5918 164.709 83.4266 162.443 83.4266C160.176 83.4266 158.34 81.5918 158.34 79.3261C158.34 77.0604 160.176 75.2256 162.443 75.2256C164.709 75.2256 166.545 77.0604 166.545 79.3261Z" stroke="#683BF2" stroke-width="1.1786" stroke-miterlimit="10" stroke-linecap="round" stroke-linejoin="round"/>
<path d="M192.773 79.3261C192.773 81.5918 190.937 83.4266 188.67 83.4266C186.404 83.4266 184.568 81.5918 184.568 79.3261C184.568 77.0604 186.404 75.2256 188.67 75.2256C190.937 75.2256 192.773 77.0604 192.773 79.3261Z" stroke="#683BF2" stroke-width="1.1786" stroke-miterlimit="10" stroke-linecap="round" stroke-linejoin="round"/>
<path d="M9.20497 54.5849C9.20497 56.8506 7.36927 58.6854 5.10248 58.6854C2.8357 58.6854 1 56.8506 1 54.5849C1 52.3192 2.8357 50.4844 5.10248 50.4844C7.36927 50.4844 9.20497 52.3192 9.20497 54.5849Z" stroke="#683BF2" stroke-width="1.1786" stroke-miterlimit="10" stroke-linecap="round" stroke-linejoin="round"/>
<path d="M35.419 54.5849C35.419 56.8506 33.5833 58.6854 31.3165 58.6854C29.0497 58.6854 27.2141 56.8506 27.2141 54.5849C27.2141 52.3192 29.0497 50.4844 31.3165 50.4844C33.5833 50.4844 35.419 52.3192 35.419 54.5849Z" stroke="#683BF2" stroke-width="1.1786" stroke-miterlimit="10" stroke-linecap="round" stroke-linejoin="round"/>
<path d="M61.647 54.5849C61.647 56.8506 59.8114 58.6854 57.5446 58.6854C55.2778 58.6854 53.4421 56.8506 53.4421 54.5849C53.4421 52.3192 55.2778 50.4844 57.5446 50.4844C59.8114 50.4844 61.647 52.3192 61.647 54.5849Z" stroke="#683BF2" stroke-width="1.1786" stroke-miterlimit="10" stroke-linecap="round" stroke-linejoin="round"/>
<path d="M87.8749 54.5849C87.8749 56.8506 86.0392 58.6854 83.7724 58.6854C81.5056 58.6854 79.6699 56.8506 79.6699 54.5849C79.6699 52.3192 81.5056 50.4844 83.7724 50.4844C86.0392 50.4844 87.8749 52.3192 87.8749 54.5849Z" stroke="#683BF2" stroke-width="1.1786" stroke-miterlimit="10" stroke-linecap="round" stroke-linejoin="round"/>
<path d="M114.089 54.5849C114.089 56.8506 112.253 58.6854 109.987 58.6854C107.72 58.6854 105.884 56.8506 105.884 54.5849C105.884 52.3192 107.72 50.4844 109.987 50.4844C112.267 50.4844 114.089 52.3192 114.089 54.5849Z" stroke="#683BF2" stroke-width="1.1786" stroke-miterlimit="10" stroke-linecap="round" stroke-linejoin="round"/>
<path d="M140.317 54.5849C140.317 56.8506 138.481 58.6854 136.215 58.6854C133.948 58.6854 132.112 56.8506 132.112 54.5849C132.112 52.3192 133.948 50.4844 136.215 50.4844C138.481 50.4844 140.317 52.3192 140.317 54.5849Z" stroke="#683BF2" stroke-width="1.1786" stroke-miterlimit="10" stroke-linecap="round" stroke-linejoin="round"/>
<path d="M166.545 54.5849C166.545 56.8506 164.709 58.6854 162.443 58.6854C160.176 58.6854 158.34 56.8506 158.34 54.5849C158.34 52.3192 160.176 50.4844 162.443 50.4844C164.709 50.4844 166.545 52.3192 166.545 54.5849Z" stroke="#683BF2" stroke-width="1.1786" stroke-miterlimit="10" stroke-linecap="round" stroke-linejoin="round"/>
<path d="M192.773 54.5849C192.773 56.8506 190.937 58.6854 188.67 58.6854C186.404 58.6854 184.568 56.8506 184.568 54.5849C184.568 52.3192 186.404 50.4844 188.67 50.4844C190.937 50.4844 192.773 52.3192 192.773 54.5849Z" stroke="#683BF2" stroke-width="1.1786" stroke-miterlimit="10" stroke-linecap="round" stroke-linejoin="round"/>
<path d="M9.20497 29.8427C9.20497 32.1084 7.36927 33.9432 5.10248 33.9432C2.8357 33.9432 1 32.1084 1 29.8427C1 27.577 2.8357 25.7422 5.10248 25.7422C7.36927 25.7422 9.20497 27.577 9.20497 29.8427Z" stroke="#683BF2" stroke-width="1.1786" stroke-miterlimit="10" stroke-linecap="round" stroke-linejoin="round"/>
<path d="M31.3305 33.9432C33.5962 33.9432 35.433 32.1073 35.433 29.8427C35.433 27.578 33.5962 25.7422 31.3305 25.7422C29.0648 25.7422 27.228 27.578 27.228 29.8427C27.228 32.1073 29.0648 33.9432 31.3305 33.9432Z" stroke="#683BF2" stroke-width="1.1786" stroke-miterlimit="10" stroke-linecap="round" stroke-linejoin="round"/>
<path d="M57.5446 33.9432C59.8104 33.9432 61.647 32.1073 61.647 29.8427C61.647 27.578 59.8104 25.7422 57.5446 25.7422C55.2789 25.7422 53.4421 27.578 53.4421 29.8427C53.4421 32.1073 55.2789 33.9432 57.5446 33.9432Z" stroke="#683BF2" stroke-width="1.1786" stroke-miterlimit="10" stroke-linecap="round" stroke-linejoin="round"/>
<path d="M83.7724 33.9432C86.0381 33.9432 87.8749 32.1073 87.8749 29.8427C87.8749 27.578 86.0381 25.7422 83.7724 25.7422C81.5067 25.7422 79.6699 27.578 79.6699 29.8427C79.6699 32.1073 81.5067 33.9432 83.7724 33.9432Z" stroke="#683BF2" stroke-width="1.1786" stroke-miterlimit="10" stroke-linecap="round" stroke-linejoin="round"/>
<path d="M110 33.9432C112.266 33.9432 114.103 32.1073 114.103 29.8427C114.103 27.578 112.266 25.7422 110 25.7422C107.735 25.7422 105.898 27.578 105.898 29.8427C105.898 32.1073 107.735 33.9432 110 33.9432Z" stroke="#683BF2" stroke-width="1.1786" stroke-miterlimit="10" stroke-linecap="round" stroke-linejoin="round"/>
<path d="M136.228 33.9432C138.494 33.9432 140.331 32.1073 140.331 29.8427C140.331 27.578 138.494 25.7422 136.228 25.7422C133.963 25.7422 132.126 27.578 132.126 29.8427C132.126 32.1073 133.963 33.9432 136.228 33.9432Z" stroke="#683BF2" stroke-width="1.1786" stroke-miterlimit="10" stroke-linecap="round" stroke-linejoin="round"/>
<path d="M162.443 33.9432C164.708 33.9432 166.545 32.1073 166.545 29.8427C166.545 27.578 164.708 25.7422 162.443 25.7422C160.177 25.7422 158.34 27.578 158.34 29.8427C158.34 32.1073 160.177 33.9432 162.443 33.9432Z" stroke="#683BF2" stroke-width="1.1786" stroke-miterlimit="10" stroke-linecap="round" stroke-linejoin="round"/>
<path d="M192.773 29.8427C192.773 32.1084 190.937 33.9432 188.67 33.9432C186.404 33.9432 184.568 32.1084 184.568 29.8427C184.568 27.577 186.404 25.7422 188.67 25.7422C190.937 25.7422 192.773 27.577 192.773 29.8427Z" stroke="#683BF2" stroke-width="1.1786" stroke-miterlimit="10" stroke-linecap="round" stroke-linejoin="round"/>
<path d="M9.20497 5.1005C9.20497 7.3662 7.36927 9.201 5.10248 9.201C2.8357 9.201 1 7.3662 1 5.1005C1 2.8348 2.8357 1 5.10248 1C7.36927 1.0139 9.20497 2.8487 9.20497 5.1005Z" stroke="#683BF2" stroke-width="1.1786" stroke-miterlimit="10" stroke-linecap="round" stroke-linejoin="round"/>
<path d="M31.3305 9.201C33.5962 9.201 35.433 7.36514 35.433 5.1005C35.433 2.83586 33.5962 1 31.3305 1C29.0648 1 27.228 2.83586 27.228 5.1005C27.228 7.36514 29.0648 9.201 31.3305 9.201Z" stroke="#683BF2" stroke-width="1.1786" stroke-miterlimit="10" stroke-linecap="round" stroke-linejoin="round"/>
<path d="M57.5446 9.201C59.8104 9.201 61.647 7.36514 61.647 5.1005C61.647 2.83586 59.8104 1 57.5446 1C55.2789 1 53.4421 2.83586 53.4421 5.1005C53.4421 7.36514 55.2789 9.201 57.5446 9.201Z" stroke="#683BF2" stroke-width="1.1786" stroke-miterlimit="10" stroke-linecap="round" stroke-linejoin="round"/>
<path d="M83.7724 9.201C86.0381 9.201 87.8749 7.36514 87.8749 5.1005C87.8749 2.83586 86.0381 1 83.7724 1C81.5067 1 79.6699 2.83586 79.6699 5.1005C79.6699 7.36514 81.5067 9.201 83.7724 9.201Z" stroke="#683BF2" stroke-width="1.1786" stroke-miterlimit="10" stroke-linecap="round" stroke-linejoin="round"/>
<path d="M110 9.201C112.266 9.201 114.103 7.36514 114.103 5.1005C114.103 2.83586 112.266 1 110 1C107.735 1 105.898 2.83586 105.898 5.1005C105.898 7.36514 107.735 9.201 110 9.201Z" stroke="#683BF2" stroke-width="1.1786" stroke-miterlimit="10" stroke-linecap="round" stroke-linejoin="round"/>
<path d="M136.228 9.201C138.494 9.201 140.331 7.36514 140.331 5.1005C140.331 2.83586 138.494 1 136.228 1C133.963 1 132.126 2.83586 132.126 5.1005C132.126 7.36514 133.963 9.201 136.228 9.201Z" stroke="#683BF2" stroke-width="1.1786" stroke-miterlimit="10" stroke-linecap="round" stroke-linejoin="round"/>
<path d="M162.443 9.201C164.708 9.201 166.545 7.36514 166.545 5.1005C166.545 2.83586 164.708 1 162.443 1C160.177 1 158.34 2.83586 158.34 5.1005C158.34 7.36514 160.177 9.201 162.443 9.201Z" stroke="#683BF2" stroke-width="1.1786" stroke-miterlimit="10" stroke-linecap="round" stroke-linejoin="round"/>
<path d="M192.773 5.1005C192.773 7.3662 190.937 9.201 188.671 9.201C186.404 9.201 184.568 7.3662 184.568 5.1005C184.568 2.8348 186.404 1 188.671 1C190.937 1.0139 192.773 2.8487 192.773 5.1005Z" stroke="#683BF2" stroke-width="1.1786" stroke-miterlimit="10" stroke-linecap="round" stroke-linejoin="round"/>
</svg>
