<svg width="57" height="60" viewBox="0 0 57 60" fill="none" xmlns="http://www.w3.org/2000/svg">
<path d="M55.4041 57.3232C56.1134 57.3232 56.6836 57.8931 56.6836 58.602C56.6836 59.3109 56.1134 59.8808 55.4041 59.8808C54.6949 59.8808 54.1248 59.3109 54.1248 58.602C54.1248 57.8931 54.6949 57.3232 55.4041 57.3232Z" fill="#2B3149"/>
<path d="M55.4041 49.123C56.1134 49.123 56.6836 49.6929 56.6836 50.4018C56.6836 51.1107 56.1134 51.6806 55.4041 51.6806C54.6949 51.6806 54.1248 51.1107 54.1248 50.4018C54.1248 49.6929 54.6949 49.123 55.4041 49.123Z" fill="#2B3149"/>
<path d="M55.4041 40.9355C56.1134 40.9355 56.6836 41.5055 56.6836 42.2144C56.6836 42.9233 56.1134 43.4932 55.4041 43.4932C54.6949 43.4932 54.1248 42.9233 54.1248 42.2144C54.1248 41.5055 54.6949 40.9355 55.4041 40.9355Z" fill="#2B3149"/>
<path d="M55.4041 32.748C56.1134 32.748 56.6836 33.3179 56.6836 34.0268C56.6836 34.7357 56.1134 35.3057 55.4041 35.3057C54.6949 35.3057 54.1248 34.7357 54.1248 34.0268C54.1248 33.3179 54.6949 32.748 55.4041 32.748Z" fill="#2B3149"/>
<path d="M55.4041 24.5615C56.1134 24.5615 56.6836 25.1314 56.6836 25.8403C56.6836 26.5492 56.1134 27.1191 55.4041 27.1191C54.6949 27.1191 54.1248 26.5492 54.1248 25.8403C54.1248 25.1453 54.6949 24.5615 55.4041 24.5615Z" fill="#2B3149"/>
<path d="M55.4041 16.374C56.1134 16.374 56.6836 16.9439 56.6836 17.6528C56.6836 18.3617 56.1134 18.9316 55.4041 18.9316C54.6949 18.9316 54.1248 18.3617 54.1248 17.6528C54.1248 16.9439 54.6949 16.374 55.4041 16.374Z" fill="#2B3149"/>
<path d="M55.4041 8.1875C56.1134 8.1875 56.6836 8.7574 56.6836 9.4663C56.6836 10.1752 56.1134 10.7451 55.4041 10.7451C54.6949 10.7451 54.1248 10.1752 54.1248 9.4663C54.1248 8.7574 54.6949 8.1875 55.4041 8.1875Z" fill="#2B3149"/>
<path d="M55.4041 0C56.1134 0 56.6836 0.569898 56.6836 1.2788C56.6836 1.9877 56.1134 2.5576 55.4041 2.5576C54.6949 2.5576 54.1248 1.9877 54.1248 1.2788C54.1248 0.583798 54.6949 0 55.4041 0Z" fill="#2B3149"/>
<path d="M47.672 57.3232C48.3812 57.3232 48.9514 57.8931 48.9514 58.602C48.9514 59.3109 48.3812 59.8808 47.672 59.8808C46.9627 59.8808 46.3926 59.3109 46.3926 58.602C46.3926 57.8931 46.9627 57.3232 47.672 57.3232Z" fill="#2B3149"/>
<path d="M47.672 49.123C48.3812 49.123 48.9514 49.6929 48.9514 50.4018C48.9514 51.1107 48.3812 51.6806 47.672 51.6806C46.9627 51.6806 46.3926 51.1107 46.3926 50.4018C46.3926 49.6929 46.9627 49.123 47.672 49.123Z" fill="#2B3149"/>
<path d="M47.672 40.9355C48.3812 40.9355 48.9514 41.5055 48.9514 42.2144C48.9514 42.9233 48.3812 43.4932 47.672 43.4932C46.9627 43.4932 46.3926 42.9233 46.3926 42.2144C46.3926 41.5055 46.9627 40.9355 47.672 40.9355Z" fill="#2B3149"/>
<path d="M47.672 32.748C48.3812 32.748 48.9514 33.3179 48.9514 34.0268C48.9514 34.7357 48.3812 35.3057 47.672 35.3057C46.9627 35.3057 46.3926 34.7357 46.3926 34.0268C46.3926 33.3179 46.9627 32.748 47.672 32.748Z" fill="#2B3149"/>
<path d="M47.672 24.5615C48.3812 24.5615 48.9514 25.1314 48.9514 25.8403C48.9514 26.5492 48.3812 27.1191 47.672 27.1191C46.9627 27.1191 46.3926 26.5492 46.3926 25.8403C46.3926 25.1453 46.9627 24.5615 47.672 24.5615Z" fill="#2B3149"/>
<path d="M47.672 16.374C48.3812 16.374 48.9514 16.9439 48.9514 17.6528C48.9514 18.3617 48.3812 18.9316 47.672 18.9316C46.9627 18.9316 46.3926 18.3617 46.3926 17.6528C46.3926 16.9439 46.9627 16.374 47.672 16.374Z" fill="#2B3149"/>
<path d="M47.672 8.1875C48.3812 8.1875 48.9514 8.7574 48.9514 9.4663C48.9514 10.1752 48.3812 10.7451 47.672 10.7451C46.9627 10.7451 46.3926 10.1752 46.3926 9.4663C46.3926 8.7574 46.9627 8.1875 47.672 8.1875Z" fill="#2B3149"/>
<path d="M47.672 0C48.3812 0 48.9514 0.569898 48.9514 1.2788C48.9514 1.9877 48.3812 2.5576 47.672 2.5576C46.9627 2.5576 46.3926 1.9877 46.3926 1.2788C46.3926 0.583798 46.9627 0 47.672 0Z" fill="#2B3149"/>
<path d="M39.9398 57.3232C40.6491 57.3232 41.2193 57.8931 41.2193 58.602C41.2193 59.3109 40.6491 59.8808 39.9398 59.8808C39.2306 59.8808 38.6604 59.3109 38.6604 58.602C38.6604 57.8931 39.2306 57.3232 39.9398 57.3232Z" fill="#2B3149"/>
<path d="M39.9398 49.123C40.6491 49.123 41.2193 49.6929 41.2193 50.4018C41.2193 51.1107 40.6491 51.6806 39.9398 51.6806C39.2306 51.6806 38.6604 51.1107 38.6604 50.4018C38.6604 49.6929 39.2306 49.123 39.9398 49.123Z" fill="#2B3149"/>
<path d="M39.9398 40.9355C40.6491 40.9355 41.2193 41.5055 41.2193 42.2144C41.2193 42.9233 40.6491 43.4932 39.9398 43.4932C39.2306 43.4932 38.6604 42.9233 38.6604 42.2144C38.6604 41.5055 39.2306 40.9355 39.9398 40.9355Z" fill="#2B3149"/>
<path d="M39.9398 32.748C40.6491 32.748 41.2193 33.3179 41.2193 34.0268C41.2193 34.7357 40.6491 35.3057 39.9398 35.3057C39.2306 35.3057 38.6604 34.7357 38.6604 34.0268C38.6604 33.3179 39.2306 32.748 39.9398 32.748Z" fill="#2B3149"/>
<path d="M39.9398 24.5615C40.6491 24.5615 41.2193 25.1314 41.2193 25.8403C41.2193 26.5492 40.6491 27.1191 39.9398 27.1191C39.2306 27.1191 38.6604 26.5492 38.6604 25.8403C38.6604 25.1453 39.2306 24.5615 39.9398 24.5615Z" fill="#2B3149"/>
<path d="M39.9398 16.374C40.6491 16.374 41.2193 16.9439 41.2193 17.6528C41.2193 18.3617 40.6491 18.9316 39.9398 18.9316C39.2306 18.9316 38.6604 18.3617 38.6604 17.6528C38.6604 16.9439 39.2306 16.374 39.9398 16.374Z" fill="#2B3149"/>
<path d="M39.9398 8.1875C40.6491 8.1875 41.2193 8.7574 41.2193 9.4663C41.2193 10.1752 40.6491 10.7451 39.9398 10.7451C39.2306 10.7451 38.6604 10.1752 38.6604 9.4663C38.6604 8.7574 39.2306 8.1875 39.9398 8.1875Z" fill="#2B3149"/>
<path d="M39.9398 0C40.6491 0 41.2193 0.569898 41.2193 1.2788C41.2193 1.9877 40.6491 2.5576 39.9398 2.5576C39.2306 2.5576 38.6604 1.9877 38.6604 1.2788C38.6604 0.583798 39.2306 0 39.9398 0Z" fill="#2B3149"/>
<path d="M32.2079 57.3232C32.9171 57.3232 33.4873 57.8931 33.4873 58.602C33.4873 59.3109 32.9171 59.8808 32.2079 59.8808C31.4987 59.8808 30.9285 59.3109 30.9285 58.602C30.9285 57.8931 31.4987 57.3232 32.2079 57.3232Z" fill="#2B3149"/>
<path d="M32.2079 49.123C32.9171 49.123 33.4873 49.6929 33.4873 50.4018C33.4873 51.1107 32.9171 51.6806 32.2079 51.6806C31.4987 51.6806 30.9285 51.1107 30.9285 50.4018C30.9285 49.6929 31.4987 49.123 32.2079 49.123Z" fill="#2B3149"/>
<path d="M32.2079 40.9355C32.9171 40.9355 33.4873 41.5055 33.4873 42.2144C33.4873 42.9233 32.9171 43.4932 32.2079 43.4932C31.4987 43.4932 30.9285 42.9233 30.9285 42.2144C30.9285 41.5055 31.4987 40.9355 32.2079 40.9355Z" fill="#2B3149"/>
<path d="M32.2079 32.748C32.9171 32.748 33.4873 33.3179 33.4873 34.0268C33.4873 34.7357 32.9171 35.3057 32.2079 35.3057C31.4987 35.3057 30.9285 34.7357 30.9285 34.0268C30.9285 33.3179 31.4987 32.748 32.2079 32.748Z" fill="#2B3149"/>
<path d="M32.2079 24.5615C32.9171 24.5615 33.4873 25.1314 33.4873 25.8403C33.4873 26.5492 32.9171 27.1191 32.2079 27.1191C31.4987 27.1191 30.9285 26.5492 30.9285 25.8403C30.9285 25.1453 31.4987 24.5615 32.2079 24.5615Z" fill="#2B3149"/>
<path d="M32.2079 16.374C32.9171 16.374 33.4873 16.9439 33.4873 17.6528C33.4873 18.3617 32.9171 18.9316 32.2079 18.9316C31.4987 18.9316 30.9285 18.3617 30.9285 17.6528C30.9285 16.9439 31.4987 16.374 32.2079 16.374Z" fill="#2B3149"/>
<path d="M32.2079 8.1875C32.9171 8.1875 33.4873 8.7574 33.4873 9.4663C33.4873 10.1752 32.9171 10.7451 32.2079 10.7451C31.4987 10.7451 30.9285 10.1752 30.9285 9.4663C30.9285 8.7574 31.4987 8.1875 32.2079 8.1875Z" fill="#2B3149"/>
<path d="M32.2079 0C32.9171 0 33.4873 0.569898 33.4873 1.2788C33.4873 1.9877 32.9171 2.5576 32.2079 2.5576C31.4987 2.5576 30.9285 1.9877 30.9285 1.2788C30.9285 0.583798 31.4987 0 32.2079 0Z" fill="#2B3149"/>
<path d="M24.4757 57.3232C25.185 57.3232 25.7551 57.8931 25.7551 58.602C25.7551 59.3109 25.185 59.8808 24.4757 59.8808C23.7665 59.8808 23.1963 59.3109 23.1963 58.602C23.1963 57.8931 23.7665 57.3232 24.4757 57.3232Z" fill="#2B3149"/>
<path d="M24.4757 49.123C25.185 49.123 25.7551 49.6929 25.7551 50.4018C25.7551 51.1107 25.185 51.6806 24.4757 51.6806C23.7665 51.6806 23.1963 51.1107 23.1963 50.4018C23.1963 49.6929 23.7665 49.123 24.4757 49.123Z" fill="#2B3149"/>
<path d="M24.4757 40.9355C25.185 40.9355 25.7551 41.5055 25.7551 42.2144C25.7551 42.9233 25.185 43.4932 24.4757 43.4932C23.7665 43.4932 23.1963 42.9233 23.1963 42.2144C23.1963 41.5055 23.7665 40.9355 24.4757 40.9355Z" fill="#2B3149"/>
<path d="M24.4757 32.748C25.185 32.748 25.7551 33.3179 25.7551 34.0268C25.7551 34.7357 25.185 35.3057 24.4757 35.3057C23.7665 35.3057 23.1963 34.7357 23.1963 34.0268C23.1963 33.3179 23.7665 32.748 24.4757 32.748Z" fill="#2B3149"/>
<path d="M24.4757 24.5615C25.185 24.5615 25.7551 25.1314 25.7551 25.8403C25.7551 26.5492 25.185 27.1191 24.4757 27.1191C23.7665 27.1191 23.1963 26.5492 23.1963 25.8403C23.1963 25.1453 23.7665 24.5615 24.4757 24.5615Z" fill="#2B3149"/>
<path d="M24.4757 16.374C25.185 16.374 25.7551 16.9439 25.7551 17.6528C25.7551 18.3617 25.185 18.9316 24.4757 18.9316C23.7665 18.9316 23.1963 18.3617 23.1963 17.6528C23.1963 16.9439 23.7665 16.374 24.4757 16.374Z" fill="#2B3149"/>
<path d="M24.4757 8.1875C25.185 8.1875 25.7551 8.7574 25.7551 9.4663C25.7551 10.1752 25.185 10.7451 24.4757 10.7451C23.7665 10.7451 23.1963 10.1752 23.1963 9.4663C23.1963 8.7574 23.7665 8.1875 24.4757 8.1875Z" fill="#2B3149"/>
<path d="M24.4757 0C25.185 0 25.7551 0.569898 25.7551 1.2788C25.7551 1.9877 25.185 2.5576 24.4757 2.5576C23.7665 2.5576 23.1963 1.9877 23.1963 1.2788C23.1963 0.583798 23.7665 0 24.4757 0Z" fill="#2B3149"/>
<path d="M16.7435 57.3232C17.4528 57.3232 18.0229 57.8931 18.0229 58.602C18.0229 59.3109 17.4528 59.8808 16.7435 59.8808C16.0343 59.8808 15.4641 59.3109 15.4641 58.602C15.4641 57.8931 16.0343 57.3232 16.7435 57.3232Z" fill="#2B3149"/>
<path d="M16.7435 49.123C17.4528 49.123 18.0229 49.6929 18.0229 50.4018C18.0229 51.1107 17.4528 51.6806 16.7435 51.6806C16.0343 51.6806 15.4641 51.1107 15.4641 50.4018C15.4641 49.6929 16.0343 49.123 16.7435 49.123Z" fill="#2B3149"/>
<path d="M16.7435 40.9355C17.4528 40.9355 18.0229 41.5055 18.0229 42.2144C18.0229 42.9233 17.4528 43.4932 16.7435 43.4932C16.0343 43.4932 15.4641 42.9233 15.4641 42.2144C15.4641 41.5055 16.0343 40.9355 16.7435 40.9355Z" fill="#2B3149"/>
<path d="M16.7435 32.748C17.4528 32.748 18.0229 33.3179 18.0229 34.0268C18.0229 34.7357 17.4528 35.3057 16.7435 35.3057C16.0343 35.3057 15.4641 34.7357 15.4641 34.0268C15.4641 33.3179 16.0343 32.748 16.7435 32.748Z" fill="#2B3149"/>
<path d="M16.7435 24.5615C17.4528 24.5615 18.0229 25.1314 18.0229 25.8403C18.0229 26.5492 17.4528 27.1191 16.7435 27.1191C16.0343 27.1191 15.4641 26.5492 15.4641 25.8403C15.4641 25.1453 16.0343 24.5615 16.7435 24.5615Z" fill="#2B3149"/>
<path d="M16.7435 16.374C17.4528 16.374 18.0229 16.9439 18.0229 17.6528C18.0229 18.3617 17.4528 18.9316 16.7435 18.9316C16.0343 18.9316 15.4641 18.3617 15.4641 17.6528C15.4641 16.9439 16.0343 16.374 16.7435 16.374Z" fill="#2B3149"/>
<path d="M16.7435 8.1875C17.4528 8.1875 18.0229 8.7574 18.0229 9.4663C18.0229 10.1752 17.4528 10.7451 16.7435 10.7451C16.0343 10.7451 15.4641 10.1752 15.4641 9.4663C15.4641 8.7574 16.0343 8.1875 16.7435 8.1875Z" fill="#2B3149"/>
<path d="M16.7435 0C17.4528 0 18.0229 0.569898 18.0229 1.2788C18.0229 1.9877 17.4528 2.5576 16.7435 2.5576C16.0343 2.5576 15.4641 1.9877 15.4641 1.2788C15.4641 0.583798 16.0343 0 16.7435 0Z" fill="#2B3149"/>
<path d="M9.01161 57.3232C9.72085 57.3232 10.291 57.8931 10.291 58.602C10.291 59.3109 9.72085 59.8808 9.01161 59.8808C8.30237 59.8808 7.73218 59.3109 7.73218 58.602C7.73218 57.8931 8.30237 57.3232 9.01161 57.3232Z" fill="#2B3149"/>
<path d="M9.01161 49.123C9.72085 49.123 10.291 49.6929 10.291 50.4018C10.291 51.1107 9.72085 51.6806 9.01161 51.6806C8.30237 51.6806 7.73218 51.1107 7.73218 50.4018C7.73218 49.6929 8.30237 49.123 9.01161 49.123Z" fill="#2B3149"/>
<path d="M9.01161 40.9355C9.72085 40.9355 10.291 41.5055 10.291 42.2144C10.291 42.9233 9.72085 43.4932 9.01161 43.4932C8.30237 43.4932 7.73218 42.9233 7.73218 42.2144C7.73218 41.5055 8.30237 40.9355 9.01161 40.9355Z" fill="#2B3149"/>
<path d="M9.01161 32.748C9.72085 32.748 10.291 33.3179 10.291 34.0268C10.291 34.7357 9.72085 35.3057 9.01161 35.3057C8.30237 35.3057 7.73218 34.7357 7.73218 34.0268C7.73218 33.3179 8.30237 32.748 9.01161 32.748Z" fill="#2B3149"/>
<path d="M9.01161 24.5615C9.72085 24.5615 10.291 25.1314 10.291 25.8403C10.291 26.5492 9.72085 27.1191 9.01161 27.1191C8.30237 27.1191 7.73218 26.5492 7.73218 25.8403C7.73218 25.1453 8.30237 24.5615 9.01161 24.5615Z" fill="#2B3149"/>
<path d="M9.01161 16.374C9.72085 16.374 10.291 16.9439 10.291 17.6528C10.291 18.3617 9.72085 18.9316 9.01161 18.9316C8.30237 18.9316 7.73218 18.3617 7.73218 17.6528C7.73218 16.9439 8.30237 16.374 9.01161 16.374Z" fill="#2B3149"/>
<path d="M9.01161 8.1875C9.72085 8.1875 10.291 8.7574 10.291 9.4663C10.291 10.1752 9.72085 10.7451 9.01161 10.7451C8.30237 10.7451 7.73218 10.1752 7.73218 9.4663C7.73218 8.7574 8.30237 8.1875 9.01161 8.1875Z" fill="#2B3149"/>
<path d="M9.01161 0C9.72085 0 10.291 0.569898 10.291 1.2788C10.291 1.9877 9.72085 2.5576 9.01161 2.5576C8.30237 2.5576 7.73218 1.9877 7.73218 1.2788C7.73218 0.583798 8.30237 0 9.01161 0Z" fill="#2B3149"/>
<path d="M1.27943 57.3232C1.98867 57.3232 2.55882 57.8931 2.55882 58.602C2.55882 59.3109 1.98867 59.8808 1.27943 59.8808C0.570192 59.8808 0 59.3109 0 58.602C0 57.8931 0.570192 57.3232 1.27943 57.3232Z" fill="#2B3149"/>
<path d="M1.27943 49.123C1.98867 49.123 2.55882 49.6929 2.55882 50.4018C2.55882 51.1107 1.98867 51.6806 1.27943 51.6806C0.570192 51.6806 0 51.1107 0 50.4018C0 49.6929 0.570192 49.123 1.27943 49.123Z" fill="#2B3149"/>
<path d="M1.27943 40.9355C1.98867 40.9355 2.55882 41.5055 2.55882 42.2144C2.55882 42.9233 1.98867 43.4932 1.27943 43.4932C0.570192 43.4932 0 42.9233 0 42.2144C0 41.5055 0.570192 40.9355 1.27943 40.9355Z" fill="#2B3149"/>
<path d="M1.27943 32.748C1.98867 32.748 2.55882 33.3179 2.55882 34.0268C2.55882 34.7357 1.98867 35.3057 1.27943 35.3057C0.570192 35.3057 0 34.7357 0 34.0268C0 33.3179 0.570192 32.748 1.27943 32.748Z" fill="#2B3149"/>
<path d="M1.27943 24.5615C1.98867 24.5615 2.55882 25.1314 2.55882 25.8403C2.55882 26.5492 1.98867 27.1191 1.27943 27.1191C0.570192 27.1191 0 26.5492 0 25.8403C0 25.1453 0.570192 24.5615 1.27943 24.5615Z" fill="#2B3149"/>
<path d="M1.27943 16.374C1.98867 16.374 2.55882 16.9439 2.55882 17.6528C2.55882 18.3617 1.98867 18.9316 1.27943 18.9316C0.570192 18.9316 0 18.3617 0 17.6528C0 16.9439 0.570192 16.374 1.27943 16.374Z" fill="#2B3149"/>
<path d="M1.27943 8.1875C1.98867 8.1875 2.55882 8.7574 2.55882 9.4663C2.55882 10.1752 1.98867 10.7451 1.27943 10.7451C0.570192 10.7451 0 10.1752 0 9.4663C0 8.7574 0.570192 8.1875 1.27943 8.1875Z" fill="#2B3149"/>
<path d="M1.27943 0C1.98867 0 2.55882 0.569898 2.55882 1.2788C2.55882 1.9877 1.98867 2.5576 1.27943 2.5576C0.570192 2.5576 0 1.9877 0 1.2788C0 0.583798 0.570192 0 1.27943 0Z" fill="#2B3149"/>
</svg>
