<svg width="139" height="46" viewBox="0 0 139 46" fill="none" xmlns="http://www.w3.org/2000/svg">
<path fill-rule="evenodd" clip-rule="evenodd" d="M2.59232 14.2762C1.16048 14.2762 0 15.434 0 16.8626C0 18.2911 1.16048 19.4489 2.59232 19.4489C2.98412 19.4489 3.35585 19.3623 3.68872 19.2066L15.8565 26.2149V35.593L18.8024 37.2903L18.803 24.5176L5.1782 16.6694C5.07911 15.3313 3.9594 14.2762 2.59232 14.2762ZM39.0087 12.2068C39.725 10.9695 39.3002 9.38784 38.06 8.6739C36.8199 7.95931 35.2346 8.38315 34.5183 9.62043C34.3227 9.95898 34.212 10.3234 34.1802 10.6891L22.0125 17.698L13.8715 13.0092L10.9256 14.7059L22.0125 21.0926L35.6373 13.2444C36.849 13.8272 38.3249 13.3878 39.0087 12.2068ZM29.3362 4.57116L25.8262 2.54951L21.3986 0L19.5205 1.08222L19.5192 1.08157L12.5006 5.12551L3.3973 10.3686L6.34321 12.0659L9.90307 10.0158L13.8657 7.73382L14.0704 7.8514L19.3463 10.8881C19.4143 11.7047 19.869 12.4755 20.6338 12.9162C21.8739 13.6301 23.4592 13.2063 24.1748 11.969C24.8911 10.7317 24.4663 9.15007 23.2261 8.43613C22.4607 7.99484 21.5637 7.98773 20.8203 8.33792L16.8175 6.03199L21.3992 3.39267L29.5396 8.08271L32.4861 6.38541L29.3362 4.57116ZM22.5986 44.7063C23.3142 45.9435 24.9002 46.3674 26.1403 45.6528C27.3798 44.9382 27.8046 43.3566 27.089 42.1193C26.8928 41.7807 26.6318 41.5029 26.3307 41.2929V27.2751L34.4717 22.5857V19.1924L23.3841 25.5778V41.2742C22.2709 42.0301 21.9147 43.5245 22.5986 44.7063ZM34.0624 40.1668L37.5724 38.1451L41.9994 35.595L41.9987 33.4312L42 33.4305L41.9994 25.3439V14.8564L39.0534 16.5537V20.6545L39.0528 25.2192L38.8488 25.3368L33.5747 28.3767C32.8319 28.0272 31.9357 28.0343 31.1702 28.4749C29.9301 29.1895 29.5052 30.7712 30.2215 32.0084C30.9377 33.2457 32.5231 33.6696 33.7626 32.955C34.528 32.5144 34.9826 31.7429 35.05 30.9256L39.0528 28.6197L39.0534 33.8976L30.9118 38.5864V41.9804L34.0624 40.1668ZM0.800423 26.4507V30.494L0.801087 35.5943L2.67976 36.6759V36.6772L9.69909 40.7198L18.8024 45.9636V42.5696L15.2425 40.5189L11.2805 38.2362V38.001L11.2786 31.9238C11.9534 31.4573 12.3957 30.6788 12.3957 29.7969C12.3957 28.3683 11.2352 27.2105 9.80334 27.2105C8.3715 27.2105 7.21102 28.3683 7.21102 29.7969C7.21102 30.6788 7.65331 31.4573 8.32876 31.9245V36.5357L3.747 33.897L3.74766 24.5182L0.80172 22.8209L0.800423 26.4507Z" fill="#683BF2"/>
<path d="M55.2784 14.3821V9.81818H76.7812V14.3821H68.7656V36H63.294V14.3821H55.2784ZM86.3214 36.3835C84.3015 36.3835 82.5629 35.9744 81.1055 35.1562C79.6566 34.3295 78.5401 33.1619 77.756 31.6534C76.9719 30.1364 76.5799 28.3423 76.5799 26.2713C76.5799 24.2514 76.9719 22.4787 77.756 20.9531C78.5401 19.4276 79.6438 18.2386 81.0671 17.3864C82.4989 16.5341 84.1779 16.108 86.104 16.108C87.3995 16.108 88.6055 16.3168 89.7219 16.7344C90.8469 17.1435 91.8271 17.7614 92.6623 18.5881C93.506 19.4148 94.1623 20.4545 94.631 21.7074C95.0998 22.9517 95.3342 24.4091 95.3342 26.0795V27.5753H78.7532V24.2003H90.2077C90.2077 23.4162 90.0373 22.7216 89.6964 22.1165C89.3555 21.5114 88.8825 21.0384 88.2773 20.6974C87.6808 20.348 86.9862 20.1733 86.1935 20.1733C85.3668 20.1733 84.6339 20.3651 83.9947 20.7486C83.364 21.1236 82.8697 21.6307 82.5117 22.2699C82.1538 22.9006 81.9705 23.6037 81.962 24.3793V27.5881C81.962 28.5597 82.141 29.3991 82.4989 30.1065C82.8654 30.8139 83.381 31.3594 84.0458 31.7429C84.7106 32.1264 85.4989 32.3182 86.4109 32.3182C87.016 32.3182 87.57 32.233 88.0728 32.0625C88.5756 31.892 89.006 31.6364 89.364 31.2955C89.7219 30.9545 89.9947 30.5369 90.1822 30.0426L95.2191 30.375C94.9634 31.5852 94.4393 32.642 93.6467 33.5455C92.8626 34.4403 91.8484 35.1392 90.604 35.642C89.3683 36.1364 87.9407 36.3835 86.3214 36.3835ZM103.823 30.3494L103.836 23.8168H104.628L110.918 16.3636H117.169L108.719 26.233H107.428L103.823 30.3494ZM98.8881 36V9.81818H104.334V36H98.8881ZM111.161 36L105.382 27.4474L109.013 23.5994L117.54 36H111.161ZM119.739 36V32.7528L129.353 20.8509V20.7102H120.071V16.3636H135.911V19.9048L126.885 31.5128V31.6534H136.243V36H119.739Z" fill="white"/>
</svg>
